<?xml version="1.0" encoding="UTF-8"?>
<svg version="1.1" xmlns="http://www.w3.org/2000/svg" width="512" height="512">
<path d="M0 0 C4.13762476 3.59275236 5.94976555 6.87441387 8 12 C8 20.91 8 29.82 8 39 C64.1 39 120.2 39 178 39 C178 30.09 178 21.18 178 12 C181.81266147 4.37467706 184.18957635 0.44250296 191.875 -2.8125 C198.83970564 -5.11204228 204.38086579 -4.49726116 210.88671875 -1.33984375 C215.50819711 1.59022478 218.9373648 5.95000744 221 11 C221.22705078 14.02441406 221.22705078 14.02441406 221.1953125 17.515625 C221.18886719 18.76601562 221.18242187 20.01640625 221.17578125 21.3046875 C221.15902344 22.60664062 221.14226562 23.90859375 221.125 25.25 C221.11597656 26.56742188 221.10695313 27.88484375 221.09765625 29.2421875 C221.07408533 32.49497462 221.04118022 35.74739589 221 39 C222.29079468 38.9685791 222.29079468 38.9685791 223.60766602 38.93652344 C248.47906133 38.41028568 268.4725329 39.38173637 288 57 C299.4625098 68.06884785 306.46617482 83.44294672 307.09411097 99.39004719 C307.13459878 102.24706301 307.14287697 105.10254899 307.14044189 107.95985413 C307.14489858 109.60172208 307.14489858 109.60172208 307.1494453 111.27675909 C307.15810787 114.93980356 307.15963849 118.60281525 307.16113281 122.26586914 C307.16576274 124.89439971 307.17078764 127.52292962 307.17617798 130.15145874 C307.18973086 137.29018463 307.1957814 144.42890488 307.20018864 151.5676415 C307.2029565 156.03041594 307.20719486 160.49318824 307.21169281 164.95596123 C307.22388204 177.32706726 307.23418168 189.69817158 307.2375679 202.06928349 C307.23778747 202.8603032 307.23800703 203.65132291 307.23823325 204.46631291 C307.23845153 205.25916079 307.23866981 206.05200867 307.2388947 206.86888224 C307.23933816 208.4753323 307.23978472 210.08178236 307.24023438 211.68823242 C307.2404558 212.48507694 307.24067723 213.28192146 307.24090537 214.10291278 C307.24485014 227.00345605 307.2622959 239.90394274 307.2855939 252.80446417 C307.30935439 266.06884118 307.3217719 279.33318985 307.32293582 292.59758848 C307.32385 300.0371013 307.32953718 307.47654038 307.34775543 314.91603279 C307.36322005 321.25313125 307.36823966 327.59013318 307.36001733 333.92724694 C307.35613302 337.15536278 307.35859111 340.3832457 307.37107468 343.61134529 C307.48491618 374.89660697 307.48491618 374.89660697 300.3125 388.25 C299.96219727 388.919104 299.61189453 389.58820801 299.25097656 390.27758789 C291.14659389 405.30914994 278.97880064 415.03160862 263 421 C253.83162565 423.54673663 245.04775979 424.43548128 235.56591797 424.38095093 C233.65168942 424.38797089 233.65168942 424.38797089 231.6987896 424.39513266 C228.20007514 424.40751966 224.70160988 424.40152932 221.20289516 424.39217401 C217.41277415 424.38533269 213.62269335 424.39588969 209.83258057 424.40411377 C202.42490835 424.41739955 195.01732773 424.41459648 187.60965204 424.40587585 C181.58511769 424.3990793 175.56060887 424.39819107 169.53607178 424.4014473 C168.67609805 424.401907 167.81612432 424.40236669 166.93009079 424.40284032 C165.18264849 424.40379957 163.43520621 424.40477222 161.68776393 424.4057581 C145.33173577 424.41429689 128.9757582 424.40450163 112.61973834 424.388357 C98.60909712 424.37495519 84.5985305 424.37728371 70.58789062 424.39111328 C54.28729336 424.40719586 37.98674034 424.41347306 21.68613625 424.40427649 C19.94540024 424.40332092 18.20466424 424.40237781 16.46392822 424.4014473 C15.60762562 424.40098447 14.75132301 424.40052164 13.86907184 424.40004479 C7.85718204 424.39746293 1.84532048 424.4018085 -4.16656494 424.40888596 C-11.50079245 424.41733098 -18.83492374 424.41495807 -26.16914034 424.39904372 C-29.90561749 424.39120117 -33.64193465 424.38800011 -37.37841034 424.39799118 C-41.44104999 424.40868948 -45.50329151 424.3958496 -49.56591797 424.38095093 C-50.72956438 424.38764309 -51.89321079 424.39433526 -53.09211922 424.40123022 C-64.23984668 424.32238156 -75.3387305 422.63607203 -85.25 417.3125 C-85.919104 416.96219727 -86.58820801 416.61189453 -87.27758789 416.25097656 C-103.15072109 407.69285431 -113.37783383 394.36037094 -118.89839268 377.20882988 C-121.94020867 364.92370665 -121.42868649 352.45388112 -121.40405273 339.87939453 C-121.40976234 337.24321368 -121.41662963 334.60705815 -121.42485046 331.97088623 C-121.44195587 325.5812318 -121.44289577 319.19167607 -121.43763756 312.80200471 C-121.43357917 307.60319074 -121.43505912 302.40440571 -121.44038582 297.20559311 C-121.44113424 296.462762 -121.44188266 295.71993089 -121.44265376 294.95458975 C-121.4441854 293.44503292 -121.44572375 291.9354761 -121.44726873 290.42591928 C-121.46096387 276.30264424 -121.45557714 262.17942476 -121.44408352 248.05615102 C-121.43415407 235.16707458 -121.44709212 222.27814175 -121.47101771 209.38908745 C-121.49546527 196.11768645 -121.50500274 182.84635217 -121.49836498 169.57492912 C-121.49488532 162.13879905 -121.49702148 154.70277932 -121.51461601 147.26666641 C-121.52940901 140.93671166 -121.52988157 134.60694499 -121.5125451 128.27699365 C-121.50409055 125.05460465 -121.50395572 121.83261595 -121.51719666 118.61023331 C-121.61091213 93.90432358 -118.35631442 74.67960404 -101.05078125 55.8828125 C-96.58929686 51.51480683 -91.70223698 48.51674302 -86.1875 45.6875 C-85.56037109 45.36185059 -84.93324219 45.03620117 -84.28710938 44.70068359 C-73.09009454 39.25784751 -61.95709559 38.58686315 -49.75 38.8125 C-48.31121211 38.82759218 -46.8724087 38.84127248 -45.43359375 38.85351562 C-41.95539915 38.88612082 -38.47780375 38.93764511 -35 39 C-35.03927612 37.79053711 -35.03927612 37.79053711 -35.0793457 36.55664062 C-35.18386261 32.87129528 -35.24850239 29.18626262 -35.3125 25.5 C-35.35439453 24.2315625 -35.39628906 22.963125 -35.43945312 21.65625 C-35.55218787 12.99822194 -34.56616851 7.77308991 -28.55615234 1.49072266 C-20.06188656 -6.27601856 -9.44661561 -5.40257949 0 0 Z " fill="#E0DFDF" transform="translate(163,46)"/>
<path d="M0 0 C4.24258329 3.55831593 8.07271482 7.48968606 11.9375 11.44921875 C13.06839885 12.58945554 14.20041601 13.72858417 15.33349609 14.86665344 C18.29722496 17.8493747 21.24562249 20.84680621 24.190979 23.84765625 C27.20536644 26.91340391 30.23414987 29.964857 33.26171875 33.01757812 C39.18858569 38.99789566 45.0993175 44.99384567 51 51 C54.71710442 49.45125102 57.0265641 47.18638 59.82519531 44.32250977 C60.29085403 43.84911163 60.75651276 43.3757135 61.23628235 42.88796997 C62.24400572 41.86263512 63.24950073 40.83510642 64.25299835 39.80563545 C65.8459206 38.17316887 67.44635977 36.54843758 69.04925537 34.92576599 C73.60478377 30.31232218 78.15059714 25.68948925 82.68115234 21.05151367 C85.45653994 18.21141483 88.24421215 15.38386614 91.03981781 12.56367302 C92.09859911 11.49069825 93.15269788 10.41308062 94.20182037 9.33065987 C100.82102849 2.50438087 106.09289925 -2.70527719 116 -3.375 C121.42082621 -3.09918497 125.942933 -1.90349422 129.98828125 1.83984375 C134.73812005 7.12072042 137.29227384 10.94305014 137.5 18.1875 C137.5515625 19.25355469 137.603125 20.31960937 137.65625 21.41796875 C135.83171932 31.3768654 126.84304056 38.55736306 119.9140625 45.37890625 C118.84580739 46.44155323 117.77822222 47.50487406 116.71127319 48.5688324 C113.92648023 51.34227236 111.13279332 54.10657623 108.33703613 56.86895752 C105.47568166 59.69940324 102.62299727 62.53855889 99.76953125 65.37695312 C94.18804889 70.92644019 88.59712274 76.46628812 83 82 C87.64635071 87.63391099 92.67356388 92.76977268 97.87650108 97.89053535 C99.35543313 99.34714959 100.83011502 100.80794679 102.30366516 102.27000427 C106.48859855 106.42160907 110.67781041 110.56882267 114.87719727 114.70581055 C117.45822884 117.24908182 120.03179494 119.79970869 122.6008091 122.35511589 C123.57520213 123.32149421 124.55235687 124.28509667 125.53238487 125.24575996 C126.90310738 126.58983863 128.26365054 127.94427433 129.6237793 129.29907227 C130.3984404 130.06405533 131.1731015 130.82903839 131.97123718 131.61720276 C136.83114043 137.3251958 137.65521482 142.44496739 137.48046875 149.734375 C136.51587324 156.29048757 133.02154325 160.35749611 128 164.4375 C122.5994764 167.25027271 118.12813514 168.7149491 112 168 C102.95821148 164.86666296 96.82193478 158.47849862 90.3046875 151.79296875 C89.22149198 150.70042696 88.13717176 149.60899922 87.05178833 148.51863098 C84.22285522 145.67077093 81.40927515 142.80821583 78.59881592 139.94213867 C75.71837327 137.01019216 72.82340274 134.09266534 69.9296875 131.17382812 C64.27228595 125.46309198 58.63105049 119.73672074 53 114 C49.33200178 115.53583935 47.05703715 117.73471173 44.29833984 120.56982422 C43.84564728 121.03186249 43.39295471 121.49390076 42.92654419 121.96994019 C41.94668181 122.97075309 40.96901894 123.97372321 39.99332809 124.97860336 C38.44224377 126.57391425 36.88319017 128.16101142 35.32144165 129.74588013 C30.88253784 134.25177329 26.45174303 138.76537533 22.04248047 143.30029297 C19.3407167 146.07787352 16.62409523 148.84018028 13.89775467 151.59363174 C12.8676086 152.63976514 11.8430165 153.69140082 10.82444382 154.748806 C3.84420049 161.99028676 -2.36136246 166.93307611 -12.5 168.5625 C-19.55758476 167.42824531 -25.21170946 164.55428848 -29.5625 158.8125 C-32.38387684 154.63238644 -33.22099603 151.98082405 -33.375 146.875 C-33.42398438 145.77929688 -33.47296875 144.68359375 -33.5234375 143.5546875 C-32.08862428 133.81080667 -23.4829132 127.08890823 -16.79296875 120.5 C-15.70086543 119.41350219 -14.60943016 118.3263325 -13.51863098 117.23852539 C-10.66641094 114.3976789 -7.80529436 111.56596396 -4.94213867 108.73614502 C-2.01387109 105.83874098 0.9057662 102.93266814 3.82617188 100.02734375 C9.54243657 94.34311079 15.26814256 88.66850903 21 83 C15.99400283 76.93712392 10.53065039 71.44964251 4.9296875 65.9375 C3.96091045 64.97823152 2.99258578 64.01850599 2.02468872 63.05834961 C-2.05362005 59.01334384 -6.13617814 54.97270302 -10.22900391 50.94238281 C-12.74523798 48.46398205 -15.25394332 45.9781658 -17.75811386 43.48757935 C-19.1640193 42.09352932 -20.57803499 40.70767366 -21.99221802 39.32202148 C-32.2907376 29.06480725 -32.2907376 29.06480725 -33.56640625 21.75390625 C-33.55618342 13.40185174 -32.31807765 8.51488012 -26.54296875 2.4765625 C-19.03808749 -4.37485944 -8.68449134 -4.98114612 0 0 Z " fill="#F34336" transform="translate(204,195)"/>
<path d="M0 0 C4.51695238 3.92212738 7.62173971 8.48710787 8.27415466 14.54606628 C8.28479446 15.44634048 8.29543427 16.34661469 8.30639648 17.27416992 C8.32238388 18.3026152 8.33837128 19.33106049 8.35484314 20.39067078 C8.36020584 21.49280411 8.36556854 22.59493744 8.37109375 23.73046875 C8.38463646 25.44886711 8.38463646 25.44886711 8.39845276 27.20198059 C8.41294854 29.62526846 8.42184032 32.04859542 8.42553711 34.47192383 C8.43740211 38.15709492 8.48657165 41.84057424 8.53710938 45.52539062 C8.54657786 47.88540854 8.55381086 50.24543669 8.55859375 52.60546875 C8.57812607 53.69748093 8.59765839 54.7894931 8.61778259 55.91459656 C8.57473519 63.31051069 7.10491918 68.79152773 3 75 C0.6484375 77.25390625 0.6484375 77.25390625 -1.625 78.5625 C-2.38039062 79.01753906 -3.13578125 79.47257812 -3.9140625 79.94140625 C-9.33434897 82.69215088 -15.38630421 83.05425923 -21.22265625 81.3515625 C-27.08826407 78.70695319 -31.42991964 74.52658607 -34.0534668 68.63378906 C-35.42058247 63.38536252 -35.34533869 58.28634402 -35.37109375 52.8828125 C-35.38012222 51.71168915 -35.3891507 50.5405658 -35.39845276 49.33395386 C-35.41293412 46.86117094 -35.42183672 44.38834989 -35.42553711 41.91552734 C-35.43743736 38.14484797 -35.48665118 34.37580333 -35.53710938 30.60546875 C-35.54657386 28.19792462 -35.55380877 25.79037048 -35.55859375 23.3828125 C-35.57812607 22.26174103 -35.59765839 21.14066956 -35.61778259 19.98562622 C-35.57279465 12.13088807 -33.98902634 7.19543603 -28.55711365 1.48245239 C-20.03608845 -6.25659512 -9.46118556 -5.41091214 0 0 Z " fill="#607D8B" transform="translate(163,46)"/>
<path d="M0 0 C4.66292945 2.95634899 7.96396266 7.28835774 10.11328125 12.33984375 C10.38070679 14.81034851 10.38070679 14.81034851 10.40380859 17.6081543 C10.4165683 18.65992355 10.429328 19.71169281 10.44247437 20.79533386 C10.44470001 21.92763931 10.44692566 23.05994476 10.44921875 24.2265625 C10.45587555 25.39814407 10.46253235 26.56972565 10.46939087 27.77680969 C10.47951737 30.25735912 10.48420789 32.73793579 10.48388672 35.21850586 C10.48824479 38.99574348 10.52452503 42.77179839 10.5625 46.54882812 C10.56837128 48.9622356 10.57233859 51.37564861 10.57421875 53.7890625 C10.58858978 54.9112468 10.60296082 56.03343109 10.61776733 57.18962097 C10.57415579 64.75579615 9.66589179 71.43816595 4.40487671 77.21611023 C-1.05399944 82.32987697 -6.82071144 83.94169285 -14.22265625 83.78515625 C-20.51246817 82.73378006 -25.42483981 79.13064545 -29.38671875 74.27734375 C-31.7099585 69.7276659 -33.13393222 66.18316525 -33.17724609 61.03393555 C-33.1900058 59.99903488 -33.2027655 58.96413422 -33.21591187 57.89787292 C-33.21813751 56.78946548 -33.22036316 55.68105804 -33.22265625 54.5390625 C-33.22931305 53.38872025 -33.23596985 52.23837799 -33.24282837 51.05317688 C-33.25294406 48.62148637 -33.25764572 46.18976817 -33.25732422 43.75805664 C-33.26169074 40.05112564 -33.29800575 36.34539183 -33.3359375 32.63867188 C-33.34180728 30.27213947 -33.34577559 27.90560143 -33.34765625 25.5390625 C-33.36202728 24.43672775 -33.37639832 23.33439301 -33.39120483 22.19865417 C-33.34280012 13.98320191 -31.94346201 8.46605845 -26.13671875 2.52734375 C-17.61977045 -3.20521761 -9.39712202 -4.56060671 0 0 Z " fill="#607D8B" transform="translate(373.88671875,44.66015625)"/>
</svg>
