<?xml version="1.0" encoding="UTF-8"?>
<svg version="1.1" xmlns="http://www.w3.org/2000/svg" width="512" height="512">
<path d="M0 0 C0.87542953 -0.00705963 1.75085907 -0.01411926 2.65281677 -0.02139282 C39.72999709 -0.25240585 39.72999709 -0.25240585 57.4609375 3.203125 C58.48815918 3.40180176 59.51538086 3.60047852 60.57373047 3.80517578 C81.54594961 8.00087675 102.05391533 13.98340743 121.22021484 23.58520508 C121.98543457 23.95669678 122.7506543 24.32818848 123.5390625 24.7109375 C124.53534668 25.21584717 124.53534668 25.21584717 125.55175781 25.73095703 C127.51873208 26.40805138 127.51873208 26.40805138 129.57348633 25.4140625 C131.9655189 23.87939925 133.85635958 22.05477377 135.8984375 20.078125 C154.44229439 3.16569247 175.284686 -0.87422132 199.52832031 0.01660156 C214.92850966 0.99610079 231.1061721 8.83016262 242.4609375 19.203125 C243.29109375 19.95335938 244.12125 20.70359375 244.9765625 21.4765625 C260.08328581 35.81438073 268.30650892 54.53195222 268.86352539 75.22045898 C269.11109397 98.58712368 262.46893553 118.52798992 246.04394531 135.68310547 C244.86151796 136.8684452 243.66286092 138.03755869 242.4609375 139.203125 C243.77223359 143.4032663 245.36686659 147.39153349 247.12548828 151.41625977 C267.29967179 197.74947407 275.15059565 251.24413285 265.4609375 301.203125 C265.29996582 302.10160156 265.13899414 303.00007813 264.97314453 303.92578125 C256.04609876 353.2517825 232.16940872 398.27144774 197.4609375 434.203125 C196.86200684 434.82396973 196.26307617 435.44481445 195.64599609 436.08447266 C187.98217247 443.98562759 180.24095356 451.53079455 171.4609375 458.203125 C170.92065918 458.61981445 170.38038086 459.03650391 169.82373047 459.46582031 C159.82917175 467.14876957 149.3789185 473.90890434 138.4609375 480.203125 C137.72423828 480.62980469 136.98753906 481.05648438 136.22851562 481.49609375 C112.90829917 494.82779181 87.41364948 503.00259033 61.2109375 508.453125 C60.49244629 508.60442871 59.77395508 508.75573242 59.03369141 508.91162109 C43.70466047 511.90438359 28.34741805 512.58001893 12.7734375 512.515625 C11.85339935 512.51380219 10.93336121 512.51197937 9.98544312 512.51010132 C-4.05585685 512.46336549 -17.72253402 511.89040046 -31.5390625 509.203125 C-32.46557617 509.03151855 -33.39208984 508.85991211 -34.34667969 508.68310547 C-56.68902271 504.47841629 -77.43439913 497.21434114 -98.23095703 488.12353516 C-100.34357359 487.2810807 -102.29655812 486.5829509 -104.5390625 486.203125 C-106.11062475 487.31672516 -106.11062475 487.31672516 -107.4765625 489.078125 C-120.5547322 503.07847333 -139.59127404 511.64557221 -158.59375 512.5859375 C-180.43290474 513.19744705 -201.02358739 508.29057031 -217.5390625 493.203125 C-218.36921875 492.45289063 -219.199375 491.70265625 -220.0546875 490.9296875 C-228.98501259 482.45389992 -235.14230234 472.68018515 -239.5390625 461.203125 C-239.93351563 460.17574219 -240.32796875 459.14835937 -240.734375 458.08984375 C-247.48667472 437.24270861 -244.67948776 414.38094499 -234.96606445 395.0690918 C-230.49882926 386.78739143 -224.25868041 379.74414841 -217.5390625 373.203125 C-218.81531117 369.23846014 -220.24492776 365.41337377 -221.89453125 361.58984375 C-236.32201449 327.59737305 -243.99958078 293.0121319 -243.8515625 256.078125 C-243.84973969 255.13191284 -243.84791687 254.18570068 -243.84603882 253.21081543 C-243.80000021 239.00213135 -243.25089961 225.18510938 -240.5390625 211.203125 C-240.37809082 210.30464844 -240.21711914 209.40617188 -240.05126953 208.48046875 C-235.8170873 185.08467989 -228.08076111 162.49668748 -217.5390625 141.203125 C-217.2002002 140.51831055 -216.86133789 139.83349609 -216.51220703 139.12792969 C-208.78282747 123.7144378 -199.14783313 109.76448699 -188.5390625 96.203125 C-187.91040283 95.39439941 -187.91040283 95.39439941 -187.26904297 94.56933594 C-174.50014156 78.32177726 -159.30315828 63.2846257 -142.5390625 51.203125 C-141.45068889 50.38692667 -140.36346106 49.5691984 -139.27734375 48.75 C-99.875075 19.39744556 -49.45877171 0.26780018 0 0 Z " fill="#020101" transform="translate(243.5390625,-0.203125)"/>
<path d="M0 0 C3.65032165 2.74244526 6.84865407 5.70320733 10 9 C10.81984375 9.7734375 10.81984375 9.7734375 11.65625 10.5625 C22.72247953 21.86418122 27.47694074 38.96688194 27.35644531 54.29833984 C27.16682851 60.83462334 26.11079853 66.7949802 24 73 C23.58234375 74.28777344 23.58234375 74.28777344 23.15625 75.6015625 C16.690912 93.60418469 -0.04436814 107.19493513 -13.26196289 120.40722656 C-14.76790745 121.91616992 -16.27364913 123.42531576 -17.77920532 124.93464661 C-21.83193444 128.99613552 -25.88783088 133.05444654 -29.94462132 137.1118784 C-32.48018063 139.6481515 -35.01502537 142.18513652 -37.54961967 144.72237396 C-46.39343697 153.57541012 -55.23980026 162.4258928 -64.08862305 171.27392578 C-72.3396084 179.52430764 -80.58496901 187.78028186 -88.82778174 196.03882813 C-95.91401812 203.13810884 -103.00407264 210.23356075 -110.09715456 217.32600188 C-114.33036011 221.55895201 -118.56198498 225.79345383 -122.78978157 230.03180695 C-126.75399209 234.00564887 -130.72290819 237.97472812 -134.69559097 241.94009972 C-136.15587737 243.39933485 -137.61443984 244.8602974 -139.07119179 246.32306099 C-141.05124767 248.31076194 -143.03728532 250.29228011 -145.02503967 252.27227783 C-145.60702576 252.85940748 -146.18901185 253.44653714 -146.78863388 254.0514586 C-150.77172618 258 -150.77172618 258 -153 258 C-151.8758824 259.29243468 -150.75067408 260.58392075 -149.625 261.875 C-148.99851562 262.59429687 -148.37203125 263.31359375 -147.7265625 264.0546875 C-146.52573166 265.4076598 -145.2791655 266.7208345 -144 268 C-140.26271155 267.7203751 -138.44119917 265.81204158 -135.87445068 263.23521423 C-135.06119324 262.42608078 -134.24793579 261.61694733 -133.41003418 260.78329468 C-132.52674438 259.88921906 -131.64345459 258.99514343 -130.73339844 258.07397461 C-129.78765212 257.12738199 -128.84124454 256.18144965 -127.89422607 255.23612976 C-125.32580046 252.66856538 -122.76673373 250.09185202 -120.20923138 247.51341319 C-117.5346845 244.82012097 -114.85164769 242.13531395 -112.16949463 239.44960022 C-107.09202673 234.36280557 -102.022255 229.26841148 -96.95519471 224.17125183 C-91.18604241 218.36857517 -85.40837599 212.57440803 -79.62997389 206.78094471 C-67.74380745 194.86341497 -55.86839441 182.93522914 -44 171 C-42 172 -42 172 -41.0703125 174.203125 C-27.03132184 219.45276431 -30.05552647 269.52414169 -52.12036133 311.78125 C-53.06465916 313.52934054 -54.03189511 315.26498073 -55 317 C-55.58523438 318.07121094 -56.17046875 319.14242188 -56.7734375 320.24609375 C-60.69478005 327.21046909 -65.13542928 333.66410354 -70 340 C-70.63035156 340.83660156 -71.26070313 341.67320312 -71.91015625 342.53515625 C-94.86781272 371.86256711 -125.15043388 391.00641708 -160 403 C-160.7513623 403.26723877 -161.50272461 403.53447754 -162.27685547 403.80981445 C-167.23076336 405.53469348 -172.07485698 406.72954841 -177.25 407.5625 C-177.91128906 407.67529297 -178.57257813 407.78808594 -179.25390625 407.90429688 C-180.68056416 408.14475993 -182.10857092 408.37731157 -183.53759766 408.60327148 C-185.33188334 408.89235677 -187.1228984 409.20196353 -188.91162109 409.52368164 C-197.35192801 410.97001925 -205.56967272 411.34869275 -214.125 411.3125 C-214.80153625 411.31100952 -215.47807251 411.30951904 -216.17510986 411.3079834 C-227.37222407 411.26381592 -238.06501948 410.4055959 -249 408 C-249.76538086 407.83951172 -250.53076172 407.67902344 -251.31933594 407.51367188 C-258.8464625 405.92540769 -265.97410178 404.20351836 -273 401 C-268.27840222 395.31275605 -263.21028789 390.10361106 -257.94946289 384.9152832 C-257.05940552 384.03311127 -256.16934814 383.15093933 -255.25231934 382.24203491 C-253.32994025 380.33678673 -251.40671018 378.43243882 -249.48222542 376.52932167 C-246.44045588 373.52035801 -243.40480069 370.50527632 -240.37046814 367.48881531 C-239.32893866 366.45354539 -238.28740901 365.41827565 -237.24587917 364.3830061 C-236.4641908 363.60599191 -236.4641908 363.60599191 -235.66671073 362.81328046 C-228.61035738 355.7998732 -221.54942516 348.79117012 -214.47436523 341.79663086 C-209.68827499 337.06491618 -204.9110466 332.32445092 -200.14388841 327.57366055 C-197.62376242 325.06292083 -195.09921878 322.55700178 -192.56370735 320.06179237 C-189.74396529 317.28675673 -186.94365417 314.49261831 -184.14477539 311.6965332 C-183.29968918 310.87099442 -182.45460297 310.04545563 -181.58390808 309.19490051 C-180.82826569 308.43382996 -180.07262329 307.6727594 -179.29408264 306.8886261 C-178.62988847 306.23033971 -177.96569429 305.57205332 -177.28137302 304.89381886 C-175.76554442 303.08487302 -175.76554442 303.08487302 -176.19670773 300.87488079 C-177.21975946 298.48708234 -178.56598941 297.1061931 -180.4375 295.3125 C-181.05496094 294.71050781 -181.67242187 294.10851562 -182.30859375 293.48828125 C-183.94393553 291.92173893 -183.94393553 291.92173893 -186 291 C-186.2743428 291.59909424 -186.54868559 292.19818847 -186.8313418 292.81543708 C-187.95561132 294.91702461 -189.02623423 296.27766644 -190.69853115 297.95300674 C-191.24958946 298.50989724 -191.80064776 299.06678774 -192.36840481 299.64055371 C-192.97373658 300.24210617 -193.57906836 300.84365862 -194.20274353 301.46343994 C-194.84597598 302.11049794 -195.48920843 302.75755594 -196.15193278 303.42422175 C-198.31260155 305.59522433 -200.48036943 307.75899534 -202.64819336 309.92285156 C-204.19753187 311.47653656 -205.74645162 313.03063925 -207.29498291 314.58512878 C-211.50761582 318.81117578 -215.72665768 323.03076909 -219.94726634 327.24884892 C-223.47249585 330.77300944 -226.99474571 334.30014054 -230.51704317 337.82723117 C-239.30874257 346.63067136 -248.10674002 355.4277936 -256.90752137 364.22215256 C-264.5340061 371.84347867 -272.15227142 379.47296009 -279.76665013 387.10637954 C-287.5954126 394.9545674 -295.42991714 402.79698147 -303.27012736 410.63373351 C-307.66743603 415.02923295 -312.06251284 419.42690568 -316.45194817 423.83026886 C-320.58613027 427.97707592 -324.72757865 432.11648932 -328.87457275 436.25048256 C-330.38998579 437.7635397 -331.90288086 439.27912388 -333.41296577 440.7974987 C-350.01824148 457.48729088 -366.9021422 471.09952015 -391.5 471.3125 C-408.52416099 471.32809148 -423.59126934 464.99741089 -435.86328125 453.16015625 C-436.56839844 452.44730469 -437.27351563 451.73445313 -438 451 C-438.55042969 450.48308594 -439.10085938 449.96617187 -439.66796875 449.43359375 C-450.64067916 438.1667088 -455.52845823 420.83771567 -455.42236328 405.57202148 C-454.5443313 379.8422411 -438.74403179 363.43474485 -421.49005127 346.22262573 C-420.02270186 344.75153423 -418.55578377 343.28001241 -417.089257 341.80810082 C-413.08020912 337.78687716 -409.06499436 333.77186221 -405.04867268 329.75790524 C-400.70960286 325.41924496 -396.37627104 321.07485985 -392.04214478 316.73126221 C-383.55905545 308.23159297 -375.0704621 299.73744542 -366.57962516 291.24551784 C-359.67681306 284.34178488 -352.77560571 277.43645165 -345.87551117 270.53000259 C-343.88574205 268.53843827 -341.89596513 266.54688172 -339.90618587 264.55532753 C-339.4114588 264.06015838 -338.91673174 263.56498922 -338.40701295 263.05481493 C-324.50242818 249.13793189 -310.59564698 235.22324684 -296.68446732 221.31295586 C-296.16059105 220.78911074 -295.63671478 220.26526563 -295.09696347 219.72554643 C-292.44202468 217.07077384 -289.78706995 214.41601719 -287.1321117 211.76126407 C-286.6048718 211.23406406 -286.0776319 210.70686406 -285.53441504 210.16368829 C-284.46820968 209.09756381 -283.40200297 208.03144069 -282.33579489 206.96531893 C-265.74502997 190.37577969 -249.16240868 173.7781377 -232.5859375 157.17431641 C-213.94260098 138.50023192 -195.2924954 119.83294334 -176.63284945 101.17515481 C-174.64179375 99.18424835 -172.65076396 97.19331598 -170.65975189 95.20236588 C-169.92444204 94.46709099 -169.92444204 94.46709099 -169.17427744 93.71696206 C-161.30127443 85.84402048 -153.43469325 77.96469269 -145.57035124 70.08310069 C-137.66224124 62.15800417 -129.74645266 54.24063751 -121.82345346 46.33042155 C-117.53529711 42.04878885 -113.25039469 37.76403082 -108.97419357 33.47045517 C-105.05464397 29.53514452 -101.12586622 25.60929225 -97.18973693 21.69056679 C-95.77243588 20.27632882 -94.35845729 18.85875106 -92.94829002 17.43739973 C-66.43327773 -9.2738153 -34.2274114 -21.24554792 0 0 Z " fill="#FB6846" transform="translate(470,26)"/>
<path d="M0 0 C2 1 2 1 2.9296875 3.203125 C16.96867816 48.45276431 13.94447353 98.52414169 -8.12036133 140.78125 C-9.06465916 142.52934054 -10.03189511 144.26498073 -11 146 C-11.58523438 147.07121094 -12.17046875 148.14242187 -12.7734375 149.24609375 C-16.69478005 156.21046909 -21.13542928 162.66410354 -26 169 C-26.63035156 169.83660156 -27.26070312 170.67320312 -27.91015625 171.53515625 C-50.86781272 200.86256711 -81.15043388 220.00641708 -116 232 C-116.7513623 232.26723877 -117.50272461 232.53447754 -118.27685547 232.80981445 C-123.23076336 234.53469348 -128.07485698 235.72954841 -133.25 236.5625 C-134.24193359 236.73168945 -134.24193359 236.73168945 -135.25390625 236.90429688 C-136.68056416 237.14475993 -138.10857092 237.37731157 -139.53759766 237.60327148 C-141.33188334 237.89235677 -143.1228984 238.20196353 -144.91162109 238.52368164 C-153.35192801 239.97001925 -161.56967272 240.34869275 -170.125 240.3125 C-170.80153625 240.31100952 -171.47807251 240.30951904 -172.17510986 240.3079834 C-183.37222407 240.26381592 -194.06501948 239.4055959 -205 237 C-205.76538086 236.83951172 -206.53076172 236.67902344 -207.31933594 236.51367188 C-214.8464625 234.92540769 -221.97410178 233.20351836 -229 230 C-224.27840222 224.31275605 -219.21028789 219.10361106 -213.94946289 213.9152832 C-212.61437683 212.5920253 -212.61437683 212.5920253 -211.25231934 211.24203491 C-209.32994025 209.33678673 -207.40671018 207.43243882 -205.48222542 205.52932167 C-202.44045588 202.52035801 -199.40480069 199.50527632 -196.37046814 196.48881531 C-195.32893866 195.45354539 -194.28740901 194.41827565 -193.24587917 193.3830061 C-192.4641908 192.60599191 -192.4641908 192.60599191 -191.66671073 191.81328046 C-184.61035738 184.7998732 -177.54942516 177.79117012 -170.47436523 170.79663086 C-165.68827499 166.06491618 -160.9110466 161.32445092 -156.14388841 156.57366055 C-153.62376242 154.06292083 -151.09921878 151.55700178 -148.56370735 149.06179237 C-145.74396529 146.28675673 -142.94365417 143.49261831 -140.14477539 140.6965332 C-139.29968918 139.87099442 -138.45460297 139.04545563 -137.58390808 138.19490051 C-136.82826569 137.43382996 -136.07262329 136.6727594 -135.29408264 135.8886261 C-134.62988847 135.23033971 -133.96569429 134.57205332 -133.28137302 133.89381886 C-131.78096304 132.10362799 -131.78096304 132.10362799 -132.16911983 130.00696087 C-133.01582709 127.96177023 -134.010079 125.979842 -135 124 C-132.03 121.03 -129.06 118.06 -126 115 C-122 117 -122 117 -119 119 C-116.03 116.03 -113.06 113.06 -110 110 C-111.32 108.35 -112.64 106.7 -114 105 C-112.59155282 101.78475695 -110.89655214 99.67816132 -108.375 97.25 C-107.74335938 96.63640625 -107.11171875 96.0228125 -106.4609375 95.390625 C-105.97882813 94.93171875 -105.49671875 94.4728125 -105 94 C-104.13375 94.4640625 -104.13375 94.4640625 -103.25 94.9375 C-100.23658903 96.37251473 -100.23658903 96.37251473 -97 97 C-94.86080885 95.60635357 -94.86080885 95.60635357 -92.83648682 93.4377594 C-91.60397942 92.21556198 -91.60397942 92.21556198 -90.34657288 90.96867371 C-89.45393234 90.05805679 -88.56129181 89.14743988 -87.64160156 88.20922852 C-86.68643256 87.25264965 -85.73016219 86.29716944 -84.77287292 85.3427124 C-82.17303419 82.74431164 -79.58892709 80.13075299 -77.00730228 77.51427197 C-74.30828967 74.78405936 -71.5951655 72.06794597 -68.88348389 69.35032654 C-63.74885035 64.20013585 -58.62709761 59.03732926 -53.50981212 53.86990732 C-47.68413699 47.98839696 -41.84430306 42.12103293 -36.00321627 36.25483429 C-23.98628142 24.18559891 -11.98731464 12.09865351 0 0 Z " fill="#FEFEFE" transform="translate(426,197)"/>
<path d="M0 0 C1.90338135 0.01015137 1.90338135 0.01015137 3.84521484 0.02050781 C13.26278641 0.12395795 22.40820919 0.58928667 31.6875 2.25 C32.47334473 2.38954102 33.25918945 2.52908203 34.06884766 2.67285156 C43.31015413 4.3641884 52.12428884 6.26750377 60.6875 10.25 C55.91158245 15.99552747 50.7902341 21.28564491 45.50003052 26.557724 C44.12639243 27.93264372 44.12639243 27.93264372 42.72500408 29.33533961 C40.1982471 31.86432099 37.66840238 34.39019324 35.13801956 36.91554606 C32.40417581 39.64505587 29.67323857 42.37747106 26.94194031 45.10952759 C22.21440304 49.83758823 17.48504391 54.56382007 12.75442886 59.28880119 C5.91482546 66.12026429 -0.92200238 72.95449962 -7.7581643 79.78940637 C-18.85049186 90.87954738 -29.94504896 101.96745517 -41.04101562 113.05395508 C-51.81725487 123.82100992 -62.59243931 134.58911856 -73.36621094 145.35864258 C-74.03073461 146.02290353 -74.69525828 146.68716448 -75.37991904 147.37155455 C-78.71376034 150.70409077 -82.04758095 154.03664769 -85.38139129 157.36921489 C-113.02188833 184.9993517 -140.66600695 212.62586282 -168.3125 240.25 C-174.06007578 234.50242422 -175.00712397 223.47284208 -176.5 215.75 C-176.66677246 214.89688232 -176.83354492 214.04376465 -177.00537109 213.16479492 C-184.55277368 172.32116871 -176.98088601 130.53547104 -157.3125 94.25 C-156.74789062 93.20457031 -156.18328125 92.15914063 -155.6015625 91.08203125 C-149.11929606 79.56307422 -141.40426586 68.84968574 -132.3125 59.25 C-133.6325 57.6 -134.9525 55.95 -136.3125 54.25 C-134.90405282 51.03475695 -133.20905214 48.92816132 -130.6875 46.5 C-130.05585938 45.88640625 -129.42421875 45.2728125 -128.7734375 44.640625 C-128.05027344 43.95226562 -128.05027344 43.95226562 -127.3125 43.25 C-124.81888429 44.45381448 -122.63106917 45.70428722 -120.3125 47.25 C-119.74144531 46.70472656 -119.17039063 46.15945312 -118.58203125 45.59765625 C-111.94462141 39.42454853 -104.92723582 34.1345794 -97.3125 29.25 C-96.37108154 28.64454346 -96.37108154 28.64454346 -95.41064453 28.02685547 C-74.94812187 15.0430728 -52.25295645 6.13476615 -28.3125 2.25 C-26.79088257 1.99404053 -26.79088257 1.99404053 -25.23852539 1.73291016 C-16.77741531 0.40208194 -8.5584369 -0.06669211 0 0 Z " fill="#FDFDFE" transform="translate(254.3125,74.75)"/>
<path d="M0 0 C0 3.53911263 -0.447314 3.847468 -2.79467773 6.30981445 C-3.40629257 6.95670731 -4.01790741 7.60360016 -4.64805603 8.27009583 C-5.31978348 8.96084702 -5.99151093 9.65159821 -6.68359375 10.36328125 C-7.37252213 11.07405319 -8.0614505 11.78482513 -8.77125549 12.51713562 C-10.23549415 14.01851731 -11.70438149 15.51537703 -13.17749023 17.00805664 C-15.42255883 19.29726507 -17.62748915 21.62094062 -19.83398438 23.94726562 C-21.26067663 25.40074223 -22.68964285 26.85199095 -24.12109375 28.30078125 C-25.1013578 29.35208977 -25.1013578 29.35208977 -26.10142517 30.42463684 C-30.73767175 34.99675507 -30.73767175 34.99675507 -34.35655212 35.00605774 C-36.67744229 34.50813745 -38.78372947 33.8437913 -41 33 C-42.29391213 32.60005563 -43.58923433 32.20460501 -44.88671875 31.81640625 C-46.15414804 31.39996285 -47.42106617 30.98196092 -48.6875 30.5625 C-94.52014191 15.9190542 -145.96541969 21.20761444 -189 42 C-189.75603516 42.36351563 -190.51207031 42.72703125 -191.29101562 43.1015625 C-206.98192877 50.76104249 -222.59671787 60.59671787 -235 73 C-234.61121812 76.01305957 -233.73543126 77.39685311 -232 80 C-235.3 83.3 -238.6 86.6 -242 90 C-243.32 89.01 -244.64 88.02 -246 87 C-248.02817752 86.8088302 -248.02817752 86.8088302 -250 88 C-251.85733855 89.83360259 -253.48325711 91.61352152 -255.125 93.625 C-255.60654541 94.20910645 -256.08809082 94.79321289 -256.58422852 95.39501953 C-274.13512054 117.0611543 -285.81903106 142.18127926 -293 169 C-293.23775146 169.81629883 -293.47550293 170.63259766 -293.72045898 171.47363281 C-303.60766312 205.99453778 -300.19747894 244.1947407 -289.71337891 278.14233398 C-289.11669879 280.08723255 -288.55729539 282.04345216 -288 284 C-287.66572998 284.90766113 -287.33145996 285.81532227 -286.98706055 286.75048828 C-287.00492563 291.23698338 -288.83269127 292.62823565 -291.91807556 295.71115112 C-293.00856956 296.74745163 -293.00856956 296.74745163 -294.12109375 297.8046875 C-294.85497818 298.5286673 -295.58886261 299.25264709 -296.34498596 299.99856567 C-298.69325062 302.3076393 -301.06466775 304.59120596 -303.4375 306.875 C-305.03348694 308.43588008 -306.62790894 309.99836202 -308.22070312 311.5625 C-312.12916507 315.39377397 -316.05691943 319.2043819 -320 323 C-322.80854193 321.59572903 -323.00897749 319.99463694 -324.171875 317.1015625 C-324.79316284 315.56145508 -324.79316284 315.56145508 -325.42700195 313.99023438 C-325.86359131 312.87970703 -326.30018066 311.76917969 -326.75 310.625 C-327.19883545 309.48611328 -327.6476709 308.34722656 -328.11010742 307.17382812 C-344.2193325 265.81065658 -349.87095668 220.93510181 -342 177 C-341.83902832 176.0826709 -341.67805664 175.1653418 -341.51220703 174.22021484 C-334.46580324 135.37361414 -318.07014408 98.55544525 -293 68 C-292.56284668 67.46133301 -292.12569336 66.92266602 -291.67529297 66.36767578 C-280.2258167 52.32478474 -267.4864034 38.93120708 -253 28 C-252.47325684 27.59152832 -251.94651367 27.18305664 -251.40380859 26.76220703 C-178.6903768 -29.57976748 -82.98746737 -36.51448564 0 0 Z " fill="#FD6946" transform="translate(360,38)"/>
<path d="M0 0 C2.64086923 2.50916315 3.88951945 4.62868767 5.26953125 8.0234375 C5.68058105 9.03365967 6.09163086 10.04388184 6.51513672 11.0847168 C6.9432666 12.17051025 7.37139648 13.25630371 7.8125 14.375 C8.47789795 16.05879761 8.47789795 16.05879761 9.15673828 17.77661133 C15.87309147 35.09637957 20.27110307 52.63456885 23 71 C23.26816528 72.78615723 23.26816528 72.78615723 23.54174805 74.60839844 C24.93158902 84.64496942 25.36054802 94.49928477 25.3125 104.625 C25.31100952 105.40858887 25.30951904 106.19217773 25.3079834 106.99951172 C25.26703116 119.03091314 24.64040222 130.74992477 22.43994141 142.60546875 C22.00522061 144.97158504 21.62984242 147.34146943 21.26171875 149.71875 C11.9810007 205.71337331 -21.71753845 260.8796018 -67 295 C-67.82999512 295.63663574 -67.82999512 295.63663574 -68.67675781 296.28613281 C-77.73662785 303.22236538 -87.06793385 309.38971125 -97 315 C-97.64098633 315.36834961 -98.28197266 315.73669922 -98.94238281 316.11621094 C-133.92881316 336.09607929 -174.75182046 346.24761003 -214.9375 346.1875 C-215.96304489 346.18709213 -215.96304489 346.18709213 -217.00930786 346.18667603 C-233.67714162 346.1562616 -249.70575856 344.46891482 -266 341 C-266.6614502 340.86368164 -267.32290039 340.72736328 -268.00439453 340.58691406 C-286.05812826 336.82770911 -303.2966484 330.77284679 -320 323 C-320 319.44346986 -319.54373078 319.15472149 -317.15771484 316.70605469 C-316.53641693 316.06238953 -315.91511902 315.41872437 -315.2749939 314.7555542 C-314.59385529 314.06794006 -313.91271667 313.38032593 -313.2109375 312.671875 C-312.5148941 311.96347473 -311.81885071 311.25507446 -311.10171509 310.52520752 C-309.62447656 309.02837763 -308.14301549 307.5357052 -306.65771484 306.046875 C-304.387271 303.76234712 -302.1448152 301.45257316 -299.90234375 299.140625 C-298.46518935 297.69107288 -297.02643821 296.24310175 -295.5859375 294.796875 C-294.91694427 294.10116394 -294.24795105 293.40545288 -293.5586853 292.68865967 C-288.79962787 287.99765187 -288.79962787 287.99765187 -284.75756836 288.00952148 C-283.39257202 288.49980835 -283.39257202 288.49980835 -282 289 C-280.77667969 289.34675781 -279.55335938 289.69351562 -278.29296875 290.05078125 C-276.92395328 290.46963917 -275.55548819 290.89029905 -274.1875 291.3125 C-268.28314263 293.08329188 -262.36791961 294.74252265 -256.375 296.1875 C-255.12460938 296.49042969 -253.87421875 296.79335938 -252.5859375 297.10546875 C-241.24470721 299.479122 -229.88156563 300.3922326 -218.3125 300.375 C-217.65313446 300.37412384 -216.99376892 300.37324768 -216.31442261 300.37234497 C-167.2799973 300.16068347 -121.61118621 282.32427746 -85 250 C-84.15566406 249.278125 -83.31132812 248.55625 -82.44140625 247.8125 C-77.49039869 243.53776834 -73.15222537 239.04780339 -69 234 C-68.36819824 233.25266602 -68.36819824 233.25266602 -67.72363281 232.49023438 C-32.36901319 190.61579972 -17.52727557 139.19053042 -21.2109375 84.890625 C-22.61021964 69.71053391 -26.00725776 53.72027111 -31.75 39.58203125 C-33.25938876 35.25668909 -33.25938876 35.25668909 -32 32 C-30.66490173 30.30413818 -30.66490173 30.30413818 -28.94897461 28.60839844 C-28.30838608 27.9680365 -27.66779755 27.32767456 -27.00779724 26.66790771 C-26.31299759 25.98859192 -25.61819794 25.30927612 -24.90234375 24.609375 C-24.19348526 23.90476135 -23.48462677 23.20014771 -22.75428772 22.47418213 C-20.4889672 20.22565215 -18.21343792 17.98777762 -15.9375 15.75 C-14.39970665 14.22725292 -12.86258869 12.70382346 -11.32617188 11.1796875 C-7.55858198 7.4451719 -3.78255735 3.7193515 0 0 Z " fill="#FD6946" transform="translate(472,151)"/>
<path d="M0 0 C2 1 2 1 3.140625 3.80078125 C3.50671875 4.95964844 3.8728125 6.11851562 4.25 7.3125 C4.62640625 8.46363281 5.0028125 9.61476562 5.390625 10.80078125 C6.07807558 14.4098968 5.85991537 14.99574846 4 18 C2.84904476 19.32598522 1.64176158 20.60402232 0.39896297 21.84433937 C-0.7294802 22.97783064 -0.7294802 22.97783064 -1.8807202 24.13422072 C-2.71076628 24.957759 -3.54081236 25.78129728 -4.39601135 26.62979126 C-5.27497839 27.50976158 -6.15394544 28.38973191 -7.05954784 29.296368 C-9.50084912 31.73845795 -11.94656182 34.17597343 -14.39421499 36.61168718 C-17.03248074 39.23926845 -19.66496172 41.87263377 -22.29812622 44.50532532 C-26.86156137 49.06639739 -31.42859037 53.62384512 -35.99801826 58.17891312 C-42.60624637 64.76647198 -49.20847852 71.36001371 -55.80915987 77.95513336 C-66.52035465 88.65707029 -77.23564294 99.35489842 -87.95385742 110.04980469 C-88.59544628 110.69000024 -89.23703515 111.33019579 -89.8980661 111.9897912 C-90.54047316 112.63080273 -91.18288022 113.27181426 -91.84475416 113.93225038 C-100.9563821 123.02410308 -110.06703596 132.11693038 -119.17651367 141.2109375 C-119.81762687 141.85095985 -120.45874007 142.4909822 -121.11928094 143.15039916 C-131.79626547 153.80938127 -142.4712343 164.47038064 -153.14516681 175.13241899 C-159.73327662 181.71292562 -166.32345978 188.29134374 -172.9163103 194.86710082 C-177.42977568 199.36902534 -181.94156752 203.87262217 -186.45203013 208.37755515 C-189.05739147 210.97957483 -191.66360378 213.58072827 -194.27199745 216.17970848 C-197.09432211 218.99186541 -199.91283283 221.80782465 -202.73097229 224.62417603 C-203.56324909 225.45217575 -204.3955259 226.28017547 -205.25302321 227.13326609 C-206.00271091 227.88371144 -206.75239861 228.63415679 -207.52480412 229.40734291 C-208.17645922 230.05753415 -208.82811432 230.70772538 -209.49951655 231.37761939 C-211.08832941 232.94417163 -211.08832941 232.94417163 -212 235 C-218.06732052 233.96232949 -223.4373852 232.66038099 -229 230 C-224.27840222 224.31275605 -219.21028789 219.10361106 -213.94946289 213.9152832 C-212.61437683 212.5920253 -212.61437683 212.5920253 -211.25231934 211.24203491 C-209.32994025 209.33678673 -207.40671018 207.43243882 -205.48222542 205.52932167 C-202.44045588 202.52035801 -199.40480069 199.50527632 -196.37046814 196.48881531 C-195.32893866 195.45354539 -194.28740901 194.41827565 -193.24587917 193.3830061 C-192.4641908 192.60599191 -192.4641908 192.60599191 -191.66671073 191.81328046 C-184.61035738 184.7998732 -177.54942516 177.79117012 -170.47436523 170.79663086 C-165.68827499 166.06491618 -160.9110466 161.32445092 -156.14388841 156.57366055 C-153.62376242 154.06292083 -151.09921878 151.55700178 -148.56370735 149.06179237 C-145.74396529 146.28675673 -142.94365417 143.49261831 -140.14477539 140.6965332 C-139.29968918 139.87099442 -138.45460297 139.04545563 -137.58390808 138.19490051 C-136.82826569 137.43382996 -136.07262329 136.6727594 -135.29408264 135.8886261 C-134.62988847 135.23033971 -133.96569429 134.57205332 -133.28137302 133.89381886 C-131.78096304 132.10362799 -131.78096304 132.10362799 -132.16911983 130.00696087 C-133.01582709 127.96177023 -134.010079 125.979842 -135 124 C-132.03 121.03 -129.06 118.06 -126 115 C-122 117 -122 117 -119 119 C-116.03 116.03 -113.06 113.06 -110 110 C-111.32 108.35 -112.64 106.7 -114 105 C-112.59155282 101.78475695 -110.89655214 99.67816132 -108.375 97.25 C-107.74335938 96.63640625 -107.11171875 96.0228125 -106.4609375 95.390625 C-105.97882813 94.93171875 -105.49671875 94.4728125 -105 94 C-104.13375 94.4640625 -104.13375 94.4640625 -103.25 94.9375 C-100.23658903 96.37251473 -100.23658903 96.37251473 -97 97 C-94.86080885 95.60635357 -94.86080885 95.60635357 -92.83648682 93.4377594 C-91.60397942 92.21556198 -91.60397942 92.21556198 -90.34657288 90.96867371 C-89.45393234 90.05805679 -88.56129181 89.14743988 -87.64160156 88.20922852 C-86.68643256 87.25264965 -85.73016219 86.29716944 -84.77287292 85.3427124 C-82.17303419 82.74431164 -79.58892709 80.13075299 -77.00730228 77.51427197 C-74.30828967 74.78405936 -71.5951655 72.06794597 -68.88348389 69.35032654 C-63.74885035 64.20013585 -58.62709761 59.03732926 -53.50981212 53.86990732 C-47.68413699 47.98839696 -41.84430306 42.12103293 -36.00321627 36.25483429 C-23.98628142 24.18559891 -11.98731464 12.09865351 0 0 Z " fill="#9CE3F6" transform="translate(426,197)"/>
<path d="M0 0 C1.78239201 0.7602682 1.78239201 0.7602682 3.60079193 1.53589535 C4.43610443 1.81691097 5.27141693 2.0979266 6.13204193 2.38745785 C7.9549586 3.10360368 9.77787526 3.81974951 11.60079193 4.53589535 C6.82487438 10.28142282 1.70352603 15.57154025 -3.58667755 20.84361935 C-4.96031564 22.21853907 -4.96031564 22.21853907 -6.36170399 23.62123495 C-8.88846096 26.15021634 -11.41830569 28.67608859 -13.94868851 31.20144141 C-16.68253225 33.93095122 -19.4134695 36.66336641 -22.14476776 39.39542294 C-26.87230503 44.12348357 -31.60166416 48.84971542 -36.33227921 53.57469654 C-43.17188261 60.40615964 -50.00871045 67.24039497 -56.84487237 74.07530171 C-67.93719993 85.16544273 -79.03175703 96.25335052 -90.12772369 107.33985043 C-100.90396294 118.10690527 -111.67914738 128.8750139 -122.45291901 139.64453793 C-123.11744268 140.30879888 -123.78196635 140.97305982 -124.46662711 141.65744989 C-127.80046841 144.98998612 -131.13428902 148.32254304 -134.46809936 151.65511024 C-162.1085964 179.28524705 -189.75271502 206.91175817 -217.39920807 234.53589535 C-219.88580428 232.04929914 -220.43351917 229.93105589 -221.52420807 226.59839535 C-221.87741119 225.53749691 -222.23061432 224.47659847 -222.59452057 223.3835516 C-223.39920807 220.53589535 -223.39920807 220.53589535 -223.39920807 217.53589535 C-221.96275187 216.0233584 -221.96275187 216.0233584 -219.95661926 214.40249634 C-215.19373983 210.40667831 -210.84765614 206.09096381 -206.48062897 201.6702795 C-205.61780855 200.80125785 -204.75498813 199.9322362 -203.86602163 199.03688055 C-201.98517029 197.14184923 -200.1052919 195.2459095 -198.22701836 193.34832859 C-195.16996826 190.25993947 -192.10919022 187.17526202 -189.04784393 184.09113216 C-185.74910948 180.7675348 -182.45061141 177.44370462 -179.15330505 174.11869037 C-170.99084949 165.88787548 -162.81950171 157.66596287 -154.64273834 149.44936275 C-154.05052398 148.85423161 -153.45830961 148.25910047 -152.84814936 147.64593505 C-147.9750468 142.7488757 -143.10158558 137.85217333 -138.22803938 132.95555548 C-133.84704451 128.5537667 -129.4663976 124.15163196 -125.08621979 119.74903011 C-124.46182257 119.12144429 -123.83742535 118.49385846 -123.194107 117.84725488 C-113.05754149 107.65793077 -102.93728532 97.45254597 -92.82240528 87.24170011 C-82.43086087 76.75239904 -72.02041175 66.28213459 -61.59250689 55.82897955 C-55.16316564 49.38279965 -48.74935917 42.92191483 -42.35457385 36.44144995 C-37.97643444 32.00742594 -33.58025467 27.59184085 -29.16928756 23.19047426 C-26.62364652 20.64926468 -24.08693889 18.10052716 -21.57139778 15.52948856 C-18.84692189 12.74531761 -16.08483092 10.0005637 -13.31778717 7.25865841 C-12.52555677 6.43661747 -11.73332637 5.61457654 -10.91708899 4.76762527 C-4.83355038 -1.15857303 -4.83355038 -1.15857303 0 0 Z " fill="#9BE3F7" transform="translate(303.39920806884766,80.46410465240479)"/>
<path d="M0 0 C12.01887019 6.67527713 20.43068079 16.48344862 24.78515625 29.546875 C25.0109054 31.85294545 25.14379166 34.16862372 25.22265625 36.484375 C25.28324219 37.71027344 25.34382813 38.93617187 25.40625 40.19921875 C24.59719007 51.31580866 16.59049563 59.56763989 8.91015625 66.796875 C8.03101563 67.64894531 7.151875 68.50101562 6.24609375 69.37890625 C4.10569065 71.4495136 1.95256606 73.50461915 -0.21484375 75.546875 C-6.49997379 70.35926918 -12.21795533 64.67260234 -17.9609375 58.8984375 C-18.98204423 57.87546194 -20.00337475 56.85270972 -21.0249176 55.83016968 C-23.69195728 53.15934139 -26.35597811 50.48552218 -29.01934814 47.81103516 C-31.74608225 45.07400764 -34.4757068 42.33986599 -37.20507812 39.60546875 C-42.54447464 34.25539952 -47.88068027 28.90216227 -53.21484375 23.546875 C-50.88973191 18.69624583 -47.50011132 15.44937438 -43.71484375 11.671875 C-42.99594971 10.95314209 -42.27705566 10.23440918 -41.53637695 9.49389648 C-29.25538345 -2.52541834 -16.48687272 -7.73297324 0 0 Z " fill="#030100" transform="translate(451.21484375,38.453125)"/>
<path d="M0 0 C6.28513004 5.18760582 12.00311158 10.87427266 17.74609375 16.6484375 C18.76720048 17.67141306 19.788531 18.69416528 20.81007385 19.71670532 C23.47711353 22.38753361 26.14113436 25.06135282 28.80450439 27.73583984 C31.5312385 30.47286736 34.26086305 33.20700901 36.99023438 35.94140625 C42.32963089 41.29147548 47.66583652 46.64471273 53 52 C50.7436885 56.61843458 48.4218867 60.2051893 44 63 C41.76391602 62.99072266 41.76391602 62.99072266 39.25390625 62.4140625 C37.7992395 62.09719482 37.7992395 62.09719482 36.31518555 61.77392578 C34.6741687 61.39083252 34.6741687 61.39083252 33 61 C31.09104184 60.59176382 29.18206136 60.18362627 27.27253723 59.77804565 C23.80290959 59.03588573 20.33941434 58.26605334 16.875 57.5 C15.45967502 57.18862201 14.04431062 56.87742317 12.62890625 56.56640625 C5.75049791 55.05369367 -1.12491975 53.52779561 -8 52 C2.56 62.56 13.12 73.12 24 84 C18 91 18 91 13 95 C-4.49 77.51 -21.98 60.02 -40 42 C-37.62807983 37.25615967 -35.62015506 33.75385495 -31 31 C-28.26367188 31.00927734 -28.26367188 31.00927734 -25.15625 31.5859375 C-24.00471436 31.79718262 -22.85317871 32.00842773 -21.66674805 32.22607422 C-15.51526568 33.52444289 -9.41057778 34.97148339 -3.3125 36.5 C-0.82989245 37.11646047 1.65317288 37.73108067 4.13671875 38.34375 C5.21655029 38.61380859 6.29638184 38.88386719 7.40893555 39.16210938 C11.91937854 40.21451541 16.45433859 41.11415431 21 42 C20.61162964 41.61607086 20.22325928 41.23214172 19.82312012 40.83657837 C15.79454983 36.85213641 11.77294284 32.86076546 7.75537109 28.86523438 C6.25357961 27.37352203 4.75000097 25.88360672 3.24462891 24.39550781 C1.08548034 22.26052352 -1.06723153 20.11923229 -3.21875 17.9765625 C-4.23588074 16.97491562 -4.23588074 16.97491562 -5.27355957 15.95303345 C-5.89420288 15.3325412 -6.51484619 14.71204895 -7.15429688 14.07275391 C-7.98036438 13.25334824 -7.98036438 13.25334824 -8.82312012 12.41738892 C-10 11 -10 11 -10 9 C-8.3203125 7.34375 -8.3203125 7.34375 -6.125 5.5 C-4.00964496 3.71066742 -1.95980876 1.95980876 0 0 Z " fill="#020100" transform="translate(176,282)"/>
<path d="M0 0 C3.58310309 1.1943677 6.7948756 2.27063305 10.17163086 3.8125 C10.93852737 4.16077347 11.70542389 4.50904694 12.49555969 4.86787415 C13.31042343 5.24147568 14.12528717 5.61507721 14.96484375 6 C15.82760422 6.39241379 16.69036469 6.78482758 17.57926941 7.18913269 C19.41824594 8.02570448 21.25665623 8.86352194 23.09454346 9.70248413 C27.83728317 11.86705469 32.58441938 14.02192201 37.33203125 16.17578125 C38.25993469 16.59684647 39.18783813 17.01791168 40.14385986 17.45173645 C50.37749928 22.08854459 60.66918632 26.58386096 71 31 C69.85112887 34.61221644 68.61667691 38.00775797 66.875 41.375 C66.52179688 42.06335938 66.16859375 42.75171875 65.8046875 43.4609375 C65.53914063 43.96882813 65.27359375 44.47671875 65 45 C60.72066632 43.65914211 56.66388871 42.35073366 52.6875 40.25 C50.19903164 38.81369933 50.19903164 38.81369933 48.07519531 39.19702148 C45.45089425 40.21247162 44.0729852 41.58653935 42.109375 43.59765625 C41.40039062 44.31630859 40.69140625 45.03496094 39.9609375 45.77539062 C39.23132813 46.53013672 38.50171875 47.28488281 37.75 48.0625 C37.00492188 48.82111328 36.25984375 49.57972656 35.4921875 50.36132812 C33.65453306 52.23432207 31.82424276 54.11395611 30 56 C31.43399462 60.50313243 33.19580867 64.62760051 35.29296875 68.8515625 C36 71 36 71 35.9921875 73.1015625 C33.75856427 77.37534552 27.29297309 78.37318915 23 80 C17.99611874 69.31245758 13.036831 58.60516561 8.125 47.875 C7.77816162 47.11762543 7.43132324 46.36025085 7.07397461 45.57992554 C1.53059241 33.46390836 -3.85987429 21.29346732 -9 9 C-6.03 6.03 -3.06 3.06 0 0 Z " fill="#030100" transform="translate(105,353)"/>
<path d="M0 0 C0.50636607 1.74816858 1.00484619 3.49862263 1.5 5.25 C1.7784375 6.22453125 2.056875 7.1990625 2.34375 8.203125 C3 11 3 11 3 15 C2.43152344 15.10957031 1.86304688 15.21914062 1.27734375 15.33203125 C-8.32641829 17.30408923 -14.30057561 20.10076229 -20.3125 28.0625 C-23.34408176 33.74207563 -22.90760759 40.47697882 -21.33984375 46.5625 C-18.86226013 52.91197837 -14.75904185 57.22455678 -8.6015625 60.1328125 C-2.07802928 62.30732357 4.25843633 61.7192193 10.4375 58.8125 C16.02632332 55.66823331 18.99080506 52.08768894 21 46 C21.24049932 42.64494474 21.24049932 42.64494474 21.125 39.1875 C21.08375 37.145625 21.0425 35.10375 21 33 C26.28 33 31.56 33 37 33 C37.45443469 45.38334532 37.15403403 54.51949204 28.75 64.375 C21.0288826 72.32283863 12.262896 77.03004493 1 77.3125 C-11.08691425 76.84035491 -20.95462227 73.0729475 -29.3984375 64.12890625 C-37.3104889 53.61166719 -39.15147981 42.7788528 -38 30 C-35.817806 20.04866954 -29.14179458 11.93585343 -20.90234375 6.2109375 C-14.28629159 1.99948746 -7.83785932 -0.17658955 0 0 Z " fill="#050201" transform="translate(241,232)"/>
<path d="M0 0 C3.18086518 1.50946511 5.29869906 3.07941825 7.75 5.625 C8.67039062 6.57246094 8.67039062 6.57246094 9.609375 7.5390625 C10.29773438 8.26222656 10.29773438 8.26222656 11 9 C9.64556914 12.05777443 8.15295264 14.04421157 5.70703125 16.3125 C5.07732422 16.91320312 4.44761719 17.51390625 3.79882812 18.1328125 C2.46837518 19.38346443 1.13236097 20.62822504 -0.20898438 21.8671875 C-0.83482422 22.46789062 -1.46066406 23.06859375 -2.10546875 23.6875 C-2.68449951 24.22761719 -3.26353027 24.76773438 -3.86010742 25.32421875 C-5.23166257 26.95317586 -5.23166257 26.95317586 -4.78271484 29.08691406 C-3.77182353 31.55770143 -2.37096934 32.92199262 -0.4375 34.75 C0.20316406 35.36359375 0.84382813 35.9771875 1.50390625 36.609375 C1.99761719 37.06828125 2.49132812 37.5271875 3 38 C5.93230193 36.67879172 7.98664899 35.25361803 10.234375 32.9609375 C11.09482422 32.09082031 11.09482422 32.09082031 11.97265625 31.203125 C12.55917969 30.59984375 13.14570313 29.9965625 13.75 29.375 C14.35199219 28.76398438 14.95398438 28.15296875 15.57421875 27.5234375 C17.05405305 26.02011376 18.52764676 24.51065144 20 23 C23.10442031 24.3904499 25.3656443 26.01571598 27.8125 28.375 C28.43769531 28.96023437 29.06289063 29.54546875 29.70703125 30.1484375 C31 32 31 32 30.76025391 33.91357422 C29.89573468 36.28614368 28.91255927 37.46081761 27.12890625 39.234375 C26.55462891 39.80800781 25.98035156 40.38164063 25.38867188 40.97265625 C24.78603516 41.55917969 24.18339844 42.14570312 23.5625 42.75 C22.96373047 43.35199219 22.36496094 43.95398438 21.74804688 44.57421875 C17.26706881 49 17.26706881 49 15 49 C16.10281127 50.27200971 17.20730769 51.54255853 18.3125 52.8125 C19.23482422 53.87404297 19.23482422 53.87404297 20.17578125 54.95703125 C21.73334335 56.70136739 23.32658875 58.36778041 25 60 C27.89738929 58.68904236 29.96284089 57.28539071 32.19921875 55.03125 C32.76833984 54.46019531 33.33746094 53.88914063 33.92382812 53.30078125 C34.50583984 52.70652344 35.08785156 52.11226562 35.6875 51.5 C36.28111328 50.90574219 36.87472656 50.31148437 37.48632812 49.69921875 C40.62927605 46.63576084 40.62927605 46.63576084 43 43 C46.10442031 44.3904499 48.3656443 46.01571598 50.8125 48.375 C51.75029297 49.25285156 51.75029297 49.25285156 52.70703125 50.1484375 C54 52 54 52 53.73707581 53.93817139 C52.51110766 57.36758283 49.77473561 59.58856676 47.21484375 62.078125 C46.63916153 62.64956238 46.06347931 63.22099976 45.47035217 63.80975342 C43.63299681 65.63033802 41.78547868 67.44020568 39.9375 69.25 C38.68876862 70.48368253 37.44071331 71.71804978 36.19335938 72.953125 C33.1366898 75.97674655 30.07086474 78.99079921 27 82 C23.1760508 80.42122567 20.76357901 78.00498287 17.86425781 75.09130859 C17.36624161 74.59358444 16.8682254 74.09586029 16.3551178 73.58305359 C14.71633267 71.9428793 13.08473866 70.29574339 11.453125 68.6484375 C10.31584653 67.50742744 9.1781246 66.36685923 8.03997803 65.22671509 C5.05010021 62.22921238 2.06627809 59.22575149 -0.9163208 56.2210083 C-3.96271321 53.15413288 -7.01479703 50.09293306 -10.06640625 47.03125 C-16.04985434 41.02637217 -22.02691663 35.01518768 -28 29 C-24.35767102 24.65913471 -20.62361806 20.50230266 -16.6015625 16.50390625 C-16.1217392 16.02549789 -15.64191589 15.54708954 -15.14755249 15.05418396 C-13.64240542 13.55455121 -12.13378786 12.05846872 -10.625 10.5625 C-9.59221405 9.53474017 -8.55966009 8.50674715 -7.52734375 7.47851562 C-5.02089713 4.98298402 -2.5113292 2.49061918 0 0 Z " fill="#050201" transform="translate(386,72)"/>
<path d="M0 0 C1.08839774 0.88967344 2.17044608 1.78711574 3.25 2.6875 C4.15492188 3.43580078 4.15492188 3.43580078 5.078125 4.19921875 C7 6 7 6 11 11 C5.39 16.61 -0.22 22.22 -6 28 C-1.62627439 33.11693401 -1.62627439 33.11693401 3 38 C5.93230193 36.67879172 7.98664899 35.25361803 10.234375 32.9609375 C11.09482422 32.09082031 11.09482422 32.09082031 11.97265625 31.203125 C12.55917969 30.59984375 13.14570313 29.9965625 13.75 29.375 C14.35199219 28.76398438 14.95398438 28.15296875 15.57421875 27.5234375 C17.05405305 26.02011376 18.52764676 24.51065144 20 23 C24.22114006 26.49055813 27.51760049 29.64700061 31 34 C26.05 38.95 21.1 43.9 16 49 C17.681429 52.362858 18.52765947 53.72842009 21.125 56.125 C22.7578125 57.6328125 22.7578125 57.6328125 24 59 C24 59.66 24 60.32 24 61 C30.7116188 55.36531717 36.86092974 49.24063576 43 43 C44.08839774 43.88967344 45.17044608 44.78711574 46.25 45.6875 C46.85328125 46.18636719 47.4565625 46.68523437 48.078125 47.19921875 C50 49 50 49 54 54 C44.76 63.24 35.52 72.48 26 82 C22.06134989 80.03067494 20.02623142 78.26878814 16.95605469 75.18310547 C16.46779205 74.69513489 15.97952942 74.20716431 15.47647095 73.70440674 C13.87015038 72.09669725 12.27102287 70.48202899 10.671875 68.8671875 C9.55701683 67.74859765 8.44171513 66.63044971 7.32598877 65.51272583 C4.39529391 62.57440675 1.47065578 59.63013045 -1.45275879 56.68457031 C-4.43882725 53.67801738 -7.43058859 50.67714118 -10.421875 47.67578125 C-16.28683456 41.78939314 -22.14540732 35.896699 -28 30 C-26.1068216 25.87609601 -23.32174632 23.06719396 -20.1171875 19.921875 C-19.54292023 19.35043762 -18.96865295 18.77900024 -18.37698364 18.19024658 C-16.5476419 16.37207055 -14.71145807 14.56098508 -12.875 12.75 C-11.63105226 11.51608671 -10.3875573 10.28171678 -9.14453125 9.046875 C-6.10157633 6.02593257 -3.05246746 3.01132908 0 0 Z " fill="#040201" transform="translate(274,184)"/>
<path d="M0 0 C0.33951619 1.56116819 0.67132544 3.12401338 1 4.6875 C1.185625 5.55761719 1.37125 6.42773438 1.5625 7.32421875 C1.98972047 9.93712964 2.07616201 12.35813038 2 15 C1.14277344 15.15855469 0.28554687 15.31710937 -0.59765625 15.48046875 C-11.34602907 17.65727185 -11.34602907 17.65727185 -19.26953125 24.73828125 C-23.00250569 30.89834862 -23.86270157 36.91569767 -23 44 C-20.86292105 51.1096968 -17.39014792 55.14381874 -11.0859375 58.94140625 C-5.40532999 61.82426137 0.61312825 62.06118676 6.66796875 60.1640625 C12.61411774 57.48334783 17.49768724 54.19531709 20 48 C20.75895385 42.97766107 20.986788 38.07340909 21 33 C25.62 33 30.24 33 35 33 C37.52671766 40.58015298 36.78233798 49.37131443 33.45703125 56.5859375 C27.38462455 66.64692234 18.95220105 73.48771649 7.625 76.4921875 C-2.50449298 78.45176204 -12.63685997 76.7214728 -21.578125 71.4921875 C-30.03852039 65.30516366 -36.50010574 57.09040924 -38.6875 46.75 C-39.73059682 34.23283812 -38.71429842 24.62685523 -31.015625 14.32421875 C-22.88230289 4.94567872 -12.3592986 -0.23767882 0 0 Z " fill="#040101" transform="translate(76,398)"/>
<path d="M0 0 C0.93423645 3.01031744 1.04449911 3.86650268 0 7 C-0.23361292 10.66242234 -0.18518658 14.33091351 -0.1875 18 C-0.19974609 18.99128906 -0.21199219 19.98257812 -0.22460938 21.00390625 C-0.24459725 31.22437298 1.09429779 40.34810515 5.625 49.5625 C5.97836426 50.29210937 6.33172852 51.02171875 6.69580078 51.7734375 C9.74229202 57.85831402 13.2808223 63.06990933 18 68 C18.70253906 68.75410156 19.40507813 69.50820313 20.12890625 70.28515625 C25.04961964 75.139261 30.39358981 78.61421459 36.4375 81.875 C37.11675537 82.24439697 37.79601074 82.61379395 38.49584961 82.99438477 C48.3422405 88.05567907 57.69881836 89.46298474 68.6875 89.25 C69.76322266 89.24484375 70.83894531 89.2396875 71.94726562 89.234375 C77.7133243 89.17787963 83.29734179 88.85505395 89 88 C84.9717449 91.61993294 81.0738827 93.39605865 76.0625 95.1875 C75.37220703 95.44724609 74.68191406 95.70699219 73.97070312 95.97460938 C58.45618257 101.66571786 41.53004733 100.10975691 26.59765625 93.4921875 C19.01524886 89.68771238 12.95039906 85.01566852 7 79 C6.44957031 78.48308594 5.89914063 77.96617187 5.33203125 77.43359375 C-5.64067916 66.1667088 -10.52845823 48.83771567 -10.42236328 33.57202148 C-10.00479564 21.33565202 -6.58885456 10.36646451 0 0 Z " fill="#F83402" transform="translate(25,398)"/>
<path d="M0 0 C5.47313966 4.56147547 10.53954809 9.40741321 15.55859375 14.4609375 C16.34774673 15.25150543 17.13689972 16.04207336 17.94996643 16.8565979 C20.44818661 19.36037626 22.94289044 21.86762475 25.4375 24.375 C27.13974208 26.08226248 28.84221373 27.78929609 30.54492188 29.49609375 C34.69927363 33.66141898 38.85075081 37.82959219 43 42 C46.80120424 40.23373297 49.23714872 37.99828905 52.1875 35 C53.06792969 34.113125 53.94835937 33.22625 54.85546875 32.3125 C57.01833912 30.1968855 57.01833912 30.1968855 58 28 C61.45201639 29.47721422 63.64961936 31.43794001 66.25 34.125 C66.95640625 34.84945312 67.6628125 35.57390625 68.390625 36.3203125 C69.18726563 37.15175781 69.18726563 37.15175781 70 38 C65.03805145 43.99500997 59.6523376 49.46427037 54.125 54.9375 C53.24585938 55.81212891 52.36671875 56.68675781 51.4609375 57.58789062 C49.3095654 59.72757048 47.15588208 61.86486597 45 64 C41.18854317 62.42188036 38.76571562 60.01935853 35.86425781 57.12304688 C35.36624161 56.62853531 34.8682254 56.13402374 34.3551178 55.62452698 C32.71606438 53.99425197 31.08440634 52.35679915 29.453125 50.71875 C28.31570185 49.58267419 27.17798196 48.4468954 26.03997803 47.31140137 C23.65961549 44.93398445 21.28290118 42.55299452 18.90869141 40.16943359 C15.85982294 37.109145 12.8020296 34.05795651 9.74147415 31.00936127 C7.39250369 28.66760239 5.04829858 26.32112004 2.70552826 23.97315979 C1.57942414 22.84571857 0.45182439 21.71976922 -0.67726898 20.59532166 C-2.25033812 19.02730903 -3.81689086 17.45306824 -5.38183594 15.87695312 C-6.27578064 14.98141724 -7.16972534 14.08588135 -8.09075928 13.16320801 C-10 11 -10 11 -10 9 C-8.3203125 7.34375 -8.3203125 7.34375 -6.125 5.5 C-4.00964496 3.71066742 -1.95980876 1.95980876 0 0 Z " fill="#030101" transform="translate(295,163)"/>
<path d="M0 0 C3.32151516 1.44299362 5.45475042 3.23394182 7.97070312 5.82299805 C9.12209778 6.99882698 9.12209778 6.99882698 10.29675293 8.19841003 C11.11663696 9.04430191 11.936521 9.89019379 12.78125 10.76171875 C14.52691464 12.5375313 16.27302179 14.31290895 18.01953125 16.08789062 C20.7701143 18.89441189 23.51663616 21.70461817 26.25537109 24.52270508 C28.89884088 27.23840728 31.55748238 29.93847158 34.21875 32.63671875 C35.44857605 33.9146656 35.44857605 33.9146656 36.70324707 35.21842957 C37.47084351 35.99285904 38.23843994 36.76728851 39.02929688 37.56518555 C39.70118042 38.25420456 40.37306396 38.94322357 41.06530762 39.65312195 C42.90456144 41.24385782 42.90456144 41.24385782 45.15093994 40.7906189 C47.24969796 39.89323444 48.43066038 38.913992 50.015625 37.27734375 C50.54414063 36.73916016 51.07265625 36.20097656 51.6171875 35.64648438 C52.15601563 35.08251953 52.69484375 34.51855469 53.25 33.9375 C53.80429687 33.36966797 54.35859375 32.80183594 54.9296875 32.21679688 C56.29334214 30.81787531 57.64760417 29.40980886 59 28 C62.21524305 29.40844718 64.32183868 31.10344786 66.75 33.625 C67.36359375 34.25664062 67.9771875 34.88828125 68.609375 35.5390625 C69.29773438 36.26222656 69.29773438 36.26222656 70 37 C68.41568547 40.90851199 65.73364905 43.52367356 62.7734375 46.421875 C62.01191879 47.17914886 62.01191879 47.17914886 61.23501587 47.95172119 C59.61966158 49.55592096 57.99747791 51.15300856 56.375 52.75 C55.27558302 53.83938107 54.17661941 54.9292199 53.078125 56.01953125 C50.3906398 58.68501885 47.69700979 61.34415143 45 64 C38.63491433 58.75179943 32.84677025 52.97528548 27.03515625 47.1328125 C25.99162921 46.08741675 24.94787848 45.04224425 23.90391541 43.99728394 C21.17769255 41.2672716 18.45448819 38.53426807 15.73193359 35.80059814 C12.94487541 33.00324846 10.15492854 30.20878299 7.36523438 27.4140625 C1.90734919 21.94550306 -3.54734559 16.47377555 -9 11 C-7.49053489 7.81913482 -5.92058175 5.70130094 -3.375 3.25 C-2.74335938 2.63640625 -2.11171875 2.0228125 -1.4609375 1.390625 C-0.73777344 0.70226562 -0.73777344 0.70226562 0 0 Z " fill="#030100" transform="translate(331,127)"/>
<path d="M0 0 C8.36255301 3.3594394 14.90728287 8.84817548 18.98046875 16.953125 C20.68747393 21.77521798 20.79752098 26.46227764 19.1640625 31.32421875 C16.62158094 36.34285626 13.30587778 38.50958244 8.828125 42.34765625 C-1.401875 32.11765625 -11.631875 21.88765625 -22.171875 11.34765625 C-20.41428104 7.83246833 -19.63381112 6.58883441 -16.796875 4.22265625 C-16.21164062 3.72507812 -15.62640625 3.2275 -15.0234375 2.71484375 C-10.19251036 -0.85229654 -5.92004069 -1.77814172 0 0 Z " fill="#FA6845" transform="translate(441.171875,50.65234375)"/>
<path d="M0 0 C0.70246995 1.8903376 1.38640849 3.78756828 2.0625 5.6875 C2.44535156 6.74324219 2.82820313 7.79898437 3.22265625 8.88671875 C4.05708204 12.22861501 3.95450628 13.74052525 3 17 C1.66490173 18.81611633 1.66490173 18.81611633 -0.05102539 20.50512695 C-0.69161392 21.14541336 -1.33220245 21.78569977 -1.99220276 22.44538879 C-2.68700241 23.1195433 -3.38180206 23.79369781 -4.09765625 24.48828125 C-4.80651474 25.19147995 -5.51537323 25.89467865 -6.24571228 26.6191864 C-8.50875169 28.85986096 -10.78530931 31.08621772 -13.0625 33.3125 C-14.60052137 34.83045671 -16.13764207 36.34932658 -17.67382812 37.86914062 C-21.43883717 41.59008082 -25.2150369 45.29936497 -29 49 C-32.00989089 47.49505456 -32.43952981 45.23176643 -33.75 42.1875 C-34.21921875 41.12917969 -34.6884375 40.07085937 -35.171875 38.98046875 C-36 36 -36 36 -35.24755859 34.0256958 C-33.95651501 31.92939221 -32.6040055 30.3501691 -30.8671875 28.60839844 C-30.23312988 27.9680365 -29.59907227 27.32767456 -28.94580078 26.66790771 C-28.26243652 25.98859192 -27.57907227 25.30927612 -26.875 24.609375 C-26.1722998 23.90476135 -25.46959961 23.20014771 -24.74560547 22.47418213 C-23.26189896 20.98911647 -21.77567108 19.50656619 -20.28710938 18.02636719 C-18.00156409 15.75155675 -15.72690983 13.4662464 -13.453125 11.1796875 C-12.01105781 9.73894132 -10.56837065 8.29881535 -9.125 6.859375 C-8.44163574 6.17196228 -7.75827148 5.48454956 -7.05419922 4.77630615 C-6.4201416 4.14855286 -5.78608398 3.52079956 -5.1328125 2.87402344 C-4.29580811 2.03940582 -4.29580811 2.03940582 -3.44189453 1.18792725 C-2 0 -2 0 0 0 Z " fill="#FA3401" transform="translate(69,312)"/>
<path d="M0 0 C0.91313965 0.29527588 1.8262793 0.59055176 2.76708984 0.89477539 C4.03166016 1.26795898 4.03166016 1.26795898 5.32177734 1.64868164 C6.08748047 1.91551758 6.85318359 2.18235352 7.64208984 2.45727539 C8.81384766 2.86139648 8.81384766 2.86139648 10.00927734 3.27368164 C10.58935547 3.47864258 11.16943359 3.68360352 11.76708984 3.89477539 C11.76708984 7.49308318 11.24787018 7.80111958 8.81713867 10.28051758 C8.17259232 10.94420349 7.52804596 11.6078894 6.8639679 12.29168701 C6.15781845 13.00117493 5.45166901 13.71066284 4.72412109 14.44165039 C4.00350998 15.1722467 3.28289886 15.90284302 2.54045105 16.65557861 C1.01183584 18.19939832 -0.52089615 19.73915089 -2.05737305 21.27514648 C-4.40936416 23.63369858 -6.73634902 26.01515091 -9.06298828 28.39868164 C-10.5491438 29.89363868 -12.03672781 31.38717727 -13.52587891 32.87915039 C-14.2219072 33.59673523 -14.91793549 34.31432007 -15.63505554 35.0536499 C-16.2953627 35.70472717 -16.95566986 36.35580444 -17.63598633 37.02661133 C-18.49869392 37.89573151 -18.49869392 37.89573151 -19.37882996 38.78240967 C-21.23291016 39.89477539 -21.23291016 39.89477539 -23.79048157 39.64849854 C-26.55325866 38.7959172 -28.98076448 37.66589114 -31.54541016 36.33227539 C-32.42841797 35.87723633 -33.31142578 35.42219727 -34.22119141 34.95336914 C-35.21699219 34.42936523 -35.21699219 34.42936523 -36.23291016 33.89477539 C-30.63078367 27.23210992 -24.67643698 20.979474 -18.57421875 14.77612305 C-17.3395 13.51455547 -16.11200532 12.24587962 -14.89160156 10.97045898 C-13.11567552 9.11572949 -11.31806745 7.28475081 -9.51416016 5.45727539 C-8.97335815 4.88348145 -8.43255615 4.3096875 -7.87536621 3.71850586 C-5.1584857 1.01570681 -3.91598372 -0.12745726 0 0 Z " fill="#FA3401" transform="translate(187.23291015625,439.105224609375)"/>
<path d="M0 0 C2.43060829 2.33273424 3.855471 4.35184441 5.25 7.4375 C5.60578125 8.19933594 5.9615625 8.96117187 6.328125 9.74609375 C7.1196297 12.40131591 6.91914695 13.41484815 6 16 C4.62693787 17.73382568 4.62693787 17.73382568 2.85717773 19.48339844 C2.19656845 20.14378113 1.53595917 20.80416382 0.85533142 21.48455811 C0.13865799 22.18574768 -0.57801544 22.88693726 -1.31640625 23.609375 C-2.04746078 24.33618469 -2.77851532 25.06299438 -3.53172302 25.81182861 C-5.86837157 28.13168401 -8.21523484 30.440892 -10.5625 32.75 C-12.14847036 34.32092443 -13.73376543 35.89253094 -15.31835938 37.46484375 C-19.20443822 41.31784484 -23.09895543 45.16215519 -27 49 C-29.34882224 46.65117776 -30.03503024 44.72876333 -31.1875 41.625 C-31.55230469 40.66851562 -31.91710937 39.71203125 -32.29296875 38.7265625 C-33.05306057 35.79537968 -33.00324671 34.78711815 -32 32 C-30.66490173 30.30413818 -30.66490173 30.30413818 -28.94897461 28.60839844 C-28.30838608 27.9680365 -27.66779755 27.32767456 -27.00779724 26.66790771 C-26.31299759 25.98859192 -25.61819794 25.30927612 -24.90234375 24.609375 C-24.19348526 23.90476135 -23.48462677 23.20014771 -22.75428772 22.47418213 C-20.4889672 20.22565215 -18.21343792 17.98777762 -15.9375 15.75 C-14.39970665 14.22725292 -12.86258869 12.70382346 -11.32617188 11.1796875 C-7.55858198 7.4451719 -3.78255735 3.7193515 0 0 Z " fill="#FB3401" transform="translate(472,151)"/>
<path d="M0 0 C1.42671564 0.46196792 2.85227329 0.92751297 4.27734375 1.39453125 C5.46831665 1.78282104 5.46831665 1.78282104 6.68334961 2.17895508 C9.5919473 3.20979226 12.28554319 4.53836941 15 6 C9.40414321 12.62636686 3.54589707 18.95113703 -2.49389648 25.17358398 C-3.71181066 26.43858626 -4.91883047 27.71416359 -6.11499023 28.99975586 C-7.85941085 30.87175315 -9.63724159 32.70538895 -11.42578125 34.53515625 C-11.9510994 35.11411148 -12.47641754 35.69306671 -13.01765442 36.28956604 C-14.64163575 37.90606931 -15.91621067 39.03951249 -18 40 C-23.67137727 39.86389427 -28.9354521 37.37063944 -34 35 C-29.97251947 30.16701194 -25.75620587 25.61889996 -21.2890625 21.19140625 C-20.36956314 20.27402931 -20.36956314 20.27402931 -19.43148804 19.33811951 C-17.49835436 17.41052441 -15.56175013 15.48646072 -13.625 13.5625 C-12.30315301 12.24567596 -10.98153628 10.92862074 -9.66015625 9.61132812 C-6.44275701 6.40487627 -3.22224319 3.20158371 0 0 Z " fill="#FB3401" transform="translate(346,33)"/>
<path d="M0 0 C4.31864357 3.57118603 7.43980387 6.54975483 11 11 C7.7 14.3 4.4 17.6 1 21 C-3.31864357 17.42881397 -6.43980387 14.45024517 -10 10 C-6.7 6.7 -3.4 3.4 0 0 Z " fill="#030404" transform="translate(306,296)"/>
<path d="M0 0 C4.31864357 3.57118603 7.43980387 6.54975483 11 11 C7.7 14.3 4.4 17.6 1 21 C-3.31864357 17.42881397 -6.43980387 14.45024517 -10 10 C-6.7 6.7 -3.4 3.4 0 0 Z " fill="#050505" transform="translate(228,91)"/>
<path d="M0 0 C3.21524305 1.40844718 5.32183868 3.10344786 7.75 5.625 C8.67039063 6.57246094 8.67039063 6.57246094 9.609375 7.5390625 C10.06828125 8.02117187 10.5271875 8.50328125 11 9 C9.59155282 12.21524305 7.89655214 14.32183868 5.375 16.75 C4.74335938 17.36359375 4.11171875 17.9771875 3.4609375 18.609375 C2.97882813 19.06828125 2.49671875 19.5271875 2 20 C-1.21524305 18.59155282 -3.32183868 16.89655214 -5.75 14.375 C-6.36359375 13.74335937 -6.9771875 13.11171875 -7.609375 12.4609375 C-8.06828125 11.97882813 -8.5271875 11.49671875 -9 11 C-7.59155282 7.78475695 -5.89655214 5.67816132 -3.375 3.25 C-2.74335938 2.63640625 -2.11171875 2.0228125 -1.4609375 1.390625 C-0.73777344 0.70226562 -0.73777344 0.70226562 0 0 Z " fill="#030303" transform="translate(196,102)"/>
<path d="M0 0 C6.7186905 1.99613268 12.80734808 4.7291421 19 8 C18.11032656 9.08839774 17.21288426 10.17044608 16.3125 11.25 C15.81363281 11.85328125 15.31476563 12.4565625 14.80078125 13.078125 C12.7086495 15.3109424 10.42150931 17.13539658 8 19 C6.66368279 16.02216282 5.33144896 13.04251668 4 10.0625 C3.6184375 9.21236328 3.236875 8.36222656 2.84375 7.48632812 C2.4828125 6.67744141 2.121875 5.86855469 1.75 5.03515625 C1.41484375 4.2862915 1.0796875 3.53742676 0.734375 2.76586914 C0 1 0 1 0 0 Z " fill="#F76644" transform="translate(119,376)"/>
</svg>
