<?xml version="1.0" encoding="UTF-8"?>
<svg version="1.1" xmlns="http://www.w3.org/2000/svg" width="512" height="512">
<path d="M0 0 C1.31653564 0.01244751 1.31653564 0.01244751 2.65966797 0.02514648 C14.80986799 0.34121816 23.90184926 4.87687539 32.87109375 13.0234375 C40.22352564 20.85330004 43.46143949 29.91830597 44.125 40.4375 C44.85614014 40.42178955 45.58728027 40.4060791 46.34057617 40.38989258 C49.6644716 40.32739649 52.9882432 40.28846248 56.3125 40.25 C58.03823242 40.21229492 58.03823242 40.21229492 59.79882812 40.17382812 C61.46655273 40.15932617 61.46655273 40.15932617 63.16796875 40.14453125 C64.18914795 40.1288208 65.21032715 40.11311035 66.26245117 40.09692383 C69.63796387 40.49853067 71.43838916 41.37224253 74.125 43.4375 C76.00473488 46.44273155 76.35338176 48.67252024 76.25 52.1875 C76.23195313 52.98671875 76.21390625 53.7859375 76.1953125 54.609375 C76.16050781 55.51429687 76.16050781 55.51429687 76.125 56.4375 C77.70448174 56.42417633 77.70448174 56.42417633 79.31587219 56.4105835 C89.27521454 56.32923589 99.23448882 56.26940946 109.19408894 56.23025131 C114.31353495 56.20944239 119.43271117 56.18124791 124.55200195 56.13574219 C129.49926058 56.09204459 134.4462609 56.06831263 139.39369774 56.05799103 C141.27421315 56.05064237 143.1547156 56.03629289 145.03512001 56.01457977 C160.92830673 55.83848241 172.68979145 57.95943586 184.87109375 69.0234375 C192.36155295 77.00029016 196.25280036 86.93859052 196.24525452 97.71405029 C196.24653615 98.81561065 196.24653615 98.81561065 196.24784368 99.93942475 C196.24949109 102.40072203 196.24398919 104.86195119 196.23852539 107.32324219 C196.23824333 109.08735655 196.23840162 110.85147103 196.2389679 112.61558533 C196.23925515 117.40652824 196.23337004 122.19744619 196.22639394 126.98838329 C196.22014843 131.99455324 196.21955565 137.00072373 196.21836853 142.00689697 C196.21525876 151.48762374 196.20705012 160.96833899 196.19701904 170.44906068 C196.18584694 181.24217506 196.18034468 192.03528999 196.17532361 202.82840872 C196.16486723 225.03144557 196.1472746 247.23447206 196.125 269.4375 C197.07178116 269.58828506 198.01856232 269.73907013 198.99403381 269.89442444 C222.57565965 273.98472881 247.09398521 295.16710532 260.68359375 313.90234375 C269.86472725 327.00034308 276.84094482 341.00516485 281.125 356.4375 C281.60453125 358.10619141 281.60453125 358.10619141 282.09375 359.80859375 C289.58458273 391.47123393 283.10508906 425.51205609 267.125 453.4375 C248.83556064 482.83620132 220.71439107 502.44002594 187.125 510.4375 C178.72053532 512.33720644 170.6561657 512.72795119 162.05789185 512.71165466 C160.66347782 512.71611601 159.26906632 512.72143297 157.87465847 512.72752339 C154.07085747 512.74160549 150.26713856 512.74336856 146.46331525 512.74292648 C142.35004847 512.74458331 138.23681467 512.75766556 134.12356567 512.76911926 C125.14429213 512.7918978 116.16504233 512.79988155 107.18574381 512.80494571 C101.57383659 512.80820983 95.96193617 512.81473644 90.35003281 512.8219471 C74.79533422 512.84150052 59.24064192 512.85791315 43.68593025 512.86082363 C42.69203429 512.8610112 41.69813832 512.86119877 40.67412429 512.86139202 C38.65951912 512.86175826 36.64491394 512.86212196 34.63030876 512.86248314 C33.6303391 512.86266595 32.63036943 512.86284876 31.60009766 512.86303711 C30.0983018 512.86330793 30.0983018 512.86330793 28.56616662 512.86358423 C12.33814084 512.86712699 -3.88975236 512.89416143 -20.11773215 512.931535 C-36.80052333 512.96964712 -53.48324874 512.9889813 -70.16608441 512.98928314 C-79.5242911 512.98986691 -88.8823394 512.9983075 -98.24050522 513.02728081 C-106.20690524 513.0518331 -114.17308903 513.05905135 -122.1395167 513.04403328 C-126.19999623 513.03688116 -130.26004909 513.03764814 -134.32048035 513.06044388 C-138.04525908 513.08115417 -141.76928637 513.07832295 -145.49405803 513.05756903 C-147.46330372 513.05246568 -149.43256735 513.07176037 -151.40171325 513.09223074 C-163.88046732 512.97553895 -174.82510595 509.20347581 -183.875 500.4375 C-194.4162637 489.55481885 -196.62573937 476.84677431 -196.50991821 462.23168945 C-196.51569091 460.62930323 -196.52363969 459.02692364 -196.53355443 457.42455769 C-196.55429364 453.05503339 -196.54417203 448.68605996 -196.52862334 444.31653452 C-196.5172604 439.59114385 -196.53479695 434.86584462 -196.54852295 430.14047241 C-196.57070732 420.89678656 -196.5659756 411.65330419 -196.55145974 402.40961051 C-196.54014858 394.89428274 -196.53864472 387.37901183 -196.54407883 379.86367798 C-196.54484499 378.79235258 -196.54561116 377.72102719 -196.54640054 376.61723739 C-196.54799923 374.44057582 -196.5496203 372.26391427 -196.5512635 370.08725274 C-196.56550694 349.69672044 -196.54915031 329.3063007 -196.52226166 308.91578686 C-196.49992419 291.43566354 -196.50380471 273.95570626 -196.52685547 256.47558594 C-196.55363828 236.15593706 -196.56413377 215.83638674 -196.54879415 195.51672268 C-196.54720147 193.34825581 -196.54562962 191.17978892 -196.54407883 189.01132202 C-196.54330745 187.94451134 -196.54253607 186.87770065 -196.54174132 185.77856237 C-196.53743177 178.27590423 -196.5446948 170.77330882 -196.55647659 163.2706604 C-196.5705277 154.12218311 -196.56664679 144.97392021 -196.54007287 135.82546735 C-196.52696983 131.16148285 -196.52172214 126.49785527 -196.53831863 121.83387375 C-196.55330435 117.55775279 -196.54488928 113.28231691 -196.51843087 109.00625741 C-196.5128822 107.46605486 -196.51560437 105.92579348 -196.52780981 104.3856293 C-196.62878376 90.5761756 -193.71226153 78.59337729 -183.875 68.4375 C-171.5489151 56.4981158 -157.97202817 55.71433722 -141.79296875 55.94921875 C-139.88341709 55.95856466 -137.9738533 55.96567235 -136.06428528 55.97065735 C-131.08118558 55.98958735 -126.0988351 56.03856444 -121.11602783 56.09417725 C-116.01430389 56.14567479 -110.9124568 56.16823602 -105.81054688 56.19335938 C-95.83170525 56.2466992 -85.85341535 56.33183858 -75.875 56.4375 C-75.88950195 55.82189209 -75.90400391 55.20628418 -75.91894531 54.57202148 C-75.93022461 53.76321533 -75.94150391 52.95440918 -75.953125 52.12109375 C-75.96762695 51.31986084 -75.98212891 50.51862793 -75.99707031 49.69311523 C-75.82754264 46.56058295 -74.8899684 44.81228418 -72.875 42.4375 C-69.56238229 40.31538327 -66.90410804 40.2025091 -63.015625 40.2421875 C-61.90058594 40.24863281 -60.78554687 40.25507812 -59.63671875 40.26171875 C-57.89841797 40.28685547 -57.89841797 40.28685547 -56.125 40.3125 C-54.36349609 40.32603516 -54.36349609 40.32603516 -52.56640625 40.33984375 C-49.66906464 40.36339937 -46.77213559 40.39629348 -43.875 40.4375 C-43.8325415 39.78595947 -43.79008301 39.13441895 -43.74633789 38.46313477 C-42.8149655 26.79029308 -37.62661246 17.27198078 -28.875 9.4375 C-19.99113623 2.89300585 -10.99168085 -0.13466559 0 0 Z M-9.875 38.4375 C-11.48929923 41.66609847 -11.47070657 44.94743653 -10.875 48.4375 C-9.13897895 51.46258145 -7.03919863 53.85540069 -3.875 55.4375 C1.24870398 56.04478845 1.24870398 56.04478845 5.94921875 54.390625 C9.75252744 51.25957185 11.01163367 49.57116332 11.5 44.6875 C11.47558775 41.33691932 10.88101354 39.58855468 8.75 37 C5.2201414 33.55418565 3.1966348 33.04194164 -1.76953125 33.078125 C-5.49093453 33.71331814 -7.27812849 35.77729016 -9.875 38.4375 Z " fill="#37474F" transform="translate(211.875,-0.4375)"/>
<path d="M0 0 C0.67328842 -0.00014603 1.34657684 -0.00029205 2.04026794 -0.0004425 C4.26955366 0.00025512 6.4987562 0.0080405 8.72802734 0.01586914 C10.27216547 0.01773385 11.81630419 0.01915751 13.36044312 0.02015686 C17.42766957 0.02397785 21.49486039 0.03380457 25.56207275 0.04486084 C29.71113605 0.05508395 33.86020509 0.05965641 38.00927734 0.06469727 C46.15252287 0.0754272 54.29573943 0.09249862 62.43896484 0.11352539 C62.56013672 0.80567139 62.68130859 1.49781738 62.80615234 2.2109375 C62.97373047 3.11593994 63.14130859 4.02094238 63.31396484 4.95336914 C63.47638672 5.85176514 63.63880859 6.75016113 63.80615234 7.67578125 C64.61103027 10.77636232 65.85276652 12.25469535 68.43896484 14.11352539 C71.01915283 15.40361938 72.8739603 15.24524677 75.76422119 15.25396729 C76.89421036 15.25967743 78.02419952 15.26538757 79.18843079 15.27127075 C81.05703011 15.27294754 81.05703011 15.27294754 82.96337891 15.2746582 C84.27076523 15.27962311 85.57815155 15.28458801 86.92515564 15.28970337 C90.51830017 15.30283722 94.11142601 15.30927454 97.7045908 15.31371403 C99.94961614 15.3166439 102.19463635 15.3207486 104.43965912 15.3252182 C111.46412611 15.33889734 118.48858142 15.34856127 125.51306081 15.35242009 C133.62080687 15.35689839 141.72838414 15.37443383 149.83607888 15.40342069 C156.1028313 15.42504741 162.36953627 15.43512494 168.6363256 15.43646121 C172.37903817 15.43750877 176.12159217 15.44340576 179.86426544 15.46128082 C184.04193837 15.4808444 188.21925898 15.4764686 192.39697266 15.4699707 C194.25342659 15.48379288 194.25342659 15.48379288 196.14738464 15.49789429 C204.2365387 15.53004939 204.2365387 15.53004939 211.43896484 12.11352539 C213.62797955 8.36092875 213.85447834 4.3697861 214.43896484 0.11352539 C223.20139926 0.04391545 231.96373801 -0.00934152 240.72638893 -0.04191113 C244.79555679 -0.05754548 248.86453501 -0.0787427 252.93359375 -0.11279297 C256.86285635 -0.14546644 260.79193692 -0.1633444 264.72132492 -0.17110634 C266.21799967 -0.17663556 267.71466481 -0.18743285 269.21126175 -0.20366478 C271.31293261 -0.22554604 273.41385796 -0.22843719 275.515625 -0.22705078 C276.71031403 -0.23371262 277.90500305 -0.24037445 279.13589478 -0.24723816 C283.48802819 0.2281048 286.86740695 1.64648916 290.08349609 4.64868164 C293.6873514 9.3614155 294.56393184 11.40491144 294.55921936 17.31436157 C294.560501 18.27860143 294.560501 18.27860143 294.56180853 19.26232088 C294.56346142 21.42580372 294.55794508 23.58920979 294.55249023 25.75268555 C294.5522083 27.29975889 294.55236623 28.84683237 294.55293274 30.39390564 C294.55322045 34.60234232 294.54732793 38.81075069 294.54035878 43.01918077 C294.53412091 47.41410206 294.5335211 51.80902395 294.53233337 56.20394897 C294.52922134 64.53018256 294.52100967 72.85640307 294.51098388 81.1826309 C294.49981879 90.66012515 294.4943113 100.13762003 294.48928845 109.61511922 C294.47882696 129.11459537 294.46122998 148.61405933 294.43896484 168.11352539 C293.81735977 168.19360336 293.1957547 168.27368134 292.55531311 168.35618591 C289.69427041 168.72753652 286.83421486 169.10603206 283.97412109 169.48461914 C282.9965686 169.61042358 282.01901611 169.73622803 281.01184082 169.86584473 C258.91412012 172.81312995 237.65574107 181.8597338 220.43896484 196.11352539 C219.88805176 196.56953125 219.33713867 197.02553711 218.76953125 197.49536133 C195.16042015 217.41918112 178.64413827 247.19493322 175.43896484 278.11352539 C174.35334914 299.52958864 176.04459867 319.26123818 184.26708984 339.15649414 C185.43896484 342.11352539 185.43896484 342.11352539 185.43896484 344.11352539 C160.50893562 344.20694269 135.57893261 344.27749189 110.64876366 344.32077408 C99.07340013 344.34140439 87.49814532 344.36953407 75.92285156 344.4152832 C65.83450804 344.45513646 55.74624326 344.48095479 45.6578232 344.48987937 C40.31543713 344.49509665 34.9732763 344.50736911 29.63096237 344.53644562 C24.60278701 344.56359071 19.57492975 344.57197216 14.54668808 344.56595612 C12.70120007 344.56705675 10.85570145 344.57501599 9.01027679 344.59034729 C6.48964549 344.61026125 3.97021374 344.60545983 1.44955444 344.59454346 C0.71996942 344.60619482 -0.0096156 344.61784619 -0.76130927 344.62985063 C-5.82357975 344.5706271 -8.64826037 343.26594007 -12.56103516 340.11352539 C-16.55259466 335.69044594 -17.68440067 332.63972613 -17.69525623 326.74796581 C-17.69971408 325.62752288 -17.70417192 324.50707995 -17.70876485 323.3526842 C-17.70858049 322.11652104 -17.70839613 320.88035788 -17.70820618 319.60673523 C-17.71188286 318.29758504 -17.71555955 316.98843485 -17.71934766 315.63961345 C-17.72937234 311.99806846 -17.73308519 308.35653994 -17.73573697 304.71498311 C-17.73963855 300.7905419 -17.7492169 296.86611377 -17.75794983 292.94168091 C-17.77771693 283.46117824 -17.78778013 273.9806745 -17.79667762 264.50015637 C-17.80105956 260.03747041 -17.80642656 255.57478563 -17.81166649 251.1121006 C-17.82867796 236.28086817 -17.84317317 221.44963649 -17.85041523 206.61839581 C-17.85232517 202.76919745 -17.8542455 198.91999911 -17.85620117 195.07080078 C-17.85668491 194.11408381 -17.85716865 193.15736683 -17.85766705 192.17165843 C-17.86597125 176.66590194 -17.8913151 161.1602225 -17.92378185 145.65449967 C-17.95683021 129.74153954 -17.97486192 113.8286186 -17.97805947 97.91562396 C-17.98022648 88.9784011 -17.98900317 80.04129064 -18.01452065 71.10410118 C-18.03619718 63.49452704 -18.04429308 55.8850926 -18.03455386 48.27549108 C-18.03000046 44.39218171 -18.03195544 40.50916078 -18.05131531 36.62589073 C-18.07211525 32.41747835 -18.06198994 28.20970929 -18.04878235 24.00126648 C-18.05975159 22.77179548 -18.07072084 21.54232449 -18.08202249 20.2755968 C-18.03375353 13.92891014 -17.91893268 9.89109976 -13.56103516 5.11352539 C-8.74949124 0.87478432 -6.37828423 -0.01159688 0 0 Z " fill="#EBEEF0" transform="translate(73.56103515625,95.886474609375)"/>
<path d="M0 0 C0.75023437 0.6084375 1.50046875 1.216875 2.2734375 1.84375 C7.01077692 5.83690966 11.13626315 10.16041175 15 15 C15.76183594 15.95132813 16.52367187 16.90265625 17.30859375 17.8828125 C37.0544319 43.50599176 44.13490258 74.77019793 40.57421875 106.6640625 C37.07206873 127.76290495 27.4249063 147.51071291 14 164 C13.3915625 164.75023437 12.783125 165.50046875 12.15625 166.2734375 C-6.04051572 187.86141865 -33.88183955 201.62455897 -61.7890625 204.71875 C-76.04763616 205.81071735 -90.15241824 205.85351257 -104 202 C-105.18078125 201.68289063 -106.3615625 201.36578125 -107.578125 201.0390625 C-123.74209481 196.18987156 -138.13936916 187.82405 -151 177 C-152.04027344 176.16855469 -152.04027344 176.16855469 -153.1015625 175.3203125 C-174.31646219 158.03063654 -187.7220784 129.57415174 -190.53149414 102.65136719 C-193.29839123 70.30335593 -185.95279516 40.33999719 -164.83203125 15.13671875 C-164.22746094 14.43160156 -163.62289063 13.72648437 -163 13 C-162.48824219 12.36707031 -161.97648437 11.73414063 -161.44921875 11.08203125 C-147.03856038 -6.51373221 -125.59012145 -17.92993391 -104 -24 C-102.90300781 -24.3196875 -101.80601562 -24.639375 -100.67578125 -24.96875 C-65.14543201 -33.7196684 -27.83495979 -22.66209115 0 0 Z " fill="#9BCB64" transform="translate(447,299)"/>
<path d="M0 0 C0.78130783 -0.00014603 1.56261566 -0.00029205 2.36759949 -0.0004425 C4.92681747 0.00024912 7.48596089 0.00800612 10.04516602 0.01586914 C11.82878072 0.01773599 13.61239595 0.01915863 15.39601135 0.02015686 C20.07308385 0.02396104 24.75012491 0.03377326 29.42718506 0.04486084 C34.2067421 0.05512023 38.98630425 0.05966416 43.76586914 0.06469727 C53.13111949 0.07539754 62.49633834 0.0929772 71.86157227 0.11352539 C71.86157227 8.03352539 71.86157227 15.95352539 71.86157227 24.11352539 C68.74365234 24.12754395 68.74365234 24.12754395 65.56274414 24.1418457 C58.6734744 24.17570417 51.78450142 24.23130204 44.89546967 24.29742813 C40.72106926 24.33683617 36.54687768 24.3690571 32.37231445 24.38452148 C28.33904289 24.39973243 24.30634569 24.4342555 20.27333069 24.48183441 C18.73931386 24.49660273 17.205215 24.50456378 15.67112732 24.50540924 C7.50517743 24.51443082 0.89972228 24.58597374 -6.13842773 29.11352539 C-6.84342407 29.45176331 -7.54842041 29.79000122 -8.27478027 30.13848877 C-10.75341087 31.43527674 -11.09177257 32.53177598 -12.13842773 35.11352539 C-12.64476777 36.04719751 -13.15110781 36.98086964 -13.67279148 37.94283485 C-16.0122695 43.44937385 -15.55484761 49.2740752 -15.52610779 55.15707397 C-15.53149333 56.47569227 -15.53687886 57.79431056 -15.5424276 59.15288699 C-15.55686576 62.80247561 -15.55264266 66.45183809 -15.54526079 70.101439 C-15.54052733 74.04156005 -15.55304057 77.9816323 -15.5632782 81.92173767 C-15.58046836 89.63683065 -15.58130572 97.35184219 -15.57606529 105.06694935 C-15.57202259 111.33864384 -15.57346835 117.61031426 -15.57881355 123.8820076 C-15.57993619 125.22134972 -15.57993619 125.22134972 -15.5810815 126.58774925 C-15.58261299 128.40171794 -15.58415134 130.21568662 -15.58569647 132.02965529 C-15.59942242 149.0383636 -15.59398326 166.0470259 -15.58251125 183.05573316 C-15.57257987 198.61094974 -15.58551773 214.16604735 -15.60944545 229.72124557 C-15.63383735 245.69876836 -15.64344402 261.67623573 -15.63679272 277.65377676 C-15.63330056 286.62176258 -15.63553229 295.58965691 -15.65304375 304.55762863 C-15.6677669 312.19228805 -15.66839976 319.82679157 -15.65097284 327.46144794 C-15.64246115 331.35527156 -15.64031716 335.24881672 -15.65562439 339.14262581 C-15.66947688 342.71061508 -15.66470171 346.27808747 -15.64538515 349.84604688 C-15.63985255 351.74087657 -15.65389216 353.63573261 -15.66873926 355.53051221 C-15.59586471 363.98605167 -14.22446508 370.25597871 -8.88842773 376.92602539 C-3.04803583 381.57179168 2.31300733 383.71644764 9.84692383 383.63250732 C10.60921641 383.64000858 11.371509 383.64750983 12.15690136 383.65523839 C14.68895011 383.67539723 17.22009324 383.66743655 19.75219727 383.65942383 C21.57602314 383.66816529 23.39984136 383.67865307 25.22364807 383.69075012 C30.15902864 383.71856048 35.09415833 383.7220159 40.02960587 383.72103024 C45.1932967 383.72416359 50.35687527 383.74979064 55.52050781 383.77301025 C65.2915053 383.81354132 75.06243609 383.83390419 84.83350468 383.84698415 C95.96050321 383.86286397 107.0873884 383.90128377 118.21432114 383.94157743 C141.09670012 384.02393681 163.97907594 384.0780537 186.86157227 384.11352539 C187.45325195 385.18731445 188.04493164 386.26110352 188.65454102 387.36743164 C189.452497 388.80375241 190.2506866 390.23994341 191.04907227 391.67602539 C191.43643555 392.38049805 191.82379883 393.0849707 192.22290039 393.81079102 C194.83023065 398.48674694 197.72124356 402.7795371 200.86157227 407.11352539 C200.86157227 407.44352539 200.86157227 407.77352539 200.86157227 408.11352539 C173.52331517 408.18364157 146.18507157 408.23652641 118.84674263 408.26896191 C106.15276201 408.28442332 93.45883731 408.30549906 80.76489258 408.33984375 C69.69939825 408.36976821 58.63394442 408.38910567 47.56841075 408.39579087 C41.71062702 408.39969794 35.85295912 408.40886518 29.99521255 408.43071556 C24.47788325 408.45112873 18.96071714 408.45734938 13.44335365 408.45284843 C11.42217305 408.45367147 9.4009868 408.45960819 7.37983894 408.47114182 C-7.91935213 408.55413907 -19.24508909 407.8287503 -31.13842773 397.11352539 C-39.52511783 387.48246868 -40.58196102 377.30479934 -40.51264954 364.92506409 C-40.51539342 363.49311479 -40.51944831 362.06116751 -40.52469319 360.62922519 C-40.535241 356.71243953 -40.5271765 352.79588338 -40.51594269 348.87910783 C-40.50707766 344.64794151 -40.51555088 340.41680448 -40.52180481 336.18563843 C-40.53128168 327.90364683 -40.52470254 319.6217425 -40.51254187 311.33975739 C-40.49890259 301.69028223 -40.50056146 292.04082772 -40.5026752 282.39134537 C-40.50586351 265.17070976 -40.49420679 247.95011553 -40.47460938 230.72949219 C-40.45560889 214.02895853 -40.44852127 197.32847338 -40.45410156 180.62792969 C-40.46016327 162.43288302 -40.45997487 144.23785767 -40.44861573 126.04281276 C-40.44740847 124.10154434 -40.44620248 122.16027592 -40.44499779 120.21900749 C-40.44439425 119.26392324 -40.44379071 118.30883899 -40.44316888 117.32481279 C-40.43929394 110.60278068 -40.43968173 103.88075652 -40.44158363 97.15872383 C-40.44370868 88.96313204 -40.43845815 80.76758268 -40.42397008 72.57200284 C-40.41674052 68.39255767 -40.41263676 64.2131742 -40.41721344 60.03372383 C-40.42130532 56.20375226 -40.41608064 52.37390779 -40.40358736 48.54395544 C-40.39929681 46.5107903 -40.40473283 44.47761171 -40.41057664 42.44445044 C-40.35261334 30.28867653 -39.16039029 20.67433689 -31.13842773 11.11352539 C-21.37557714 2.5238929 -12.90778404 -0.06419636 0 0 Z " fill="#778F9B" transform="translate(64.138427734375,63.886474609375)"/>
<path d="M0 0 C9.05198901 7.689324 12.10477709 16.37099704 13.7421875 27.7265625 C13.90370315 30.78719301 13.90370315 30.78719301 15.25 31.9375 C17.29803911 32.0715473 19.35036277 32.14108567 21.40234375 32.18359375 C22.65337891 32.21646484 23.90441406 32.24933594 25.19335938 32.28320312 C27.85212861 32.34430931 30.51098802 32.40161256 33.16992188 32.45507812 C35.0484082 32.50631836 35.0484082 32.50631836 36.96484375 32.55859375 C38.69915649 32.59617798 38.69915649 32.59617798 40.46850586 32.63452148 C43.25 32.9375 43.25 32.9375 45.25 34.9375 C45.50396729 37.13867187 45.50396729 37.13867187 45.50878906 39.90625 C45.51509338 40.94072266 45.52139771 41.97519531 45.52789307 43.04101562 C45.52182037 44.72227539 45.52182037 44.72227539 45.515625 46.4375 C45.51753845 47.58412109 45.5194519 48.73074219 45.52142334 49.91210938 C45.52278622 52.33984598 45.51908267 54.76758984 45.51074219 57.1953125 C45.50004438 60.92204073 45.51063431 64.64828686 45.5234375 68.375 C45.52211592 70.72916774 45.51955357 73.08333517 45.515625 75.4375 C45.51967346 76.55833984 45.52372192 77.67917969 45.52789307 78.83398438 C45.51843658 80.38569336 45.51843658 80.38569336 45.50878906 81.96875 C45.50719788 82.88205078 45.50560669 83.79535156 45.50396729 84.73632812 C45.25 86.9375 45.25 86.9375 43.25 88.9375 C40.94799805 89.18918228 40.94799805 89.18918228 38.01171875 89.19146729 C36.34592773 89.19992676 36.34592773 89.19992676 34.64648438 89.20855713 C33.42251953 89.20450867 32.19855469 89.20046021 30.9375 89.19628906 C29.65294922 89.1997937 28.36839844 89.20329834 27.04492188 89.20690918 C23.51605476 89.21604611 19.98730427 89.21248361 16.45843506 89.20615101 C12.77046386 89.20109773 9.08250283 89.20578058 5.39453125 89.20892334 C-0.79949746 89.21256496 -6.99347852 89.20775879 -13.1875 89.19824219 C-20.35503457 89.18735724 -27.52245537 89.19088268 -34.68998718 89.201895 C-40.83693925 89.21096233 -46.98385701 89.21225588 -53.1308136 89.20701766 C-56.80516424 89.2038949 -60.47946136 89.20349697 -64.15380859 89.21009064 C-68.24844127 89.21692486 -72.3428769 89.20746042 -76.4375 89.19628906 C-77.66146484 89.20033752 -78.88542969 89.20438599 -80.14648438 89.20855713 C-81.25701172 89.20291748 -82.36753906 89.19727783 -83.51171875 89.19146729 C-84.48069092 89.19071323 -85.44966309 89.18995918 -86.44799805 89.18918228 C-88.75 88.9375 -88.75 88.9375 -90.75 86.9375 C-91.00396729 84.73632812 -91.00396729 84.73632812 -91.00878906 81.96875 C-91.01509338 80.93427734 -91.02139771 79.89980469 -91.02789307 78.83398438 C-91.0238446 77.71314453 -91.01979614 76.59230469 -91.015625 75.4375 C-91.01753845 74.29087891 -91.0194519 73.14425781 -91.02142334 71.96289062 C-91.02278622 69.53515402 -91.01908267 67.10741016 -91.01074219 64.6796875 C-91.00004438 60.95295927 -91.01063431 57.22671314 -91.0234375 53.5 C-91.02211592 51.14583226 -91.01955357 48.79166483 -91.015625 46.4375 C-91.01967346 45.31666016 -91.02372192 44.19582031 -91.02789307 43.04101562 C-91.02158875 42.00654297 -91.01528442 40.97207031 -91.00878906 39.90625 C-91.00719788 38.99294922 -91.00560669 38.07964844 -91.00396729 37.13867188 C-90.75 34.9375 -90.75 34.9375 -88.75 32.9375 C-85.95263672 32.61865234 -85.95263672 32.61865234 -82.4296875 32.5234375 C-80.54443359 32.46542969 -80.54443359 32.46542969 -78.62109375 32.40625 C-76.64302734 32.35984375 -76.64302734 32.35984375 -74.625 32.3125 C-73.28513082 32.27431971 -71.94528617 32.23526794 -70.60546875 32.1953125 C-67.32045381 32.1007797 -64.03544862 32.01522844 -60.75 31.9375 C-59.57787264 28.0144615 -58.60083965 24.24252597 -58.0625 20.1875 C-56.00178286 9.91513727 -49.80772103 3.29102982 -41.3984375 -2.50390625 C-28.32534939 -10.19736076 -12.16309485 -8.57601264 0 0 Z M-32.75 22.9375 C-34.36429923 26.16609847 -34.34570657 29.44743653 -33.75 32.9375 C-32.01397895 35.96258145 -29.91419863 38.35540069 -26.75 39.9375 C-21.62629602 40.54478845 -21.62629602 40.54478845 -16.92578125 38.890625 C-13.12247256 35.75957185 -11.86336633 34.07116332 -11.375 29.1875 C-11.39941225 25.83691932 -11.99398646 24.08855468 -14.125 21.5 C-17.6548586 18.05418565 -19.6783652 17.54194164 -24.64453125 17.578125 C-28.36593453 18.21331814 -30.15312849 20.27729016 -32.75 22.9375 Z " fill="#FEC928" transform="translate(234.75,15.0625)"/>
<path d="M0 0 C10.6318648 -0.0906531 21.26346958 -0.16391835 31.89563465 -0.20724869 C36.83348352 -0.22805334 41.77105244 -0.25623972 46.70874023 -0.30175781 C51.48093576 -0.34547105 56.25286335 -0.36919057 61.02524376 -0.37950897 C62.83877462 -0.38685487 64.65229213 -0.40119885 66.46570778 -0.42292023 C79.51000378 -0.57284087 90.46309624 0.129471 100.92578125 8.8828125 C111.60718096 19.78548415 112.29904431 31.26102912 112.22705078 45.6875 C112.22648599 47.27486667 112.22680454 48.86223386 112.22793579 50.44960022 C112.22850767 54.7403582 112.2167801 59.0310035 112.20278788 63.32173538 C112.190253 67.8127103 112.18910785 72.30368803 112.18673706 76.79467773 C112.18053038 85.29072668 112.16413058 93.78672391 112.14403808 102.28275013 C112.12165377 111.95868141 112.11067929 121.63461521 112.10064721 131.31056595 C112.07976362 151.20707356 112.04419878 171.1035317 112 191 C104.08 190.34 96.16 189.68 88 189 C87.99453156 186.26420654 87.99453156 186.26420654 87.98895264 183.47314453 C87.95201551 166.28707043 87.89449328 149.10117405 87.81609726 131.91523743 C87.77631992 123.07971906 87.74392081 114.2442896 87.72900391 105.40869141 C87.71598061 97.70587641 87.68899869 90.00325713 87.64538693 82.30055237 C87.62278727 78.22352426 87.60708841 74.14673741 87.60811615 70.06964111 C87.60886366 66.22816164 87.59087711 62.38721516 87.55883217 58.54587364 C87.55034864 57.13988363 87.54857274 55.73383372 87.55419731 54.32782936 C87.58717998 44.8117446 86.91026626 38.63057847 80.625 31.1875 C74.52975554 26.10812962 69.02844733 24.89481321 61.30371094 24.79467773 C60.63988403 24.78477814 59.97605713 24.77487854 59.29211426 24.76467896 C57.10623698 24.7331874 54.920338 24.70835563 52.734375 24.68359375 C51.21550951 24.66301355 49.69664962 24.64201679 48.17779541 24.62062073 C44.18628475 24.56551016 40.19472335 24.51605247 36.203125 24.46777344 C32.1275584 24.41747783 28.0520652 24.36183389 23.9765625 24.30664062 C15.98443546 24.19919381 7.99224584 24.09821355 0 24 C0 16.08 0 8.16 0 0 Z " fill="#778F9B" transform="translate(288,64)"/>
<path d="M0 0 C0.99 1.051875 0.99 1.051875 2 2.125 C11.86913846 11.88386876 22.95518838 17.17352176 36.83065796 17.1111145 C37.73230734 17.11111352 38.63395671 17.11111253 39.5629288 17.11111152 C42.59064036 17.11007665 45.61829503 17.10205739 48.64599609 17.09423828 C50.81416282 17.09235946 52.98233006 17.09101435 55.15049744 17.09016418 C59.82294561 17.0878792 64.49538304 17.08315452 69.16782761 17.07696915 C76.55449986 17.06857396 83.94112001 17.07399243 91.32778931 17.08297729 C92.57386566 17.0844483 93.819942 17.08591931 95.10377824 17.08743489 C97.65190258 17.09050563 100.20002685 17.09362566 102.74815106 17.09679389 C119.9474202 17.11799209 137.1464522 17.13164995 154.34570312 17.09960938 C165.94453057 17.07810196 177.5430595 17.08119169 189.14186728 17.11301792 C195.28130433 17.12889058 201.42017047 17.1320557 207.55958176 17.10525894 C213.33332513 17.08027896 219.10611076 17.08771537 224.87980843 17.12013817 C226.99941717 17.12624 229.11909917 17.12035571 231.23863411 17.10164452 C234.13203824 17.07786418 237.02209989 17.09705552 239.91537476 17.12698364 C241.17491582 17.10121205 241.17491582 17.10121205 242.45990217 17.07491982 C245.88626097 17.14880141 248.10817798 17.23910411 250.77466321 19.5141294 C252.35733986 21.37243462 252.35733986 21.37243462 253.67805445 23.21486557 C255.91955759 26.24175607 258.89827663 28.35783965 261.875 30.625 C262.4848877 31.0979248 263.09477539 31.57084961 263.72314453 32.05810547 C267.99101544 35.33123503 272.38690966 38.2321458 277 41 C277 41.33 277 41.66 277 42 C245.70388995 42.06848295 214.40779976 42.12155233 183.11163253 42.15319599 C179.41426532 42.15694797 175.71689825 42.16083095 172.01953125 42.16479492 C171.28347251 42.16558185 170.54741376 42.16636878 169.78905021 42.16717956 C157.88120773 42.18022258 145.97340883 42.20387033 134.06559218 42.23145839 C121.84107247 42.25954333 109.61657553 42.27618278 97.39202487 42.28226548 C89.85282646 42.28637553 82.31375125 42.2993424 74.77459078 42.3237494 C68.98711945 42.34152766 63.19972653 42.34335783 57.41223335 42.33932304 C55.0427417 42.34014712 52.67324531 42.34609779 50.30378151 42.35761642 C47.06222469 42.37259917 43.82118992 42.36893223 40.57962036 42.36076355 C39.18171664 42.37387134 39.18171664 42.37387134 37.75557244 42.38724393 C26.25876529 42.30923486 17.55206367 38.69147865 9 31 C0.93595442 21.88697288 -0.54786637 11.80956404 0 0 Z " fill="#445963" transform="translate(24,462)"/>
<path d="M0 0 C4.23301121 2.82200747 7.17159664 5.95228992 8.8125 10.875 C9.24259945 17.43401667 8.65262631 21.55223954 4.1774025 26.78795624 C2.04046147 29.03747352 -0.14080187 31.23351217 -2.34326172 33.41894531 C-3.1744754 34.25541595 -4.00568909 35.0918866 -4.86209106 35.95370483 C-7.13343549 38.23596038 -9.41136113 40.51137141 -11.69292593 42.78340244 C-14.08406117 45.16691732 -16.46783987 47.55777175 -18.85281372 49.94744873 C-22.85727143 53.95735602 -26.86799428 57.96091507 -30.88232422 61.9609375 C-35.51920174 66.5814789 -40.14515797 71.21274344 -44.76561153 75.84970403 C-48.73896294 79.83667974 -52.71814376 83.81776649 -56.70223439 87.79401088 C-59.07917467 90.16628128 -61.45405853 92.54051504 -63.82369614 94.92008209 C-66.46626062 97.5702557 -69.11823488 100.21063755 -71.77294922 102.84863281 C-72.55442322 103.6361795 -73.33589722 104.4237262 -74.14105225 105.23513794 C-74.86720734 105.95283356 -75.59336243 106.67052917 -76.34152222 107.40997314 C-76.96721037 108.03453022 -77.59289852 108.6590873 -78.23754692 109.30257034 C-81.67979618 112.07837807 -85.24423555 113.17191151 -89.625 113.25 C-90.34558594 113.27835937 -91.06617188 113.30671875 -91.80859375 113.3359375 C-99.2431761 111.89541087 -104.84792823 104.50343624 -109.92578125 99.40234375 C-110.84715378 98.48288467 -111.76852631 97.5634256 -112.71781921 96.61610413 C-114.65832472 94.67853355 -116.59520068 92.73742609 -118.52954102 90.79370117 C-121.00878008 88.30302057 -123.49695565 85.82149139 -125.98788166 83.34250546 C-128.36787846 80.97146447 -130.74023627 78.59284265 -133.11328125 76.21484375 C-134.00799637 75.32417709 -134.90271149 74.43351044 -135.82453918 73.51585388 C-136.64596909 72.68811966 -137.46739899 71.86038544 -138.3137207 71.00756836 C-139.03952835 70.28016953 -139.765336 69.55277069 -140.51313782 68.80332947 C-143.88678688 64.91796526 -143.52045149 60.50027834 -143.46875 55.6015625 C-142.9421282 50.49625675 -140.29587353 47.87523953 -136.625 44.5625 C-132.48185809 41.69417099 -129.13669042 41.53946167 -124.1875 41.875 C-118.82734206 44.0001625 -115.4202992 47.24422009 -111.4765625 51.29296875 C-110.86356293 51.91021317 -110.25056335 52.52745758 -109.61898804 53.16340637 C-107.67629209 55.12280025 -105.74433057 57.09239868 -103.8125 59.0625 C-102.49158236 60.39847591 -101.16997471 61.73376996 -99.84765625 63.06835938 C-96.61956478 66.32940216 -93.40105481 69.59963387 -90.1875 72.875 C-87.40218634 71.60372391 -85.36607558 70.29959976 -83.21673584 68.1245575 C-82.65905014 67.56528564 -82.10136444 67.00601379 -81.52677917 66.42979431 C-80.92722916 65.81834061 -80.32767914 65.2068869 -79.70996094 64.5769043 C-78.74812645 63.60827957 -78.74812645 63.60827957 -77.76686096 62.62008667 C-76.37603737 61.21831196 -74.98749557 59.81427044 -73.60097504 58.40823936 C-71.40240982 56.1794863 -69.19721285 53.95749719 -66.99005127 51.73725891 C-60.71607674 45.42356198 -54.45477564 39.09735069 -48.19677734 32.76782227 C-44.36655121 28.89474865 -40.52893714 25.02911727 -36.68695831 21.16770363 C-35.22807608 19.69828898 -33.7721138 18.22596906 -32.31920624 16.75064659 C-30.28053934 14.68059013 -28.23264269 12.62007913 -26.18261719 10.5612793 C-25.59116409 9.95589828 -24.999711 9.35051727 -24.39033508 8.72679138 C-17.11806325 1.47028784 -10.50031506 -3.70599355 0 0 Z " fill="#3B4B51" transform="translate(439.1875,331.125)"/>
<path d="M0 0 C0.89297791 -0.00570007 1.78595581 -0.01140015 2.70599365 -0.01727295 C4.59906833 -0.02672986 6.49215952 -0.03325967 8.38525391 -0.03710938 C11.27145476 -0.04678974 14.15693589 -0.07779591 17.04296875 -0.109375 C18.88280827 -0.11590764 20.72265289 -0.12115709 22.5625 -0.125 C23.42208313 -0.1373468 24.28166626 -0.1496936 25.16729736 -0.16241455 C30.91165895 -0.14123443 35.31638346 0.65423385 39.69140625 4.73828125 C43.84815577 10.17403062 44.21701801 13.42245287 44.25 20.15625 C44.25570007 21.04922791 44.26140015 21.94220581 44.26727295 22.86224365 C44.27672986 24.75531833 44.28325967 26.64840952 44.28710938 28.54150391 C44.29678974 31.42770476 44.32779591 34.31318589 44.359375 37.19921875 C44.36590764 39.03905827 44.37115709 40.87890289 44.375 42.71875 C44.3873468 43.57833313 44.3996936 44.43791626 44.41241455 45.32354736 C44.39122509 51.07044135 43.574417 55.4320438 39.546875 59.84765625 C35.67207956 62.86474957 32.92522806 64.31174671 28.0378418 64.38012695 C27.23658371 64.39296219 26.43532562 64.40579742 25.60978699 64.41902161 C24.74726822 64.42640854 23.88474945 64.43379547 22.99609375 64.44140625 C22.10453079 64.449478 21.21296783 64.45754974 20.29438782 64.46586609 C18.40729714 64.47969406 16.52018158 64.49042197 14.63305664 64.49829102 C11.755537 64.51549845 8.87916819 64.55939488 6.00195312 64.60351562 C4.1666751 64.61364355 2.33138732 64.62215934 0.49609375 64.62890625 C-0.36035233 64.64641434 -1.2167984 64.66392242 -2.09919739 64.68196106 C-7.55282247 64.66228095 -10.62135931 63.82183261 -14.953125 60.203125 C-18.45590144 56.32167003 -20.05699002 53.4214561 -20.13012695 48.1940918 C-20.14296219 47.39283371 -20.15579742 46.59157562 -20.16902161 45.76603699 C-20.17640854 44.90351822 -20.18379547 44.04099945 -20.19140625 43.15234375 C-20.199478 42.26078079 -20.20754974 41.36921783 -20.21586609 40.45063782 C-20.22969406 38.56354714 -20.24042197 36.67643158 -20.24829102 34.78930664 C-20.26549845 31.911787 -20.30939488 29.03541819 -20.35351562 26.15820312 C-20.36364355 24.3229251 -20.37215934 22.48763732 -20.37890625 20.65234375 C-20.39641434 19.79589767 -20.41392242 18.9394516 -20.43196106 18.05705261 C-20.4122858 12.60476929 -19.5753416 9.53116702 -15.953125 5.203125 C-10.5280473 0.42388989 -7.08195108 0.03468724 0 0 Z " fill="#EBEEF0" transform="translate(115.953125,331.796875)"/>
<path d="M0 0 C0.89297791 -0.00570007 1.78595581 -0.01140015 2.70599365 -0.01727295 C4.59906833 -0.02672986 6.49215952 -0.03325967 8.38525391 -0.03710938 C11.27145476 -0.04678974 14.15693589 -0.07779591 17.04296875 -0.109375 C18.88280827 -0.11590764 20.72265289 -0.12115709 22.5625 -0.125 C23.42208313 -0.1373468 24.28166626 -0.1496936 25.16729736 -0.16241455 C30.91165895 -0.14123443 35.31638346 0.65423385 39.69140625 4.73828125 C43.84815577 10.17403062 44.21701801 13.42245287 44.25 20.15625 C44.25570007 21.04922791 44.26140015 21.94220581 44.26727295 22.86224365 C44.27672986 24.75531833 44.28325967 26.64840952 44.28710938 28.54150391 C44.29678974 31.42770476 44.32779591 34.31318589 44.359375 37.19921875 C44.36590764 39.03905827 44.37115709 40.87890289 44.375 42.71875 C44.3873468 43.57833313 44.3996936 44.43791626 44.41241455 45.32354736 C44.39122509 51.07044135 43.574417 55.4320438 39.546875 59.84765625 C35.67207956 62.86474957 32.92522806 64.31174671 28.0378418 64.38012695 C27.23658371 64.39296219 26.43532562 64.40579742 25.60978699 64.41902161 C24.74726822 64.42640854 23.88474945 64.43379547 22.99609375 64.44140625 C22.10453079 64.449478 21.21296783 64.45754974 20.29438782 64.46586609 C18.40729714 64.47969406 16.52018158 64.49042197 14.63305664 64.49829102 C11.755537 64.51549845 8.87916819 64.55939488 6.00195312 64.60351562 C4.1666751 64.61364355 2.33138732 64.62215934 0.49609375 64.62890625 C-0.36035233 64.64641434 -1.2167984 64.66392242 -2.09919739 64.68196106 C-7.55282247 64.66228095 -10.62135931 63.82183261 -14.953125 60.203125 C-18.45590144 56.32167003 -20.05699002 53.4214561 -20.13012695 48.1940918 C-20.14296219 47.39283371 -20.15579742 46.59157562 -20.16902161 45.76603699 C-20.17640854 44.90351822 -20.18379547 44.04099945 -20.19140625 43.15234375 C-20.199478 42.26078079 -20.20754974 41.36921783 -20.21586609 40.45063782 C-20.22969406 38.56354714 -20.24042197 36.67643158 -20.24829102 34.78930664 C-20.26549845 31.911787 -20.30939488 29.03541819 -20.35351562 26.15820312 C-20.36364355 24.3229251 -20.37215934 22.48763732 -20.37890625 20.65234375 C-20.39641434 19.79589767 -20.41392242 18.9394516 -20.43196106 18.05705261 C-20.4122858 12.60476929 -19.5753416 9.53116702 -15.953125 5.203125 C-10.5280473 0.42388989 -7.08195108 0.03468724 0 0 Z " fill="#EBEEF0" transform="translate(115.953125,235.796875)"/>
<path d="M0 0 C0.89297791 -0.00570007 1.78595581 -0.01140015 2.70599365 -0.01727295 C4.59906833 -0.02672986 6.49215952 -0.03325967 8.38525391 -0.03710938 C11.27145476 -0.04678974 14.15693589 -0.07779591 17.04296875 -0.109375 C18.88280827 -0.11590764 20.72265289 -0.12115709 22.5625 -0.125 C23.42208313 -0.1373468 24.28166626 -0.1496936 25.16729736 -0.16241455 C30.91165895 -0.14123443 35.31638346 0.65423385 39.69140625 4.73828125 C43.84815577 10.17403062 44.21701801 13.42245287 44.25 20.15625 C44.25570007 21.04922791 44.26140015 21.94220581 44.26727295 22.86224365 C44.27672986 24.75531833 44.28325967 26.64840952 44.28710938 28.54150391 C44.29678974 31.42770476 44.32779591 34.31318589 44.359375 37.19921875 C44.36590764 39.03905827 44.37115709 40.87890289 44.375 42.71875 C44.3873468 43.57833313 44.3996936 44.43791626 44.41241455 45.32354736 C44.39122509 51.07044135 43.574417 55.4320438 39.546875 59.84765625 C35.67207956 62.86474957 32.92522806 64.31174671 28.0378418 64.38012695 C27.23658371 64.39296219 26.43532562 64.40579742 25.60978699 64.41902161 C24.74726822 64.42640854 23.88474945 64.43379547 22.99609375 64.44140625 C22.10453079 64.449478 21.21296783 64.45754974 20.29438782 64.46586609 C18.40729714 64.47969406 16.52018158 64.49042197 14.63305664 64.49829102 C11.755537 64.51549845 8.87916819 64.55939488 6.00195312 64.60351562 C4.1666751 64.61364355 2.33138732 64.62215934 0.49609375 64.62890625 C-0.36035233 64.64641434 -1.2167984 64.66392242 -2.09919739 64.68196106 C-7.55282247 64.66228095 -10.62135931 63.82183261 -14.953125 60.203125 C-18.45590144 56.32167003 -20.05699002 53.4214561 -20.13012695 48.1940918 C-20.14296219 47.39283371 -20.15579742 46.59157562 -20.16902161 45.76603699 C-20.17640854 44.90351822 -20.18379547 44.04099945 -20.19140625 43.15234375 C-20.199478 42.26078079 -20.20754974 41.36921783 -20.21586609 40.45063782 C-20.22969406 38.56354714 -20.24042197 36.67643158 -20.24829102 34.78930664 C-20.26549845 31.911787 -20.30939488 29.03541819 -20.35351562 26.15820312 C-20.36364355 24.3229251 -20.37215934 22.48763732 -20.37890625 20.65234375 C-20.39641434 19.79589767 -20.41392242 18.9394516 -20.43196106 18.05705261 C-20.4122858 12.60476929 -19.5753416 9.53116702 -15.953125 5.203125 C-10.5280473 0.42388989 -7.08195108 0.03468724 0 0 Z " fill="#EBEEF0" transform="translate(115.953125,139.796875)"/>
<path d="M0 0 C0 3.96 0 7.92 0 12 C-1.39089844 12.15855469 -2.78179687 12.31710937 -4.21484375 12.48046875 C-29.89319599 15.57339233 -53.77423874 23.25506576 -74 40 C-74.55091309 40.45600586 -75.10182617 40.91201172 -75.66943359 41.38183594 C-99.2785447 61.30565573 -115.79482657 91.08140783 -119 122 C-120.0856157 143.41606325 -118.39436617 163.14771279 -110.171875 183.04296875 C-109 186 -109 186 -109 188 C-113.29 188 -117.58 188 -122 188 C-127.27076519 173.91051118 -131.45524987 160.15687134 -132 145 C-132.03254883 144.16178711 -132.06509766 143.32357422 -132.09863281 142.45996094 C-132.58590042 128.1323246 -131.71832092 114.86808436 -128 101 C-127.81808105 100.32146973 -127.63616211 99.64293945 -127.44873047 98.94384766 C-118.59996532 67.27333432 -96.69628534 38.5105913 -69 21 C-68.15985352 20.46536133 -68.15985352 20.46536133 -67.30273438 19.91992188 C-47.3667287 7.43404981 -23.67338523 -0.35778416 0 0 Z " fill="#AFBDC4" transform="translate(368,252)"/>
<path d="M0 0 C3.63431619 0.71676831 5.26799975 1.73711648 7.70603943 4.53369141 C8.45603943 7.78369141 8.45603943 7.78369141 7.70603943 11.53369141 C6.38009357 13.36680698 6.38009357 13.36680698 4.65435791 15.26478577 C4.01810297 15.96533144 3.38184803 16.66587711 2.72631264 17.38765144 C-0.5302126 20.84690303 -3.85288752 24.2317267 -7.21705627 27.58618164 C-7.97564438 28.34652206 -8.73423248 29.10686249 -9.51580811 29.89024353 C-11.99796089 32.37676116 -14.48370975 34.85964652 -16.96974182 37.34228516 C-18.70387133 39.07708882 -20.43785241 40.81204087 -22.17169189 42.5471344 C-25.79196173 46.16887357 -29.41402197 49.78880995 -33.03736877 53.4074707 C-37.68923132 58.05361077 -42.33655583 62.70426017 -46.9825716 67.35624599 C-50.55541838 70.93269725 -54.1306322 74.50677459 -57.70657921 78.08012581 C-59.42219198 79.79507032 -61.13705898 81.51076123 -62.85117531 83.22720146 C-65.23765739 85.61621092 -67.62730023 88.0020122 -70.01783752 90.38696289 C-70.72900726 91.10015686 -71.440177 91.81335083 -72.17289734 92.54815674 C-72.82183456 93.19427414 -73.47077179 93.84039154 -74.13937378 94.50608826 C-74.98576904 95.35191798 -74.98576904 95.35191798 -75.84926319 96.21483517 C-78.34095639 98.48948809 -80.8144092 99.18256453 -84.19535828 99.11499023 C-89.14531216 97.74388605 -92.66147866 93.17481351 -96.16505432 89.62744141 C-97.08738358 88.71418091 -98.00971283 87.80092041 -98.95999146 86.85998535 C-100.9071885 84.92759197 -102.84096319 82.98290368 -104.76637268 81.02880859 C-107.22841093 78.53250335 -109.72266516 76.07156468 -112.22828579 73.61910248 C-114.62227913 71.26590949 -116.98570936 68.88294032 -119.35255432 66.50244141 C-120.69766335 65.18632874 -120.69766335 65.18632874 -122.06994629 63.84362793 C-128.83187172 56.89998915 -128.83187172 56.89998915 -128.98170471 52.10205078 C-128.29396057 48.53369141 -128.29396057 48.53369141 -126.23146057 45.47119141 C-123.29396057 43.53369141 -123.29396057 43.53369141 -120.0796051 43.46899414 C-114.87453427 44.93289933 -112.40860816 47.74814631 -108.78614807 51.63134766 C-107.75338242 52.69463539 -107.75338242 52.69463539 -106.69975281 53.77940369 C-104.50786682 56.03779571 -102.33671167 58.31463939 -100.16896057 60.59619141 C-97.99318841 62.88034364 -95.81324446 65.15945395 -93.616745 67.4236908 C-92.25206431 68.83071688 -90.89922887 70.2493503 -89.55979919 71.68043518 C-88.94210663 72.31787155 -88.32441406 72.95530792 -87.68800354 73.61206055 C-86.88361343 74.46025108 -86.88361343 74.46025108 -86.06297302 75.32557678 C-83.6506205 76.97304872 -82.17342204 76.81650105 -79.29396057 76.53369141 C-77.42869212 75.38307038 -77.42869212 75.38307038 -75.84780884 73.6484375 C-75.21013077 73.00896179 -74.5724527 72.36948608 -73.91545105 71.71063232 C-73.23219757 70.9999762 -72.54894409 70.28932007 -71.84498596 69.55712891 C-71.11262222 68.81585754 -70.38025848 68.07458618 -69.6257019 67.31085205 C-68.03618944 65.69895502 -66.45244789 64.08135165 -64.87381172 62.45880127 C-62.37603543 59.89268369 -59.86264509 57.34285902 -57.34436035 54.796875 C-51.09303351 48.47062513 -44.86715572 42.1195463 -38.6452179 35.7644043 C-33.38846748 30.39593947 -28.12012012 25.03943844 -22.83436394 19.69952393 C-20.35504467 17.18498754 -17.89399981 14.65343847 -15.43289185 12.12109375 C-13.91362894 10.58323329 -12.39348846 9.04623913 -10.87232971 7.51025391 C-10.19110046 6.79959778 -9.50987122 6.08894165 -8.80799866 5.35675049 C-4.10959062 0.66584076 -4.10959062 0.66584076 0 0 Z " fill="#EAEDEF" transform="translate(432.29396057128906,337.46630859375)"/>
<path d="M0 0 C0.81159576 -0.00960754 1.62319153 -0.01921509 2.4593811 -0.02911377 C3.77185318 -0.03548859 3.77185318 -0.03548859 5.11083984 -0.04199219 C6.01748383 -0.04769226 6.92412781 -0.05339233 7.85824585 -0.05926514 C9.77983434 -0.06871412 11.70143902 -0.07524871 13.62304688 -0.07910156 C16.53984589 -0.08876144 19.45592631 -0.11976663 22.37255859 -0.15136719 C24.24364818 -0.15790224 26.11474279 -0.16315074 27.98583984 -0.16699219 C28.84867584 -0.17933899 29.71151184 -0.19168579 30.60049438 -0.20440674 C37.59497756 -0.17913171 43.69286289 1.16441258 49.69677734 4.84863281 C54.46521852 9.74953068 58.02992399 15.34549697 58.1237793 22.30615234 C58.14303215 23.55357712 58.14303215 23.55357712 58.16267395 24.82620239 C58.17006088 25.72305756 58.17744781 26.61991272 58.18505859 27.54394531 C58.19313034 28.47278534 58.20120209 29.40162537 58.20951843 30.35861206 C58.2233523 32.32727192 58.23407758 34.29595569 58.24194336 36.26464844 C58.25909331 39.25405388 58.30297811 42.24233495 58.34716797 45.23144531 C58.35730101 47.14810388 58.3658152 49.06477182 58.37255859 50.98144531 C58.39006668 51.86615509 58.40757477 52.75086487 58.4256134 53.66238403 C58.3995067 61.25220104 56.46455244 67.26569146 51.44677734 73.03613281 C50.20927734 74.08800781 50.20927734 74.08800781 48.94677734 75.16113281 C48.32802734 75.71800781 47.70927734 76.27488281 47.07177734 76.84863281 C41.26530813 80.43498145 34.97546999 80.47989132 28.35693359 80.49707031 C27.45357773 80.50372711 26.55022186 80.51038391 25.61949158 80.51724243 C23.71762108 80.527323 21.81571554 80.53206088 19.91381836 80.53173828 C17.0212124 80.53611475 14.13012994 80.57249182 11.23779297 80.61035156 C9.38167834 80.61622024 7.52555654 80.62018929 5.66943359 80.62207031 C4.81398453 80.63644135 3.95853546 80.65081238 3.0771637 80.6656189 C-4.2496516 80.61048223 -9.38970695 78.52870233 -14.86572266 73.66113281 C-21.07824801 66.56110384 -22.36578713 60.73901627 -22.38916016 51.45019531 C-22.39581696 50.52322845 -22.40247375 49.5962616 -22.40933228 48.64120483 C-22.41942649 46.68627904 -22.4241503 44.73131901 -22.42382812 42.77636719 C-22.42819864 39.80247626 -22.46454511 36.83007384 -22.50244141 33.85644531 C-22.50831097 31.95020035 -22.51227943 30.04394839 -22.51416016 28.13769531 C-22.52853119 27.25723541 -22.54290222 26.37677551 -22.55770874 25.46963501 C-22.50386739 18.11152292 -20.48712162 12.97933161 -15.67822266 7.41113281 C-10.79785012 3.22795635 -6.55438817 0.06282783 0 0 Z M-11.36572266 14.78613281 C-14.48236857 19.17252336 -14.23070977 22.87987545 -14.25634766 28.11425781 C-14.26204773 29.00723572 -14.2677478 29.90021362 -14.27362061 30.82025146 C-14.28307751 32.71332614 -14.28960732 34.60641733 -14.29345703 36.49951172 C-14.3031374 39.38571257 -14.33414357 42.2711937 -14.36572266 45.15722656 C-14.37225529 46.99706609 -14.37750474 48.8369107 -14.38134766 50.67675781 C-14.39369446 51.53634094 -14.40604126 52.39592407 -14.41876221 53.28155518 C-14.39758209 59.02591676 -13.60211381 63.43064127 -9.51806641 67.80566406 C-4.08231703 71.96241358 -0.83389479 72.33127582 5.89990234 72.36425781 C6.79288025 72.36995789 7.68585815 72.37565796 8.605896 72.38153076 C10.49897067 72.39098767 12.39206187 72.39751748 14.28515625 72.40136719 C17.1713571 72.41104755 20.05683823 72.44205372 22.94287109 72.47363281 C24.78271062 72.48016545 26.62255524 72.4854149 28.46240234 72.48925781 C29.75177704 72.50777802 29.75177704 72.50777802 31.06719971 72.52667236 C36.81409369 72.5054829 41.17569614 71.68867481 45.59130859 67.66113281 C48.60840192 63.78633737 50.05539905 61.03948588 50.1237793 56.15209961 C50.13661453 55.35084152 50.14944977 54.54958344 50.16267395 53.7240448 C50.17006088 52.86152603 50.17744781 51.99900726 50.18505859 51.11035156 C50.19716621 49.77300713 50.19716621 49.77300713 50.20951843 48.40864563 C50.22334641 46.52155495 50.23407432 44.63443939 50.24194336 42.74731445 C50.2591508 39.86979482 50.30304722 36.993426 50.34716797 34.11621094 C50.35729589 32.28093291 50.36581168 30.44564513 50.37255859 28.61035156 C50.39882072 27.32568245 50.39882072 27.32568245 50.4256134 26.01506042 C50.4059333 20.56143534 49.56548496 17.4928985 45.94677734 13.16113281 C42.06532237 9.65835637 39.16510844 8.0572678 33.93774414 7.98413086 C32.73585701 7.96487801 32.73585701 7.96487801 31.50968933 7.94523621 C30.21591118 7.93415581 30.21591118 7.93415581 28.89599609 7.92285156 C27.55865166 7.91074394 27.55865166 7.91074394 26.19429016 7.89839172 C24.30719948 7.88456375 22.42008392 7.87383584 20.53295898 7.8659668 C17.65543935 7.84875936 14.77907054 7.80486294 11.90185547 7.76074219 C10.06657744 7.75061426 8.23128967 7.74209847 6.39599609 7.73535156 C5.53955002 7.71784348 4.68310394 7.70033539 3.80070496 7.68229675 C-2.99074874 7.70680459 -6.7888145 9.59072355 -11.36572266 14.78613281 Z " fill="#394951" transform="translate(110.05322265625,323.8388671875)"/>
<path d="M0 0 C0.81159576 -0.00960754 1.62319153 -0.01921509 2.4593811 -0.02911377 C3.77185318 -0.03548859 3.77185318 -0.03548859 5.11083984 -0.04199219 C6.01748383 -0.04769226 6.92412781 -0.05339233 7.85824585 -0.05926514 C9.77983434 -0.06871412 11.70143902 -0.07524871 13.62304688 -0.07910156 C16.53984589 -0.08876144 19.45592631 -0.11976663 22.37255859 -0.15136719 C24.24364818 -0.15790224 26.11474279 -0.16315074 27.98583984 -0.16699219 C28.84867584 -0.17933899 29.71151184 -0.19168579 30.60049438 -0.20440674 C37.59497756 -0.17913171 43.69286289 1.16441258 49.69677734 4.84863281 C54.46521852 9.74953068 58.02992399 15.34549697 58.1237793 22.30615234 C58.14303215 23.55357712 58.14303215 23.55357712 58.16267395 24.82620239 C58.17006088 25.72305756 58.17744781 26.61991272 58.18505859 27.54394531 C58.19313034 28.47278534 58.20120209 29.40162537 58.20951843 30.35861206 C58.2233523 32.32727192 58.23407758 34.29595569 58.24194336 36.26464844 C58.25909331 39.25405388 58.30297811 42.24233495 58.34716797 45.23144531 C58.35730101 47.14810388 58.3658152 49.06477182 58.37255859 50.98144531 C58.39006668 51.86615509 58.40757477 52.75086487 58.4256134 53.66238403 C58.3995067 61.25220104 56.46455244 67.26569146 51.44677734 73.03613281 C50.20927734 74.08800781 50.20927734 74.08800781 48.94677734 75.16113281 C48.32802734 75.71800781 47.70927734 76.27488281 47.07177734 76.84863281 C41.26530813 80.43498145 34.97546999 80.47989132 28.35693359 80.49707031 C27.45357773 80.50372711 26.55022186 80.51038391 25.61949158 80.51724243 C23.71762108 80.527323 21.81571554 80.53206088 19.91381836 80.53173828 C17.0212124 80.53611475 14.13012994 80.57249182 11.23779297 80.61035156 C9.38167834 80.61622024 7.52555654 80.62018929 5.66943359 80.62207031 C4.81398453 80.63644135 3.95853546 80.65081238 3.0771637 80.6656189 C-4.2496516 80.61048223 -9.38970695 78.52870233 -14.86572266 73.66113281 C-21.07824801 66.56110384 -22.36578713 60.73901627 -22.38916016 51.45019531 C-22.39581696 50.52322845 -22.40247375 49.5962616 -22.40933228 48.64120483 C-22.41942649 46.68627904 -22.4241503 44.73131901 -22.42382812 42.77636719 C-22.42819864 39.80247626 -22.46454511 36.83007384 -22.50244141 33.85644531 C-22.50831097 31.95020035 -22.51227943 30.04394839 -22.51416016 28.13769531 C-22.52853119 27.25723541 -22.54290222 26.37677551 -22.55770874 25.46963501 C-22.50386739 18.11152292 -20.48712162 12.97933161 -15.67822266 7.41113281 C-10.79785012 3.22795635 -6.55438817 0.06282783 0 0 Z M-11.36572266 14.78613281 C-14.48236857 19.17252336 -14.23070977 22.87987545 -14.25634766 28.11425781 C-14.26204773 29.00723572 -14.2677478 29.90021362 -14.27362061 30.82025146 C-14.28307751 32.71332614 -14.28960732 34.60641733 -14.29345703 36.49951172 C-14.3031374 39.38571257 -14.33414357 42.2711937 -14.36572266 45.15722656 C-14.37225529 46.99706609 -14.37750474 48.8369107 -14.38134766 50.67675781 C-14.39369446 51.53634094 -14.40604126 52.39592407 -14.41876221 53.28155518 C-14.39758209 59.02591676 -13.60211381 63.43064127 -9.51806641 67.80566406 C-4.08231703 71.96241358 -0.83389479 72.33127582 5.89990234 72.36425781 C6.79288025 72.36995789 7.68585815 72.37565796 8.605896 72.38153076 C10.49897067 72.39098767 12.39206187 72.39751748 14.28515625 72.40136719 C17.1713571 72.41104755 20.05683823 72.44205372 22.94287109 72.47363281 C24.78271062 72.48016545 26.62255524 72.4854149 28.46240234 72.48925781 C29.75177704 72.50777802 29.75177704 72.50777802 31.06719971 72.52667236 C36.81409369 72.5054829 41.17569614 71.68867481 45.59130859 67.66113281 C48.60840192 63.78633737 50.05539905 61.03948588 50.1237793 56.15209961 C50.13661453 55.35084152 50.14944977 54.54958344 50.16267395 53.7240448 C50.17006088 52.86152603 50.17744781 51.99900726 50.18505859 51.11035156 C50.19716621 49.77300713 50.19716621 49.77300713 50.20951843 48.40864563 C50.22334641 46.52155495 50.23407432 44.63443939 50.24194336 42.74731445 C50.2591508 39.86979482 50.30304722 36.993426 50.34716797 34.11621094 C50.35729589 32.28093291 50.36581168 30.44564513 50.37255859 28.61035156 C50.39882072 27.32568245 50.39882072 27.32568245 50.4256134 26.01506042 C50.4059333 20.56143534 49.56548496 17.4928985 45.94677734 13.16113281 C42.06532237 9.65835637 39.16510844 8.0572678 33.93774414 7.98413086 C32.73585701 7.96487801 32.73585701 7.96487801 31.50968933 7.94523621 C30.21591118 7.93415581 30.21591118 7.93415581 28.89599609 7.92285156 C27.55865166 7.91074394 27.55865166 7.91074394 26.19429016 7.89839172 C24.30719948 7.88456375 22.42008392 7.87383584 20.53295898 7.8659668 C17.65543935 7.84875936 14.77907054 7.80486294 11.90185547 7.76074219 C10.06657744 7.75061426 8.23128967 7.74209847 6.39599609 7.73535156 C5.53955002 7.71784348 4.68310394 7.70033539 3.80070496 7.68229675 C-2.99074874 7.70680459 -6.7888145 9.59072355 -11.36572266 14.78613281 Z " fill="#394951" transform="translate(110.05322265625,227.8388671875)"/>
<path d="M0 0 C0.81159576 -0.00960754 1.62319153 -0.01921509 2.4593811 -0.02911377 C3.77185318 -0.03548859 3.77185318 -0.03548859 5.11083984 -0.04199219 C6.01748383 -0.04769226 6.92412781 -0.05339233 7.85824585 -0.05926514 C9.77983434 -0.06871412 11.70143902 -0.07524871 13.62304688 -0.07910156 C16.53984589 -0.08876144 19.45592631 -0.11976663 22.37255859 -0.15136719 C24.24364818 -0.15790224 26.11474279 -0.16315074 27.98583984 -0.16699219 C28.84867584 -0.17933899 29.71151184 -0.19168579 30.60049438 -0.20440674 C37.59497756 -0.17913171 43.69286289 1.16441258 49.69677734 4.84863281 C54.46521852 9.74953068 58.02992399 15.34549697 58.1237793 22.30615234 C58.14303215 23.55357712 58.14303215 23.55357712 58.16267395 24.82620239 C58.17006088 25.72305756 58.17744781 26.61991272 58.18505859 27.54394531 C58.19313034 28.47278534 58.20120209 29.40162537 58.20951843 30.35861206 C58.2233523 32.32727192 58.23407758 34.29595569 58.24194336 36.26464844 C58.25909331 39.25405388 58.30297811 42.24233495 58.34716797 45.23144531 C58.35730101 47.14810388 58.3658152 49.06477182 58.37255859 50.98144531 C58.39006668 51.86615509 58.40757477 52.75086487 58.4256134 53.66238403 C58.3995067 61.25220104 56.46455244 67.26569146 51.44677734 73.03613281 C50.20927734 74.08800781 50.20927734 74.08800781 48.94677734 75.16113281 C48.32802734 75.71800781 47.70927734 76.27488281 47.07177734 76.84863281 C41.26530813 80.43498145 34.97546999 80.47989132 28.35693359 80.49707031 C27.45357773 80.50372711 26.55022186 80.51038391 25.61949158 80.51724243 C23.71762108 80.527323 21.81571554 80.53206088 19.91381836 80.53173828 C17.0212124 80.53611475 14.13012994 80.57249182 11.23779297 80.61035156 C9.38167834 80.61622024 7.52555654 80.62018929 5.66943359 80.62207031 C4.81398453 80.63644135 3.95853546 80.65081238 3.0771637 80.6656189 C-4.2496516 80.61048223 -9.38970695 78.52870233 -14.86572266 73.66113281 C-21.07824801 66.56110384 -22.36578713 60.73901627 -22.38916016 51.45019531 C-22.39581696 50.52322845 -22.40247375 49.5962616 -22.40933228 48.64120483 C-22.41942649 46.68627904 -22.4241503 44.73131901 -22.42382812 42.77636719 C-22.42819864 39.80247626 -22.46454511 36.83007384 -22.50244141 33.85644531 C-22.50831097 31.95020035 -22.51227943 30.04394839 -22.51416016 28.13769531 C-22.52853119 27.25723541 -22.54290222 26.37677551 -22.55770874 25.46963501 C-22.50386739 18.11152292 -20.48712162 12.97933161 -15.67822266 7.41113281 C-10.79785012 3.22795635 -6.55438817 0.06282783 0 0 Z M-11.36572266 14.78613281 C-14.48236857 19.17252336 -14.23070977 22.87987545 -14.25634766 28.11425781 C-14.26204773 29.00723572 -14.2677478 29.90021362 -14.27362061 30.82025146 C-14.28307751 32.71332614 -14.28960732 34.60641733 -14.29345703 36.49951172 C-14.3031374 39.38571257 -14.33414357 42.2711937 -14.36572266 45.15722656 C-14.37225529 46.99706609 -14.37750474 48.8369107 -14.38134766 50.67675781 C-14.39369446 51.53634094 -14.40604126 52.39592407 -14.41876221 53.28155518 C-14.39758209 59.02591676 -13.60211381 63.43064127 -9.51806641 67.80566406 C-4.08231703 71.96241358 -0.83389479 72.33127582 5.89990234 72.36425781 C6.79288025 72.36995789 7.68585815 72.37565796 8.605896 72.38153076 C10.49897067 72.39098767 12.39206187 72.39751748 14.28515625 72.40136719 C17.1713571 72.41104755 20.05683823 72.44205372 22.94287109 72.47363281 C24.78271062 72.48016545 26.62255524 72.4854149 28.46240234 72.48925781 C29.75177704 72.50777802 29.75177704 72.50777802 31.06719971 72.52667236 C36.81409369 72.5054829 41.17569614 71.68867481 45.59130859 67.66113281 C48.60840192 63.78633737 50.05539905 61.03948588 50.1237793 56.15209961 C50.13661453 55.35084152 50.14944977 54.54958344 50.16267395 53.7240448 C50.17006088 52.86152603 50.17744781 51.99900726 50.18505859 51.11035156 C50.19716621 49.77300713 50.19716621 49.77300713 50.20951843 48.40864563 C50.22334641 46.52155495 50.23407432 44.63443939 50.24194336 42.74731445 C50.2591508 39.86979482 50.30304722 36.993426 50.34716797 34.11621094 C50.35729589 32.28093291 50.36581168 30.44564513 50.37255859 28.61035156 C50.39882072 27.32568245 50.39882072 27.32568245 50.4256134 26.01506042 C50.4059333 20.56143534 49.56548496 17.4928985 45.94677734 13.16113281 C42.06532237 9.65835637 39.16510844 8.0572678 33.93774414 7.98413086 C32.73585701 7.96487801 32.73585701 7.96487801 31.50968933 7.94523621 C30.21591118 7.93415581 30.21591118 7.93415581 28.89599609 7.92285156 C27.55865166 7.91074394 27.55865166 7.91074394 26.19429016 7.89839172 C24.30719948 7.88456375 22.42008392 7.87383584 20.53295898 7.8659668 C17.65543935 7.84875936 14.77907054 7.80486294 11.90185547 7.76074219 C10.06657744 7.75061426 8.23128967 7.74209847 6.39599609 7.73535156 C5.53955002 7.71784348 4.68310394 7.70033539 3.80070496 7.68229675 C-2.99074874 7.70680459 -6.7888145 9.59072355 -11.36572266 14.78613281 Z " fill="#394951" transform="translate(110.05322265625,131.8388671875)"/>
<path d="M0 0 C0.99 0.99 0.99 0.99 2 2 C1.44444444 6.55555556 1.44444444 6.55555556 0 8 C-1.61200573 8.25047251 -3.23291367 8.44412461 -4.85546875 8.61328125 C-27.67323545 11.12812302 -46.89661121 16.25222377 -65 31 C-65.82757813 31.66386719 -66.65515625 32.32773437 -67.5078125 33.01171875 C-79.52667599 43.20326287 -87.84512886 55.60128796 -94 70 C-94.49371094 71.1446875 -94.98742187 72.289375 -95.49609375 73.46875 C-98.9954061 82.68948997 -100.07290446 91.92079859 -101.01293945 101.69702148 C-101.11566162 102.74188721 -101.21838379 103.78675293 -101.32421875 104.86328125 C-101.40760498 105.80469971 -101.49099121 106.74611816 -101.5769043 107.71606445 C-102 110 -102 110 -104 112 C-108.55555556 111.44444444 -108.55555556 111.44444444 -110 110 C-112.15911453 87.73634363 -104.10216424 63.83753624 -91 46 C-90.40832031 45.18789063 -89.81664062 44.37578125 -89.20703125 43.5390625 C-81.30569583 33.21030651 -72.11332901 23.82652815 -61 17 C-59.91847656 16.33226562 -58.83695312 15.66453125 -57.72265625 14.9765625 C-41.0132379 4.91537943 -19.8350071 -2.6082731 0 0 Z " fill="#C3E0A2" transform="translate(374,280)"/>
<path d="M0 0 C5.61558331 3.06542728 8.70334371 6.79753114 10.75 12.9375 C11.28781878 18.94659059 11.21850491 23.79454445 7.75 28.9375 C4.08603476 33.08356593 -0.66197033 37.60192888 -6.421875 38.140625 C-13.3681747 38.26692136 -17.47550593 37.31563777 -22.875 32.6875 C-27.78054783 27.00739198 -29.99067149 22.95632847 -29.625 15.42578125 C-28.688311 9.21045947 -26.12500067 5.3281543 -21.1875 1.5 C-14.3974614 -3.28300224 -7.47816458 -3.40932765 0 0 Z M-19.25 11.9375 C-20.86429923 15.16609847 -20.84570657 18.44743653 -20.25 21.9375 C-18.51397895 24.96258145 -16.41419863 27.35540069 -13.25 28.9375 C-8.12629602 29.54478845 -8.12629602 29.54478845 -3.42578125 27.890625 C0.37752744 24.75957185 1.63663367 23.07116332 2.125 18.1875 C2.10058775 14.83691932 1.50601354 13.08855468 -0.625 10.5 C-4.1548586 7.05418565 -6.1783652 6.54194164 -11.14453125 6.578125 C-14.86593453 7.21331814 -16.65312849 9.27729016 -19.25 11.9375 Z " fill="#3B494E" transform="translate(221.25,26.0625)"/>
<path d="M0 0 C0.85353058 0.00045319 1.70706116 0.00090637 2.5864563 0.00137329 C3.9278492 -0.00366463 3.9278492 -0.00366463 5.29634094 -0.00880432 C8.26814137 -0.01834461 11.23988563 -0.02025896 14.21170044 -0.02133179 C16.26814294 -0.02454219 18.32458521 -0.0279061 20.38102722 -0.03141785 C24.69788137 -0.0374168 29.01471547 -0.03925696 33.33157349 -0.03866577 C38.87475999 -0.0385641 44.41781854 -0.05221837 49.96097469 -0.06943798 C54.20992122 -0.08053314 58.45883657 -0.08258575 62.7077961 -0.08205605 C64.7520142 -0.08323984 66.79623301 -0.08768382 68.84043694 -0.09538841 C71.69467107 -0.10513847 74.5486243 -0.10233011 77.40286255 -0.09628296 C78.2543689 -0.10190247 79.10587524 -0.10752197 79.98318481 -0.11331177 C85.8310414 -0.08167833 85.8310414 -0.08167833 88.05935669 2.14663696 C87.50380113 6.70219252 87.50380113 6.70219252 86.05935669 8.14663696 C83.20918371 8.25251486 80.38311301 8.29341431 77.53225708 8.29190063 C76.19086418 8.29693855 76.19086418 8.29693855 74.82237244 8.30207825 C71.85057201 8.31161854 68.87882774 8.31353289 65.90701294 8.31460571 C63.85057044 8.31781612 61.79412817 8.32118002 59.73768616 8.32469177 C55.42083201 8.33069073 51.10399791 8.33253088 46.78713989 8.3319397 C41.24395339 8.33183802 35.70089484 8.34549229 30.15773869 8.36271191 C25.90879216 8.37380706 21.65987681 8.37585967 17.41091728 8.37532997 C15.36669918 8.37651377 13.32248037 8.38095775 11.27827644 8.38866234 C8.4240423 8.3984124 5.57008908 8.39560403 2.71585083 8.38955688 C1.43859131 8.39798615 1.43859131 8.39798615 0.13552856 8.40658569 C-5.71232802 8.37495226 -5.71232802 8.37495226 -7.94064331 6.14663696 C-7.18836797 -0.02202079 -6.03992547 0.03334279 0 0 Z " fill="#37474F" transform="translate(207.94064331054688,167.85336303710938)"/>
<path d="M0 0 C0.70391876 0.00045319 1.40783752 0.00090637 2.13308716 0.00137329 C3.24039436 -0.00366463 3.24039436 -0.00366463 4.37007141 -0.00880432 C6.82242492 -0.01834185 9.27471037 -0.02025883 11.7270813 -0.02133179 C13.42479989 -0.02454243 15.12251821 -0.02790635 16.82023621 -0.03141785 C20.38383628 -0.03741614 23.94741208 -0.03925703 27.51101685 -0.03866577 C32.08566799 -0.03856411 36.66016405 -0.05221724 41.2347784 -0.06943798 C44.74255595 -0.08053648 48.25029575 -0.08258564 51.75808907 -0.08205605 C53.445049 -0.08323938 55.13200982 -0.08768082 56.81895256 -0.09538841 C59.1750778 -0.10514513 61.53086313 -0.10232757 63.88699341 -0.09628296 C64.58888794 -0.10190247 65.29078247 -0.10752197 66.01394653 -0.11331177 C70.84642177 -0.08167881 70.84642177 -0.08167881 73.07473755 2.14663696 C72.51918199 6.70219252 72.51918199 6.70219252 71.07473755 8.14663696 C68.71251537 8.25220313 66.37938371 8.29342194 64.01638794 8.29190063 C62.90908073 8.29693855 62.90908073 8.29693855 61.77940369 8.30207825 C59.32705017 8.31161578 56.87476473 8.31353276 54.4223938 8.31460571 C52.7246752 8.31781636 51.02695689 8.32118028 49.32923889 8.32469177 C45.76563882 8.33069007 42.20206302 8.33253096 38.63845825 8.3319397 C34.06380711 8.33183804 29.48931105 8.34549116 24.91469669 8.36271191 C21.40691915 8.37381041 17.89917934 8.37585957 14.39138603 8.37532997 C12.7044261 8.37651331 11.01746528 8.38095474 9.33052254 8.38866234 C6.97439729 8.39841905 4.61861197 8.39560149 2.26248169 8.38955688 C1.56058716 8.39517639 0.85869263 8.4007959 0.13552856 8.40658569 C-4.69694668 8.37495274 -4.69694668 8.37495274 -6.92526245 6.14663696 C-6.24288588 0.55114908 -5.55042084 0.03710649 0 0 Z " fill="#37474F" transform="translate(206.92526245117188,271.8533630371094)"/>
<path d="M0 0 C0.80943558 0.00233139 1.61887115 0.00466278 2.45283508 0.00706482 C4.15657147 0.01677673 5.8602768 0.03850511 7.5637207 0.0715332 C10.17772925 0.12113071 12.78985931 0.1330262 15.40429688 0.13867188 C17.06121804 0.15275132 18.71812282 0.16895337 20.375 0.1875 C21.15832199 0.1928627 21.94164398 0.1982254 22.748703 0.20375061 C28.25494693 0.32525943 28.25494693 0.32525943 30.48828125 2.55859375 C29.93272569 7.11414931 29.93272569 7.11414931 28.48828125 8.55859375 C25.96734049 8.64707118 23.47397232 8.67386676 20.953125 8.65625 C19.82324913 8.65412758 19.82324913 8.65412758 18.67054749 8.65196228 C16.25558565 8.64634751 13.84071524 8.63379258 11.42578125 8.62109375 C9.79231904 8.61608065 8.15885539 8.61151741 6.52539062 8.60742188 C2.5129854 8.59637329 -1.49935116 8.57909881 -5.51171875 8.55859375 C-5.50124512 9.57808105 -5.49077148 10.59756836 -5.47998047 11.64794922 C-5.44383148 15.42362977 -5.42083698 19.19929496 -5.40185547 22.97509766 C-5.39178621 24.61054047 -5.37812994 26.24596524 -5.36083984 27.88134766 C-5.3366317 30.22953745 -5.32524518 32.57748963 -5.31640625 34.92578125 C-5.30608368 35.65916718 -5.29576111 36.3925531 -5.28512573 37.14816284 C-5.28472507 38.95322072 -5.3895912 40.75767205 -5.51171875 42.55859375 C-6.17171875 43.21859375 -6.83171875 43.87859375 -7.51171875 44.55859375 C-12.06727431 44.00303819 -12.06727431 44.00303819 -13.51171875 42.55859375 C-13.8040386 37.35900068 -13.82581194 32.15673145 -13.86181641 26.94970703 C-13.87835172 25.19599108 -13.90560998 23.44234185 -13.94384766 21.68896484 C-13.99871491 19.16077709 -14.02050665 16.63417233 -14.03515625 14.10546875 C-14.05782562 13.3250824 -14.080495 12.54469604 -14.10385132 11.74066162 C-14.08906015 7.91492401 -13.6480254 5.76292898 -11.51098633 2.55932617 C-7.65106575 -0.0155252 -4.48560072 -0.1127234 0 0 Z " fill="#FEFEFE" transform="translate(77.51171875,103.44140625)"/>
<path d="M0 0 C4.58682473 -0.89326108 8.44730733 -1.17538514 13 0 C16.45943354 3.69659292 18.65225253 7.74665364 20.99462891 12.20410156 C22.87678394 15.56620268 25.35913252 18.44963876 27.78515625 21.42578125 C29 23 29 23 29 24 C23.99632225 24.77131791 18.91426831 25.50893484 14 24 C9.85696962 20.21798057 7.567207 15.9458934 5 11 C4.45472656 10.07703125 3.90945312 9.1540625 3.34765625 8.203125 C0 2.52787396 0 2.52787396 0 0 Z " fill="#455A64" transform="translate(251,448)"/>
<path d="M0 0 C8.33056121 -0.1983467 15.81387334 0.44073778 24 2 C24 5.96 24 9.92 24 14 C12.12 12.515 12.12 12.515 0 11 C0 7.37 0 3.74 0 0 Z " fill="#455A64" transform="translate(376,253)"/>
</svg>
