<?xml version="1.0" encoding="UTF-8"?>
<svg version="1.1" xmlns="http://www.w3.org/2000/svg" width="512" height="512">
<path d="M0 0 C2.3268793 1.64708136 4.6331684 3.32156579 6.9375 5 C9.11129717 6.57905518 11.28755892 8.15424928 13.47045898 9.72070312 C14.90666124 10.75187136 16.33755172 11.79049496 17.76196289 12.83789062 C31.45252622 22.67998487 44.52516362 23.03451211 60.75 21 C89.86137398 17.46574184 89.86137398 17.46574184 101.50390625 25.84765625 C110.32571561 33.64993066 114.47430366 45.23141535 118.90478516 55.83862305 C126.83780736 74.67185807 136.08965476 82.71409391 154.44335938 90.88867188 C158.37465435 92.64036087 162.28276592 94.44006543 166.1875 96.25 C166.86554688 96.55486328 167.54359375 96.85972656 168.2421875 97.17382812 C174.56087953 100.08772694 180.41679818 103.39304562 184.25 109.375 C184.95576172 110.43847656 184.95576172 110.43847656 185.67578125 111.5234375 C188.61954427 117.30159773 189.26658915 122.91475292 189.1875 129.3125 C189.18363281 130.09012695 189.17976563 130.86775391 189.17578125 131.66894531 C189.09504711 137.24632905 188.6174894 142.71668292 187.9375 148.25 C185.23629397 170.29041325 189.62487073 182.96275303 202.9375 200.4375 C212.5174231 213.22368285 218.1542756 222.55563562 216.9375 239 C215.04519371 247.78388122 209.12541614 254.87748127 203.9375 262 C202.35844482 264.17379717 200.78325072 266.35005892 199.21679688 268.53295898 C198.18562864 269.96916124 197.14700504 271.40005172 196.09960938 272.82446289 C186.25751513 286.51502622 185.90298789 299.58766362 187.9375 315.8125 C191.46200407 344.84353039 191.46200407 344.84353039 183.09765625 356.58203125 C174.96992062 365.67980404 161.56479172 370.12661448 150.55078125 374.90234375 C130.24157634 383.84670801 123.31452909 397.09502574 114.80297852 416.62939453 C110.15675653 427.20498222 105.22562711 436.03288628 94.9375 442 C89.78005207 443.78258655 85.04048661 444.31693902 79.625 444.25 C78.84664795 444.24613281 78.0682959 444.24226563 77.26635742 444.23828125 C71.70957477 444.15790187 66.26239351 443.68026295 60.75 443 C39.32614711 440.38869254 26.21362712 444.32226668 9.07177734 457.47338867 C-3.38461324 467.0277896 -13.84373375 473.18844408 -30.0625 472 C-38.84601183 470.11052362 -45.94092569 464.18722824 -53.0625 459 C-55.23629717 457.42094482 -57.41255892 455.84575072 -59.59545898 454.27929688 C-61.03166124 453.24812864 -62.46255172 452.20950504 -63.88696289 451.16210938 C-77.57752622 441.32001513 -90.65016362 440.96548789 -106.875 443 C-135.90603039 446.52450407 -135.90603039 446.52450407 -147.64453125 438.16015625 C-156.74230404 430.03242062 -161.18911448 416.62729172 -165.96484375 405.61328125 C-175.02153273 385.04101222 -188.5781323 377.94508157 -208.50927734 369.45678711 C-218.86692859 365.00385566 -227.27678557 359.9753697 -233.0625 350 C-234.84508607 344.84255347 -235.37944646 340.10299042 -235.3125 334.6875 C-235.30669922 333.52105957 -235.30669922 333.52105957 -235.30078125 332.33105469 C-235.22004711 326.75367095 -234.7424894 321.28331708 -234.0625 315.75 C-231.36129397 293.70958675 -235.74987073 281.03724697 -249.0625 263.5625 C-258.6424231 250.77631715 -264.2792756 241.44436438 -263.0625 225 C-261.17019371 216.21611878 -255.25041614 209.12251873 -250.0625 202 C-248.48344482 199.82620283 -246.90825072 197.64994108 -245.34179688 195.46704102 C-244.31062864 194.03083876 -243.27200504 192.59994828 -242.22460938 191.17553711 C-232.43152226 177.55314373 -232.04141336 164.4397644 -234.0625 148.25 C-237.58733012 119.06303043 -237.58733012 119.06303043 -229.21484375 107.43359375 C-221.41256934 98.61178439 -209.83108465 94.46319634 -199.22387695 90.03271484 C-180.39064193 82.09969264 -172.34840609 72.84784524 -164.17382812 54.49414062 C-162.42213913 50.56284565 -160.62243457 46.65473408 -158.8125 42.75 C-158.50763672 42.07195312 -158.20277344 41.39390625 -157.88867188 40.6953125 C-154.97477306 34.37662047 -151.66945438 28.52070182 -145.6875 24.6875 C-144.97851562 24.21699219 -144.26953125 23.74648438 -143.5390625 23.26171875 C-137.76090073 20.31795495 -132.14774256 19.67091964 -125.75 19.75 C-124.58247192 19.75580078 -124.58247192 19.75580078 -123.39135742 19.76171875 C-117.83457477 19.84209813 -112.38739351 20.31973705 -106.875 21 C-83.02753417 23.90671645 -69.74283813 17.66365961 -50.99243164 3.3581543 C-34.07735042 -9.39751392 -18.18189581 -12.39879281 0 0 Z " fill="#2568EF" transform="translate(279.0625,24)"/>
<path d="M0 0 C6.35938828 3.86975542 12.06436814 10.19310441 14.4375 17.3125 C14.63612586 19.49454698 14.74999221 21.68482329 14.8125 23.875 C14.86148438 25.03128906 14.91046875 26.18757813 14.9609375 27.37890625 C13.50899981 38.29010961 6.08171325 45.39687544 -1.40454102 52.81738281 C-2.50997307 53.93124352 -3.61434991 55.04615229 -4.71775818 56.16201782 C-7.69823619 59.16940102 -10.69421753 62.16086176 -13.69420743 65.14876652 C-16.20627068 67.65366426 -18.71043483 70.16638526 -21.21465534 72.67911983 C-27.12742913 78.6118019 -33.05279334 84.53169153 -38.98657227 90.44335938 C-45.08746442 96.52190188 -51.16812751 102.62014296 -57.2389093 108.7287457 C-62.47064554 113.99181472 -67.71407299 119.24302918 -72.96703285 124.48491549 C-76.09593786 127.60736406 -79.22054963 130.73380023 -82.33423042 133.87143707 C-85.26503964 136.82364575 -88.21033572 139.76062544 -91.16691017 142.68702316 C-92.24265409 143.75649004 -93.31344551 144.83096826 -94.37852859 145.9110527 C-101.99652111 153.62749666 -110.42309802 161.20990326 -121.75 161.9375 C-137.78213828 160.73572887 -149.45532165 144.61398618 -160.14453125 134.00390625 C-160.8241712 133.32958998 -161.50381115 132.6552737 -162.20404625 131.96052361 C-165.79211301 128.39897612 -169.37663794 124.83390309 -172.95874023 121.26635742 C-175.90496392 118.33351825 -178.85830754 115.40814232 -181.81811523 112.48901367 C-185.41997858 108.9366143 -189.00927317 105.3719591 -192.59003258 101.79829216 C-193.94644879 100.44855257 -195.30708724 99.10304124 -196.67215919 97.76205635 C-212.39244174 82.30377978 -212.39244174 82.30377978 -214.19140625 71.5546875 C-214.01826465 62.77538976 -212.98788188 57.29334921 -207.25 50.625 C-199.81667095 44.22887966 -194.91287277 41.91394853 -184.91015625 42.046875 C-171.31415066 43.12567124 -161.85521348 55.86559087 -152.8359375 64.94140625 C-151.96224518 65.81651352 -151.08855286 66.69162079 -150.18838501 67.59324646 C-147.4357043 70.35146369 -144.68654675 73.11316137 -141.9375 75.875 C-140.0565096 77.76158713 -138.17471501 79.64736967 -136.29296875 81.53320312 C-131.71347302 86.1236435 -127.13685387 90.71693606 -122.5625 95.3125 C-119.35274781 93.89918683 -117.21907707 92.21140785 -114.75653076 89.72685242 C-114.01373367 88.98246918 -113.27093658 88.23808594 -112.50563049 87.47114563 C-111.70036423 86.65397568 -110.89509796 85.83680573 -110.06542969 84.99487305 C-109.20962814 84.13454468 -108.3538266 83.27421631 -107.47209167 82.38781738 C-105.61305933 80.51782135 -103.75592855 78.64613469 -101.90166473 76.77142906 C-98.96465194 73.80253685 -96.01943587 70.84187483 -93.07281494 67.88252258 C-85.75258212 60.5282357 -78.44161986 53.16475114 -71.13568115 45.79626465 C-65.46163828 40.0736641 -59.78437753 34.35434917 -54.09645963 28.64553481 C-51.17190776 25.70951319 -48.25441927 22.76670752 -45.34216356 19.81849134 C-43.09323757 17.54571225 -40.83439792 15.28281858 -38.57714844 13.01831055 C-37.7799791 12.20721329 -36.98280975 11.39611603 -36.16148376 10.56044006 C-26.45668213 0.87151553 -14.00064191 -6.65164596 0 0 Z " fill="#FDFAEE" transform="translate(355.5625,178.6875)"/>
</svg>
