<?xml version="1.0" encoding="UTF-8"?>
<svg version="1.1" xmlns="http://www.w3.org/2000/svg" width="512" height="512">
<path d="M0 0 C0.9833432 0.00054382 1.9666864 0.00108765 2.97982788 0.00164795 C42.51238025 0.10174759 79.55475864 9.24346136 115.125 26.375 C115.78274414 26.69017578 116.44048828 27.00535156 117.11816406 27.33007812 C136.83769614 36.92560451 154.37263148 50.3689214 171.125 64.375 C170.556775 68.04410998 169.18120402 69.61978235 166.5 72.125 C163.16636535 75.33450995 160.08261178 78.63845475 157.06640625 82.14453125 C153.16606971 86.625602 149.13182836 90.98925629 145.125 95.375 C140.58326248 94.48903225 137.77239996 91.84752937 134.3125 88.9375 C108.26309847 67.68866713 77.25492568 53.13606158 44.375 46.125 C43.66827148 45.97401855 42.96154297 45.82303711 42.23339844 45.66748047 C28.40289543 42.8882199 14.87624015 41.96546175 0.8125 42 C-0.06350861 42.00087616 -0.93951721 42.00175232 -1.84207153 42.00265503 C-46.46463329 42.14920124 -91.3514117 55.7945743 -126.875 83.375 C-128.03617736 84.24300719 -129.19897156 85.10885518 -130.36328125 85.97265625 C-135.65237737 89.92520053 -140.71924195 93.92567421 -145.26953125 98.734375 C-147.04775491 100.55153787 -148.9340045 102.17097237 -150.875 103.8125 C-154.96379235 107.35193446 -158.4228026 111.22203604 -161.875 115.375 C-162.54015625 116.15230469 -163.2053125 116.92960937 -163.890625 117.73046875 C-166.27722341 120.56777369 -168.59466256 123.45222805 -170.875 126.375 C-171.31972656 126.94234863 -171.76445312 127.50969727 -172.22265625 128.09423828 C-192.00259329 153.70760383 -204.1977198 183.92192344 -210.875 215.375 C-211.05434082 216.18710938 -211.23368164 216.99921875 -211.41845703 217.8359375 C-222.42022099 269.7529011 -209.27552944 327.0408177 -181.52148438 371.54541016 C-178.81563925 375.62984026 -175.87875589 379.50616241 -172.875 383.375 C-172.00699281 384.53617736 -171.14114482 385.69897156 -170.27734375 386.86328125 C-166.32479947 392.15237737 -162.32432579 397.21924195 -157.515625 401.76953125 C-155.69846213 403.54775491 -154.07902763 405.4340045 -152.4375 407.375 C-148.89806554 411.46379235 -145.02796396 414.9228026 -140.875 418.375 C-140.09769531 419.04015625 -139.32039063 419.7053125 -138.51953125 420.390625 C-135.68222631 422.77722341 -132.79777195 425.09466256 -129.875 427.375 C-129.30765137 427.81972656 -128.74030273 428.26445312 -128.15576172 428.72265625 C-102.54239617 448.50259329 -72.32807656 460.6977198 -40.875 467.375 C-40.06289062 467.55434082 -39.25078125 467.73368164 -38.4140625 467.91845703 C13.5029011 478.92022099 70.7908177 465.77552944 115.29541016 438.02148438 C119.37984026 435.31563925 123.25616241 432.37875589 127.125 429.375 C128.28617736 428.50699281 129.44897156 427.64114482 130.61328125 426.77734375 C135.90237737 422.82479947 140.96924195 418.82432579 145.51953125 414.015625 C147.29775491 412.19846213 149.1840045 410.57902763 151.125 408.9375 C155.21379235 405.39806554 158.6728026 401.52796396 162.125 397.375 C162.79015625 396.59769531 163.4553125 395.82039063 164.140625 395.01953125 C166.52722341 392.18222631 168.84466256 389.29777195 171.125 386.375 C171.56972656 385.80765137 172.01445312 385.24030273 172.47265625 384.65576172 C192.25259329 359.04239617 204.4477198 328.82807656 211.125 297.375 C211.30434082 296.56289063 211.48368164 295.75078125 211.66845703 294.9140625 C217.0289851 269.61790622 215.90364688 240.90400473 211.09765625 215.6328125 C210.85716553 214.30950928 210.85716553 214.30950928 210.61181641 212.95947266 C210.28452744 211.2219195 209.91613184 209.49165831 209.50927734 207.77099609 C208.79540451 203.99043548 208.45134363 201.52787073 210.43774414 198.12841797 C212.38259866 195.841778 214.4312571 193.79851253 216.625 191.75 C218.05334798 190.34242799 219.48043947 188.93357978 220.90625 187.5234375 C221.61241455 186.83926758 222.3185791 186.15509766 223.04614258 185.45019531 C226.25462453 182.24736542 229.19677494 178.83303083 232.125 175.375 C233.39583333 173.875 234.66666667 172.375 235.9375 170.875 C236.50082031 170.2046875 237.06414062 169.534375 237.64453125 168.84375 C239.125 167.375 239.125 167.375 241.125 167.375 C245.45134671 179.91221419 249.42413449 192.41254048 252 205.4375 C252.19037842 206.39712646 252.38075684 207.35675293 252.5769043 208.34545898 C253.14098003 211.34935983 253.64614559 214.35633711 254.125 217.375 C254.31118896 218.53942627 254.49737793 219.70385254 254.68920898 220.90356445 C256.33535702 232.41196178 256.48153307 243.8260405 256.4375 255.4375 C256.43476578 256.93159393 256.43476578 256.93159393 256.43197632 258.45587158 C256.38723255 272.96830287 255.92969043 287.09809519 253.125 301.375 C252.96402832 302.27057617 252.80305664 303.16615234 252.63720703 304.08886719 C243.82840196 352.77845832 220.3851479 397.80379928 186.125 433.375 C185.49287598 434.03435547 184.86075195 434.69371094 184.20947266 435.37304688 C175.06502521 444.86130305 165.76765991 453.6012044 155.125 461.375 C153.97394983 462.23306152 152.82290823 463.09113451 151.671875 463.94921875 C143.48224019 469.98677396 134.97961724 475.36957302 126.125 480.375 C125.41778809 480.7771875 124.71057617 481.179375 123.98193359 481.59375 C100.86239063 494.61025099 75.71330247 503.343552 49.75 508.6875 C49.03948486 508.83485596 48.32896973 508.98221191 47.59692383 509.1340332 C31.95458949 512.12044017 16.31823907 512.74980954 0.4375 512.6875 C-0.52989105 512.68567719 -1.4972821 512.68385437 -2.49398804 512.68197632 C-16.82690977 512.63654826 -30.77273917 512.12766072 -44.875 509.375 C-45.77202637 509.21402832 -46.66905273 509.05305664 -47.59326172 508.88720703 C-96.28093124 500.07721851 -141.30505908 476.63393453 -176.875 442.375 C-177.53435547 441.74287598 -178.19371094 441.11075195 -178.87304688 440.45947266 C-188.36130305 431.31502521 -197.1012044 422.01765991 -204.875 411.375 C-205.73306152 410.22394983 -206.59113451 409.07290823 -207.44921875 407.921875 C-213.48677396 399.73224019 -218.86957302 391.22961724 -223.875 382.375 C-224.2771875 381.66778809 -224.679375 380.96057617 -225.09375 380.23193359 C-238.11025099 357.11239063 -246.843552 331.96330247 -252.1875 306 C-252.40853394 304.93422729 -252.40853394 304.93422729 -252.6340332 303.84692383 C-255.62044017 288.20458949 -256.24980954 272.56823907 -256.1875 256.6875 C-256.18567719 255.72010895 -256.18385437 254.7527179 -256.18197632 253.75601196 C-256.13654826 239.42309023 -255.62766072 225.47726083 -252.875 211.375 C-252.63354248 210.02946045 -252.63354248 210.02946045 -252.38720703 208.65673828 C-243.57721851 159.96906876 -220.13393453 114.94494092 -185.875 79.375 C-185.24287598 78.71564453 -184.61075195 78.05628906 -183.95947266 77.37695312 C-174.81502521 67.88869695 -165.51765991 59.1487956 -154.875 51.375 C-153.72394983 50.51693848 -152.57290823 49.65886549 -151.421875 48.80078125 C-143.23224019 42.76322604 -134.72961724 37.38042698 -125.875 32.375 C-125.16778809 31.9728125 -124.46057617 31.570625 -123.73193359 31.15625 C-100.61239063 18.13974901 -75.46330247 9.406448 -49.5 4.0625 C-48.43422729 3.84146606 -48.43422729 3.84146606 -47.34692383 3.6159668 C-31.65660812 0.62039931 -15.93124378 -0.0333688 0 0 Z " fill="#14C7CC" transform="translate(255.875,-0.375)"/>
<path d="M0 0 C3.39344442 1.48848812 5.78229967 3.4326862 8.5 5.9375 C9.37011719 6.73414062 10.24023438 7.53078125 11.13671875 8.3515625 C12.55404297 9.66253906 12.55404297 9.66253906 14 11 C15.57964851 12.45699111 17.16026775 13.91290671 18.7421875 15.36743164 C20.24331316 16.74883133 21.740885 18.13408986 23.23828125 19.51953125 C25.75749021 21.78218711 28.33256288 23.91560924 31 26 C30.41348051 29.51037741 29.17543634 31.22101683 26.71875 33.7578125 C26.04610107 34.46075439 25.37345215 35.16369629 24.68041992 35.88793945 C23.96088135 36.62616943 23.24134277 37.36439941 22.5 38.125 C21.02657029 39.66201933 19.55390847 41.19977517 18.08203125 42.73828125 C17.01782959 43.84550537 17.01782959 43.84550537 15.93212891 44.97509766 C12.92763492 48.12385595 10.03222203 51.36480233 7.13671875 54.61328125 C4.61457763 57.43051749 2.05910993 60.21641443 -0.5 63 C-3.85303261 66.64917763 -7.18998462 70.31169714 -10.5 74 C-16.08919783 80.22569011 -21.75524058 86.38053078 -27.41601562 92.54101562 C-32.87101791 98.47889501 -38.30191889 104.43642391 -43.6875 110.4375 C-46.74359461 113.82398321 -49.82985612 117.18244814 -52.91625977 120.54125977 C-55.77602204 123.65633125 -58.61515359 126.78851675 -61.4375 129.9375 C-65.43448378 134.3920991 -69.49074409 138.78918479 -73.55615234 143.18115234 C-77.3147798 147.24611811 -81.02749843 151.34984906 -84.72265625 155.47265625 C-87.7652294 158.849234 -90.84118744 162.19480481 -93.91650391 165.54150391 C-96.77616612 168.65651092 -99.61523037 171.78860242 -102.4375 174.9375 C-106.43448378 179.3920991 -110.49074409 183.78918479 -114.55615234 188.18115234 C-118.3147798 192.24611811 -122.02749843 196.34984906 -125.72265625 200.47265625 C-128.7652294 203.849234 -131.84118744 207.19480481 -134.91650391 210.54150391 C-137.77616612 213.65651092 -140.61523037 216.78860242 -143.4375 219.9375 C-147.43448378 224.3920991 -151.49074409 228.78918479 -155.55615234 233.18115234 C-159.3147798 237.24611811 -163.02749843 241.34984906 -166.72265625 245.47265625 C-169.7652294 248.849234 -172.84118744 252.19480481 -175.91650391 255.54150391 C-178.77616612 258.65651092 -181.61523037 261.78860242 -184.4375 264.9375 C-187.92448143 268.82370649 -191.45334189 272.66840717 -195 276.5 C-199.28877065 281.13375895 -203.53944101 285.79835804 -207.75390625 290.5 C-211.81440647 295.01951329 -215.90925568 299.5078674 -220 304 C-223.02977429 302.64768813 -225.08472613 301.14519457 -227.390625 298.76953125 C-228.32491333 297.81784058 -228.32491333 297.81784058 -229.27807617 296.84692383 C-229.92881104 296.17556396 -230.5795459 295.5042041 -231.25 294.8125 C-235.69491512 290.29114062 -240.13056541 285.88991544 -244.98046875 281.80078125 C-248.32646639 278.81721276 -251.42943757 275.58999107 -254.57885742 272.40161133 C-257.30356235 269.65625492 -260.05050028 267.00707476 -263 264.5 C-266.52077694 261.5073396 -269.7554753 258.2846735 -273 255 C-276.22398087 251.73617385 -279.43517847 248.53169859 -282.9375 245.5625 C-287.2786307 241.87389834 -291.21834341 237.80756243 -295.22021484 233.76025391 C-298.66020488 230.29629877 -302.18544944 227.02882616 -305.91015625 223.87109375 C-309.27496075 220.85849309 -312.40545188 217.61427958 -315.57836914 214.40209961 C-318.30324079 211.65658173 -321.05032325 209.00722524 -324 206.5 C-328.08795909 203.02523478 -331.80672837 199.22049188 -335.57373047 195.40673828 C-338.91599579 192.0390967 -342.36075299 188.87498216 -345.9765625 185.80078125 C-350.17277106 182.06631765 -354.06584512 178.00671101 -358 174 C-356.60709417 170.88697833 -354.96599379 168.67420846 -352.62109375 166.20703125 C-351.95078125 165.49796631 -351.28046875 164.78890137 -350.58984375 164.05834961 C-349.87957031 163.31721924 -349.16929687 162.57608887 -348.4375 161.8125 C-347.71820313 161.05525635 -346.99890625 160.2980127 -346.2578125 159.51782227 C-341.25233544 154.26376239 -336.19617711 149.06627269 -331 144 C-327.88697833 145.39290583 -325.67420846 147.03400621 -323.20703125 149.37890625 C-322.49861084 150.04865479 -321.79019043 150.71840332 -321.06030273 151.40844727 C-320.31852783 152.11928467 -319.57675293 152.83012207 -318.8125 153.5625 C-317.66793335 154.64905884 -317.66793335 154.64905884 -316.50024414 155.75756836 C-311.88999321 160.14755776 -307.3579301 164.60511677 -302.890625 169.140625 C-301.05003347 170.95079353 -299.1505212 172.63675019 -297.1875 174.3125 C-293.61101134 177.37500227 -290.30610813 180.65280945 -287 184 C-283.77602796 187.26383568 -280.56482074 190.46830208 -277.0625 193.4375 C-272.7213693 197.12610166 -268.78165659 201.19243757 -264.77978516 205.23974609 C-261.33979512 208.70370123 -257.81455056 211.97117384 -254.08984375 215.12890625 C-250.72811889 218.13874963 -247.60032425 221.37976193 -244.43041992 224.58911133 C-241.04378906 228.00151646 -237.55350134 231.21550832 -233.890625 234.33203125 C-230.42990183 237.38518992 -227.22315813 240.69969181 -224 244 C-219.79590518 242.40224425 -217.23180836 239.27027877 -214.3125 236 C-213.78213135 235.41549072 -213.2517627 234.83098145 -212.70532227 234.22875977 C-211.13094591 232.49108311 -209.56460378 230.74647489 -208 229 C-206.81277344 227.68322266 -206.81277344 227.68322266 -205.6015625 226.33984375 C-204.15567988 224.73475745 -202.71167572 223.12797706 -201.26953125 221.51953125 C-196.41443591 216.12962334 -191.49220458 210.80048195 -186.58398438 205.45898438 C-181.12898209 199.52110499 -175.69808111 193.56357609 -170.3125 187.5625 C-167.25640539 184.17601679 -164.17014388 180.81755186 -161.08374023 177.45874023 C-158.22397796 174.34366875 -155.38484641 171.21148325 -152.5625 168.0625 C-148.56551622 163.6079009 -144.50925591 159.21081521 -140.44384766 154.81884766 C-136.6852202 150.75388189 -132.97250157 146.65015094 -129.27734375 142.52734375 C-126.2347706 139.150766 -123.15881256 135.80519519 -120.08349609 132.45849609 C-117.22383388 129.34348908 -114.38476963 126.21139758 -111.5625 123.0625 C-107.56551622 118.6079009 -103.50925591 114.21081521 -99.44384766 109.81884766 C-95.6852202 105.75388189 -91.97250157 101.65015094 -88.27734375 97.52734375 C-85.2347706 94.150766 -82.15881256 90.80519519 -79.08349609 87.45849609 C-76.22383388 84.34348908 -73.38476963 81.21139758 -70.5625 78.0625 C-66.56551622 73.6079009 -62.50925591 69.21081521 -58.44384766 64.81884766 C-54.6852202 60.75388189 -50.97250157 56.65015094 -47.27734375 52.52734375 C-44.2347706 49.150766 -41.15881256 45.80519519 -38.08349609 42.45849609 C-35.22383388 39.34348908 -32.38476963 36.21139758 -29.5625 33.0625 C-26.07551582 29.17629044 -22.54652576 25.33171834 -19 21.5 C-9.21587587 10.9964862 -9.21587587 10.9964862 0 0 Z " fill="#16CDC5" transform="translate(481,64)"/>
</svg>
