<?xml version="1.0" encoding="UTF-8"?>
<svg version="1.1" xmlns="http://www.w3.org/2000/svg" width="512" height="512">
<path d="M0 0 C-1.58043375 3.82632885 -3.99829434 6.24473366 -6.9100647 9.15057373 C-7.41405049 9.65626837 -7.91803628 10.16196301 -8.43729436 10.68298173 C-10.12616885 12.37514875 -11.82208904 14.06007134 -13.51806641 15.74511719 C-14.73059822 16.95708484 -15.94268977 18.1694931 -17.15437317 19.38230896 C-20.44514067 22.67365076 -23.74204246 25.95878552 -27.04006624 29.24285412 C-30.48563374 32.67592734 -33.9255462 36.11465724 -37.36605835 39.55279541 C-43.88207217 46.06259064 -50.40316793 52.56727042 -56.92609727 59.07013535 C-64.35194915 66.47364005 -71.77212938 73.88281799 -79.19183469 81.2924819 C-94.45491325 96.53464987 -109.7251131 111.76966634 -125 127 C-128.59385249 125.3117959 -130.86611649 123.34923128 -133.65405273 120.49365234 C-134.57278671 119.55862885 -135.49152069 118.62360535 -136.43809509 117.6602478 C-136.92546583 117.15977306 -137.41283657 116.65929832 -137.91497612 116.14365768 C-139.4546142 114.5643758 -141.00184463 112.99291412 -142.55152893 111.42349243 C-146.95638743 106.96085077 -151.35182216 102.48911939 -155.73120117 98.00146484 C-158.41556562 95.25184572 -161.11266146 92.51523834 -163.8176136 89.78587723 C-164.83604278 88.7533796 -165.84981688 87.71626489 -166.85836601 86.67411423 C-179.50830779 73.60922235 -194.528197 64.08611282 -213.22900391 63.7578125 C-231.34164352 63.69717173 -247.75386598 69.01728485 -261.03930664 81.72509766 C-272.69249555 93.55432883 -278.74851844 109.67480685 -279.375 126.125 C-278.93881447 149.27009454 -266.53798807 165.7850055 -250.69165039 181.58300781 C-249.80907059 182.47069855 -248.92649078 183.35838928 -248.01716614 184.27297974 C-245.62830729 186.67323933 -243.2351297 189.06900537 -240.83929372 191.46228886 C-238.82717632 193.47332532 -236.81806831 195.48735575 -234.80887502 197.50131297 C-230.06508593 202.25613413 -225.31606809 207.00568697 -220.5637207 211.75195312 C-215.68516588 216.62446067 -210.81588281 221.50609596 -205.95099646 226.39224744 C-201.74806951 230.61285892 -197.53928431 234.82756657 -193.32588381 239.03772235 C-190.82062916 241.54117637 -188.31757705 244.04672993 -185.82023811 246.55808258 C-183.03457186 249.35879998 -180.23671882 252.14715025 -177.43774414 254.93457031 C-176.62756836 255.75238983 -175.81739258 256.57020935 -174.98266602 257.41281128 C-161.12560596 271.14442937 -144.77207187 279.76847691 -125 280 C-101.15446758 278.62135037 -86.49358955 267.12012586 -70.47851562 250.88500977 C-68.94572136 249.34616699 -67.41201473 247.80823254 -65.87747192 246.27113342 C-62.59183569 242.97628537 -59.31254088 239.67530076 -56.0381012 236.36932564 C-50.8634557 231.14518611 -45.6739624 225.93596531 -40.4822998 220.72874451 C-30.41247924 210.62472695 -20.35755693 200.50595923 -10.30436707 190.38539886 C2.52012258 177.47616251 15.35068331 164.57299592 28.1959672 151.68444866 C33.35968305 146.50232741 38.51561272 141.31261616 43.66566563 136.11691773 C46.86025002 132.89685696 50.06092538 129.68290412 53.26327896 126.47057152 C54.75146645 124.97514272 56.23704182 123.47710943 57.71986008 121.97635651 C59.73674008 119.9357531 61.76253784 117.90444653 63.79089355 115.8752594 C64.67701269 114.97193976 64.67701269 114.97193976 65.58103323 114.05037123 C69.65774875 110 69.65774875 110 73 110 C77.01412354 124.91711413 80.27669665 139.64131639 82 155 C82.13148438 156.10601562 82.26296875 157.21203125 82.3984375 158.3515625 C87.56920082 211.3169489 73.70500336 269.82448729 42 313 C41.28328125 313.98742187 40.5665625 314.97484375 39.828125 315.9921875 C29.20844697 330.3836822 17.82341684 344.55131119 4 356 C3.07058594 356.81726563 2.14117187 357.63453125 1.18359375 358.4765625 C-34.44470295 389.68835922 -80.01326707 408.86549043 -127 414 C-127.94230469 414.11085938 -128.88460938 414.22171875 -129.85546875 414.3359375 C-190.65674797 420.27952358 -252.30687061 401.71094892 -299.75 363.4375 C-348.19088163 322.96433253 -379.93725858 267.64591191 -386.78735352 204.42375183 C-387.1375282 200.4324489 -387.2017291 196.45014044 -387.23828125 192.4453125 C-387.2480751 191.55429337 -387.25786896 190.66327423 -387.26795959 189.74525452 C-387.44167212 169.83187552 -387.25871091 150.54764623 -383 131 C-382.79101074 130.02450195 -382.58202148 129.04900391 -382.36669922 128.04394531 C-372.47861103 83.41052252 -349.84798614 44.47681366 -318 12 C-317.41089844 11.39696045 -316.82179688 10.7939209 -316.21484375 10.17260742 C-311.1265566 5.01617357 -305.67062462 0.5053261 -300 -4 C-299.05640625 -4.77214844 -298.1128125 -5.54429688 -297.140625 -6.33984375 C-221.6564569 -66.66851178 -110.18989825 -71.85783664 0 0 Z " fill="#4BAF4F" transform="translate(387,76)"/>
<path d="M0 0 C5.52013044 3.08039076 8.60528998 6.87836995 10.625 12.9375 C10.7967326 14.99547591 10.89151206 17.06038332 10.9375 19.125 C10.97488281 20.21167969 11.01226563 21.29835938 11.05078125 22.41796875 C9.92225871 31.74639822 3.7400545 37.3980896 -2.63430786 43.71820068 C-3.59255464 44.68249586 -4.54993238 45.64765527 -5.5065192 46.61359715 C-8.12580318 49.2533895 -10.75735392 51.8806416 -13.39118862 54.50590539 C-16.23422116 57.34399408 -19.06572463 60.19354678 -21.89878845 63.0415802 C-27.44625234 68.61451579 -33.0045975 74.17647347 -38.56715174 79.73434296 C-43.08914303 84.2527653 -47.60758146 88.7747112 -52.12353134 93.29917145 C-52.76676132 93.94359181 -53.4099913 94.58801216 -54.0727131 95.25196041 C-55.379513 96.56118387 -56.68631055 97.87040968 -57.99310575 99.17963782 C-70.24292413 111.45119846 -82.50574226 123.70970433 -94.77253316 135.96429554 C-105.98881702 147.17024052 -117.18858741 158.39252521 -128.38067414 169.62263295 C-139.87974092 181.16046292 -151.38989592 192.68712249 -162.91211784 204.20183015 C-169.37802746 210.66391681 -175.83946985 217.13032279 -182.28931046 223.60845184 C-187.7799308 229.12290988 -193.28095627 234.62672382 -198.79560037 240.11716142 C-201.60746627 242.91725713 -204.4143422 245.7219058 -207.20830727 248.53987312 C-209.76917366 251.1224821 -212.3436405 253.69068943 -214.92936276 256.24840525 C-216.29773883 257.60900113 -217.65146224 258.98428542 -219.00449955 260.36013579 C-225.15633344 266.40502286 -231.58692001 270.86759525 -240.4375 271.4375 C-250.39127239 270.1735289 -256.30681292 264.72992069 -263.16162109 257.78198242 C-264.5608783 256.39345818 -264.5608783 256.39345818 -265.98840332 254.97688293 C-268.52855909 252.45513038 -271.05286958 249.91806403 -273.57394361 247.37725234 C-276.22324855 244.71147486 -278.88522933 242.0584046 -281.5453186 239.40339661 C-286.00732061 234.94590478 -290.45906467 230.47836547 -294.90478516 226.00463867 C-300.03611109 220.84123631 -305.18331349 215.69408919 -310.3393091 210.5553295 C-315.31261204 205.59791658 -320.27451463 200.62924145 -325.23134232 195.65535927 C-327.33526016 193.54459024 -329.44304448 191.43779907 -331.55408859 189.33415794 C-334.5026894 186.39467497 -337.43441883 183.43890107 -340.36474609 180.48120117 C-341.67386459 179.18187149 -341.67386459 179.18187149 -343.00942993 177.85629272 C-348.72011427 172.05464894 -352.77186828 167.12047578 -352.875 158.625 C-352.66244354 151.90636759 -350.52864825 145.93933149 -345.58984375 141.23828125 C-340.82420774 137.70705627 -336.99980946 136.75446528 -331.1875 136.625 C-329.55748047 136.56892578 -329.55748047 136.56892578 -327.89453125 136.51171875 C-319.54869837 137.52137001 -314.17907835 142.55934269 -308.49023438 148.36816406 C-307.37657501 149.48094727 -307.37657501 149.48094727 -306.24041748 150.61621094 C-303.80691693 153.05248163 -301.38786547 155.50257712 -298.96875 157.953125 C-297.2771214 159.65221973 -295.58460316 161.35042914 -293.89123535 163.04779053 C-289.45022992 167.50402268 -285.02137166 171.97213823 -280.5949707 176.44287109 C-276.07061569 181.00824216 -271.53482752 185.56222295 -267 190.1171875 C-258.11380041 199.0462058 -249.24027247 207.98770696 -240.375 216.9375 C-234.82272214 212.3146585 -229.69673471 207.38882281 -224.60791016 202.26374817 C-223.32002814 200.9729144 -223.32002814 200.9729144 -222.00612831 199.65600318 C-220.13156755 197.7764083 -218.25796004 195.89591845 -216.38593292 194.01380539 C-213.33917729 190.9506405 -210.28889895 187.89099843 -207.23822021 184.83174133 C-202.80999816 180.39042768 -198.38340344 175.9474976 -193.95770264 171.50367165 C-186.96121419 164.47891923 -179.95890347 157.45998615 -172.95556641 150.44206238 C-170.55720399 148.03857635 -168.15886682 145.63506512 -165.76052856 143.23155499 C-165.16127103 142.63101142 -164.5620135 142.03046786 -163.94459665 141.411726 C-157.13219069 134.58460378 -150.32067118 127.75659757 -143.50976562 120.92797852 C-142.88753121 120.30412935 -142.26529679 119.68028019 -141.62420678 119.03752651 C-131.53085479 108.91761311 -121.44312137 98.79211422 -111.35698533 88.66500966 C-100.99394177 78.26023226 -90.62325324 67.86311734 -80.2458477 57.47266406 C-73.84869132 51.06691394 -67.4578225 44.65501806 -61.07489824 38.23508587 C-56.70245598 33.83836763 -52.3227528 29.44897073 -47.9372611 25.06526879 C-45.40771599 22.53630139 -42.8815542 20.00417916 -40.36406708 17.46320343 C-37.634206 14.70803026 -34.88897401 11.96850813 -32.14208984 9.2303009 C-31.35015543 8.426033 -30.55822102 7.6217651 -29.74228859 6.79312545 C-21.13917272 -1.72470032 -11.6510625 -5.26121004 0 0 Z " fill="#2096F2" transform="translate(501.375,44.0625)"/>
</svg>
