<?xml version="1.0" encoding="UTF-8"?>
<svg version="1.1" xmlns="http://www.w3.org/2000/svg" width="512" height="512">
<path d="M0 0 C4.38500805 3.91920134 5.73714609 7.82978105 6.1953125 13.56640625 C6.05543363 18.80312157 4.12061371 22.59886605 1.0078125 26.71875 C-3.32628085 30.01642972 -7.52141238 31.88217968 -13.0390625 31.921875 C-19.68465733 30.95940954 -25.60016238 27.86182747 -31.63842773 25.08178711 C-49.61120086 16.91636542 -69.32697542 12.35199459 -88.8671875 9.90625 C-89.73214844 9.79410156 -90.59710938 9.68195312 -91.48828125 9.56640625 C-147.26319036 3.6570182 -203.18909329 21.66386647 -246.6796875 56.46875 C-281.42649738 85.70435891 -305.06316167 122.21629885 -317.8671875 165.90625 C-318.08987305 166.66035156 -318.31255859 167.41445312 -318.54199219 168.19140625 C-333.13106006 219.1222468 -324.15100794 276.90784711 -298.8671875 322.90625 C-270.27585959 373.22308239 -224.75625383 409.69397492 -168.9921875 425.65625 C-154.78717993 429.52990552 -139.6032785 432.4862189 -124.8671875 432.90625 C-124.10631836 432.93203125 -123.34544922 432.9578125 -122.56152344 432.984375 C-61.17273305 434.82305086 -7.61640577 411.85553775 37.2421875 370.984375 C42.3599704 366.05440065 46.69742263 360.44278701 51.1328125 354.90625 C51.7928125 354.11347656 52.4528125 353.32070313 53.1328125 352.50390625 C78.28017148 322.03301362 94.22189266 283.21861302 98.1328125 243.90625 C98.29716797 242.40964844 98.29716797 242.40964844 98.46484375 240.8828125 C101.13746007 212.5887144 97.60557388 184.56159091 89.7355957 157.33374023 C88.53992908 152.51862754 88.5769202 148.54122735 90.1953125 143.78125 C93.24036784 139.26278079 96.91359833 135.64598806 102.1328125 133.90625 C108.6239588 133.12526396 113.83583537 133.9762785 119.1328125 137.90625 C123.65468173 143.347351 125.53942426 149.58410465 127.1953125 156.34375 C127.44498779 157.33221924 127.69466309 158.32068848 127.9519043 159.33911133 C143.89448536 224.74522952 133.77007599 293.16788802 99.1328125 350.90625 C82.8515656 377.08989707 61.34664986 401.98010903 36.1328125 419.90625 C35.53791016 420.34018066 34.94300781 420.77411133 34.33007812 421.22119141 C-19.0277319 460.06868789 -85.48254612 476.30514463 -150.79736328 466.41113281 C-204.05305907 457.65236242 -250.00075049 433.0135272 -288.8671875 395.90625 C-289.54136719 395.27332031 -290.21554687 394.64039063 -290.91015625 393.98828125 C-296.0481923 389.03836551 -300.42530781 383.47633874 -304.8671875 377.90625 C-305.74422355 376.83156737 -306.62184304 375.75736065 -307.5 374.68359375 C-348.20508904 324.48722654 -366.04154596 259.35713885 -360.04516602 195.35180664 C-353.04366408 130.54231275 -321.00536685 69.46391246 -270.22167969 28.08276367 C-267.48854726 25.94885492 -264.69288293 23.91521888 -261.8671875 21.90625 C-261.27228516 21.47231934 -260.67738281 21.03838867 -260.06445312 20.59130859 C-192.98760843 -28.24441924 -72.71245844 -53.09792605 0 0 Z " fill="#FF8270" transform="translate(368.8671875,35.09375)"/>
<path d="M0 0 C4.84916362 2.64585432 8.0999607 6.04988209 9.875 11.375 C10.4385668 17.06485711 10.20296433 21.54408403 6.875 26.375 C1.08430954 31.95151424 -5.37968159 35.47588415 -12.4375 39.25 C-45.65901923 57.31851352 -76.8948186 78.50094913 -106.45996094 102.05712891 C-108.15415613 103.39807695 -109.86011545 104.72250393 -111.5703125 106.04296875 C-119.72258276 112.35101483 -127.53742743 118.97784574 -135.28564453 125.77392578 C-137.05173027 127.31122208 -138.83204373 128.82937077 -140.62109375 130.33984375 C-149.04039215 137.45101186 -157.10553255 144.88240156 -165.1015625 152.46484375 C-167.07865813 154.33125256 -169.06785597 156.18362157 -171.0625 158.03125 C-178.3972762 164.83359735 -185.60164121 171.75066354 -192.6875 178.8125 C-193.42532715 179.54573486 -194.1631543 180.27896973 -194.92333984 181.03442383 C-201.04048209 187.16898787 -206.78936318 193.54538487 -212.125 200.375 C-205.40075521 209.28717693 -198.46998552 217.9654861 -191.125 226.375 C-190.68575195 226.8788623 -190.24650391 227.38272461 -189.79394531 227.90185547 C-173.68233155 246.25285217 -154.87276771 261.31482412 -134.12402344 274.16821289 C-127.25727656 278.54975163 -121.05764741 284.2772167 -118.5625 292.24609375 C-116.9578427 300.05447079 -117.97102395 306.55544323 -122.125 313.375 C-126.60835661 318.68423809 -132.00130181 322.9412155 -139.05859375 323.68359375 C-148.35888137 324.0257448 -154.36272116 322.32917223 -162.125 317.375 C-162.88200195 316.89691895 -163.63900391 316.41883789 -164.41894531 315.92626953 C-187.63649704 301.13147478 -212.4226759 283.81177576 -230.28125 262.5390625 C-233.53163697 258.72398966 -236.97636664 255.0814323 -240.37890625 251.40234375 C-243.37755074 248.13119511 -246.25543942 244.75936962 -249.125 241.375 C-258.4195866 252.49527141 -267.40624435 263.79865528 -276.125 275.375 C-277.16783942 276.75270207 -278.2108071 278.13030707 -279.25390625 279.5078125 C-280.27403456 280.85892441 -281.29357336 282.21048163 -282.3125 283.5625 C-282.8060498 284.21734375 -283.29959961 284.8721875 -283.80810547 285.546875 C-286.65800258 289.35052631 -289.41075626 293.20608944 -292.11083984 297.1171875 C-298.24583333 305.95119899 -304.07863221 313.31644227 -315.125 315.375 C-324.45578287 316.56934021 -333.05670262 313.66197905 -340.5234375 308 C-346.29968088 302.13922623 -349.26418527 295.04623663 -349.5625 286.9375 C-349.39966532 273.72075198 -341.77472151 265.23610821 -333.4296875 255.86523438 C-331.62471558 253.80356734 -329.93697193 251.65875221 -328.25 249.5 C-320.60175631 239.85724512 -312.35675247 230.67484104 -304.09375 221.55859375 C-302.28965216 219.55762015 -300.51492983 217.5354969 -298.75 215.5 C-295.67701475 211.97255919 -292.53466354 208.51213594 -289.375 205.0625 C-288.66657959 204.2883374 -288.66657959 204.2883374 -287.94384766 203.49853516 C-284.24943952 199.47655705 -284.24943952 199.47655705 -282.234375 197.83203125 C-280.88872709 196.38159327 -280.88872709 196.38159327 -281.19140625 194.125 C-282.38713154 190.60286357 -284.16701454 187.55238489 -286.0625 184.375 C-302.57062215 155.72454008 -314.2365477 123.93672336 -322.125 91.875 C-322.33294189 91.04508545 -322.54088379 90.2151709 -322.75512695 89.36010742 C-324.85078418 80.36888425 -324.98250629 71.91662106 -321.125 63.375 C-316.5494784 56.10500457 -309.94094545 51.74984247 -301.61328125 49.78125 C-292.77517964 48.56028777 -284.49034104 50.00942297 -277.29150391 55.44946289 C-269.6424831 62.24773053 -267.55365383 72.03661093 -265.34185791 81.60040283 C-264.43124841 85.51319935 -263.45338512 89.40896701 -262.47265625 93.3046875 C-262.27698059 94.0829892 -262.08130493 94.86129089 -261.87969971 95.66317749 C-256.77108354 115.71432424 -248.76170669 134.6228151 -240.125 153.375 C-237.41736076 153.375 -236.86667199 152.40998544 -234.9296875 150.55859375 C-234.30054443 149.96288574 -233.67140137 149.36717773 -233.02319336 148.75341797 C-232.35553955 148.11291504 -231.68788574 147.47241211 -231 146.8125 C-229.62447172 145.5109005 -228.24817868 144.2101087 -226.87109375 142.91015625 C-226.2147998 142.28898926 -225.55850586 141.66782227 -224.88232422 141.02783203 C-221.71157658 138.04562009 -218.43394259 135.20164284 -215.125 132.375 C-214.13757813 131.52035156 -213.15015625 130.66570312 -212.1328125 129.78515625 C-198.42987389 117.94455982 -184.43451124 106.47418116 -170.125 95.375 C-169.10535156 94.57964844 -168.08570313 93.78429687 -167.03515625 92.96484375 C-149.54163706 79.39799091 -131.5321085 66.67246386 -113.125 54.375 C-112.24166992 53.78299805 -111.35833984 53.19099609 -110.44824219 52.58105469 C-84.390515 35.17218926 -56.84486394 20.21035378 -28.875 6.125 C-28.00085449 5.68325439 -27.12670898 5.24150879 -26.22607422 4.78637695 C-8.74041393 -3.91190811 -8.74041393 -3.91190811 0 0 Z " fill="#DD4651" transform="translate(494.125,60.625)"/>
</svg>
