<?xml version="1.0" encoding="UTF-8"?>
<svg version="1.1" xmlns="http://www.w3.org/2000/svg" width="512" height="512">
<path d="M0 0 C1.60946754 -0.0076664 1.60946754 -0.0076664 3.25144958 -0.01548767 C6.77079978 -0.02929817 10.28995223 -0.0284332 13.80932617 -0.02612305 C16.27495902 -0.0300149 18.7405912 -0.03435057 21.20622253 -0.03910828 C26.36471737 -0.04655233 31.52314375 -0.04629253 36.68164062 -0.04101562 C43.26495276 -0.03522609 49.84798308 -0.05214874 56.43124866 -0.0753603 C61.52131262 -0.09015229 66.61130958 -0.09096186 71.70139122 -0.08785057 C74.12727097 -0.08836112 76.55315473 -0.09354836 78.97901344 -0.10366249 C110.99261249 -0.22076008 110.99261249 -0.22076008 123.78979492 9.2746582 C124.69084961 9.94174805 124.69084961 9.94174805 125.61010742 10.62231445 C132.43652423 16.57558493 136.45548563 25.46385781 140.78979492 33.2746582 C141.41160645 34.39501465 142.03341797 35.51537109 142.67407227 36.66967773 C145.42791482 41.63864859 148.17626429 46.61057811 150.90478516 51.59350586 C151.23315872 52.19251205 151.56153229 52.79151825 151.89985657 53.40867615 C152.79151219 55.03617329 153.68158868 56.66453532 154.5715332 58.29296875 C155.09055962 59.14779846 155.09055962 59.14779846 155.62007141 60.01989746 C156.78979492 62.2746582 156.78979492 62.2746582 157.93644714 65.78527832 C159.48045846 69.96861651 161.15347941 73.5456908 164.78979492 76.2746582 C172.68422128 78.92629249 181.62872855 77.93900165 189.82495117 77.7199707 C192.30778733 77.70612904 194.79066965 77.69905899 197.27354431 77.69845581 C203.80067327 77.68136193 210.32403873 77.5840766 216.85003662 77.46636963 C227.29651794 77.2840753 237.74502772 77.24345273 248.19277763 77.18810654 C251.83782426 77.1578822 255.48122557 77.09577468 259.12574768 77.02810669 C261.36409907 77.00185011 263.60245643 76.97609688 265.84082031 76.95092773 C266.85036774 76.92390274 267.85991516 76.89687775 268.90005493 76.86903381 C275.10609012 76.82733172 278.71642146 77.63093848 283.78979492 81.2746582 C287.006621 84.95666256 288.12159938 89.06033871 287.85229492 93.8996582 C287.04285185 98.63367373 285.28544965 101.01734357 281.78979492 104.2746582 C277.65526344 106.41498266 274.13515016 106.50795331 269.52026367 106.4699707 C268.83926102 106.46714081 268.15825836 106.46431091 267.45661926 106.46139526 C265.29666037 106.45026345 263.13712698 106.42517277 260.97729492 106.3996582 C259.50659782 106.38961932 258.03589416 106.38049506 256.56518555 106.37231445 C252.97325207 106.35034734 249.38156508 106.3158664 245.78979492 106.2746582 C245.66732842 107.30398764 245.66732842 107.30398764 245.54238784 108.35411161 C240.32122821 152.22987405 235.0395428 196.09796251 229.70104104 239.95959464 C229.41948868 242.27293926 229.13797654 244.58628877 228.85647726 246.89963984 C227.08715801 261.43979248 225.31738344 275.97988961 223.54606819 290.51979923 C223.14488298 293.8130035 222.7437022 297.1062083 222.3425293 300.39941406 C222.24290641 301.2172088 222.14328353 302.03500353 222.04064177 302.87757992 C220.40714598 316.28753005 218.77687838 329.69787073 217.14782716 343.10836143 C215.45768103 357.02133417 213.76463699 370.93395188 212.06876266 384.84622759 C211.1234357 392.60191787 210.17935841 400.35775561 209.23859024 408.11400032 C208.44352516 414.6689395 207.6458467 421.22355391 206.84474941 427.77775872 C206.43744487 431.11079696 206.03179029 434.44401356 205.62867928 437.7775631 C205.19108453 441.39459865 204.74873245 445.01102226 204.3052063 448.62733459 C204.18030575 449.66920632 204.0554052 450.71107804 203.92671978 451.78452164 C202.36753174 464.39449024 201.04579467 474.68235841 190.61791992 483.0246582 C184.9887667 486.87365186 178.84737951 488.3954698 172.07950306 488.40608597 C171.15609837 488.40992711 170.23269369 488.41376826 169.28130704 488.4177258 C167.77256962 488.41642608 167.77256962 488.41642608 166.23335266 488.4151001 C164.62044123 488.41955678 164.62044123 488.41955678 162.97494572 488.4241035 C159.36545076 488.4327874 155.75598897 488.4342985 152.14648438 488.43579102 C149.56101918 488.44041941 146.97555466 488.4454441 144.39009094 488.45083618 C137.36101586 488.4644049 130.3319465 488.470442 123.3028605 488.47484684 C118.91148715 488.47761185 114.52011599 488.48184969 110.12874413 488.48635101 C97.96359171 488.498542 85.79844105 488.5088415 73.63328266 488.5122261 C72.46589544 488.51255545 72.46589544 488.51255545 71.27492465 488.51289146 C70.49483347 488.51310973 69.7147423 488.51332801 68.91101199 488.5135529 C67.3303231 488.51399637 65.74963421 488.51444293 64.16894531 488.51489258 C62.99283778 488.51522472 62.99283778 488.51522472 61.7929705 488.51556358 C49.09329301 488.51951009 36.39367294 488.53696039 23.69401763 488.5602521 C10.64668558 488.58398774 -2.40061767 488.59642897 -15.44797164 488.59759402 C-22.77001532 488.59850956 -30.09198417 488.60423132 -37.41400719 488.62241364 C-44.30291918 488.63946048 -51.19168716 488.64105071 -58.08061409 488.63227463 C-60.6065242 488.63150414 -63.13244194 488.63584842 -65.65833282 488.64573288 C-69.11200536 488.65845342 -72.5651753 488.65257444 -76.0188446 488.64215088 C-77.51085161 488.65423549 -77.51085161 488.65423549 -79.03300017 488.66656423 C-88.68622051 488.59863357 -97.71701415 486.68686843 -104.80004883 479.70825195 C-110.40412686 473.58350164 -112.53132945 467.31967205 -113.4675293 459.14941406 C-113.61868997 457.94347044 -113.61868997 457.94347044 -113.7729044 456.71316433 C-114.11365422 453.97308524 -114.43910332 451.23139738 -114.76489258 448.48950195 C-115.0166072 446.43841744 -115.2692526 444.38744698 -115.52272034 442.33657837 C-116.23655571 436.53772093 -116.936897 430.73729599 -117.63538742 424.93657303 C-118.4002544 418.60360258 -119.17721888 412.27211531 -119.95263672 405.94042969 C-121.34086707 394.5936775 -122.72120692 383.24598015 -124.09782231 371.89781344 C-126.30781677 353.68025097 -128.52817864 335.46396772 -130.75366211 317.24829102 C-130.91007691 315.96802139 -131.06649171 314.68775176 -131.22764635 313.36868608 C-131.87378806 308.08012071 -132.51995921 302.79155894 -133.16617274 297.50300235 C-136.32943781 271.61472401 -139.48912633 245.72600869 -142.64770508 219.8371582 C-142.73114461 219.15326324 -142.81458415 218.46936828 -142.90055215 217.76474923 C-145.09818479 199.7520244 -147.29397487 181.73907652 -149.48692131 163.72578049 C-150.0895351 158.77612168 -150.69271537 153.82653242 -151.29638863 148.87700272 C-151.99818551 143.12273648 -152.69885105 137.36833367 -153.39859414 131.61381733 C-153.65474477 129.50888694 -153.91130376 127.4040062 -154.16829276 125.299178 C-154.51669875 122.44503316 -154.86364117 119.59071425 -155.21018982 116.73634338 C-155.31279368 115.89867436 -155.41539753 115.06100533 -155.52111059 114.19795239 C-156.21020508 108.50298844 -156.21020508 108.50298844 -156.21020508 106.2746582 C-157.57169678 106.29822388 -157.57169678 106.29822388 -158.96069336 106.32226562 C-162.34893579 106.37358951 -165.73676127 106.41110236 -169.12524414 106.43945312 C-170.58787582 106.45448016 -172.0504629 106.47490775 -173.51293945 106.50097656 C-175.62307788 106.53763087 -177.73261734 106.55444497 -179.84301758 106.56762695 C-181.11032715 106.5833374 -182.37763672 106.59904785 -183.68334961 106.61523438 C-188.62931352 106.13761983 -191.88722012 104.49037411 -195.52270508 101.1496582 C-197.84078452 97.20033768 -198.51460347 93.84063405 -198.21020508 89.2746582 C-196.95283048 84.57604787 -195.28417193 82.04296186 -191.30284119 79.19476318 C-186.41961646 76.49034541 -181.60045701 76.70185784 -176.13427734 76.72875977 C-175.04085526 76.71842209 -173.94743317 76.70808441 -172.82087708 76.69743347 C-169.22263756 76.6680398 -165.6249614 76.66650696 -162.02661133 76.6652832 C-159.52553741 76.65029933 -157.02447337 76.63357175 -154.52342224 76.61517334 C-148.62334526 76.57596915 -142.72340951 76.55429359 -136.82322115 76.54119945 C-129.44234104 76.5237377 -122.06166899 76.47890048 -114.6809082 76.43481445 C-101.524056 76.3595247 -88.36722593 76.30846467 -75.21020508 76.2746582 C-73.12160758 72.58782345 -71.03443555 68.90018359 -68.94750977 65.21240234 C-68.35928436 64.17409523 -67.77105896 63.13578812 -67.16500854 62.06601715 C-63.16566243 54.99667757 -59.26813253 47.88635542 -55.46020508 40.7121582 C-38.22764238 8.6735316 -38.22764238 8.6735316 -21.21020508 2.2746582 C-14.12040226 0.43271467 -7.29807889 -0.01824631 0 0 Z M-17.84057617 34.05737305 C-18.25903809 34.73493652 -18.6775 35.4125 -19.10864258 36.1105957 C-19.60332031 36.90691406 -20.09799805 37.70323242 -20.60766602 38.52368164 C-23.76279151 43.93988427 -26.82366733 49.40292893 -29.83520508 54.8996582 C-30.49628733 56.10038617 -31.15774381 57.30090818 -31.81958008 58.5012207 C-33.07187809 60.77259524 -34.32231527 63.04499711 -35.57055664 65.31860352 C-36.90694062 67.72791519 -38.27446091 70.11111403 -39.67114258 72.4855957 C-41.37125247 75.03558432 -41.37125247 75.03558432 -41.21020508 77.2746582 C15.54979492 77.2746582 72.30979492 77.2746582 130.78979492 77.2746582 C129.36425995 72.99805328 128.20141417 69.93440875 126.03198242 66.1496582 C125.49250977 65.20195557 124.95303711 64.25425293 124.3972168 63.27783203 C123.82551758 62.28678467 123.25381836 61.2957373 122.66479492 60.2746582 C121.48504007 58.21610305 120.30535243 56.15750938 119.12573242 54.09887695 C118.2667334 52.60493408 118.2667334 52.60493408 117.39038086 51.08081055 C116.01198972 48.66421082 114.66068798 46.23663317 113.32885742 43.79418945 C112.97710449 43.15545898 112.62535156 42.51672852 112.26293945 41.85864258 C111.36012137 40.21517845 110.46524318 38.56735943 109.57104492 36.91918945 C106.94965505 33.02734528 104.2411783 30.75845266 99.78979492 29.2746582 C98.29327177 29.17965495 96.79290604 29.13978772 95.29338074 29.13421631 C94.37237076 29.12850616 93.45136078 29.12279602 92.50244141 29.11691284 C90.9898877 29.11523605 90.9898877 29.11523605 89.44677734 29.11352539 C88.38308426 29.10856049 87.31939117 29.10359558 86.22346497 29.09848022 C82.69739133 29.08385079 79.17136269 29.07705527 75.64526367 29.0715332 C73.19769794 29.06578239 70.75013223 29.06002465 68.30256653 29.05426025 C63.16704091 29.04374804 58.03153096 29.03790681 52.89599609 29.03442383 C46.31517475 29.02893871 39.73456028 29.004911 33.15380383 28.97645187 C28.09661758 28.95782914 23.0394812 28.95262008 17.98226357 28.95108795 C15.55617454 28.94806008 13.13008641 28.94002705 10.70403099 28.92690277 C7.30952589 28.90985039 3.91552664 28.91172083 0.52099609 28.91821289 C-0.48130035 28.90899811 -1.4835968 28.89978333 -2.51626587 28.89028931 C-8.55403959 28.92646616 -13.51759331 29.3304457 -17.84057617 34.05737305 Z " fill="#4BA4FF" transform="translate(211.210205078125,11.725341796875)"/>
</svg>
