<?xml version="1.0" encoding="UTF-8"?>
<svg version="1.1" xmlns="http://www.w3.org/2000/svg" width="512" height="512">
<path d="M0 0 C0.90871345 -0.00630794 1.81742691 -0.01261588 2.75367713 -0.01911497 C3.74821536 -0.02097697 4.7427536 -0.02283896 5.76742935 -0.02475739 C6.82692614 -0.03055077 7.88642292 -0.03634416 8.97802567 -0.0423131 C12.54000427 -0.06039851 16.10196701 -0.0712518 19.66397476 -0.08200836 C22.21312988 -0.09318214 24.76228353 -0.10469541 27.3114357 -0.11652374 C35.69227467 -0.15309282 44.07312742 -0.17836636 52.45401382 -0.20114899 C53.16678753 -0.20312389 53.87956125 -0.20509879 54.61393416 -0.20713353 C68.77028683 -0.24629806 82.9266484 -0.27999002 97.08303833 -0.30221558 C100.19400165 -0.30718474 103.30496483 -0.31222909 106.41592789 -0.31735992 C107.18912724 -0.3186306 107.96232659 -0.31990127 108.75895622 -0.32121044 C121.28555706 -0.34257282 133.81189568 -0.39157313 146.33836457 -0.45160407 C159.20258828 -0.51274488 172.0666767 -0.54740596 184.93104386 -0.55668879 C192.15259876 -0.56259738 199.37370911 -0.58032761 206.59511948 -0.62807465 C213.38817282 -0.67294877 220.18034719 -0.68224924 226.97357559 -0.66744614 C229.46648927 -0.66777534 231.9594346 -0.68009461 234.45222092 -0.70529556 C237.85702562 -0.73789968 241.25908126 -0.72727199 244.66391373 -0.70590973 C245.64952907 -0.7256175 246.63514442 -0.74532527 247.6506269 -0.76563025 C254.02806799 -0.66464773 257.22949898 0.79468303 261.74851084 5.3029052 C262.31648307 5.91000482 262.88445531 6.51710444 263.46963882 7.14260101 C264.36470579 7.99521861 265.25977276 8.84783621 266.18196297 9.7262907 C266.99054316 10.53319505 267.79912334 11.34009939 268.63220596 12.17145538 C269.09090454 12.62788841 269.54960312 13.08432143 270.02220166 13.55458575 C271.52899553 15.055147 273.03229248 16.55915885 274.53555679 18.06325531 C275.6268769 19.1515775 276.71839978 20.23969641 277.81010818 21.32762909 C280.75217588 24.26092454 283.69105154 27.19739743 286.62905645 30.13476157 C288.4664731 31.97146473 290.30460106 33.80745292 292.14298248 35.64319038 C298.56038005 42.05136244 304.97521579 48.46208598 311.38760757 54.87526703 C317.36117604 60.84943802 323.34031993 66.8179887 329.32206047 72.78397626 C334.46632909 77.91518017 339.60674604 83.05022103 344.74416649 88.18828136 C347.80911302 91.25348286 350.87559284 94.31711098 353.94595337 97.37689018 C356.82813685 100.24940882 359.70550181 103.12666735 362.57921028 106.00766373 C363.63446476 107.06396551 364.69143182 108.11855959 365.75022316 109.17131615 C367.19442389 110.60781614 368.63187947 112.051088 370.06897354 113.49469757 C371.27845059 114.70335747 371.27845059 114.70335747 372.51236153 115.93643475 C376.09935357 119.97955161 376.72226085 122.85151922 376.76016617 128.20876312 C376.77292587 129.43360916 376.78568558 130.6584552 376.79883194 131.92041779 C376.80217041 133.90018364 376.80217041 133.90018364 376.80557632 135.91994476 C376.81200635 137.2923064 376.81873486 138.66466667 376.82574844 140.03702545 C376.83771084 142.91103544 376.84143028 145.78492531 376.84024429 148.65895844 C376.840041 152.33555874 376.86735679 156.01138692 376.90178871 159.68780422 C376.92406148 162.52146673 376.92808176 165.35494339 376.92702484 168.18868446 C376.9305219 170.20112708 376.95218017 172.2135117 376.97412491 174.22583771 C376.96797165 175.45383591 376.96181839 176.68183411 376.95547867 177.94704437 C376.9583287 179.02529984 376.96117874 180.1035553 376.96411514 181.21448517 C376.34258497 184.89496952 375.15825105 186.58342351 372.46963882 189.14260101 C371.14963882 189.14260101 369.82963882 189.14260101 368.46963882 189.14260101 C368.46963882 196.40260101 368.46963882 203.66260101 368.46963882 211.14260101 C370.11963882 211.47260101 371.76963882 211.80260101 373.46963882 212.14260101 C381.28908855 216.84432802 388.5161303 224.19396617 391.04141617 233.17641449 C391.51749039 235.16514333 391.99356461 237.15387217 392.46963882 239.14260101 C393.0384729 239.13371857 393.60730698 239.12483612 394.19337845 239.11568451 C400.14742292 239.0267589 406.10127681 238.96668041 412.05582047 238.92287445 C414.27399746 238.90283701 416.49212215 238.87559928 418.71011734 238.8408432 C421.91003754 238.79197849 425.10925557 238.76955289 428.30948257 238.75197601 C429.29109863 238.73133087 430.27271469 238.71068573 431.28407669 238.68941498 C438.79455132 238.68700181 444.58358266 240.39360087 450.73917007 244.74806976 C456.84773686 251.01128381 459.65092399 256.82139701 459.96963882 265.64260101 C459.67459344 274.08089894 456.86140636 280.42438576 451.18057632 286.63869476 C444.67447198 292.35753077 437.76833094 293.19615451 429.46963882 293.14260101 C429.43724987 293.69505682 429.40486092 294.24751263 429.37149048 294.81670952 C428.9408128 302.16232786 428.50994824 309.50793523 428.07901382 316.85353851 C427.97150205 318.6862606 427.97150205 318.6862606 427.86181831 320.55600739 C426.99343116 335.35729827 426.12347974 350.15849509 425.2501564 364.95949554 C425.16951388 366.32636197 425.0888715 367.6932284 425.00822926 369.06009483 C424.68725651 374.50021832 424.36626062 379.94034043 424.04507256 385.3804512 C423.1781172 400.06557057 422.31564663 414.75091333 421.47162247 429.4373703 C421.15746442 434.90177858 420.83877099 440.36591776 420.51801872 445.8299427 C420.31838925 449.23496067 420.12132264 452.64008121 419.93069839 456.04561615 C419.72500047 459.70075878 419.51056157 463.35528453 419.29385757 467.00978851 C419.23890625 468.02923553 419.18395493 469.04868256 419.12733841 470.09902191 C418.34755632 482.83893925 415.2984499 494.57069028 405.59854507 503.57619476 C398.24622343 508.98588463 390.57932121 512.24892614 381.48868179 512.29650116 C380.26364441 512.30510162 379.03860703 512.31370209 377.7764473 512.32256317 C376.42157406 512.3269981 375.06670038 512.33129649 373.71182632 512.33547211 C372.28244708 512.34337752 370.85306981 512.35164674 369.42369461 512.36025238 C364.73069529 512.38643169 360.03768725 512.40178051 355.34463882 512.41603851 C353.72530487 512.42140074 352.10597097 512.42677825 350.48663712 512.43217087 C343.74563239 512.45379767 337.00463002 512.47253042 330.2635994 512.48379326 C320.62515754 512.50000609 310.98712048 512.53312094 301.34883118 512.59019411 C294.56050882 512.62900982 287.77229418 512.64843991 280.98386383 512.65371382 C276.93570459 512.65735273 272.88797746 512.66921608 268.83993912 512.70181656 C265.02468462 512.73210133 261.21011904 512.73813749 257.39476967 512.7264328 C256.00330588 512.72621372 254.61180821 512.73437954 253.22045708 512.75208664 C243.8717069 512.86447451 236.8172815 511.3917939 228.46963882 507.14260101 C226.06421954 505.93989137 224.36597291 505.93943438 221.68057632 505.82619476 C220.7395607 505.78430023 219.79854507 505.7424057 218.82901382 505.69924164 C217.3517482 505.64026703 217.3517482 505.64026703 215.84463882 505.58010101 C214.8520607 505.53691742 213.85948257 505.49373383 212.83682632 505.44924164 C210.38124045 505.34299033 207.92555179 505.24095138 205.46963882 505.14260101 C205.18088882 505.92635101 204.89213882 506.71010101 204.59463882 507.51760101 C203.46963882 510.14260101 203.46963882 510.14260101 201.46963882 512.14260101 C198.77155776 512.34465734 196.17551868 512.42062549 193.47586441 512.41002655 C192.63999943 512.41455766 191.80413445 512.41908878 190.94294024 512.4237572 C188.12561262 512.43647648 185.30847646 512.43477596 182.4911232 512.43312836 C180.47751998 512.4391092 178.46391907 512.44591371 176.4503212 512.45348358 C170.96645982 512.47120305 165.48266081 512.47584166 159.99877357 512.47711515 C155.42163445 512.47901157 150.84450994 512.48636673 146.26737642 512.49345934 C135.46337047 512.50976598 124.65939786 512.51462649 113.85538101 512.51320648 C102.71624701 512.51200668 91.57730728 512.53307102 80.43822241 512.56469381 C70.87546296 512.59087274 61.31276686 512.60157299 51.74997187 512.60029566 C46.03863491 512.5997862 40.32747022 512.60545981 34.61616898 512.62665176 C29.23828007 512.64605942 23.8607272 512.64614112 18.48282623 512.6316185 C16.51324979 512.62953196 14.54365221 512.63422201 12.57411194 512.64633942 C-1.60407665 512.72788754 -11.60686722 511.85215501 -22.32723618 501.65431976 C-28.66117033 494.43318561 -30.68387316 486.90502028 -30.66458225 477.52838039 C-30.6681106 476.36648795 -30.6681106 476.36648795 -30.67171022 475.18112293 C-30.67839866 472.5701187 -30.67794205 469.95916424 -30.6775322 467.34815216 C-30.68083092 465.46338022 -30.6845565 463.57860899 -30.68867368 461.69383866 C-30.69870087 456.50219094 -30.70241163 451.31055478 -30.70506299 446.11889875 C-30.70896391 440.52429104 -30.7185424 434.9296925 -30.72727585 429.33509064 C-30.74704637 415.81786379 -30.75710727 402.30063618 -30.76600364 388.78339848 C-30.77038562 382.41961737 -30.77575267 376.0558371 -30.78099251 369.69205666 C-30.79800547 348.54025784 -30.8125248 327.38845966 -30.81974125 306.23665524 C-30.82021601 304.86871757 -30.82069189 303.50077991 -30.82116891 302.13284225 C-30.82140529 301.45447151 -30.82164166 300.77610077 -30.8218852 300.07717335 C-30.82308639 296.64024233 -30.82430185 293.20331132 -30.82552719 289.76638031 C-30.82576734 289.08431225 -30.82600749 288.40224419 -30.82625492 287.69950741 C-30.83414642 265.58927276 -30.85757497 243.47909178 -30.89008314 221.36888057 C-30.92439393 197.98991221 -30.94409243 174.61098435 -30.94738549 151.23198658 C-30.94955143 138.48899136 -30.95831245 125.74607502 -30.98384666 113.00310326 C-31.0055413 102.15114223 -31.01361013 91.29927924 -31.00387988 80.447299 C-30.99933163 74.91077831 -31.00125219 69.37445993 -31.02064133 63.83796692 C-31.0382479 58.76665977 -31.03729542 53.6957029 -31.02174404 48.62439216 C-31.01936418 46.79256076 -31.02371108 44.96070526 -31.03557269 43.12891071 C-31.1195933 29.29338276 -30.0160785 18.73204605 -19.97567368 8.31056976 C-14.0821076 3.08544329 -7.90790578 0.03444529 0 0 Z " fill="#E9EBEF" transform="translate(41.53036117553711,-0.14260101318359375)"/>
<path d="M0 0 C0.85620941 -0.00511093 1.71241882 -0.01022186 2.59457397 -0.01548767 C5.41663676 -0.02935026 8.23845413 -0.02842822 11.06054688 -0.02612305 C13.03625579 -0.03001417 15.01196388 -0.03434969 16.9876709 -0.03910828 C21.1301545 -0.0465651 25.27255289 -0.04628482 29.41503906 -0.04101562 C34.68906424 -0.03524713 39.96273522 -0.05209102 45.23670197 -0.0753603 C49.32057694 -0.09019758 53.40436883 -0.0909554 57.48826599 -0.08785057 C59.43046261 -0.08835962 61.3726644 -0.09351791 63.31483459 -0.10366249 C94.2118616 -0.2451463 94.2118616 -0.2451463 106.27929688 11.2746582 C110.48301528 16.00287725 113.09471068 20.38994548 114.86914062 26.45483398 C115.13460693 27.35694611 115.40007324 28.25905823 115.67358398 29.18850708 C115.97341187 30.22115189 115.97341187 30.22115189 116.27929688 31.2746582 C116.84813095 31.26577576 117.41696503 31.25689331 118.0030365 31.2477417 C123.95708097 31.15881609 129.91093486 31.0987376 135.86547852 31.05493164 C138.08365551 31.0348942 140.3017802 31.00765647 142.51977539 30.97290039 C145.71969559 30.92403568 148.91891362 30.90161008 152.11914062 30.8840332 C153.10075668 30.86338806 154.08237274 30.84274292 155.09373474 30.82147217 C162.60420937 30.819059 168.39324071 32.52565806 174.54882812 36.88012695 C180.65739491 43.143341 183.46058205 48.9534542 183.77929688 57.7746582 C183.48425149 66.21295613 180.67106441 72.55644295 174.99023438 78.77075195 C168.48413003 84.48958796 161.57798899 85.3282117 153.27929688 85.2746582 C153.24690792 85.82711401 153.21451897 86.37956982 153.18114853 86.94876671 C152.75047085 94.29438505 152.3196063 101.63999242 151.88867188 108.9855957 C151.7811601 110.81831779 151.7811601 110.81831779 151.67147636 112.68806458 C150.80308921 127.48935546 149.93313779 142.29055228 149.05981445 157.09155273 C148.97917193 158.45841916 148.89852955 159.82528559 148.81788731 161.19215202 C148.49691456 166.63227551 148.17591867 172.07239762 147.85473061 177.51250839 C146.98777525 192.19762776 146.12530468 206.88297052 145.28128052 221.56942749 C144.96712247 227.03383577 144.64842904 232.49797495 144.32767677 237.96199989 C144.1280473 241.36701786 143.93098069 244.7721384 143.74035645 248.17767334 C143.53465852 251.83281597 143.32021962 255.48734172 143.10351562 259.1418457 C143.0485643 260.16129272 142.99361298 261.18073975 142.93699646 262.2310791 C142.15721437 274.97099644 139.10810795 286.70274747 129.40820312 295.70825195 C122.05588148 301.11794182 114.38897926 304.38098333 105.29833984 304.42855835 C104.07330246 304.43715881 102.84826508 304.44575928 101.58610535 304.45462036 C100.23123211 304.45905529 98.87635843 304.46335368 97.52148438 304.4675293 C96.09210513 304.47543471 94.66272786 304.48370393 93.23335266 304.49230957 C88.54035334 304.51848888 83.84734531 304.5338377 79.15429688 304.5480957 C77.53496292 304.55345793 75.91562902 304.55883544 74.29629517 304.56422806 C67.55529044 304.58585486 60.81428807 304.60458761 54.07325745 304.61585045 C44.43481559 304.63206328 34.79677853 304.66517813 25.15848923 304.7222513 C18.37016687 304.76106701 11.58195223 304.7804971 4.79352188 304.78577101 C0.74536264 304.78940992 -3.30236449 304.80127327 -7.35040283 304.83387375 C-11.16565733 304.86415852 -14.98022291 304.87019468 -18.79557228 304.85848999 C-20.18703607 304.85827091 -21.57853374 304.86643673 -22.96988487 304.88414383 C-34.15831189 305.01864775 -44.74564806 303.04280349 -53.13085938 295.06762695 C-62.5919393 284.3977604 -65.5270595 274.08159503 -66.36914062 260.12231445 C-66.42611115 259.21559494 -66.48308167 258.30887543 -66.54177856 257.37467957 C-66.72979901 254.36237129 -66.91289084 251.34978673 -67.09570312 248.3371582 C-67.2278123 246.19815758 -67.35997487 244.05916025 -67.4921875 241.92016602 C-68.55240793 224.62729207 -69.48678137 207.3282412 -70.40664673 190.0274353 C-71.28835838 173.49638866 -72.30659754 156.98110039 -73.4725647 140.46777344 C-74.76996974 122.08077035 -75.79292115 103.68371806 -76.72070312 85.2746582 C-77.46545898 85.22132324 -78.21021484 85.16798828 -78.97753906 85.11303711 C-79.96012695 85.0348877 -80.94271484 84.95673828 -81.95507812 84.8762207 C-82.92670898 84.80226074 -83.89833984 84.72830078 -84.89941406 84.65209961 C-91.5880673 83.7572694 -96.6523827 80.18725299 -101.17773438 75.30981445 C-105.97552373 68.98159103 -107.47452952 62.08250535 -107.16210938 54.23168945 C-105.9806751 46.31712532 -101.96106168 40.84123965 -95.97851562 35.74731445 C-89.18626818 31.31707693 -83.71112281 30.85751024 -75.75585938 30.98168945 C-74.7225499 30.9859343 -73.68924042 30.99017914 -72.62461853 30.99455261 C-69.34387491 31.01126426 -66.0637592 31.04890309 -62.78320312 31.0871582 C-60.55079016 31.10221473 -58.31836751 31.11590144 -56.0859375 31.12817383 C-50.63064732 31.1611431 -45.1757201 31.21126733 -39.72070312 31.2746582 C-39.51950363 30.65515289 -39.31830414 30.03564758 -39.11100769 29.39736938 C-38.8445192 28.58553192 -38.5780307 27.77369446 -38.3034668 26.93725586 C-38.0403923 26.13212555 -37.77731781 25.32699524 -37.50627136 24.49746704 C-34.31046168 15.45474653 -26.98856442 8.31875796 -18.59570312 3.9621582 C-12.32145596 0.98660322 -6.86893316 -0.02132482 0 0 Z " fill="#666D82" transform="translate(317.720703125,207.725341796875)"/>
<path d="M0 0 C0.90871345 -0.00630794 1.81742691 -0.01261588 2.75367713 -0.01911497 C3.74821536 -0.02097697 4.7427536 -0.02283896 5.76742935 -0.02475739 C6.82692614 -0.03055077 7.88642292 -0.03634416 8.97802567 -0.0423131 C12.54000427 -0.06039851 16.10196701 -0.0712518 19.66397476 -0.08200836 C22.21312988 -0.09318214 24.76228353 -0.10469541 27.3114357 -0.11652374 C35.69227467 -0.15309282 44.07312742 -0.17836636 52.45401382 -0.20114899 C53.16678753 -0.20312389 53.87956125 -0.20509879 54.61393416 -0.20713353 C68.77028683 -0.24629806 82.9266484 -0.27999002 97.08303833 -0.30221558 C100.19400165 -0.30718474 103.30496483 -0.31222909 106.41592789 -0.31735992 C107.18912724 -0.3186306 107.96232659 -0.31990127 108.75895622 -0.32121044 C121.28555706 -0.34257282 133.81189568 -0.39157313 146.33836457 -0.45160407 C159.20258828 -0.51274488 172.0666767 -0.54740596 184.93104386 -0.55668879 C192.15259876 -0.56259738 199.37370911 -0.58032761 206.59511948 -0.62807465 C213.38817282 -0.67294877 220.18034719 -0.68224924 226.97357559 -0.66744614 C229.46648927 -0.66777534 231.9594346 -0.68009461 234.45222092 -0.70529556 C237.85702562 -0.73789968 241.25908126 -0.72727199 244.66391373 -0.70590973 C245.64952907 -0.7256175 246.63514442 -0.74532527 247.6506269 -0.76563025 C254.02806799 -0.66464773 257.22949898 0.79468303 261.74851084 5.3029052 C262.31648307 5.91000482 262.88445531 6.51710444 263.46963882 7.14260101 C264.36470579 7.99521861 265.25977276 8.84783621 266.18196297 9.7262907 C266.99054316 10.53319505 267.79912334 11.34009939 268.63220596 12.17145538 C269.09090454 12.62788841 269.54960312 13.08432143 270.02220166 13.55458575 C271.52899553 15.055147 273.03229248 16.55915885 274.53555679 18.06325531 C275.6268769 19.1515775 276.71839978 20.23969641 277.81010818 21.32762909 C280.75217588 24.26092454 283.69105154 27.19739743 286.62905645 30.13476157 C288.4664731 31.97146473 290.30460106 33.80745292 292.14298248 35.64319038 C298.56038005 42.05136244 304.97521579 48.46208598 311.38760757 54.87526703 C317.36117604 60.84943802 323.34031993 66.8179887 329.32206047 72.78397626 C334.46632909 77.91518017 339.60674604 83.05022103 344.74416649 88.18828136 C347.80911302 91.25348286 350.87559284 94.31711098 353.94595337 97.37689018 C356.82813685 100.24940882 359.70550181 103.12666735 362.57921028 106.00766373 C363.63446476 107.06396551 364.69143182 108.11855959 365.75022316 109.17131615 C367.19442389 110.60781614 368.63187947 112.051088 370.06897354 113.49469757 C371.27845059 114.70335747 371.27845059 114.70335747 372.51236153 115.93643475 C376.09935357 119.97955161 376.72226085 122.85151922 376.76016617 128.20876312 C376.77292587 129.43360916 376.78568558 130.6584552 376.79883194 131.92041779 C376.80217041 133.90018364 376.80217041 133.90018364 376.80557632 135.91994476 C376.81200635 137.2923064 376.81873486 138.66466667 376.82574844 140.03702545 C376.83771084 142.91103544 376.84143028 145.78492531 376.84024429 148.65895844 C376.840041 152.33555874 376.86735679 156.01138692 376.90178871 159.68780422 C376.92406148 162.52146673 376.92808176 165.35494339 376.92702484 168.18868446 C376.9305219 170.20112708 376.95218017 172.2135117 376.97412491 174.22583771 C376.96797165 175.45383591 376.96181839 176.68183411 376.95547867 177.94704437 C376.9583287 179.02529984 376.96117874 180.1035553 376.96411514 181.21448517 C376.34496851 184.88085502 375.099574 186.55196 372.46963882 189.14260101 C368.28276603 189.90385061 366.33001455 189.71709511 362.77750015 187.34499359 C359.29028599 182.50612887 359.84631338 178.09644415 359.98135757 172.27931976 C359.98843231 171.13220016 359.99550705 169.98508057 360.00279617 168.80319977 C360.0307507 165.14483264 360.09349596 161.48800438 360.15713882 157.83010101 C360.18222011 155.34770126 360.20503356 152.86527749 360.2254982 150.38283539 C360.28058105 144.30223356 360.36421984 138.22252723 360.46963882 132.14260101 C359.32451324 132.14926285 358.17938766 132.15592468 356.99956131 132.16278839 C346.1860287 132.22371269 335.37253111 132.26862797 324.55886555 132.29803753 C318.99999757 132.31366576 313.44126861 132.33485215 307.88248062 132.36891937 C302.51379347 132.4016141 297.14523971 132.4194754 291.77646065 132.42723274 C289.73242914 132.4327581 287.68840459 132.44354769 285.64443016 132.45979118 C282.77228758 132.48169983 279.90068996 132.48456233 277.02847672 132.48317719 C276.19121552 132.49396301 275.35395432 132.50474884 274.49132156 132.51586151 C266.1021587 132.47233735 258.85198694 130.20683634 252.26260757 124.95900726 C247.61230676 120.2479182 244.34067992 113.79616524 244.34938431 107.13730621 C244.34732231 105.91948204 244.34732231 105.91948204 244.34521866 104.67705536 C244.34881393 103.79017029 244.35240921 102.90328522 244.35611343 101.98952484 C244.35596741 101.05274399 244.35582138 100.11596313 244.35567093 99.15079498 C244.35636832 96.05038396 244.36415265 92.95003281 244.37198257 89.84963226 C244.37384737 87.70157657 244.37527098 85.55352045 244.37627029 83.40546417 C244.38009062 77.74851561 244.38991681 72.09159267 244.40097427 66.43465424 C244.41119878 60.66347856 244.41577015 54.89229876 244.4208107 49.12111664 C244.43153948 37.7949335 244.44861013 26.46876938 244.46963882 15.14260101 C213.26678398 15.15608698 182.06408716 15.19503377 150.86132297 15.26945664 C147.17640004 15.27822324 143.49147663 15.28677307 139.80655289 15.2951889 C139.07296014 15.29686797 138.33936739 15.29854703 137.58354455 15.30027697 C125.70993284 15.32693677 113.8363694 15.33604132 101.96273082 15.33864244 C89.776571 15.34170339 77.59055061 15.36366634 65.40445375 15.40312558 C57.88671783 15.42687419 50.36926036 15.43593126 42.85149211 15.42611412 C37.08394328 15.42016304 31.31671747 15.44052829 25.54925537 15.47066116 C23.18539589 15.47890384 20.82148899 15.4786334 18.45763397 15.46919823 C15.22812158 15.45758421 12.00017691 15.47668468 8.77078629 15.50336456 C7.83691574 15.4926913 6.90304519 15.48201805 5.94087553 15.47102135 C-0.36275316 15.56807445 -4.67945017 17.0358903 -9.53036118 21.14260101 C-13.80889035 26.62789482 -14.67864467 30.77140836 -14.66458225 37.54844952 C-14.66693448 38.31265918 -14.66928671 39.07686885 -14.67171022 39.86423638 C-14.67841037 42.44590484 -14.67794169 45.02752309 -14.6775322 47.60919952 C-14.68083019 49.4704977 -14.68455562 51.33179515 -14.68867368 53.19309169 C-14.69870912 58.32438117 -14.70241295 63.45565895 -14.70506299 68.58695686 C-14.70896145 74.11472121 -14.71854007 79.64247626 -14.72727585 85.17023468 C-14.74705289 98.52768378 -14.75710789 111.88513365 -14.76600364 125.24259374 C-14.77038437 131.52906021 -14.77575173 137.81552585 -14.78099251 144.10199165 C-14.79800577 164.99297367 -14.81252569 185.88395552 -14.81974125 206.77494335 C-14.82021601 208.12619833 -14.8206919 209.4774533 -14.82116891 210.82870828 C-14.82140529 211.49881363 -14.82164166 212.16891898 -14.8218852 212.85933055 C-14.82308641 216.25445391 -14.82430186 219.64957727 -14.82552719 223.04470062 C-14.82576734 223.71847479 -14.82600749 224.39224895 -14.82625492 225.08644052 C-14.83414839 246.93331699 -14.85758094 268.78013919 -14.89008314 290.62699196 C-14.92437807 313.72099625 -14.94409093 336.81497513 -14.94738549 359.90900832 C-14.94955281 372.49933978 -14.958334 385.08959146 -14.98384666 397.67989922 C-15.00552028 408.40058446 -15.01362052 419.12117055 -15.00387988 429.84187522 C-14.99932556 435.3132096 -15.00128722 440.78433926 -15.02064133 446.25564575 C-15.03820477 451.26392309 -15.03733077 456.27184532 -15.02174404 461.28012607 C-15.01935758 463.09241868 -15.02374499 464.90473544 -15.03557269 466.71699103 C-15.05065821 469.18094122 -15.04104309 471.64362771 -15.0253458 474.10754681 C-15.03556801 474.81083729 -15.04579022 475.51412778 -15.05632219 476.2387301 C-14.98158767 481.61513379 -13.41398225 485.69456554 -10.53036118 490.14260101 C-8.1519354 492.54666485 -8.1519354 492.54666485 -5.53036118 494.14260101 C-4.98554848 494.50065071 -4.44073578 494.85870041 -3.8794136 495.2276001 C-0.44682008 496.56466103 2.92371571 496.42321782 6.55447769 496.40761566 C7.37586715 496.41199693 8.19725661 496.4163782 9.04353666 496.42089224 C11.79955819 496.43322718 14.55538974 496.43140312 17.3114357 496.42971039 C19.2858089 496.43573358 21.26017952 496.44265757 23.23454666 496.45041656 C27.48793161 496.46531453 31.74126954 496.47405699 35.9946785 496.47812653 C42.71713342 496.48483239 49.43948754 496.50657726 56.16189957 496.53066254 C70.43112239 496.57965868 84.70036654 496.61196814 98.96963882 496.64260101 C114.37324002 496.67566904 129.77680185 496.71154344 145.1803422 496.76673174 C151.86620959 496.79011341 158.55200695 496.80382957 165.23791122 496.81022644 C169.39320001 496.81615438 173.5484318 496.83024136 177.70369148 496.84657097 C179.63385086 496.85245928 181.56402413 496.85491664 183.49419212 496.85373116 C186.12451659 496.85257597 188.75451915 496.86355651 191.38479996 496.87758636 C192.15250072 496.87428739 192.92020148 496.87098842 193.7111659 496.86758947 C197.43385699 496.90046673 200.35315826 496.98260621 203.46963882 499.14260101 C205.39162997 501.70525587 205.47992518 502.97459051 205.28213882 506.20510101 C204.14740758 510.30759091 204.14740758 510.30759091 201.46963882 512.14260101 C198.69088713 512.43959099 196.13560364 512.55153858 193.35560989 512.53028107 C192.51889049 512.5356666 191.68217109 512.54105214 190.82009655 512.54660088 C188.00578231 512.5609511 185.19193378 512.55375925 182.37759781 512.54665375 C180.36384577 512.55235389 178.35009697 512.55931676 176.3363533 512.56745148 C170.85664911 512.58544432 165.37710453 512.58420216 159.89737964 512.57850909 C155.32267062 512.57542387 150.74799255 512.58150276 146.17328793 512.58754784 C135.37547977 512.60161363 124.57775067 512.60001673 113.77994156 512.58864594 C102.64816122 512.57718227 91.5166223 512.5912063 80.38487381 512.61804241 C70.82633247 512.64022146 61.26786677 512.64683122 51.70930153 512.640966 C46.00134354 512.63759814 40.29354003 512.63999937 34.58560371 512.65721703 C29.21179013 512.67271741 23.83833253 512.66869605 18.46453285 512.64991188 C16.49657381 512.64623356 14.52858823 512.64931231 12.56065369 512.65979767 C-1.60865446 512.7295017 -11.61423392 511.84514738 -22.32723618 501.65431976 C-28.66117033 494.43318561 -30.68387316 486.90502028 -30.66458225 477.52838039 C-30.6681106 476.36648795 -30.6681106 476.36648795 -30.67171022 475.18112293 C-30.67839866 472.5701187 -30.67794205 469.95916424 -30.6775322 467.34815216 C-30.68083092 465.46338022 -30.6845565 463.57860899 -30.68867368 461.69383866 C-30.69870087 456.50219094 -30.70241163 451.31055478 -30.70506299 446.11889875 C-30.70896391 440.52429104 -30.7185424 434.9296925 -30.72727585 429.33509064 C-30.74704637 415.81786379 -30.75710727 402.30063618 -30.76600364 388.78339848 C-30.77038562 382.41961737 -30.77575267 376.0558371 -30.78099251 369.69205666 C-30.79800547 348.54025784 -30.8125248 327.38845966 -30.81974125 306.23665524 C-30.82021601 304.86871757 -30.82069189 303.50077991 -30.82116891 302.13284225 C-30.82140529 301.45447151 -30.82164166 300.77610077 -30.8218852 300.07717335 C-30.82308639 296.64024233 -30.82430185 293.20331132 -30.82552719 289.76638031 C-30.82576734 289.08431225 -30.82600749 288.40224419 -30.82625492 287.69950741 C-30.83414642 265.58927276 -30.85757497 243.47909178 -30.89008314 221.36888057 C-30.92439393 197.98991221 -30.94409243 174.61098435 -30.94738549 151.23198658 C-30.94955143 138.48899136 -30.95831245 125.74607502 -30.98384666 113.00310326 C-31.0055413 102.15114223 -31.01361013 91.29927924 -31.00387988 80.447299 C-30.99933163 74.91077831 -31.00125219 69.37445993 -31.02064133 63.83796692 C-31.0382479 58.76665977 -31.03729542 53.6957029 -31.02174404 48.62439216 C-31.01936418 46.79256076 -31.02371108 44.96070526 -31.03557269 43.12891071 C-31.1195933 29.29338276 -30.0160785 18.73204605 -19.97567368 8.31056976 C-14.0821076 3.08544329 -7.90790578 0.03444529 0 0 Z " fill="#010000" transform="translate(41.53036117553711,-0.14260101318359375)"/>
<path d="M0 0 C0.85620941 -0.00511093 1.71241882 -0.01022186 2.59457397 -0.01548767 C5.41663676 -0.02935026 8.23845413 -0.02842822 11.06054688 -0.02612305 C13.03625579 -0.03001417 15.01196388 -0.03434969 16.9876709 -0.03910828 C21.1301545 -0.0465651 25.27255289 -0.04628482 29.41503906 -0.04101562 C34.68906424 -0.03524713 39.96273522 -0.05209102 45.23670197 -0.0753603 C49.32057694 -0.09019758 53.40436883 -0.0909554 57.48826599 -0.08785057 C59.43046261 -0.08835962 61.3726644 -0.09351791 63.31483459 -0.10366249 C94.2118616 -0.2451463 94.2118616 -0.2451463 106.27929688 11.2746582 C110.48301528 16.00287725 113.09471068 20.38994548 114.86914062 26.45483398 C115.13460693 27.35694611 115.40007324 28.25905823 115.67358398 29.18850708 C115.97341187 30.22115189 115.97341187 30.22115189 116.27929688 31.2746582 C116.84813095 31.26577576 117.41696503 31.25689331 118.0030365 31.2477417 C123.95708097 31.15881609 129.91093486 31.0987376 135.86547852 31.05493164 C138.08365551 31.0348942 140.3017802 31.00765647 142.51977539 30.97290039 C145.71969559 30.92403568 148.91891362 30.90161008 152.11914062 30.8840332 C153.10075668 30.86338806 154.08237274 30.84274292 155.09373474 30.82147217 C162.60420937 30.819059 168.39324071 32.52565806 174.54882812 36.88012695 C180.65739491 43.143341 183.46058205 48.9534542 183.77929688 57.7746582 C183.48425149 66.21295613 180.67106441 72.55644295 174.99023438 78.77075195 C168.48413003 84.48958796 161.57798899 85.3282117 153.27929688 85.2746582 C153.24690792 85.82711401 153.21451897 86.37956982 153.18114853 86.94876671 C152.75047085 94.29438505 152.3196063 101.63999242 151.88867188 108.9855957 C151.7811601 110.81831779 151.7811601 110.81831779 151.67147636 112.68806458 C150.80308921 127.48935546 149.93313779 142.29055228 149.05981445 157.09155273 C148.97917193 158.45841916 148.89852955 159.82528559 148.81788731 161.19215202 C148.49691456 166.63227551 148.17591867 172.07239762 147.85473061 177.51250839 C146.98777525 192.19762776 146.12530468 206.88297052 145.28128052 221.56942749 C144.96712247 227.03383577 144.64842904 232.49797495 144.32767677 237.96199989 C144.1280473 241.36701786 143.93098069 244.7721384 143.74035645 248.17767334 C143.53465852 251.83281597 143.32021962 255.48734172 143.10351562 259.1418457 C143.0485643 260.16129272 142.99361298 261.18073975 142.93699646 262.2310791 C142.15721437 274.97099644 139.10810795 286.70274747 129.40820312 295.70825195 C122.05588148 301.11794182 114.38897926 304.38098333 105.29833984 304.42855835 C104.07330246 304.43715881 102.84826508 304.44575928 101.58610535 304.45462036 C100.23123211 304.45905529 98.87635843 304.46335368 97.52148438 304.4675293 C96.09210513 304.47543471 94.66272786 304.48370393 93.23335266 304.49230957 C88.54035334 304.51848888 83.84734531 304.5338377 79.15429688 304.5480957 C77.53496292 304.55345793 75.91562902 304.55883544 74.29629517 304.56422806 C67.55529044 304.58585486 60.81428807 304.60458761 54.07325745 304.61585045 C44.43481559 304.63206328 34.79677853 304.66517813 25.15848923 304.7222513 C18.37016687 304.76106701 11.58195223 304.7804971 4.79352188 304.78577101 C0.74536264 304.78940992 -3.30236449 304.80127327 -7.35040283 304.83387375 C-11.16565733 304.86415852 -14.98022291 304.87019468 -18.79557228 304.85848999 C-20.18703607 304.85827091 -21.57853374 304.86643673 -22.96988487 304.88414383 C-34.15831189 305.01864775 -44.74564806 303.04280349 -53.13085938 295.06762695 C-62.5919393 284.3977604 -65.5270595 274.08159503 -66.36914062 260.12231445 C-66.42611115 259.21559494 -66.48308167 258.30887543 -66.54177856 257.37467957 C-66.72979901 254.36237129 -66.91289084 251.34978673 -67.09570312 248.3371582 C-67.2278123 246.19815758 -67.35997487 244.05916025 -67.4921875 241.92016602 C-68.55240793 224.62729207 -69.48678137 207.3282412 -70.40664673 190.0274353 C-71.28835838 173.49638866 -72.30659754 156.98110039 -73.4725647 140.46777344 C-74.76996974 122.08077035 -75.79292115 103.68371806 -76.72070312 85.2746582 C-77.46545898 85.22132324 -78.21021484 85.16798828 -78.97753906 85.11303711 C-79.96012695 85.0348877 -80.94271484 84.95673828 -81.95507812 84.8762207 C-82.92670898 84.80226074 -83.89833984 84.72830078 -84.89941406 84.65209961 C-91.5880673 83.7572694 -96.6523827 80.18725299 -101.17773438 75.30981445 C-105.97552373 68.98159103 -107.47452952 62.08250535 -107.16210938 54.23168945 C-105.9806751 46.31712532 -101.96106168 40.84123965 -95.97851562 35.74731445 C-89.18626818 31.31707693 -83.71112281 30.85751024 -75.75585938 30.98168945 C-74.7225499 30.9859343 -73.68924042 30.99017914 -72.62461853 30.99455261 C-69.34387491 31.01126426 -66.0637592 31.04890309 -62.78320312 31.0871582 C-60.55079016 31.10221473 -58.31836751 31.11590144 -56.0859375 31.12817383 C-50.63064732 31.1611431 -45.1757201 31.21126733 -39.72070312 31.2746582 C-39.51950363 30.65515289 -39.31830414 30.03564758 -39.11100769 29.39736938 C-38.8445192 28.58553192 -38.5780307 27.77369446 -38.3034668 26.93725586 C-38.0403923 26.13212555 -37.77731781 25.32699524 -37.50627136 24.49746704 C-34.31046168 15.45474653 -26.98856442 8.31875796 -18.59570312 3.9621582 C-12.32145596 0.98660322 -6.86893316 -0.02132482 0 0 Z M-91.09570312 52.0871582 C-92.31945329 56.37028377 -92.31965965 59.95695385 -90.47070312 64.0246582 C-88.594891 66.43641665 -87.37265743 67.74736873 -84.72070312 69.2746582 C-81.87080081 69.58808867 -79.22817379 69.73927094 -76.37695312 69.7512207 C-75.16779236 69.77459 -75.16779236 69.77459 -73.9342041 69.7984314 C-71.36304693 69.84587603 -68.79215909 69.87367904 -66.22070312 69.8996582 C-63.64943915 69.93621874 -61.07832529 69.97691765 -58.50720215 70.02230835 C-56.90906556 70.04940184 -55.31081993 70.07081034 -53.71252441 70.08584595 C-50.21917977 70.1351195 -47.08307763 70.34002516 -43.72070312 71.2746582 C-43.52496704 72.71105992 -43.33942496 74.14885325 -43.15820312 75.5871582 C-43.05378906 76.38766602 -42.949375 77.18817383 -42.84179688 78.01293945 C-42.72070312 80.2746582 -42.72070312 80.2746582 -43.72070312 83.2746582 C-47.10640462 84.62087761 -50.86892935 84.58503404 -54.47070312 84.8371582 C-55.57446289 84.91442139 -56.67822266 84.99168457 -57.81542969 85.07128906 C-58.77416992 85.13840088 -59.73291016 85.2055127 -60.72070312 85.2746582 C-60.89207939 98.14432311 -60.51632423 110.86464503 -59.552948 123.69839478 C-59.26513934 127.53653578 -58.99404442 131.37581518 -58.72160339 135.21507263 C-58.58355948 137.15813158 -58.44474155 139.1011357 -58.30513 141.04408264 C-57.70615429 149.38893897 -57.16237067 157.73607535 -56.65820312 166.0871582 C-56.57900635 167.3973291 -56.49980957 168.7075 -56.41821289 170.05737305 C-55.89901377 178.77567781 -55.45352184 187.49686355 -55.02368164 196.2199707 C-54.26808567 211.54200241 -53.42370237 226.85561204 -52.41305542 242.16317749 C-52.28624883 244.09078656 -52.16162501 246.01854064 -52.03933716 247.94644165 C-51.57662144 268.12533015 -51.57662144 268.12533015 -41.28320312 284.5246582 C-36.84137744 288.35843814 -32.65709795 289.52231942 -26.83381653 289.54881287 C-25.06559036 289.56377556 -25.06559036 289.56377556 -23.26164246 289.57904053 C-21.97687515 289.5797052 -20.69210785 289.58036987 -19.3684082 289.58105469 C-17.99474641 289.58868061 -16.62108888 289.59710886 -15.24743652 289.60627747 C-11.52196507 289.62819124 -7.79657569 289.63701755 -4.07104707 289.64210391 C-1.74003461 289.64575227 0.59095652 289.65199492 2.92196083 289.6591053 C11.06427576 289.68359242 19.20652709 289.69664935 27.34887695 289.70019531 C34.92146345 289.70382635 42.4936436 289.73369232 50.06610602 289.7755999 C56.58012365 289.81037726 63.09400715 289.82574506 69.60811692 289.82644135 C73.49298054 289.82723187 77.37743034 289.83586535 81.26219749 289.86443901 C84.92072651 289.89074694 88.57850245 289.8927552 92.23708344 289.87678337 C94.2056352 289.87412394 96.17417313 289.89606742 98.14259338 289.91897583 C106.70770878 289.84887309 113.7932057 288.47494149 120.21679974 282.46059322 C125.14512482 277.14292854 126.55493639 271.90802509 127.02539062 264.7512207 C127.08099152 263.99827728 127.13659241 263.24533386 127.19387817 262.46957397 C127.37702115 259.94681214 127.54730907 257.42337184 127.71679688 254.8996582 C127.84349258 253.09626041 127.97036903 251.29287531 128.09741211 249.48950195 C129.56760042 228.23593945 130.6505183 206.95826518 131.77641296 185.68434143 C132.2469394 176.81668995 132.74299577 167.95107069 133.27929688 159.0871582 C133.35398193 157.85175293 133.42866699 156.61634766 133.50561523 155.34350586 C133.98671282 147.56884868 134.51911968 139.79865532 135.06835938 132.02856445 C135.20769075 130.04248106 135.34701364 128.05639708 135.48632812 126.0703125 C135.75589678 122.23143336 136.03283577 118.39318774 136.31445312 114.55517578 C136.4409721 112.77158113 136.56728333 110.98797172 136.69335938 109.2043457 C136.75262604 108.42422623 136.8118927 107.64410675 136.87295532 106.84034729 C137.22874944 101.70662723 137.31016212 96.59338572 137.29452515 91.44851685 C137.29287621 90.41068731 137.29287621 90.41068731 137.29119396 89.35189152 C137.28834581 87.65947816 137.28397666 85.96706748 137.27929688 84.2746582 C136.08520218 84.27107567 136.08520218 84.27107567 134.86698437 84.26742077 C115.51332198 84.20833176 96.1597878 84.13282103 76.80626202 84.03894329 C67.44710604 83.99394269 58.08798847 83.95453794 48.72875977 83.92822266 C40.57299093 83.90527703 32.41734323 83.87191771 24.26167041 83.82595664 C19.94171356 83.80197789 15.62187702 83.7832797 11.30185509 83.7770443 C7.23804399 83.77101436 3.17454093 83.75109098 -0.88915634 83.72038269 C-2.38271512 83.71156874 -3.8763141 83.7078868 -5.36989784 83.70965004 C-7.40514718 83.71129452 -9.44038361 83.69288936 -11.47554016 83.67338562 C-12.61579808 83.66877666 -13.756056 83.66416769 -14.9308672 83.65941906 C-17.72070312 83.2746582 -17.72070312 83.2746582 -19.58758831 81.93723774 C-21.35949039 79.3373881 -21.10244502 77.32859336 -20.72070312 74.2746582 C-19.63447189 72.61039639 -19.63447189 72.61039639 -17.72070312 71.2746582 C-14.6224556 70.90107059 -14.6224556 70.90107059 -10.72540283 70.90284729 C-10.0090733 70.89902273 -9.29274377 70.89519816 -8.55470729 70.8912577 C-6.14792855 70.8819521 -3.74172199 70.89397679 -1.33496094 70.90576172 C0.38809447 70.90329447 2.11114839 70.89945683 3.834198 70.89434814 C7.54852029 70.88599976 11.26268934 70.88682661 14.97701263 70.89453316 C20.85171115 70.90610014 26.72621189 70.89396623 32.60089111 70.87791443 C47.1961141 70.84168968 61.79133284 70.83548889 76.38659668 70.8380127 C87.72209595 70.83972395 99.05743411 70.83259401 110.39288831 70.79803413 C116.23088056 70.78124053 122.06848009 70.7830351 127.90647078 70.79885685 C131.54297661 70.80465824 135.17929671 70.79390528 138.8157692 70.77861023 C140.49956549 70.7748871 142.18339311 70.77798314 143.8671608 70.78848076 C146.17059591 70.80188215 148.47268048 70.79061745 150.77606201 70.77345276 C152.70736528 70.77376668 152.70736528 70.77376668 154.67768478 70.77408695 C159.93264974 70.04539088 163.79595923 68.09294306 167.21679688 63.8996582 C168.52031071 60.67921226 168.77210763 58.72433349 168.27929688 55.2746582 C165.94112323 50.85810798 163.82035987 48.33842028 159.27929688 46.2746582 C156.01656025 45.83757054 152.7810749 45.86565804 149.49317932 45.88697815 C148.00466639 45.87889984 148.00466639 45.87889984 146.48608249 45.87065834 C143.15734396 45.8563386 139.82900083 45.86349253 136.50024414 45.87060547 C134.11518025 45.86490402 131.73011909 45.85794064 129.34506226 45.84980774 C123.53705014 45.83370356 117.72916224 45.83178073 111.92113251 45.83702064 C107.20018189 45.84106265 102.47926323 45.83961843 97.75831413 45.83427238 C97.08631114 45.83352396 96.41430814 45.83277554 95.72194142 45.83200444 C94.35675247 45.83047296 92.99156353 45.82893461 91.62637459 45.82738947 C78.82491096 45.81366263 66.02350843 45.81910341 53.22204619 45.83057468 C41.51224399 45.84050733 29.80259979 45.82756626 18.09282196 45.80364049 C6.06702628 45.77925429 -5.95869581 45.76964043 -17.98451573 45.77629322 C-24.73523717 45.77978651 -31.48583709 45.7775462 -38.23653984 45.76004219 C-44.58378907 45.74460383 -50.93073603 45.74849437 -57.27797318 45.76734734 C-59.60882699 45.77104177 -61.93970305 45.76790002 -64.27053642 45.75746155 C-67.44990922 45.74430894 -70.62827292 45.75574913 -73.80760193 45.77345276 C-74.73221472 45.76384775 -75.65682751 45.75424275 -76.60945886 45.74434668 C-82.88940762 45.8164047 -87.11384383 46.83834368 -91.09570312 52.0871582 Z " fill="#010101" transform="translate(317.720703125,207.725341796875)"/>
<path d="M0 0 C50.82 0 101.64 0 154 0 C154 16.83681672 154 16.83681672 153.484375 23.55859375 C153.36835542 25.13996412 153.25247806 26.72134493 153.13671875 28.30273438 C153.07403809 29.13248779 153.01135742 29.96224121 152.94677734 30.81713867 C151.40030947 51.41048815 150.24479639 72.02219628 149.12779617 92.6421051 C147.97028981 113.99860014 146.79505101 135.3505047 145.3125 156.6875 C145.2518335 157.56075928 145.19116699 158.43401855 145.12866211 159.33374023 C144.80972156 163.89673969 144.47965879 168.45877985 144.1418457 173.02041626 C144.00255536 174.96433767 143.87809098 176.90930321 143.75390625 178.85424805 C143.6765625 180.01351807 143.59921875 181.17278809 143.51953125 182.3671875 C143.45741455 183.35702637 143.39529785 184.34686523 143.33129883 185.36669922 C142.48446318 192.09770091 139.13670831 196.39779371 134.07421875 200.67578125 C126.53580419 205.48844139 120.06203072 205.41396746 111.26196289 205.34057617 C109.87178567 205.33972899 108.48160711 205.34020681 107.09143066 205.34190369 C103.33358173 205.34276153 99.57602229 205.32517025 95.8182404 205.30418181 C91.8851439 205.28537965 87.95204016 205.28366179 84.01890564 205.28010559 C76.57818029 205.27079549 69.13758777 205.24619581 61.69692081 205.21605712 C53.22293606 205.1824808 44.74894484 205.16601899 36.27491009 205.15097082 C18.84986333 205.11964527 1.42494573 205.06690502 -16 205 C-16 204.67 -16 204.34 -16 204 C22.28 204 60.56 204 100 204 C100 189.15 100 174.3 100 159 C100.34046093 148.64492213 100.73228342 138.31543291 101.27734375 127.97265625 C101.41039427 125.29044112 101.54258669 122.60819626 101.67372131 119.92588806 C101.94477592 114.41546028 102.22351974 108.90547418 102.50854492 103.39575195 C102.90830668 95.66791482 103.29313508 87.93938274 103.67531955 80.21065915 C105.10384567 51.36832016 105.10384567 51.36832016 105.85404587 37.75239944 C105.9845894 35.29061264 106.09776301 32.82884898 106.20437622 30.36593628 C106.26914154 29.11265533 106.33390686 27.85937439 106.40063477 26.56811523 C106.44591812 25.5579686 106.49120148 24.54782196 106.53785706 23.50706482 C107 21 107 21 110 17 C110.66 11.72 111.32 6.44 112 1 C75.04 1 38.08 1 0 1 C0 0.67 0 0.34 0 0 Z " fill="#494D65" transform="translate(301,292)"/>
<path d="M0 0 C0.99304752 -0.00467997 1.98609504 -0.00935994 3.00923491 -0.01418173 C6.34031709 -0.02615791 9.67098987 -0.01666404 13.0020752 -0.00723267 C15.38876079 -0.01129719 17.7754445 -0.0166384 20.16212463 -0.02316284 C25.97381833 -0.03543381 31.78538169 -0.03362186 37.5970794 -0.02492492 C42.32042083 -0.01814932 47.04372969 -0.01723111 51.76707458 -0.02049637 C52.77551216 -0.02118592 52.77551216 -0.02118592 53.80432221 -0.0218894 C55.1700769 -0.02284857 56.53583157 -0.02382121 57.90158623 -0.02480717 C70.70779266 -0.03336147 83.51393466 -0.02352632 96.32013053 -0.00740607 C107.30805711 0.00599716 118.29588861 0.00366908 129.28381348 -0.01016235 C142.04424305 -0.02621747 154.80461615 -0.03253749 167.56505442 -0.02332556 C168.92578029 -0.02236992 170.28650617 -0.0214268 171.64723206 -0.02049637 C172.31673235 -0.02003354 172.98623265 -0.01957072 173.67602083 -0.01909386 C178.39360104 -0.01650377 183.11114543 -0.02087539 187.82872009 -0.02793503 C194.17839019 -0.03658958 200.52788042 -0.03061024 206.87753105 -0.01325226 C209.21041502 -0.00927936 211.54331409 -0.01043512 213.87619209 -0.01704025 C217.05576924 -0.02521387 220.23476663 -0.01498434 223.41430664 0 C224.34183227 -0.00669217 225.2693579 -0.01338433 226.22499037 -0.02027929 C231.04088917 0.02387202 234.31779528 0.21973156 238.20715332 3.38095093 C240.69788313 6.41021692 242.06032754 8.49999627 242.70715332 12.38095093 C242.05464662 16.29599111 240.76384487 18.35328989 238.20715332 21.38095093 C233.62347636 24.19925847 230.16523522 24.75653739 224.82417297 24.75949097 C224.10245791 24.7640211 223.38074284 24.76855123 222.63715762 24.77321863 C220.23037184 24.78480184 217.82414621 24.77521261 215.4173584 24.76571655 C213.68736921 24.76982341 211.95738278 24.77528496 210.22740173 24.78199768 C206.50821891 24.79370915 202.78918443 24.79621197 199.06998634 24.79164124 C193.19194083 24.78483023 187.31409058 24.8007004 181.43608093 24.82003784 C167.90214302 24.86110093 154.36821057 24.87244943 140.83422089 24.88356781 C128.42116229 24.89406771 116.00819748 24.91078806 103.5951969 24.95166349 C97.74862832 24.97005501 91.90228297 24.97389988 86.05569232 24.96672821 C82.42487059 24.96521025 78.79416141 24.97596498 75.16337013 24.99010658 C73.47628198 24.99412103 71.78917265 24.99296423 70.10209274 24.98633385 C67.80417889 24.97799427 65.5070489 24.98789329 63.20918274 25.00241089 C61.92185651 25.0031234 60.63453028 25.00383591 59.30819416 25.00457001 C56.2502025 25.12505803 56.2502025 25.12505803 54.33202648 26.71710968 C53.01781682 28.5000184 53.01781682 28.5000184 52.20715332 31.38095093 C45.60715332 31.38095093 39.00715332 31.38095093 32.20715332 31.38095093 C31.54715332 29.40095093 30.88715332 27.42095093 30.20715332 25.38095093 C26.46076521 23.6623821 22.00593415 24.24575946 17.93371582 24.24032593 C16.28786862 24.22200036 14.64203489 24.20243028 12.99621582 24.18173218 C10.4133011 24.15277133 7.83125662 24.13095076 5.24816895 24.13046265 C2.74674113 24.12711849 0.24729752 24.09252315 -2.25378418 24.05282593 C-3.01959808 24.05989563 -3.78541199 24.06696533 -4.57443237 24.07424927 C-10.2735371 23.94563693 -12.8410734 22.51509027 -16.79284668 18.38095093 C-18.29471215 13.87535452 -18.50874363 10.03881756 -16.60534668 5.63095093 C-11.93221556 -0.17017736 -6.9370936 -0.05005164 0 0 Z " fill="#ADD07F" transform="translate(243.7928466796875,253.61904907226563)"/>
<path d="M0 0 C27.39 0 54.78 0 83 0 C83.25 25.75 83.25 25.75 83.29785156 33.86621094 C83.32721571 35.98895445 83.35804048 38.11167848 83.390625 40.234375 C83.39231689 41.88783936 83.39231689 41.88783936 83.39404297 43.57470703 C83.42377197 45.15759521 83.42377197 45.15759521 83.45410156 46.77246094 C83.46298401 47.68735291 83.47186646 48.60224487 83.48101807 49.54486084 C84.16227615 52.76767707 85.46595827 53.9573818 88 56 C89.485 56.495 89.485 56.495 91 57 C91 64.26 91 71.52 91 79 C88.94845703 78.52433594 88.94845703 78.52433594 86.85546875 78.0390625 C77.44704328 76.32843969 67.84477573 76.529877 58.3125 76.375 C48.2578125 76.189375 48.2578125 76.189375 38 76 C38 61.15 38 46.3 38 31 C30.79038437 31.15722604 30.79038437 31.15722604 23.58203125 31.36035156 C16.48549677 31.43792299 10.81774773 30.55083673 5.48095703 25.5871582 C-1.70030556 17.51244 0 11.44628407 0 0 Z " fill="#D2D6DD" transform="translate(319,132)"/>
<path d="M0 0 C5.33974562 4.45700149 10.29927451 9.16690304 15.19848633 14.10083008 C16.38025955 15.2847937 16.38025955 15.2847937 17.58590698 16.49267578 C19.28500699 18.1955629 20.98295138 19.89960369 22.67984962 21.60468483 C25.36277371 24.30042051 28.04885163 26.9929776 30.73576355 29.68473816 C36.43082106 35.39119199 42.12195175 41.10155037 47.8125 46.8125 C54.42452024 53.44817299 61.03820936 60.08216414 67.65607262 66.71201134 C70.30716595 69.36960498 72.95524021 72.03018245 75.60322571 74.69087219 C77.21816559 76.30944233 78.83324476 77.92787351 80.44848633 79.54614258 C81.55731926 80.66272499 81.55731926 80.66272499 82.68855286 81.80186462 C83.69982239 82.8132399 83.69982239 82.8132399 84.73152161 83.845047 C85.31790814 84.43365415 85.90429468 85.0222613 86.50845051 85.62870502 C87.97231415 87.10121315 87.97231415 87.10121315 90 88 C90 88.66 90 89.32 90 90 C79.54261235 90.09275265 69.08532285 90.1637918 58.62760735 90.20724869 C53.77144701 90.22810775 48.91556848 90.2563947 44.05957031 90.30175781 C39.37168744 90.34527551 34.68407532 90.36914976 29.99600601 90.37950897 C28.20904402 90.38688971 26.42209656 90.40130271 24.63525009 90.42292023 C22.12874282 90.45203345 19.62334885 90.45595277 17.11669922 90.45410156 C16.38086105 90.46848267 15.64502289 90.48286377 14.8868866 90.49768066 C8.79103415 90.44908792 5.47472 88.33780933 1.14628601 84.24884033 C-0.55360018 80.91391991 -0.39298045 77.67408342 -0.34057617 74.01855469 C-0.34101425 73.2181778 -0.34145233 72.4178009 -0.34190369 71.59317017 C-0.33981672 68.95248872 -0.3164903 66.31244528 -0.29296875 63.671875 C-0.28737246 61.8391352 -0.28310252 60.00639091 -0.28010559 58.17364502 C-0.26865939 53.35338925 -0.23919411 48.53340531 -0.20599365 43.71325684 C-0.17528795 38.7932503 -0.16159918 33.87319977 -0.14648438 28.953125 C-0.11432423 19.301964 -0.06313055 9.65100462 0 0 Z " fill="#DD6F5C" transform="translate(301,27)"/>
<path d="M0 0 C0.96869506 -0.00935994 0.96869506 -0.00935994 1.95695972 -0.01890898 C4.11905839 -0.0348531 6.28003182 -0.02223062 8.44213867 -0.00964355 C9.99287575 -0.0150641 11.54360767 -0.02218638 13.09432983 -0.03088379 C17.30509934 -0.04912834 21.5154771 -0.04204509 25.72625351 -0.02936745 C30.13131522 -0.01924558 34.53634323 -0.02863086 38.94140625 -0.03491211 C46.33917264 -0.0421909 53.73677934 -0.03259478 61.13452148 -0.0135498 C69.68929625 0.00821944 78.24368971 0.00116823 86.79845524 -0.02085543 C94.141246 -0.03900287 101.48392193 -0.04157098 108.82672787 -0.03110075 C113.21321298 -0.02486219 117.59951881 -0.02404008 121.98599243 -0.0372467 C126.10981739 -0.04879512 130.23315038 -0.04079834 134.35692215 -0.01766968 C135.87104093 -0.01237713 137.38520106 -0.01390574 138.89930344 -0.02272034 C140.96516754 -0.03363897 143.02945167 -0.01996028 145.09521484 0 C146.25147873 0.0015081 147.40774261 0.0030162 148.5990448 0.00457001 C152.19132664 0.61782725 153.3743715 1.63015028 155.54760742 4.50793457 C156.04760742 7.50793457 156.04760742 7.50793457 155.54760742 10.50793457 C153.68050832 12.81069013 152.19113001 14.18617328 149.54760742 15.50793457 C147.51924212 15.6126967 145.48738902 15.65186051 143.4563446 15.66183472 C142.1566272 15.67043518 140.85690979 15.67903564 139.51780701 15.68789673 C138.06900064 15.6923321 136.62019386 15.69663045 135.17138672 15.70080566 C133.65212821 15.70870553 132.13287158 15.71697441 130.61361694 15.72558594 C125.61637162 15.75181814 120.61911785 15.76711415 115.62182617 15.78137207 C113.90266222 15.78673114 112.18349833 15.79210865 110.46433449 15.79750443 C103.31420843 15.81913436 96.16408464 15.83787189 89.01393414 15.84912682 C78.76072501 15.86537145 68.50789452 15.89856013 58.25482816 15.95552766 C51.04882443 15.99420282 43.84292208 16.01375658 36.63681728 16.01904738 C32.33120462 16.02270403 28.0259957 16.0347581 23.72049522 16.06715012 C19.6697373 16.09718863 15.61962829 16.10355803 11.56878281 16.09176636 C10.08246634 16.09154527 8.59612013 16.09987971 7.10990715 16.1174202 C5.08000482 16.14007238 3.04980885 16.12884464 1.01982117 16.11593628 C-0.68390388 16.1209015 -0.68390388 16.1209015 -2.42204762 16.12596703 C-6.42442765 15.30969007 -7.92881413 13.65068486 -10.45239258 10.50793457 C-11.01489258 7.44543457 -11.01489258 7.44543457 -10.45239258 4.50793457 C-7.33167901 0.3928687 -5.05188953 0.00658912 0 0 Z " fill="#040404" transform="translate(70.452392578125,116.4920654296875)"/>
<path d="M0 0 C1.95792984 -0.01464546 1.95792984 -0.01464546 3.95541382 -0.02958679 C5.39491763 -0.01508208 6.83441651 -0.00008135 8.27391052 0.0153656 C9.79523621 0.01350108 11.31656055 0.00946344 12.83787537 0.00341797 C16.96401165 -0.00655455 21.0894607 0.01460899 25.21549726 0.04189801 C29.53377786 0.06573389 33.85204497 0.06278311 38.17037964 0.0632019 C45.42099131 0.06782937 52.67134033 0.09146806 59.92185974 0.12767029 C68.30559215 0.16941918 76.68908808 0.1869861 85.07291847 0.19029003 C93.99827143 0.19388921 102.92353925 0.21276258 111.84885669 0.23741031 C114.42116566 0.24363954 116.99346815 0.24727546 119.56578255 0.25044441 C123.60662056 0.25634444 127.64728957 0.27265596 131.68805695 0.29704857 C133.17153301 0.30448982 134.65503035 0.30856058 136.13852501 0.30902863 C138.16220116 0.31028612 140.18585546 0.32507801 142.20947266 0.34057617 C143.34231469 0.34522668 144.47515673 0.34987719 145.64232731 0.35466862 C148.53436936 0.61411406 150.15334734 0.99860302 152.54124451 2.61473083 C154.54124451 5.61473083 154.54124451 5.61473083 154.35374451 9.11473083 C153.2975733 13.66439141 153.2975733 13.66439141 150.54124451 15.61473083 C147.71572971 15.99504757 147.71572971 15.99504757 144.20910645 16.00241089 C143.56416416 16.00779643 142.91922188 16.01318196 142.25473589 16.0187307 C140.0897104 16.03305908 137.92529214 16.02589498 135.76023865 16.01878357 C134.20965074 16.02448463 132.65906704 16.03144787 131.10848999 16.0395813 C126.89359717 16.05755749 122.67891203 16.05633596 118.46399236 16.05063891 C114.94746406 16.04755337 111.43097602 16.05363245 107.91445345 16.05967766 C99.61952502 16.07373603 91.32469955 16.07215082 83.0297699 16.06077576 C74.46764354 16.04929385 65.90583037 16.06336834 57.34374529 16.09017223 C49.99673918 16.11231252 42.64983151 16.11897038 35.3027944 16.11309582 C30.91292826 16.10972093 26.5232629 16.11217635 22.13342476 16.12934685 C18.0055298 16.14478734 13.87809956 16.14089304 9.75022316 16.1220417 C8.23448527 16.11834769 6.71871318 16.12148794 5.20300674 16.13192749 C3.13492068 16.14508499 1.06838503 16.1336396 -0.99963379 16.11593628 C-2.15719649 16.115727 -3.3147592 16.11551771 -4.50739956 16.11530209 C-8.10251102 15.50554526 -9.27968738 14.48941743 -11.45875549 11.61473083 C-12.02125549 8.67723083 -12.02125549 8.67723083 -11.45875549 5.61473083 C-7.87782267 1.15766573 -5.68165796 -0.01008426 0 0 Z " fill="#060606" transform="translate(71.45875549316406,66.38526916503906)"/>
<path d="M0 0 C4.30448426 1.30671844 5.21794672 2.21296439 7.5 6.0625 C8.11754833 9.46268711 8.12227583 12.82728493 8.13769531 16.27661133 C8.15778656 17.30548965 8.17787781 18.33436798 8.19857788 19.39442444 C8.26050947 22.81110518 8.29446442 26.22746411 8.328125 29.64453125 C8.36563282 32.05265327 8.40478562 34.46075017 8.44549561 36.86882019 C8.54842828 43.24346266 8.62733952 49.61819516 8.70178223 55.9932251 C8.78039434 62.32189841 8.88385879 68.65015948 8.984375 74.97851562 C9.15485686 85.94669143 9.28684551 96.91481998 9.39080048 107.88382149 C9.45450313 114.41716246 9.54525906 120.94907303 9.66797256 127.48156834 C9.73497112 131.24911259 9.78213045 135.01671303 9.82393646 138.78461266 C9.84726727 140.49769824 9.87919288 142.21069181 9.92038727 143.92344093 C9.97494186 146.23929656 9.9986903 148.55347831 10.01464844 150.86987305 C10.03605896 152.14912155 10.05746948 153.42837006 10.07952881 154.74638367 C9.33930202 158.98202842 7.84016824 160.44283799 4.5 163.0625 C1.4375 163.625 1.4375 163.625 -1.5 163.0625 C-3.63891602 161.57739258 -3.63891602 161.57739258 -5.5 159.0625 C-5.95427265 156.0187792 -6.17095332 153.31370246 -6.21484375 150.26171875 C-6.24263412 149.37779953 -6.2704245 148.49388031 -6.29905701 147.58317566 C-6.3838562 144.74312543 -6.44200901 141.9032101 -6.5 139.0625 C-6.55171578 137.26508306 -6.60524654 135.46771737 -6.66064453 133.67041016 C-7.50640264 104.78640625 -7.66870751 75.87017107 -7.78610229 46.97518921 C-7.80168936 43.28433801 -7.82654105 39.5937237 -7.85916138 35.90298462 C-7.89726293 31.51616731 -7.91560415 27.12969688 -7.91901398 22.74271965 C-7.92349089 21.10915734 -7.93482178 19.47559806 -7.95333099 17.84213448 C-7.97754916 15.59274909 -7.97687901 13.34468935 -7.9699707 11.09521484 C-7.97583694 9.82801605 -7.98170319 8.56081726 -7.98774719 7.25521851 C-7.5 4.0625 -7.5 4.0625 -5.68937683 1.62686157 C-3.5 0.0625 -3.5 0.0625 0 0 Z " fill="#020303" transform="translate(336.5,307.9375)"/>
<path d="M0 0 C3.32588737 0.98544811 4.34834044 1.34548631 6.375 4 C6.74249268 6.06280518 6.74249268 6.06280518 6.73144531 8.48144531 C6.73587898 9.86147987 6.73587898 9.86147987 6.74040222 11.26939392 C6.72810074 12.27877518 6.71579926 13.28815643 6.703125 14.328125 C6.70092705 15.92926903 6.70092705 15.92926903 6.69868469 17.5627594 C6.68930338 21.12541362 6.65754579 24.68748741 6.625 28.25 C6.61233095 30.75479719 6.6005466 33.25959899 6.58959961 35.7644043 C6.54635612 43.84329953 6.4667639 51.92153694 6.375 60 C6.36730843 60.6820475 6.35961685 61.364095 6.3516922 62.06681061 C6.16057746 78.85085281 5.90114672 95.6328374 5.56997681 112.41473389 C5.44346219 118.91167301 5.34125645 125.40755993 5.28623962 131.90550232 C5.25570709 135.23822191 5.20732105 138.57049851 5.15402222 141.90292358 C5.13499301 143.35988859 5.12422371 144.81699002 5.12258911 146.27407837 C5.10423402 158.01347224 5.10423402 158.01347224 2.01953125 161.33203125 C-1.23396361 163.38408783 -2.84897219 163.72306915 -6.625 163 C-8.78266907 161.43534851 -8.78266907 161.43534851 -10.625 159 C-10.98974681 156.34549299 -11.1083427 154.11930752 -11.03979492 151.47192383 C-11.03607439 150.70531874 -11.03235386 149.93871365 -11.02852058 149.1488781 C-11.01098621 146.56352716 -10.96443625 143.9795126 -10.91796875 141.39453125 C-10.89886681 139.53263489 -10.88151524 137.67071988 -10.86576843 135.80879211 C-10.82750301 131.73348703 -10.77628166 127.65859865 -10.71624756 123.58355713 C-10.61737826 116.76601358 -10.55892034 109.94837635 -10.50244141 103.13037109 C-10.40646137 92.08790316 -10.26874834 81.0464966 -10.10168648 70.00488091 C-10.00581872 63.64386961 -9.92002941 57.28305693 -9.85668945 50.92163086 C-9.79397438 44.64177077 -9.70750087 38.36266499 -9.60375023 32.08335304 C-9.56867042 29.71796381 -9.54198708 27.35243392 -9.52404213 24.98685265 C-9.49764577 21.71787526 -9.44070939 18.45078937 -9.3762207 15.18237305 C-9.37513306 13.73738937 -9.37513306 13.73738937 -9.37402344 12.26321411 C-9.25262649 7.71210539 -9.08018545 5.6152602 -6.30461121 1.86360168 C-3.625 0 -3.625 0 0 0 Z " fill="#020202" transform="translate(376.625,308)"/>
<path d="M0 0 C3.76638493 1.18571377 4.49777348 1.70583096 6.375 5.0625 C6.66345215 7.9102478 6.66345215 7.9102478 6.53710938 11.29443359 C6.49533569 12.59329498 6.45356201 13.89215637 6.41052246 15.2303772 C6.3471105 16.68225309 6.28316626 18.13410582 6.21875 19.5859375 C6.16131121 21.12995777 6.10490595 22.67401678 6.04943848 24.21810913 C5.85174656 29.50083639 5.61529938 34.78156348 5.375 40.0625 C5.33173584 41.02636124 5.28847168 41.99022247 5.24389648 42.98329163 C4.56435557 58.08974196 3.81428727 73.1924142 3.04681396 88.2946167 C2.81592415 92.85409582 2.58843447 97.41374181 2.36107635 101.97339821 C2.08564454 107.49534543 1.80863485 113.01721308 1.53125 118.5390625 C1.48006516 119.55909992 1.42888031 120.57913734 1.37614441 121.63008499 C1.30131584 123.11759829 1.30131584 123.11759829 1.22497559 124.63516235 C1.17643684 125.602087 1.1278981 126.56901165 1.07788849 127.56523705 C0.98176402 129.43929188 0.88242824 131.31318527 0.77959442 133.18688393 C0.54464498 137.47968113 0.34727421 141.76422743 0.2565918 146.06268311 C0.23234886 146.84170675 0.20810593 147.6207304 0.18312836 148.42336082 C0.12009998 150.49759058 0.07978966 152.57247667 0.04138184 154.64730835 C-0.79005654 158.908411 -2.24637053 160.41548593 -5.625 163.0625 C-8.6875 163.625 -8.6875 163.625 -11.625 163.0625 C-14.49197481 160.90241419 -15.5211903 159.75357301 -16.06053162 156.16311646 C-16.0256514 154.97894135 -15.99077118 153.79476624 -15.95483398 152.57470703 C-15.93089774 151.54662524 -15.93089774 151.54662524 -15.90647793 150.49777412 C-15.83829011 148.01784144 -15.73331834 145.54099984 -15.625 143.0625 C-15.58665668 142.0854586 -15.54831337 141.10841721 -15.50880814 140.10176849 C-15.17587235 131.68751058 -14.7647245 123.27762385 -14.34765625 114.8671875 C-14.21483886 112.14351692 -14.08309494 109.41979463 -13.95127869 106.69607544 C-13.67561759 101.01258556 -13.39703677 95.32924507 -13.11645508 89.64599609 C-12.79397182 83.11366916 -12.47527718 76.58116642 -12.158804 70.04854572 C-11.81898306 63.03433624 -11.47670392 56.02024837 -11.13354945 49.00620127 C-11.03603327 47.01013923 -10.93896739 45.01405522 -10.84190559 43.01797104 C-10.49885554 35.97950701 -10.14759007 28.94161189 -9.77479935 21.90465546 C-9.68108682 20.12663993 -9.58963899 18.34850195 -9.50156784 16.57019806 C-9.40054108 14.55687328 -9.285912 12.54424236 -9.16967773 10.53173828 C-9.11424301 9.52426544 -9.05880829 8.5167926 -9.00169373 7.47879028 C-8.60688102 4.94627638 -8.11631235 3.59775968 -6.5 1.625 C-3.625 0.0625 -3.625 0.0625 0 0 Z " fill="#010102" transform="translate(416.625,307.9375)"/>
<path d="M0 0 C2.53376389 1.63867733 3.54383147 2.43491035 5 5 C5.93124972 9.58209661 6.04608416 14.19820982 6.21020508 18.85888672 C6.27787143 20.28676989 6.3476274 21.71455533 6.41931152 23.14224243 C6.60771457 27.01345222 6.76675671 30.88537477 6.92047334 34.75809622 C7.08644637 38.81550912 7.27915386 42.87165185 7.46891785 46.92800903 C7.82439159 54.6146248 8.15536734 62.30209528 8.47777337 69.99016106 C8.84496119 78.71490327 9.24107925 87.43825847 9.63892138 96.16164756 C10.22465726 109.02872922 10.80012648 121.89629124 11.3466568 134.76510239 C11.40583063 136.15543701 11.46548421 137.54575131 11.52566338 138.93604279 C11.60790512 140.84034428 11.68794935 142.74474029 11.76789856 144.6491394 C11.81302487 145.71284697 11.85815119 146.77655453 11.90464497 147.87249565 C11.95184571 149.4206103 11.95184571 149.4206103 12 151 C12.04861522 152.22540056 12.09723043 153.45080112 12.14731884 154.71333504 C12 158 12 158 9.875 160.9375 C7 163 7 163 3.9375 163.625 C1 163 1 163 -1.3125 161.0625 C-5.05831915 154.26453192 -4.28982472 144.79140335 -4.66430664 137.14404297 C-4.72297409 135.98973785 -4.78164154 134.83543274 -4.84208679 133.64614868 C-5.034389 129.84496976 -5.22252878 126.04359985 -5.41015625 122.2421875 C-5.50948734 120.25032297 -5.60881958 118.25845849 -5.70828623 116.26660073 C-6.0211895 109.99801504 -6.33093435 103.72927846 -6.63891602 97.46044922 C-6.95358724 91.05697054 -7.27448219 84.65382498 -7.5983935 78.25080764 C-7.87853278 72.70741379 -8.15414824 67.16380611 -8.4264726 61.62002289 C-8.5881543 58.33007735 -8.7520102 55.04026782 -8.91938972 51.75060654 C-9.33776808 43.50213074 -9.70241151 35.25371961 -10 27 C-10.0441441 25.87729958 -10.08828819 24.75459915 -10.13376999 23.5978775 C-10.2492101 20.38570121 -10.32737396 17.17497406 -10.39233398 13.96142578 C-10.44796682 12.53097333 -10.44796682 12.53097333 -10.50472355 11.07162285 C-10.57379626 4.6268959 -10.57379626 4.6268959 -7.63172913 1.41256714 C-4.63455657 -0.19614989 -3.32723955 -0.7486289 0 0 Z " fill="#010102" transform="translate(299,308)"/>
<path d="M0 0 C1.93473443 -0.00083005 3.86946878 -0.00329457 5.80419922 -0.00730896 C9.84559529 -0.01015693 13.8864341 0.00443605 17.92773438 0.03198242 C23.08563293 0.06606321 28.24253595 0.06003726 33.40048218 0.04131985 C37.3916033 0.03070779 41.38249624 0.03972577 45.37359619 0.05470467 C47.2744275 0.0598561 49.17528294 0.05944194 51.07611084 0.05315971 C73.28605902 0.00729896 73.28605902 0.00729896 82.125 8.06640625 C84.90427209 10.94589248 85.51918134 12.61435959 87.125 16.62890625 C46.205 16.62890625 5.285 16.62890625 -36.875 16.62890625 C-33.8763718 9.13233576 -30.42511413 5.14204974 -23.22167969 1.67874146 C-15.75406997 -0.66380707 -7.7528064 -0.06036605 0 0 Z " fill="#8BAC5B" transform="translate(330.875,222.37109375)"/>
<path d="M0 0 C5.03591769 -0.06898517 10.07018692 -0.12868238 15.10620117 -0.16479492 C16.81817184 -0.1798534 18.53010411 -0.20030455 20.24194336 -0.22631836 C22.70696505 -0.2628319 25.17147535 -0.27975562 27.63671875 -0.29296875 C28.77919319 -0.31619453 28.77919319 -0.31619453 29.94474792 -0.33988953 C34.50286722 -0.34132329 37.38449974 0.17574143 41 3 C43.49072981 6.02926599 44.85317422 8.11904534 45.5 12 C44.8474933 15.91504018 43.55669154 17.97233896 41 21 C36.41789403 23.81807101 32.97431974 24.37225463 27.63479614 24.36076355 C26.91504793 24.36332682 26.19529972 24.3658901 25.45374095 24.36853105 C23.05372737 24.37345333 20.65434969 24.35700235 18.25439453 24.34057617 C16.52939366 24.33972956 14.80439172 24.34020571 13.07939148 24.34190369 C8.40418104 24.34276374 3.72920193 24.32513635 -0.9459548 24.30418181 C-5.83465493 24.28541669 -10.72336048 24.2836647 -15.61209106 24.28010559 C-24.8661346 24.27078466 -34.1200717 24.24617018 -43.37406838 24.21605712 C-53.91087233 24.18251466 -64.44768139 24.16602748 -74.98452544 24.15097082 C-96.65640968 24.1196207 -118.32819813 24.0668592 -140 24 C-140 23.67 -140 23.34 -140 23 C-93.8 23 -47.6 23 0 23 C0 15.41 0 7.82 0 0 Z " fill="#82A156" transform="translate(441,254)"/>
</svg>
