<?xml version="1.0" encoding="UTF-8"?>
<svg version="1.1" xmlns="http://www.w3.org/2000/svg" width="512" height="512">
<path d="M0 0 C0.90871345 -0.00630794 1.81742691 -0.01261588 2.75367713 -0.01911497 C3.74821536 -0.02097697 4.7427536 -0.02283896 5.76742935 -0.02475739 C6.82692614 -0.03055077 7.88642292 -0.03634416 8.97802567 -0.0423131 C12.54000427 -0.06039851 16.10196701 -0.0712518 19.66397476 -0.08200836 C22.21312988 -0.09318214 24.76228353 -0.10469541 27.3114357 -0.11652374 C35.69227467 -0.15309282 44.07312742 -0.17836636 52.45401382 -0.20114899 C53.16678753 -0.20312389 53.87956125 -0.20509879 54.61393416 -0.20713353 C68.77028683 -0.24629806 82.9266484 -0.27999002 97.08303833 -0.30221558 C100.19400165 -0.30718474 103.30496483 -0.31222909 106.41592789 -0.31735992 C107.18912724 -0.3186306 107.96232659 -0.31990127 108.75895622 -0.32121044 C121.28555706 -0.34257282 133.81189568 -0.39157313 146.33836457 -0.45160407 C159.20258828 -0.51274488 172.0666767 -0.54740596 184.93104386 -0.55668879 C192.15259876 -0.56259738 199.37370911 -0.58032761 206.59511948 -0.62807465 C213.38817282 -0.67294877 220.18034719 -0.68224924 226.97357559 -0.66744614 C229.46648927 -0.66777534 231.9594346 -0.68009461 234.45222092 -0.70529556 C237.85702562 -0.73789968 241.25908126 -0.72727199 244.66391373 -0.70590973 C245.64952907 -0.7256175 246.63514442 -0.74532527 247.6506269 -0.76563025 C254.02806799 -0.66464773 257.22949898 0.79468303 261.74851084 5.3029052 C262.31648307 5.91000482 262.88445531 6.51710444 263.46963882 7.14260101 C264.36470579 7.99521861 265.25977276 8.84783621 266.18196297 9.7262907 C266.99054316 10.53319505 267.79912334 11.34009939 268.63220596 12.17145538 C269.09090454 12.62788841 269.54960312 13.08432143 270.02220166 13.55458575 C271.52899553 15.055147 273.03229248 16.55915885 274.53555679 18.06325531 C275.6268769 19.1515775 276.71839978 20.23969641 277.81010818 21.32762909 C280.75217588 24.26092454 283.69105154 27.19739743 286.62905645 30.13476157 C288.4664731 31.97146473 290.30460106 33.80745292 292.14298248 35.64319038 C298.56038005 42.05136244 304.97521579 48.46208598 311.38760757 54.87526703 C317.36117604 60.84943802 323.34031993 66.8179887 329.32206047 72.78397626 C334.46632909 77.91518017 339.60674604 83.05022103 344.74416649 88.18828136 C347.80911302 91.25348286 350.87559284 94.31711098 353.94595337 97.37689018 C356.82813685 100.24940882 359.70550181 103.12666735 362.57921028 106.00766373 C363.63446476 107.06396551 364.69143182 108.11855959 365.75022316 109.17131615 C367.19442389 110.60781614 368.63187947 112.051088 370.06897354 113.49469757 C371.27845059 114.70335747 371.27845059 114.70335747 372.51236153 115.93643475 C376.09935357 119.97955161 376.72226085 122.85151922 376.76016617 128.20876312 C376.77292587 129.43360916 376.78568558 130.6584552 376.79883194 131.92041779 C376.80217041 133.90018364 376.80217041 133.90018364 376.80557632 135.91994476 C376.81200635 137.2923064 376.81873486 138.66466667 376.82574844 140.03702545 C376.83771084 142.91103544 376.84143028 145.78492531 376.84024429 148.65895844 C376.840041 152.33555874 376.86735679 156.01138692 376.90178871 159.68780422 C376.92406148 162.52146673 376.92808176 165.35494339 376.92702484 168.18868446 C376.9305219 170.20112708 376.95218017 172.2135117 376.97412491 174.22583771 C376.96797165 175.45383591 376.96181839 176.68183411 376.95547867 177.94704437 C376.9583287 179.02529984 376.96117874 180.1035553 376.96411514 181.21448517 C376.35052912 184.84792705 375.01501065 186.52741753 372.46963882 189.14260101 C370.46963882 189.77150726 370.46963882 189.77150726 368.46963882 189.70510101 C367.80963882 189.70639008 367.14963882 189.70767914 366.46963882 189.70900726 C363.57653176 188.8896703 362.37375087 187.44054095 360.46963882 185.14260101 C359.98862076 182.64949799 359.98862076 182.64949799 360.01553726 179.82326508 C360.01599045 178.23206848 360.01599045 178.23206848 360.01645279 176.6087265 C360.03709793 175.47006134 360.05774307 174.33139618 360.07901382 173.15822601 C360.08467361 171.98749542 360.0903334 170.81676483 360.0961647 169.61055756 C360.11855758 165.87082302 360.16876202 162.13204605 360.21963882 158.39260101 C360.23969994 155.8574586 360.25795138 153.32230117 360.27432632 150.78713226 C360.31843204 144.57196172 360.38537428 138.35734978 360.46963882 132.14260101 C359.28914963 132.15370407 358.10866043 132.16480713 356.89239883 132.17624664 C345.74076171 132.27782078 334.58921905 132.3526615 323.43722343 132.40166187 C317.70450485 132.42770088 311.9721612 132.46299522 306.23965836 132.51979828 C300.70236297 132.5743206 295.16542711 132.60406436 289.62788391 132.61698723 C287.52044774 132.62619082 285.41303016 132.64416319 283.30574799 132.6712513 C261.52056318 132.9400277 261.52056318 132.9400277 251.65713882 124.83010101 C246.9082304 118.9957278 243.33920068 113.75383901 243.34938431 106.05501556 C243.34732231 104.84775063 243.34732231 104.84775063 243.34521866 103.6160965 C243.34881393 102.74215744 243.35240921 101.86821838 243.35611343 100.96779633 C243.35596741 100.04062302 243.35582138 99.11344971 243.35567093 98.15818024 C243.35636721 95.09567164 243.36414633 92.03322398 243.37198257 88.97072601 C243.37384776 86.84651981 243.37527119 84.72231317 243.37627029 82.59810638 C243.38008752 77.00857606 243.38991105 71.41907175 243.40097427 65.8295517 C243.41120546 60.1253113 243.41577158 54.42106669 243.4208107 48.71681976 C243.431534 37.52540209 243.44860092 26.33400372 243.46963882 15.14260101 C213.06522009 15.20175049 182.66087249 15.27610481 152.25654725 15.3715873 C148.66432942 15.38285501 145.07211121 15.39399353 141.47989273 15.40505219 C140.76476829 15.40725587 140.04964385 15.40945955 139.31284897 15.41173001 C127.74453355 15.44707038 116.1762182 15.4719529 104.60786887 15.49294803 C92.73134715 15.5147361 80.85489528 15.54781499 68.97843301 15.59130257 C62.31027276 15.61539712 55.64216893 15.63396263 48.97396088 15.64021492 C42.69490437 15.646267 36.41604542 15.66627186 30.13706207 15.69687653 C27.83531949 15.70565467 25.53355109 15.7093798 23.23179245 15.70760918 C20.08213864 15.70595162 16.9330836 15.72269746 13.78351212 15.7438736 C12.87881294 15.73902602 11.97411376 15.73417844 11.04199946 15.72918397 C4.63426545 15.79997869 -3.06661196 16.25913115 -8.18929136 20.52361184 C-12.70148483 25.76061008 -13.82660035 29.93440378 -13.79042339 36.70273209 C-13.79422906 37.47147234 -13.79803474 38.2402126 -13.80195573 39.03224802 C-13.81231037 41.62336008 -13.80835823 44.21425464 -13.80451584 46.80538177 C-13.80896615 48.67579401 -13.8142795 50.54620435 -13.82038456 52.41661191 C-13.83459992 57.56845857 -13.83622719 62.720245 -13.83578765 67.87210846 C-13.83743275 73.42372136 -13.8504935 78.97530923 -13.86198044 84.52690887 C-13.88485338 96.67144959 -13.89275349 108.81597286 -13.89780688 120.96053219 C-13.90106119 128.54076842 -13.90758205 136.12099956 -13.91480827 143.70123291 C-13.93437707 164.68061248 -13.95086097 185.6599886 -13.95368481 206.63937759 C-13.9538259 207.64610671 -13.9538259 207.64610671 -13.95396984 208.67317379 C-13.95434832 211.3931036 -13.95471232 214.1130334 -13.95507282 216.83296321 C-13.95534454 218.88018623 -13.95562122 220.92740924 -13.95589828 222.97463226 C-13.95598631 223.65111323 -13.95607433 224.32759419 -13.95616502 225.02457458 C-13.95907039 246.27945242 -13.98116489 267.53423932 -14.01742172 288.78908539 C-14.05814552 312.66326732 -14.08182376 336.53738782 -14.08214432 360.41161275 C-14.08272951 373.05448175 -14.09126114 385.6972337 -14.12014198 398.34007263 C-14.14461877 409.1046709 -14.15196376 419.86910945 -14.13689446 430.633728 C-14.12971048 436.12738664 -14.13064722 441.62072964 -14.15330505 447.11435318 C-14.17384675 452.14301659 -14.17133953 457.17112072 -14.15043021 462.19977775 C-14.14692611 464.01944271 -14.1518841 465.83914763 -14.16613465 467.65876016 C-14.24150427 477.94503618 -14.25695248 485.21854104 -6.71786118 493.01760101 C-0.81051001 496.05566733 5.42000002 496.43488729 11.92160416 496.39415741 C13.14043891 496.39861262 13.14043891 496.39861262 14.38389659 496.40315783 C17.08605329 496.41075046 19.78798957 496.40432353 22.49014664 496.39797211 C24.43555218 496.4007241 26.3809566 496.40440526 28.3263588 496.40894318 C32.50492498 496.41703601 36.68343771 496.41922853 40.86201096 496.416996 C47.46716547 496.41415859 54.07221343 496.42852909 60.67734146 496.44597626 C79.45574742 496.492968 98.2341454 496.5169572 117.01260757 496.52346039 C127.39183693 496.5272065 137.77094503 496.54519484 148.1501224 496.57855475 C154.71899846 496.59880338 161.2875626 496.60112279 167.85645723 496.59027457 C171.93640471 496.58767354 176.01616918 496.60164071 180.09606934 496.62035561 C181.99075657 496.62569205 183.88547722 496.62415613 185.78015137 496.61532021 C188.36241081 496.60424652 190.94342526 496.61757407 193.52560806 496.63707733 C194.2789075 496.62795267 195.03220694 496.61882802 195.80833364 496.60942686 C199.2547623 496.66024294 201.14205639 496.89703876 203.93489075 498.99060249 C206.04487406 501.9491864 206.05135954 503.57956164 205.46963882 507.14260101 C203.95303154 509.79474545 203.95303154 509.79474545 201.46963882 512.14260101 C198.53275159 512.64232511 196.17219679 512.81517946 193.23535538 512.7707901 C191.97899464 512.78143168 191.97899464 512.78143168 190.69725287 512.79228824 C187.88572832 512.80991462 185.07557783 512.79173981 182.26407242 512.77370453 C180.25017033 512.77884181 178.23627273 512.78612164 176.22238541 512.79538727 C170.74675035 512.81394083 165.27160071 512.80093472 159.7959857 512.78129697 C154.06444564 512.76492837 148.33293678 512.7737215 142.60138321 512.77881622 C132.96901058 512.78334136 123.33683185 512.76744662 113.70450211 512.73952484 C102.58006778 512.70752567 91.45598427 512.70746623 80.33152521 512.72473961 C69.62502242 512.7406298 58.9186478 512.73385154 48.21215057 512.7168026 C43.65974501 512.70994314 39.10744252 512.71095342 34.55503845 512.71834755 C29.18528406 512.72603438 23.81592633 512.7138058 18.44623947 512.68649864 C16.47990343 512.6796368 14.51353019 512.6794931 12.54719543 512.68671417 C-1.60943982 512.73269309 -11.62495407 511.83494975 -22.32723618 501.65431976 C-28.66117033 494.43318561 -30.68387316 486.90502028 -30.66458225 477.52838039 C-30.6681106 476.36648795 -30.6681106 476.36648795 -30.67171022 475.18112293 C-30.67839866 472.5701187 -30.67794205 469.95916424 -30.6775322 467.34815216 C-30.68083092 465.46338022 -30.6845565 463.57860899 -30.68867368 461.69383866 C-30.69870087 456.50219094 -30.70241163 451.31055478 -30.70506299 446.11889875 C-30.70896391 440.52429104 -30.7185424 434.9296925 -30.72727585 429.33509064 C-30.74704637 415.81786379 -30.75710727 402.30063618 -30.76600364 388.78339848 C-30.77038562 382.41961737 -30.77575267 376.0558371 -30.78099251 369.69205666 C-30.79800547 348.54025784 -30.8125248 327.38845966 -30.81974125 306.23665524 C-30.82021601 304.86871757 -30.82069189 303.50077991 -30.82116891 302.13284225 C-30.82140529 301.45447151 -30.82164166 300.77610077 -30.8218852 300.07717335 C-30.82308639 296.64024233 -30.82430185 293.20331132 -30.82552719 289.76638031 C-30.82576734 289.08431225 -30.82600749 288.40224419 -30.82625492 287.69950741 C-30.83414642 265.58927276 -30.85757497 243.47909178 -30.89008314 221.36888057 C-30.92439393 197.98991221 -30.94409243 174.61098435 -30.94738549 151.23198658 C-30.94955143 138.48899136 -30.95831245 125.74607502 -30.98384666 113.00310326 C-31.0055413 102.15114223 -31.01361013 91.29927924 -31.00387988 80.447299 C-30.99933163 74.91077831 -31.00125219 69.37445993 -31.02064133 63.83796692 C-31.0382479 58.76665977 -31.03729542 53.6957029 -31.02174404 48.62439216 C-31.01936418 46.79256076 -31.02371108 44.96070526 -31.03557269 43.12891071 C-31.1195933 29.29338276 -30.0160785 18.73204605 -19.97567368 8.31056976 C-14.0821076 3.08544329 -7.90790578 0.03444529 0 0 Z M259.46963882 28.14260101 C259.40010845 38.35652428 259.34681208 48.57039119 259.31420231 58.78450298 C259.29855073 63.52740785 259.27732168 68.27015071 259.24332047 73.01296234 C259.21070898 77.59060317 259.19278199 82.16808823 259.1850071 86.74583626 C259.17946681 88.49174005 259.16864794 90.23763539 259.15244865 91.98347282 C259.1306504 94.43017583 259.12767287 96.87623634 259.12906265 99.32302094 C259.11827682 100.0437529 259.107491 100.76448486 259.09637833 101.50705719 C259.13241835 107.37616795 260.67206529 110.27037195 264.66267776 114.42671967 C268.26816681 116.6307372 271.28352891 116.6774145 275.38101578 116.59670258 C276.16203156 116.59728668 276.94304733 116.59787079 277.74773026 116.5984726 C280.3182524 116.59569536 282.88760159 116.56462176 285.45792007 116.53322601 C287.24438722 116.52576231 289.03086258 116.52006999 290.81734085 116.51607513 C295.51109947 116.50082894 300.20436015 116.46155599 304.89792252 116.41725922 C309.69063965 116.37628455 314.48343751 116.35805944 319.27627945 116.33791351 C328.67428425 116.29506066 338.07192007 116.22682168 347.46963882 116.14260101 C343.00745396 110.80019492 338.29608491 105.82606903 333.36880875 100.9123764 C332.57949966 100.121315 331.79019058 99.3302536 330.97696304 98.51522064 C328.38717489 95.92105777 325.79377814 93.33053803 323.20010757 90.74025726 C321.39489232 88.93436812 319.58982552 87.12833057 317.78490067 85.32215118 C314.01322351 81.54900334 310.2398004 77.77761373 306.46500015 74.00759125 C302.09705611 69.64511177 297.73275804 65.27900959 293.37028998 60.91105467 C289.16833517 56.70402641 284.96358648 52.4997993 280.75762749 48.29677391 C278.96861952 46.50843504 277.18035962 44.71934751 275.39284706 42.92951393 C272.90546676 40.43961091 270.41493282 37.95290723 267.92349625 35.4670639 C267.17910797 34.7206514 266.4347197 33.97423889 265.6677742 33.20520782 C264.99352402 32.53377747 264.31927383 31.86234711 263.62459183 31.17057037 C263.03598468 30.58234025 262.44737753 29.99411013 261.8409338 29.38805485 C260.65500594 28.03054692 260.65500594 28.03054692 259.46963882 28.14260101 Z " fill="#000000" transform="translate(41.53036117553711,-0.14260101318359375)"/>
<path d="M0 0 C0.79736069 -0.0071553 1.59472137 -0.01431061 2.41624451 -0.02168274 C3.28225281 -0.02437164 4.14826111 -0.02706055 5.04051208 -0.02983093 C5.95976974 -0.03640213 6.8790274 -0.04297333 7.82614136 -0.04974365 C10.86822089 -0.06945112 13.91025103 -0.08113573 16.95237732 -0.09111023 C17.99410536 -0.09518576 19.0358334 -0.09926128 20.10912895 -0.10346031 C25.62661922 -0.1243136 31.1440847 -0.13861662 36.66160583 -0.147995 C42.34182737 -0.15903714 48.02165478 -0.19341407 53.7017374 -0.23316669 C58.08486627 -0.2594019 62.46790237 -0.26769313 66.85110283 -0.27127647 C68.94372649 -0.27612726 71.03634643 -0.28769786 73.1288929 -0.30631447 C87.59861601 -0.42700938 99.17021679 -0.01034896 110.65159607 9.80732727 C116.89665627 16.16921683 119.91259786 22.6426152 121.94847107 31.14717102 C122.51730515 31.13828857 123.08613922 31.12940613 123.67221069 31.12025452 C129.62625516 31.03132891 135.58010905 30.97125041 141.53465271 30.92744446 C143.7528297 30.90740702 145.97095439 30.88016929 148.18894958 30.84541321 C151.38886979 30.79654849 154.58808781 30.7741229 157.78831482 30.75654602 C158.76993088 30.73590088 159.75154694 30.71525574 160.76290894 30.69398499 C168.27338356 30.69157181 174.0624149 32.39817088 180.21800232 36.75263977 C186.3265691 43.01585381 189.12975624 48.82596702 189.44847107 57.64717102 C189.15342569 66.08546894 186.34023861 72.42895577 180.65940857 78.64326477 C174.15330423 84.36210078 167.24716319 85.20072452 158.94847107 85.14717102 C158.91608212 85.69962683 158.88369316 86.25208263 158.85032272 86.82127953 C158.41964505 94.16689787 157.98878049 101.51250524 157.55784607 108.85810852 C157.45033429 110.69083061 157.45033429 110.69083061 157.34065056 112.56057739 C156.47226341 127.36186828 155.60231198 142.1630651 154.72898865 156.96406555 C154.64834613 158.33093197 154.56770374 159.6977984 154.4870615 161.06466484 C154.16608875 166.50478832 153.84509286 171.94491043 153.5239048 177.38502121 C152.65694944 192.07014058 151.79447887 206.75548333 150.95045471 221.44194031 C150.63629667 226.90634859 150.31760323 232.37048777 149.99685097 237.83451271 C149.7972215 241.23953068 149.60015488 244.64465122 149.40953064 248.05018616 C149.20383272 251.70532879 148.98939381 255.35985453 148.77268982 259.01435852 C148.71773849 260.03380554 148.66278717 261.05325256 148.60617065 262.10359192 C147.82638857 274.84350926 144.77728215 286.57526029 135.07737732 295.58076477 C127.72505568 300.99045464 120.05815346 304.25349614 110.96751404 304.30107117 C109.74247665 304.30967163 108.51743927 304.31827209 107.25527954 304.32713318 C105.90040631 304.33156811 104.54553263 304.33586649 103.19065857 304.34004211 C101.76127933 304.34794753 100.33190205 304.35621675 98.90252686 304.36482239 C94.20952753 304.3910017 89.5165195 304.40635051 84.82347107 304.42060852 C83.20413712 304.42597075 81.58480321 304.43134826 79.96546936 304.43674088 C73.22446464 304.45836767 66.48346226 304.47710043 59.74243164 304.48836327 C50.10398979 304.5045761 40.46595272 304.53769095 30.82766342 304.59476411 C24.03934107 304.63357983 17.25112643 304.65300992 10.46269608 304.65828383 C6.41453683 304.66192273 2.36680971 304.67378609 -1.68122864 304.70638657 C-5.49648314 304.73667133 -9.31104872 304.7427075 -13.12639809 304.73100281 C-14.51786188 304.73078373 -15.90935954 304.73894955 -17.30071068 304.75665665 C-29.40324098 304.90214964 -39.47607461 302.46127301 -48.37574768 293.89326477 C-55.28563669 286.69345035 -59.78728049 278.94760202 -60.41061401 268.85832214 C-60.46509925 268.00595285 -60.51958448 267.15358356 -60.57572079 266.2753849 C-60.63130437 265.34603819 -60.68688795 264.41669147 -60.74415588 263.45918274 C-60.80622254 262.47100744 -60.8682892 261.48283215 -60.93223667 260.46471214 C-61.13832448 257.16897191 -61.33906879 253.87292838 -61.53981018 250.57685852 C-61.68427881 248.24910038 -61.82907063 245.92136229 -61.97416687 243.59364319 C-62.36187423 237.35821937 -62.7449246 231.12251774 -63.12691879 224.88674164 C-63.52077737 218.46738613 -63.91835986 212.0482612 -64.31544495 205.62910461 C-64.94321841 195.4718698 -65.56823903 185.31446908 -66.19117737 175.15693665 C-66.82171724 164.87550974 -67.45706508 154.59439399 -68.09658813 144.31352234 C-68.4785411 138.17214034 -68.85728678 132.03056213 -69.23521423 125.88893127 C-69.40287418 123.1653483 -69.57173461 120.44184391 -69.74162292 117.71839905 C-69.97159807 114.02035248 -70.19769586 110.32209008 -70.42262268 106.62373352 C-70.48789154 105.58722656 -70.5531604 104.5507196 -70.6204071 103.48280334 C-70.98735023 97.36256311 -71.12751132 91.27809487 -71.05152893 85.14717102 C-72.33027893 85.22967102 -73.60902893 85.31217102 -74.92652893 85.39717102 C-82.26597684 85.36255098 -88.55002714 82.917537 -93.92652893 77.89717102 C-99.74059562 71.43862053 -102.14634849 64.84347926 -102.05152893 56.14717102 C-101.49358853 49.09575405 -98.74030567 43.41957187 -94.05152893 38.14717102 C-88.81062688 33.88111253 -84.17304458 31.01561849 -77.30470276 31.03364563 C-76.34393326 31.03372116 -75.38316376 31.03379669 -74.39328003 31.03387451 C-73.35882248 31.0390358 -72.32436493 31.04419708 -71.25856018 31.04951477 C-69.66681221 31.05163719 -69.66681221 31.05163719 -68.04290771 31.05380249 C-64.64991958 31.05940496 -61.25699716 31.07195788 -57.86402893 31.08467102 C-55.56520176 31.0896857 -53.26637355 31.09424866 -50.96754456 31.0983429 C-45.32885022 31.10937519 -39.69019427 31.12611573 -34.05152893 31.14717102 C-33.92392181 30.53020355 -33.7963147 29.91323608 -33.6648407 29.27757263 C-33.49225739 28.46770905 -33.31967407 27.65784546 -33.14186096 26.82344055 C-32.97300385 26.02084808 -32.80414673 25.21825562 -32.63017273 24.39134216 C-30.61014416 16.55700638 -23.5378738 9.64692318 -17.05152893 5.14717102 C-11.6073783 2.20050203 -6.24230525 0.0386635 0 0 Z M-14.11402893 24.20967102 C-16.28764499 27.1518377 -16.28764499 27.1518377 -17.05152893 31.14717102 C23.20847107 31.14717102 63.46847107 31.14717102 104.94847107 31.14717102 C101.05430766 23.3588442 97.00524371 19.18071208 88.94847107 16.14717102 C85.93090852 15.6189215 82.99555773 15.58868504 79.9372406 15.61372375 C79.07431396 15.60510818 78.21138733 15.59649261 77.3223114 15.58761597 C74.49165682 15.56505732 71.66200061 15.57167698 68.83128357 15.58076477 C66.84884856 15.57552413 64.86641605 15.56924604 62.88398743 15.5619812 C58.73657976 15.55159515 54.58951557 15.55611181 50.44212341 15.570755 C45.14731825 15.58792614 39.85360001 15.56445845 34.55891609 15.5292654 C30.46657728 15.50722151 26.37449565 15.50875002 22.28211594 15.51703072 C20.33102604 15.51784667 18.37991659 15.51105181 16.4288826 15.49625969 C-0.42638196 15.21837924 -0.42638196 15.21837924 -14.11402893 24.20967102 Z M-82.86402893 50.45967102 C-85.19071437 53.31817027 -86.05152893 54.49041399 -86.05152893 58.14717102 C-84.69520483 62.0805109 -83.45437802 65.5950342 -80.05152893 68.14717102 C-76.34716437 69.38195921 -72.88384927 69.32100055 -69.02418518 69.35810852 C-67.41154472 69.38617135 -65.79891464 69.41483577 -64.18629456 69.44404602 C-61.64731575 69.48533422 -59.10853195 69.52222798 -56.5693512 69.54853821 C-54.11639097 69.57615038 -51.66430743 69.62201189 -49.21168518 69.67060852 C-48.45428543 69.67386139 -47.69688568 69.67711426 -46.91653442 69.6804657 C-42.72683339 69.77811942 -40.01831187 70.04771739 -37.05152893 73.14717102 C-36.52027893 75.08467102 -36.52027893 75.08467102 -36.55152893 77.14717102 C-36.54121643 77.82779602 -36.53090393 78.50842102 -36.52027893 79.20967102 C-37.05152893 81.14717102 -37.05152893 81.14717102 -38.62965393 82.85420227 C-43.5779224 85.49593915 -49.55099089 84.89251648 -55.05152893 85.14717102 C-54.39995951 104.24310202 -53.33019535 123.30456845 -52.16570473 142.37427545 C-51.91757114 146.44570318 -51.67218855 150.51729693 -51.42640686 154.58886719 C-51.01461524 161.40389983 -50.60086924 168.21881149 -50.18580627 175.03364563 C-49.70799776 182.87894899 -49.23296279 190.72441647 -48.75946188 198.56998092 C-48.30000082 206.18239712 -47.83897077 213.79471744 -47.37710571 221.40698814 C-47.18211874 224.62074892 -46.98759854 227.83453742 -46.79345703 231.04834938 C-46.56490782 234.83011122 -46.33495177 238.61178511 -46.10395622 242.39339828 C-45.98041138 244.42091305 -45.85817401 246.44850736 -45.73599243 248.47610474 C-45.51787783 252.03387684 -45.28911214 255.5906493 -45.05152893 259.14717102 C-44.97736252 260.27623556 -44.90319611 261.4053001 -44.82678223 262.56857872 C-44.74912125 263.63258715 -44.67146027 264.69659557 -44.59144592 265.79284668 C-44.52509697 266.72443194 -44.45874802 267.65601721 -44.39038849 268.61583233 C-43.42431888 275.83253708 -39.52813573 280.10355089 -34.14918518 284.70185852 C-29.90869312 287.62361282 -26.21945906 288.39801525 -21.11322021 288.41459656 C-19.9230983 288.42312653 -18.73297638 288.43165649 -17.50679016 288.44044495 C-16.20953003 288.43953857 -14.9122699 288.4386322 -13.57569885 288.43769836 C-12.18894083 288.443686 -10.80218613 288.45049209 -9.41543579 288.45805359 C-5.65496619 288.47569813 -1.89458765 288.48040834 1.86591935 288.48168516 C4.21768718 288.48310833 6.56943198 288.48738109 8.92119408 288.4926796 C17.13253113 288.51117558 25.34380332 288.51935085 33.55516052 288.51777649 C41.19816466 288.51657558 48.84088618 288.53766897 56.48381883 288.56926382 C63.05470439 288.59545479 69.62549782 288.60614259 76.19643515 288.60486567 C80.11693652 288.60435681 84.03718671 288.60999735 87.95763588 288.63122177 C91.6472717 288.65065169 95.336418 288.65069669 99.02607155 288.63618851 C101.01645415 288.63311584 103.00683704 288.64974403 104.99714661 288.66706848 C113.08052707 288.61049219 118.50701625 287.73349309 124.93675232 282.54170227 C132.7535929 273.20299892 132.65693441 262.1212221 133.29881287 250.54194641 C133.40657967 248.76057162 133.51542405 246.97926175 133.6252594 245.19801331 C133.91909974 240.38305562 134.19788474 235.56733248 134.4738729 230.75132298 C134.76543352 225.70822505 135.07082508 220.66596469 135.37469482 215.62359619 C135.94756959 206.08224192 136.50788446 196.54019307 137.06373674 186.99783367 C137.69696801 176.13847703 138.34490942 165.28001316 138.99377573 154.42158139 C139.94847738 138.43734873 140.89773995 122.45279389 141.83293533 106.46740723 C141.93433817 104.7347294 142.0359286 103.00206254 142.13771629 101.26940727 C142.27609152 98.91249847 142.41370211 96.55554639 142.55105591 94.19857788 C142.59180998 93.506281 142.63256405 92.81398412 142.6745531 92.10070854 C142.87877443 88.62618656 142.87877443 88.62618656 142.94847107 85.14717102 C141.75437638 85.14358849 141.75437638 85.14358849 140.53615856 85.13993359 C121.18249618 85.08084458 101.82896199 85.00533384 82.47543621 84.91145611 C73.11628023 84.8664555 63.75716267 84.82705076 54.39793396 84.80073547 C46.24216512 84.77778984 38.08651743 84.74443053 29.9308446 84.69846946 C25.61088775 84.67449071 21.29105122 84.65579251 16.97102928 84.64955711 C12.90721818 84.64352718 8.84371512 84.6236038 4.78001785 84.59289551 C3.28645907 84.58408156 1.7928601 84.58039961 0.29927635 84.58216286 C-1.73597299 84.58380734 -3.77120942 84.56540218 -5.80636597 84.54589844 C-6.94662389 84.54128947 -8.08688181 84.53668051 -9.261693 84.53193188 C-12.05152893 84.14717102 -12.05152893 84.14717102 -13.89107037 82.80584431 C-15.63957935 80.30665543 -15.86698533 78.16138313 -16.05152893 75.14717102 C-15.08547318 72.39762774 -14.67137379 71.45709345 -12.05152893 70.14717102 C-9.74662344 70.04900965 -7.43878387 70.01810786 -5.13179016 70.01586914 C-4.41152594 70.01375343 -3.69126172 70.01163771 -2.9491713 70.00945789 C-0.52331451 70.00344199 1.9024905 70.00445917 4.32835388 70.00532532 C6.06273487 70.00229484 7.79711506 69.9987737 9.53149414 69.99479675 C13.27306965 69.98689826 17.01463558 69.98175924 20.75621796 69.97850609 C26.67252532 69.97260401 32.58877227 69.95607093 38.50505066 69.93716431 C40.52930065 69.93082661 42.55355068 69.92450099 44.57780075 69.91818714 C45.5916835 69.91502133 46.60556624 69.91185552 47.65017271 69.90859377 C61.42781739 69.86649444 75.20543434 69.83354315 88.98313904 69.82124329 C98.27098314 69.81286638 107.55867817 69.79038818 116.84644771 69.75188762 C121.76287297 69.73211207 126.67907532 69.71972729 131.59554291 69.72472191 C136.22164989 69.72936412 140.84733443 69.71558635 145.47335625 69.68770981 C147.17045899 69.68079046 148.86760535 69.68067947 150.5647068 69.68791008 C152.88390647 69.69679245 155.20171126 69.68111645 157.52079773 69.65942383 C158.8179282 69.65703547 160.11505867 69.65464712 161.45149612 69.65218639 C166.10785107 68.97973924 169.45706711 67.1131126 172.32347107 63.33467102 C173.26554502 60.03741219 173.36107763 57.56591112 172.94847107 54.14717102 C169.85281674 49.32159222 167.43714483 47.50681793 161.94847107 46.14717102 C158.73263035 45.87228046 155.53389202 45.87715275 152.30784607 45.89320374 C151.34323456 45.89008375 150.37862305 45.88696377 149.38478088 45.88374925 C146.15594859 45.8757787 142.92730473 45.8820893 139.69847107 45.88838196 C137.38222646 45.88567168 135.06598271 45.88211054 132.7497406 45.87776184 C126.46061594 45.86863997 120.17155685 45.87218131 113.88243103 45.87852001 C107.30288007 45.88358101 100.72333475 45.87888828 94.14378357 45.87574768 C82.38639642 45.87147529 70.62903688 45.87809329 58.87165451 45.88826635 C48.21495358 45.89720164 37.55829622 45.89564953 26.90159607 45.88642883 C14.5213086 45.87572179 2.14104891 45.87174392 -10.23924255 45.87765336 C-16.7909398 45.88077256 -23.34260704 45.88118373 -29.89430237 45.87458038 C-36.05353282 45.8688063 -42.21268092 45.87280507 -48.37190247 45.8843689 C-50.63341637 45.88701513 -52.8949372 45.88625102 -55.15644836 45.88184357 C-58.2413607 45.87638536 -61.32600849 45.88322582 -64.41090393 45.89320374 C-65.75594498 45.88651157 -65.75594498 45.88651157 -67.12815857 45.87968421 C-73.26510174 45.91823189 -77.96287616 46.42983429 -82.86402893 50.45967102 Z " fill="#000000" transform="translate(312.05152893066406,207.8528289794922)"/>
<path d="M0 0 C1.31088089 -0.00852997 2.62176178 -0.01705994 3.97236633 -0.02584839 C5.42335522 -0.02514938 6.87434402 -0.02422633 8.32533264 -0.02310181 C9.85473967 -0.0290867 11.38414367 -0.03589215 12.9135437 -0.04345703 C17.06641883 -0.06112674 21.21921154 -0.06581277 25.37212062 -0.0670886 C28.8388918 -0.06898794 32.3056438 -0.07634574 35.77240759 -0.08343279 C43.95086646 -0.09971748 52.1292813 -0.10460162 60.30775452 -0.10317993 C68.74547028 -0.10197795 77.18293049 -0.1230908 85.62058157 -0.15466726 C92.86485401 -0.18081201 100.10904288 -0.19154801 107.35336214 -0.19026911 C111.68010318 -0.18975901 116.00661703 -0.19546862 120.33331108 -0.21662521 C124.40210847 -0.23597781 128.47046122 -0.23615278 132.53927422 -0.22159195 C134.03202462 -0.21949913 135.52480265 -0.22423294 137.01750565 -0.23631287 C139.05612936 -0.25174156 141.09490439 -0.24006905 143.13354492 -0.22705078 C144.27413833 -0.22814032 145.41473173 -0.22922985 146.58988857 -0.2303524 C150.29853501 0.3768365 151.97363718 1.65957382 154.63026428 4.26742554 C155.25917053 6.26742554 155.25917053 6.26742554 155.19276428 8.26742554 C155.19405334 8.92742554 155.19534241 9.58742554 155.19667053 10.26742554 C154.36631068 13.19945482 152.99306434 14.36518524 150.63026428 16.26742554 C147.68170166 16.76799679 147.68170166 16.76799679 144.1778717 16.76863098 C143.532075 16.77416538 142.88627829 16.77969977 142.22091198 16.78540188 C140.05879317 16.7990061 137.89782927 16.78404211 135.73573303 16.76913452 C134.18499766 16.77291782 132.63426566 16.77841795 131.08354187 16.7855072 C126.87275715 16.79947784 122.6623803 16.78828094 118.45161819 16.77179599 C114.04656396 16.75795341 109.64153359 16.76440466 105.23646545 16.76792908 C97.83869345 16.77063183 90.44108363 16.75715004 83.04335022 16.73397827 C74.4886243 16.70736809 65.93416959 16.70562117 57.37941647 16.71736664 C49.15250107 16.72814317 40.92568385 16.72195833 32.69877625 16.70781136 C29.19645367 16.70205046 25.69420291 16.70213504 22.19187927 16.70687675 C18.06811811 16.71164659 13.94465417 16.70154478 9.82094955 16.6799221 C8.30683266 16.67435412 6.79268719 16.67388906 5.27856827 16.67887497 C3.21293385 16.68482431 1.14820927 16.672331 -0.91734314 16.65510559 C-2.07360703 16.6526757 -3.22987091 16.6502458 -4.4211731 16.64774227 C-7.69690133 16.22522648 -9.07568029 15.61593662 -11.36973572 13.26742554 C-12.2425472 9.83852327 -12.698964 7.37482977 -11.68223572 3.95492554 C-8.58911986 -0.02193771 -4.76424209 0.01400458 0 0 Z " fill="#000000" transform="translate(71.36973571777344,115.73257446289063)"/>
<path d="M0 0 C0.64579671 -0.00538554 1.29159342 -0.01077108 1.95695972 -0.01631981 C4.11888041 -0.03061675 6.28019029 -0.02349185 8.44213867 -0.01637268 C9.99287407 -0.02207533 11.54360527 -0.02903918 13.09432983 -0.03717041 C17.30503149 -0.0551275 21.51552505 -0.05392883 25.72625351 -0.04822803 C29.24034664 -0.04514024 32.75439956 -0.05122395 36.26848698 -0.05726677 C44.55719909 -0.07131839 52.84580815 -0.06974507 61.13452148 -0.05836487 C69.68928427 -0.04687905 78.24373374 -0.06096557 86.79845524 -0.08776134 C94.14123527 -0.10990093 101.48391682 -0.11655978 108.82672787 -0.11068493 C113.21322571 -0.10731043 117.59952262 -0.10976312 121.98599243 -0.12693596 C126.10979693 -0.14237571 130.23313623 -0.13848301 134.35692215 -0.11963081 C135.87104832 -0.11593683 137.38520875 -0.11907696 138.89930344 -0.1295166 C140.96514704 -0.14267408 143.02943856 -0.13122883 145.09521484 -0.11352539 C146.82961067 -0.11321146 146.82961067 -0.11321146 148.5990448 -0.1128912 C152.17570081 0.49431014 153.34570341 1.56309969 155.54760742 4.38768005 C156.11401367 6.38768005 156.11401367 6.38768005 156.11010742 8.38768005 C156.13202148 9.04768005 156.15393555 9.70768005 156.17651367 10.38768005 C155.18622996 13.53690527 153.25159272 14.58997901 150.54760742 16.38768005 C147.50723171 16.88545799 147.50723171 16.88545799 144.05088806 16.88215637 C142.73718735 16.89054535 141.42348663 16.89893433 140.06997681 16.90757751 C138.62102974 16.89661161 137.17208565 16.88524568 135.72314453 16.8735199 C134.19196753 16.87566659 132.66079212 16.87954552 131.12962341 16.88502502 C126.97672994 16.89471078 122.824267 16.87942543 118.67142558 16.85911894 C114.32510929 16.84154036 109.97880614 16.84507316 105.63246155 16.84584045 C98.33481652 16.84396803 91.03733793 16.82661113 83.73974609 16.79930115 C75.30148568 16.76783919 66.86340747 16.7573054 58.42509264 16.75877225 C50.30764165 16.75999278 42.19025001 16.74978297 34.07281685 16.73318863 C30.61796162 16.72612617 27.1631274 16.7224626 23.7082653 16.72140121 C19.64117449 16.71939266 15.57423673 16.70718576 11.50719643 16.68706894 C10.01404126 16.68122591 8.52086848 16.6787668 7.02770233 16.67992401 C4.99089937 16.68090523 2.95410322 16.66835889 0.91734314 16.65510559 C-0.22287324 16.6517539 -1.36308962 16.64840221 -2.53785801 16.64494896 C-5.41131283 16.3913062 -7.05075313 15.94048056 -9.45239258 14.38768005 C-11.53398278 11.7113498 -11.44826848 10.27014338 -11.32739258 6.82518005 C-10.45239258 3.38768005 -10.45239258 3.38768005 -8.80097961 1.69706631 C-5.71757434 -0.02199644 -3.52615569 0.00741024 0 0 Z " fill="#000000" transform="translate(70.452392578125,66.61231994628906)"/>
<path d="M0 0 C2.20608521 1.39851379 2.20608521 1.39851379 4 4 C4.55243726 7.31775701 4.42923441 10.5825346 4.32763672 13.9362793 C4.31160841 14.94823459 4.2955801 15.96018988 4.27906609 17.00281048 C4.21456554 20.33663247 4.11318026 23.66748876 4 27 C3.96264992 28.11387211 3.92529984 29.22774422 3.88681793 30.37537003 C3.58179241 38.92694363 3.17576596 47.47285227 2.7578125 56.01953125 C2.66044834 58.05213798 2.56376696 60.08477643 2.46714294 62.11741847 C2.16523949 68.46662991 1.85770464 74.81555035 1.54638672 81.16430664 C1.22714001 87.67676918 0.91758876 94.18964308 0.6126529 100.70279008 C0.34806586 106.34694594 0.07756476 111.99079751 -0.19762528 117.63444632 C-0.36086609 120.98329476 -0.52131626 124.33220996 -0.67736435 127.68140602 C-0.85169984 131.40364094 -1.03571935 135.12527859 -1.22216797 138.84692383 C-1.27108185 139.93432861 -1.31999573 141.0217334 -1.37039185 142.14208984 C-2.26308115 159.3113289 -2.26308115 159.3113289 -6.25 163.1875 C-9.71597542 164.21153819 -11.57119568 164.16725253 -15 163 C-17.52595656 160.43857516 -18.8833106 158.84105948 -19.38300896 155.23939514 C-19.32847116 154.23879562 -19.27393337 153.23819611 -19.21774292 152.20727539 C-19.16650835 151.06777939 -19.11527378 149.92828339 -19.06248665 148.7542572 C-18.98627523 147.52695389 -18.91006382 146.29965057 -18.83154297 145.03515625 C-18.73564367 143.06865582 -18.63975889 141.10215455 -18.54477632 139.13560963 C-18.44291099 137.09623918 -18.33140467 135.05759029 -18.21749115 133.01885986 C-17.94261739 128.04699578 -17.74004277 123.0725424 -17.53405952 118.09741211 C-16.98513131 104.98463848 -16.34833152 91.87514142 -15.72639656 78.765625 C-15.35350772 70.90208529 -14.98998986 63.03822511 -14.6381532 55.17371464 C-14.38695039 49.5760289 -14.12526151 43.97889207 -13.85579288 38.38205624 C-13.69623727 35.06207975 -13.5426928 31.74200966 -13.39780045 28.4213562 C-13.23651209 24.74631054 -13.05811194 21.07247597 -12.87548828 17.3984375 C-12.83174072 16.31183334 -12.78799316 15.22522919 -12.74291992 14.10569763 C-12.24967549 4.82874991 -12.24967549 4.82874991 -9 1 C-5.90826248 -0.54586876 -3.40570448 -0.29359521 0 0 Z " fill="#000000" transform="translate(419,308)"/>
<path d="M0 0 C1.90234375 0.40625 1.90234375 0.40625 4.33984375 1.84375 C8.1910952 8.15980238 7.21737691 18.19424932 7.56665039 25.46166992 C7.62531784 26.63708847 7.68398529 27.81250702 7.74443054 29.02354431 C7.93674903 32.89446276 8.12486657 36.76557056 8.3125 40.63671875 C8.41167649 42.66395086 8.51115223 44.69116817 8.61062998 46.71838552 C8.92353389 53.09720264 9.23329744 59.47616718 9.54125977 65.85522461 C9.85612024 72.37572431 10.17696748 78.89591004 10.50073725 85.41597289 C10.78063602 91.05787898 11.05628736 96.69998284 11.32881635 102.34224969 C11.49067425 105.69195822 11.65456235 109.04153165 11.82173347 112.39098167 C12.44469814 124.91055262 13.02102427 137.43052159 13.16967773 149.96606445 C13.19000848 150.87081859 13.21033922 151.77557272 13.23128605 152.70774364 C13.25273584 158.74284316 13.25273584 158.74284316 11.56532288 161.93766785 C9.07295107 164.13868931 7.19094714 164.34047793 3.90234375 164.40625 C1.09778526 163.19519065 -0.56071722 162.25243779 -2.20664024 159.65854931 C-3.30555762 156.88071946 -3.46090722 154.54237568 -3.60391235 151.55696106 C-3.69638496 149.76338669 -3.69638496 149.76338669 -3.79072571 147.93357849 C-3.84899033 146.62494339 -3.90725494 145.31630829 -3.96728516 143.96801758 C-4.03577809 142.57314329 -4.10505753 141.17830744 -4.17506409 139.7835083 C-4.36284585 135.99643162 -4.53944504 132.20890687 -4.71394777 128.42119813 C-4.89859622 124.45194152 -5.09311514 120.48316834 -5.28646851 116.514328 C-5.61002818 109.84405507 -5.9269345 103.17349364 -6.23925781 96.50268555 C-6.6392899 87.95901128 -7.04949127 79.41585874 -7.4632206 70.87283802 C-7.81969407 63.51191898 -8.17223806 56.15081256 -8.52375746 48.78965545 C-8.59904899 47.21407398 -8.67446837 45.63849861 -8.75001574 44.06292939 C-8.9657055 39.56422094 -9.17928633 35.06542299 -9.38943291 30.56645203 C-9.48345441 28.56309078 -9.57951144 26.55982539 -9.67564392 24.55656433 C-10.52209554 6.27281356 -10.52209554 6.27281356 -8.59765625 2.34375 C-5.55537226 -0.01402009 -3.77317468 -0.28105584 0 0 Z " fill="#000000" transform="translate(298.09765625,307.59375)"/>
<path d="M0 0 C3.1850357 1.76015131 3.83296972 2.49890916 5 6 C5.06632878 8.0794652 5.06859887 10.16116329 5.03759766 12.24145508 C5.02068878 13.54486847 5.00377991 14.84828186 4.98635864 16.19119263 C4.96236147 17.63397386 4.93825943 19.07675335 4.9140625 20.51953125 C4.89253186 22.0282225 4.87145426 23.53692028 4.85079956 25.04562378 C4.79366027 29.1207975 4.73002093 33.19584594 4.66500854 37.27090073 C4.59823177 41.51298966 4.53675518 45.75515561 4.47460938 49.99731445 C4.37218084 56.93869366 4.26589615 63.88000494 4.15722656 70.82128906 C4.03199821 78.82937685 3.91552554 86.83755746 3.80355835 94.84584045 C3.7342453 99.79902937 3.66187362 104.75217147 3.588274 109.70529842 C3.5394081 112.99423872 3.49173573 116.28318703 3.44610596 119.57217407 C3.12306473 142.57445631 3.12306473 142.57445631 2.65625 152.45703125 C2.60275391 153.64917236 2.54925781 154.84131348 2.49414062 156.06958008 C1.95601727 159.26083235 1.26637234 160.71843297 -1 163 C-4.60050078 164.17407634 -6.27928713 164.32759676 -9.75 162.75 C-12 161 -12 161 -14 158 C-14.20927429 155.13995361 -14.20927429 155.13995361 -14.15112305 151.59082031 C-14.14324516 150.93930465 -14.13536728 150.28778898 -14.12725067 149.61653042 C-14.09842996 147.43680244 -14.05503928 145.25760937 -14.01171875 143.078125 C-13.9883157 141.52717885 -13.96581879 139.97621879 -13.94416809 138.42524719 C-13.88316305 134.23700482 -13.8096248 130.04906706 -13.7336731 125.86107254 C-13.65664332 121.50506561 -13.59055097 117.14889361 -13.5234375 112.79272461 C-13.41248371 105.6720969 -13.29489012 98.55160645 -13.17333984 91.43115234 C-13.02115987 82.48117379 -12.89002797 73.53102044 -12.76856422 64.58057785 C-12.70974234 60.27368358 -12.64824967 55.96682683 -12.58666897 51.65997124 C-12.53869951 48.30339805 -12.49168934 44.94682079 -12.44638062 41.59020996 C-12.3382724 33.72560127 -12.20027834 25.86282395 -12 18 C-11.98179199 17.18843445 -11.96358398 16.3768689 -11.94482422 15.54071045 C-11.89208407 13.53553229 -11.80723007 11.53126297 -11.71875 9.52734375 C-11.67685547 8.5230835 -11.63496094 7.51882324 -11.59179688 6.48413086 C-10.08973981 0.1790852 -5.88646848 -0.73580856 0 0 Z " fill="#000000" transform="translate(379,308)"/>
<path d="M0 0 C0.66 -0.02191406 1.32 -0.04382813 2 -0.06640625 C5.14434729 0.92234358 6.1994357 2.86682957 8 5.5625 C8.5300293 8.54272461 8.5300293 8.54272461 8.57421875 11.96484375 C8.5880661 12.60868515 8.60191345 13.25252655 8.61618042 13.9158783 C8.65860563 16.11070021 8.67284377 18.30482872 8.6875 20.5 C8.71238615 22.11151845 8.73906446 23.72301001 8.76733398 25.33447266 C8.82828125 28.99521152 8.87696746 32.65589046 8.91894531 36.31689453 C9.00156888 43.16902314 9.13788244 50.01984183 9.2734375 56.87109375 C9.58056675 72.7674692 9.81673431 88.6642764 10 104.5625 C10.01165821 105.56722855 10.01165821 105.56722855 10.02355194 106.59225464 C10.12071654 115.07377765 10.19338956 123.55514004 10.23117065 132.03717041 C10.24365739 134.45789657 10.26112098 136.87860251 10.28372192 139.29925537 C10.31324382 142.63973805 10.32344715 145.97971526 10.328125 149.3203125 C10.34657722 150.79857513 10.34657722 150.79857513 10.36540222 152.30670166 C10.36244644 153.20983093 10.35949066 154.11296021 10.35644531 155.04345703 C10.36009094 155.82463898 10.36373657 156.60582092 10.36749268 157.41067505 C9.89687737 160.1663266 8.89468484 161.53207185 7 163.5625 C3.39949922 164.73657634 1.72071287 164.89009676 -1.75 163.3125 C-4.28749661 161.33889153 -5.84000505 159.75936681 -6.2773304 156.48788738 C-6.2902355 155.68458398 -6.3031406 154.88128057 -6.31643677 154.05363464 C-6.3360144 153.12838486 -6.35559204 152.20313507 -6.37576294 151.24984741 C-6.38727386 150.23564728 -6.39878479 149.22144714 -6.41064453 148.17651367 C-6.44034332 146.57029396 -6.44034332 146.57029396 -6.47064209 144.93162537 C-6.53413437 141.36466415 -6.58359603 137.79765337 -6.6328125 134.23046875 C-6.67403538 131.7250291 -6.71603026 129.21960205 -6.75875854 126.71418762 C-6.84688339 121.43054342 -6.92887734 116.14685846 -7.00537109 110.86303711 C-7.10174937 104.20781375 -7.20961185 97.55282774 -7.3212471 90.8978405 C-7.55327108 77.04973495 -7.7492187 63.20153377 -7.91467285 49.35247803 C-7.97925224 44.00927171 -8.06155549 38.66655186 -8.1502018 33.323699 C-8.20582212 29.71896271 -8.24474402 26.11422036 -8.27755356 22.50921059 C-8.29540871 20.89147197 -8.32005755 19.27379168 -8.3520546 17.65627098 C-8.39384378 15.48710726 -8.41100935 13.31916494 -8.42138672 11.1496582 C-8.43676483 9.96169144 -8.45214294 8.77372467 -8.46798706 7.54975891 C-7.71336938 2.73287702 -4.93623942 -0.00964109 0 0 Z " fill="#000000" transform="translate(336,307.4375)"/>
</svg>
