<?xml version="1.0" encoding="UTF-8"?>
<svg version="1.1" xmlns="http://www.w3.org/2000/svg" width="512" height="512">
<path d="M0 0 C1.4426243 -0.00551503 1.4426243 -0.00551503 2.91439253 -0.01114148 C6.1577418 -0.02221068 9.40105907 -0.02602769 12.64442444 -0.02983093 C14.96181847 -0.03609332 17.27921149 -0.04273992 19.59660339 -0.04974365 C25.90900221 -0.06717851 32.22139343 -0.07771298 38.53381038 -0.08594918 C42.47742199 -0.09109588 46.42103124 -0.09717187 50.36464119 -0.10346031 C61.28752187 -0.12033656 72.21040047 -0.13496943 83.1332922 -0.14220905 C85.96887145 -0.14411891 88.80445069 -0.14603924 91.64002991 -0.147995 C92.69716883 -0.14872061 92.69716883 -0.14872061 93.7756641 -0.14946087 C105.17834204 -0.15775137 116.58091474 -0.18306929 127.98354679 -0.21557567 C139.69624386 -0.24869288 151.40888756 -0.26666223 163.12163168 -0.26985329 C169.69540496 -0.27220306 176.26901211 -0.2811537 182.84274101 -0.30631447 C189.03235322 -0.3296207 195.22169026 -0.33381791 201.41133499 -0.32355309 C203.6788188 -0.32305818 205.94631626 -0.32936511 208.21375847 -0.34310913 C223.6650949 -0.43149737 236.07948882 -0.07603491 247.83607483 11.14717102 C258.27525829 22.08247409 259.42834563 33.83310213 259.3440094 48.2648468 C259.34862408 49.99067268 259.35498079 51.71649463 259.36291838 53.44230843 C259.37955692 58.16218471 259.37139031 62.88173587 259.3589735 67.60161304 C259.34990287 72.7005409 259.36390272 77.79941384 259.37489319 82.89833069 C259.3926615 92.87820241 259.38884593 102.85795366 259.37724262 112.83783007 C259.36820195 120.95008869 259.36698706 129.06231359 259.37133789 137.17457581 C259.37195082 138.33001046 259.37256375 139.48544512 259.37319526 140.67589295 C259.37447419 143.02327904 259.37577104 145.37066512 259.37708563 147.7180512 C259.38848648 169.71944083 259.37538546 191.72076376 259.35388416 213.72214246 C259.33601365 232.59236767 259.33911789 251.46249446 259.3575592 270.3327179 C259.37897463 292.25642708 259.38738789 314.18007782 259.37511015 336.10379601 C259.37383598 338.44245274 259.3725785 340.78110948 259.37133789 343.11976624 C259.37041224 344.84567433 259.37041224 344.84567433 259.36946788 346.60644925 C259.36601701 354.70713463 259.37183769 362.80778289 259.3812561 370.90846252 C259.3924849 380.7831135 259.38941743 390.65763732 259.36813313 400.53227377 C259.35763466 405.56859681 259.35348045 410.60470798 259.36672974 415.64102936 C259.37868427 420.25503525 259.37204068 424.86863369 259.35081953 429.48260283 C259.34636643 431.14799974 259.34859057 432.81343136 259.35832268 434.47880578 C259.43166341 448.07637374 257.55493921 458.96642001 247.83607483 469.14717102 C238.23522007 478.31244825 227.96192325 480.75581254 214.97035217 480.65510559 C213.7191477 480.66134555 212.46794323 480.66758552 211.17882347 480.67401457 C207.73588247 480.69058982 204.29338949 480.68251615 200.85044765 480.67006969 C197.1257581 480.66097262 193.40114248 480.67501188 189.6764679 480.68598938 C182.39169019 480.70372978 175.10707781 480.69995468 167.82229376 480.68833882 C161.89920037 480.67928707 155.97615314 480.67808801 150.05305481 480.68243408 C148.78616351 480.68335348 148.78616351 480.68335348 147.49367845 480.68429145 C145.77763636 480.68557042 144.06159427 480.68686727 142.34555221 480.68818182 C126.27288681 480.69957449 110.20031282 480.68649455 94.12766242 480.66498035 C80.35138434 480.64711056 66.5752411 480.65021503 52.79896545 480.6686554 C36.78187403 480.69008533 20.76486263 480.69847598 4.74775887 480.68620634 C3.03820421 480.68493221 1.32864953 480.68367473 -0.38090515 480.68243408 C-1.2219302 480.68181698 -2.06295524 480.68119988 -2.92946589 480.68056408 C-8.84205023 480.67711754 -14.75458359 480.68292446 -20.66716003 480.69235229 C-27.87750842 480.70359729 -35.08768273 480.70047988 -42.2980113 480.67922932 C-45.97338148 480.66875237 -49.64846194 480.66453924 -53.32382965 480.67782593 C-57.31553698 480.69203743 -61.30651955 480.67501277 -65.29820251 480.65510559 C-66.44928812 480.66402848 -67.60037373 480.67295136 -68.78634071 480.68214464 C-80.41023821 480.56998496 -89.70477637 477.22253991 -98.16392517 469.14717102 C-107.84535433 459.00563434 -109.76677875 448.27221193 -109.69204712 434.6288147 C-109.69881651 433.18545849 -109.70731248 431.74210955 -109.71737033 430.29877251 C-109.73976064 426.35981766 -109.73745941 422.42121658 -109.73080099 418.48221815 C-109.72791491 414.22382235 -109.74800606 409.96552311 -109.76495361 405.70716858 C-109.7942456 397.37666472 -109.8016051 389.04628208 -109.80037811 380.71573202 C-109.79954461 373.9449755 -109.8054184 367.1742572 -109.8160038 360.40350914 C-109.84865462 339.10574424 -109.85767324 317.80809713 -109.84891406 296.51031085 C-109.84292716 279.71302433 -109.87336188 262.91602923 -109.92053678 246.1188154 C-109.96862709 228.86085517 -109.99071382 211.60303535 -109.98522598 194.34500664 C-109.98264945 184.65994873 -109.99063865 174.97517033 -110.02629662 165.29017067 C-110.05640061 157.04907279 -110.0621948 148.8084001 -110.0364876 140.56727973 C-110.02405853 136.36349557 -110.02288364 132.16051091 -110.0521965 127.95679283 C-110.07875222 124.10681705 -110.07286257 120.25829029 -110.04136655 116.40836432 C-110.03564091 115.01757414 -110.04167953 113.62667401 -110.06082257 112.23600379 C-110.2104802 100.57407697 -110.2104802 100.57407697 -105.87732124 95.53920937 C-104.66504247 94.38121032 -103.4295125 93.24665741 -102.16392517 92.14717102 C-101.41253863 91.35425691 -100.6611521 90.56134279 -99.88699627 89.74440098 C-99.22498116 89.08200885 -98.56296606 88.41961672 -97.88088989 87.7371521 C-97.10846954 86.96191193 -96.33604919 86.18667175 -95.54022217 85.38793945 C-94.71761398 84.5673555 -93.8950058 83.74677155 -93.04747009 82.90132141 C-92.16208557 82.01418457 -91.27670105 81.12704773 -90.36448669 80.21302795 C-87.9596852 77.80460487 -85.55268873 75.39842031 -83.14448333 72.99340367 C-80.61750128 70.46897036 -78.09297907 67.94207895 -75.5680542 65.41558838 C-71.33593666 61.18165845 -67.10173 56.94982639 -62.86631775 52.7191925 C-57.96839573 47.82673245 -53.07411492 42.93065194 -48.18166846 38.03271681 C-43.9727537 33.8192695 -39.76190033 29.60776706 -35.54940873 25.39789575 C-33.03665418 22.88670047 -30.52458097 20.37483363 -28.01425743 17.86120796 C-25.22349464 15.0670295 -22.42867131 12.27693506 -19.63340759 9.48725891 C-18.80067825 8.65250534 -17.96794891 7.81775177 -17.10998535 6.95770264 C-16.35166412 6.20220123 -15.5933429 5.44669983 -14.81204224 4.66830444 C-13.82184727 3.67867502 -13.82184727 3.67867502 -12.81164837 2.66905308 C-9.0715072 -0.78544325 -4.80783023 -0.00097531 0 0 Z " fill="#59A9E6" transform="translate(181.16392517089844,15.852828979492188)"/>
<path d="M0 0 C1.4426243 -0.00551503 1.4426243 -0.00551503 2.91439253 -0.01114148 C6.1577418 -0.02221068 9.40105907 -0.02602769 12.64442444 -0.02983093 C14.96181847 -0.03609332 17.27921149 -0.04273992 19.59660339 -0.04974365 C25.90900221 -0.06717851 32.22139343 -0.07771298 38.53381038 -0.08594918 C42.47742199 -0.09109588 46.42103124 -0.09717187 50.36464119 -0.10346031 C61.28752187 -0.12033656 72.21040047 -0.13496943 83.1332922 -0.14220905 C85.96887145 -0.14411891 88.80445069 -0.14603924 91.64002991 -0.147995 C92.69716883 -0.14872061 92.69716883 -0.14872061 93.7756641 -0.14946087 C105.17834204 -0.15775137 116.58091474 -0.18306929 127.98354679 -0.21557567 C139.69624386 -0.24869288 151.40888756 -0.26666223 163.12163168 -0.26985329 C169.69540496 -0.27220306 176.26901211 -0.2811537 182.84274101 -0.30631447 C189.03235322 -0.3296207 195.22169026 -0.33381791 201.41133499 -0.32355309 C203.6788188 -0.32305818 205.94631626 -0.32936511 208.21375847 -0.34310913 C223.6650949 -0.43149737 236.07948882 -0.07603491 247.83607483 11.14717102 C258.27525829 22.08247409 259.42834563 33.83310213 259.3440094 48.2648468 C259.34862408 49.99067268 259.35498079 51.71649463 259.36291838 53.44230843 C259.37955692 58.16218471 259.37139031 62.88173587 259.3589735 67.60161304 C259.34990287 72.7005409 259.36390272 77.79941384 259.37489319 82.89833069 C259.3926615 92.87820241 259.38884593 102.85795366 259.37724262 112.83783007 C259.36820195 120.95008869 259.36698706 129.06231359 259.37133789 137.17457581 C259.37195082 138.33001046 259.37256375 139.48544512 259.37319526 140.67589295 C259.37447419 143.02327904 259.37577104 145.37066512 259.37708563 147.7180512 C259.38848648 169.71944083 259.37538546 191.72076376 259.35388416 213.72214246 C259.33601365 232.59236767 259.33911789 251.46249446 259.3575592 270.3327179 C259.37897463 292.25642708 259.38738789 314.18007782 259.37511015 336.10379601 C259.37383598 338.44245274 259.3725785 340.78110948 259.37133789 343.11976624 C259.37041224 344.84567433 259.37041224 344.84567433 259.36946788 346.60644925 C259.36601701 354.70713463 259.37183769 362.80778289 259.3812561 370.90846252 C259.3924849 380.7831135 259.38941743 390.65763732 259.36813313 400.53227377 C259.35763466 405.56859681 259.35348045 410.60470798 259.36672974 415.64102936 C259.37868427 420.25503525 259.37204068 424.86863369 259.35081953 429.48260283 C259.34636643 431.14799974 259.34859057 432.81343136 259.35832268 434.47880578 C259.43166341 448.07637374 257.55493921 458.96642001 247.83607483 469.14717102 C238.23522007 478.31244825 227.96192325 480.75581254 214.97035217 480.65510559 C213.7191477 480.66134555 212.46794323 480.66758552 211.17882347 480.67401457 C207.73588247 480.69058982 204.29338949 480.68251615 200.85044765 480.67006969 C197.1257581 480.66097262 193.40114248 480.67501188 189.6764679 480.68598938 C182.39169019 480.70372978 175.10707781 480.69995468 167.82229376 480.68833882 C161.89920037 480.67928707 155.97615314 480.67808801 150.05305481 480.68243408 C148.78616351 480.68335348 148.78616351 480.68335348 147.49367845 480.68429145 C145.77763636 480.68557042 144.06159427 480.68686727 142.34555221 480.68818182 C126.27288681 480.69957449 110.20031282 480.68649455 94.12766242 480.66498035 C80.35138434 480.64711056 66.5752411 480.65021503 52.79896545 480.6686554 C36.78187403 480.69008533 20.76486263 480.69847598 4.74775887 480.68620634 C3.03820421 480.68493221 1.32864953 480.68367473 -0.38090515 480.68243408 C-1.2219302 480.68181698 -2.06295524 480.68119988 -2.92946589 480.68056408 C-8.84205023 480.67711754 -14.75458359 480.68292446 -20.66716003 480.69235229 C-27.87750842 480.70359729 -35.08768273 480.70047988 -42.2980113 480.67922932 C-45.97338148 480.66875237 -49.64846194 480.66453924 -53.32382965 480.67782593 C-57.31553698 480.69203743 -61.30651955 480.67501277 -65.29820251 480.65510559 C-66.44928812 480.66402848 -67.60037373 480.67295136 -68.78634071 480.68214464 C-80.41023821 480.56998496 -89.70477637 477.22253991 -98.16392517 469.14717102 C-107.84535433 459.00563434 -109.76677875 448.27221193 -109.69204712 434.6288147 C-109.69881651 433.18545849 -109.70731248 431.74210955 -109.71737033 430.29877251 C-109.73976064 426.35981766 -109.73745941 422.42121658 -109.73080099 418.48221815 C-109.72791491 414.22382235 -109.74800606 409.96552311 -109.76495361 405.70716858 C-109.7942456 397.37666472 -109.8016051 389.04628208 -109.80037811 380.71573202 C-109.79954461 373.9449755 -109.8054184 367.1742572 -109.8160038 360.40350914 C-109.84865462 339.10574424 -109.85767324 317.80809713 -109.84891406 296.51031085 C-109.84292716 279.71302433 -109.87336188 262.91602923 -109.92053678 246.1188154 C-109.96862709 228.86085517 -109.99071382 211.60303535 -109.98522598 194.34500664 C-109.98264945 184.65994873 -109.99063865 174.97517033 -110.02629662 165.29017067 C-110.05640061 157.04907279 -110.0621948 148.8084001 -110.0364876 140.56727973 C-110.02405853 136.36349557 -110.02288364 132.16051091 -110.0521965 127.95679283 C-110.07875222 124.10681705 -110.07286257 120.25829029 -110.04136655 116.40836432 C-110.03564091 115.01757414 -110.04167953 113.62667401 -110.06082257 112.23600379 C-110.2104802 100.57407697 -110.2104802 100.57407697 -105.87732124 95.53920937 C-104.66504247 94.38121032 -103.4295125 93.24665741 -102.16392517 92.14717102 C-101.41253863 91.35425691 -100.6611521 90.56134279 -99.88699627 89.74440098 C-99.22498116 89.08200885 -98.56296606 88.41961672 -97.88088989 87.7371521 C-97.10846954 86.96191193 -96.33604919 86.18667175 -95.54022217 85.38793945 C-94.71761398 84.5673555 -93.8950058 83.74677155 -93.04747009 82.90132141 C-92.16208557 82.01418457 -91.27670105 81.12704773 -90.36448669 80.21302795 C-87.9596852 77.80460487 -85.55268873 75.39842031 -83.14448333 72.99340367 C-80.61750128 70.46897036 -78.09297907 67.94207895 -75.5680542 65.41558838 C-71.33593666 61.18165845 -67.10173 56.94982639 -62.86631775 52.7191925 C-57.96839573 47.82673245 -53.07411492 42.93065194 -48.18166846 38.03271681 C-43.9727537 33.8192695 -39.76190033 29.60776706 -35.54940873 25.39789575 C-33.03665418 22.88670047 -30.52458097 20.37483363 -28.01425743 17.86120796 C-25.22349464 15.0670295 -22.42867131 12.27693506 -19.63340759 9.48725891 C-18.80067825 8.65250534 -17.96794891 7.81775177 -17.10998535 6.95770264 C-16.35166412 6.20220123 -15.5933429 5.44669983 -14.81204224 4.66830444 C-13.82184727 3.67867502 -13.82184727 3.67867502 -12.81164837 2.66905308 C-9.0715072 -0.78544325 -4.80783023 -0.00097531 0 0 Z M2.83607483 16.14717102 C2.83464981 17.08962677 2.83322479 18.03208252 2.83175659 19.00309753 C2.81503152 27.91819929 2.77209058 36.8328478 2.70398426 45.74770927 C2.66980505 50.33014751 2.64461847 54.91225557 2.64051819 59.49482727 C2.63621567 63.92367165 2.60759253 68.35177234 2.56264305 72.78038406 C2.54973011 74.46347331 2.54533821 76.14665185 2.54992104 77.82978439 C2.57080115 87.83389781 2.40624454 96.83544373 -4.5708313 104.74137878 C-10.28306875 109.96802292 -16.50995533 111.59506933 -24.02696228 111.57954407 C-24.7790094 111.58973572 -25.53105652 111.59992737 -26.30589294 111.61042786 C-28.76776238 111.64038915 -31.22924166 111.6497976 -33.69126892 111.65888977 C-35.40763627 111.67574902 -37.12399137 111.69390094 -38.84033203 111.71328735 C-43.33979971 111.76065829 -47.83921769 111.79055092 -52.33885193 111.81672668 C-56.93754385 111.84659756 -61.53606478 111.89310539 -66.1346283 111.93818665 C-75.14430423 112.02407278 -84.1540155 112.09148318 -93.16392517 112.14717102 C-93.27839051 154.39914977 -93.3664842 196.65111062 -93.41925182 238.90321373 C-93.42550529 243.89241069 -93.43197691 248.88160733 -93.43858337 253.87080383 C-93.43989493 254.86405545 -93.44120648 255.85730706 -93.44255777 256.88065721 C-93.46430933 272.95943362 -93.5037295 289.03812057 -93.54968915 305.11684392 C-93.59646071 321.6173277 -93.62422205 338.11776465 -93.63436764 354.618312 C-93.64122534 364.79858096 -93.66287813 374.97859705 -93.70350751 385.15878816 C-93.72995448 392.14145273 -93.73792173 399.12398672 -93.73143206 406.10669772 C-93.7282322 410.13433995 -93.73310799 414.16154055 -93.75995255 418.18910408 C-93.78437841 421.88083817 -93.78545324 425.57183586 -93.76841965 429.26360466 C-93.76532412 431.22268503 -93.78680561 433.1817574 -93.80933172 435.14071071 C-93.73423977 444.0405012 -91.91364485 450.71568412 -86.10142517 457.58467102 C-85.46205017 458.10029602 -84.82267517 458.61592102 -84.16392517 459.14717102 C-83.20486267 459.95154602 -83.20486267 459.95154602 -82.22642517 460.77217102 C-78.22425028 463.44028761 -74.69098019 464.39687428 -69.90702534 464.40723324 C-68.86170181 464.41429883 -67.81637828 464.42136442 -66.73937827 464.42864412 C-65.59737014 464.42622904 -64.455362 464.42381395 -63.27874756 464.42132568 C-62.06054894 464.42656236 -60.84235031 464.43179904 -59.58723658 464.43719441 C-56.20870237 464.44960396 -52.83037628 464.45303787 -49.45183361 464.4525975 C-45.8068234 464.45424652 -42.16185102 464.4673147 -38.51686096 464.47879028 C-30.54773203 464.50163363 -22.57862974 464.50956029 -14.60947251 464.51461673 C-9.63181236 464.51787475 -4.65415992 464.52439791 0.32349586 464.53161812 C14.10995707 464.55118378 27.8964111 464.56758799 41.68288708 464.57049465 C42.56501162 464.57068222 43.44713615 464.57086979 44.35599174 464.57106305 C46.14421674 464.57142929 47.93244173 464.57179299 49.72066673 464.57215416 C50.60832416 464.57233697 51.49598158 464.57251978 52.41053772 464.57270813 C53.74365253 464.57297895 53.74365253 464.57297895 55.10369895 464.57325525 C69.50088028 464.57679603 83.89791196 464.60381257 98.2950414 464.64120602 C113.08259827 464.67930557 127.87008092 464.69865225 142.65768796 464.69895416 C150.95787335 464.69953839 159.25788025 464.70800782 167.55801964 464.73695183 C174.62654879 464.76148789 181.69483437 464.76873374 188.76339462 464.7537043 C192.36779577 464.74654417 195.97171617 464.74735317 199.57606316 464.7701149 C203.48958045 464.7945915 207.40241532 464.78004362 211.315979 464.76190186 C212.44683353 464.77510182 213.57768806 464.78830179 214.7428109 464.80190176 C222.84509971 464.71624716 229.64712011 462.98907255 235.75005883 457.39175981 C241.11770872 451.68562636 243.20996142 445.64666348 243.21639156 437.8894434 C243.22338144 436.84004081 243.22338144 436.84004081 243.23051253 435.76943818 C243.2424379 433.43145672 243.23307695 431.09405904 243.22375488 428.756073 C243.22792888 427.06043661 243.23340676 425.36480302 243.24007469 423.66917461 C243.25453929 419.01433244 243.2502814 414.35966717 243.24290788 409.70481527 C243.23818106 404.68290819 243.25068174 399.66103966 243.26092529 394.6391449 C243.27812794 384.80279658 243.27895029 374.96651211 243.27371239 365.13015265 C243.26967231 357.1360064 243.27111232 349.14187903 243.27646065 341.14773369 C243.27720907 340.01031843 243.27795749 338.87290317 243.27872859 337.70102079 C243.28026006 335.39043037 243.2817984 333.07983996 243.28334356 330.76924955 C243.29707382 309.09751513 243.29162713 287.42581681 243.28015835 265.75408321 C243.27022463 245.92382696 243.28316813 226.093664 243.30709254 206.26342214 C243.33146946 185.90484877 243.34109492 165.54631888 243.33443981 145.18773121 C243.33094457 133.75665285 243.33319987 122.32564626 243.35069084 110.89457893 C243.36539517 101.1639462 243.36607136 91.43343576 243.34861993 81.70280547 C243.34009315 76.7377608 243.33800136 71.77293478 243.35327148 66.80790138 C243.36707844 62.26236308 243.36240693 57.71723157 243.34303225 53.17171704 C243.33925966 51.52778525 243.34223036 49.88382119 243.3526439 48.23991806 C243.4084286 38.75910197 243.33874441 31.4917263 236.97669983 23.94013977 C236.04084045 23.14543274 236.04084045 23.14543274 235.08607483 22.33467102 C234.47248108 21.79197571 233.85888733 21.2492804 233.22669983 20.69013977 C226.83067384 16.56198574 220.9377555 15.70858544 213.52198792 15.78640747 C212.616771 15.7838442 211.71155408 15.78128092 210.77890635 15.77863997 C207.76327273 15.7737214 204.74814625 15.79016321 201.7325592 15.80659485 C199.56391919 15.80744154 197.39527831 15.80696516 195.22663879 15.80526733 C189.3511912 15.80440759 183.47592783 15.82203018 177.60052299 15.84298921 C171.45594596 15.86175935 165.31136458 15.86350672 159.16676331 15.86706543 C147.5363854 15.87638488 135.90609221 15.90099739 124.27575159 15.9311139 C111.03278279 15.96466095 97.78980992 15.9811447 84.5468092 15.9962002 C57.30985079 16.02754697 30.07296756 16.08030561 2.83607483 16.14717102 Z " fill="#000000" transform="translate(181.16392517089844,15.852828979492188)"/>
<path d="M0 0 C1.73618591 -0.00006042 1.73618591 -0.00006042 3.50744629 -0.00012207 C5.95179684 0.00523347 8.39614694 0.02281732 10.84033203 0.05175781 C14.58028833 0.09359939 18.31844293 0.09282635 22.05859375 0.0859375 C24.43490834 0.09643055 26.81121365 0.10936926 29.1875 0.125 C30.3053186 0.12520142 31.42313721 0.12540283 32.5748291 0.12561035 C34.14170471 0.14947815 34.14170471 0.14947815 35.74023438 0.17382812 C36.6555896 0.18224731 37.57094482 0.1906665 38.51403809 0.19934082 C41.63433226 0.676399 43.54257635 1.76301627 46.09375 3.59375 C47.47683781 6.35992563 47.20585196 8.60393 47.19140625 11.6953125 C47.18818359 12.90703125 47.18496094 14.11875 47.18164062 15.3671875 C47.17326172 16.63820312 47.16488281 17.90921875 47.15625 19.21875 C47.14948242 21.136875 47.14948242 21.136875 47.14257812 23.09375 C47.13076203 26.26046292 47.11428815 29.42708356 47.09375 32.59375 C47.80927536 32.58708817 48.52480072 32.58042633 49.26200867 32.57356262 C56.01511886 32.51337615 62.76815386 32.46773743 69.52147198 32.43831348 C72.9931911 32.42267757 76.46468803 32.40147788 79.9362793 32.36743164 C83.93019712 32.32850937 87.92388263 32.31402371 91.91796875 32.30078125 C93.16084152 32.28529739 94.40371429 32.26981354 95.68424988 32.25386047 C96.84507584 32.25363388 98.00590179 32.25340729 99.2019043 32.25317383 C100.73079536 32.24318108 100.73079536 32.24318108 102.29057312 32.23298645 C105.56605388 32.65453461 107.44232323 33.65590722 110.09375 35.59375 C111.68381531 38.77388063 111.27792077 42.21345657 111.296875 45.70703125 C111.30257507 46.51359665 111.30827515 47.32016205 111.31414795 48.15116882 C111.32360195 49.86012458 111.33013352 51.5690986 111.33398438 53.27807617 C111.3436732 55.88558041 111.374685 58.49229078 111.40625 61.09960938 C111.41278185 62.76041199 111.41803161 64.42122024 111.421875 66.08203125 C111.4342218 66.85928055 111.4465686 67.63652985 111.45928955 68.43733215 C111.44069428 72.98490483 111.01725081 76.03271364 108.09375 79.59375 C105.32809618 80.51563461 103.71091298 80.71160222 100.86328125 80.69140625 C100.06083984 80.68818359 99.25839844 80.68496094 98.43164062 80.68164062 C97.59826172 80.67326172 96.76488281 80.66488281 95.90625 80.65625 C95.06126953 80.65173828 94.21628906 80.64722656 93.34570312 80.64257812 C91.26168845 80.63080403 89.17771023 80.6128689 87.09375 80.59375 C87.09651538 81.21789638 87.09928076 81.84204275 87.10212994 82.48510265 C87.1683959 97.67510191 87.21803352 112.8650568 87.24918652 128.05516338 C87.26465249 135.40100484 87.28573676 142.74674979 87.32006836 150.0925293 C87.34997909 156.49544919 87.36932697 162.89829918 87.37601548 169.301287 C87.37992494 172.69134507 87.38910683 176.08120317 87.41094017 179.47119713 C87.43266456 183.2565543 87.43571893 187.04149498 87.43432617 190.8269043 C87.445112 191.94971802 87.45589783 193.07253174 87.4670105 194.22937012 C87.46288651 195.26277023 87.45876251 196.29617035 87.45451355 197.36088562 C87.45727893 198.25594661 87.46004431 199.1510076 87.46289349 200.07319164 C87.00529619 203.19772376 85.97247732 205.07127925 84.09375 207.59375 C81.02397173 208.61700942 78.92619355 208.72435974 75.71070862 208.73419189 C74.59328278 208.73990204 73.47585693 208.74561218 72.3245697 208.75149536 C71.09799149 208.75261322 69.87141327 208.75373108 68.60766602 208.75488281 C67.31642822 208.75984772 66.02519043 208.76481262 64.69482422 208.76992798 C61.15145838 208.78304322 57.60811148 208.78949493 54.06472516 208.79393864 C51.85136933 208.79687008 49.63801868 208.80097497 47.42466545 208.80544281 C40.50058598 208.8191139 33.57651834 208.82878311 26.6524263 208.8326447 C18.65730038 208.83712811 10.66234519 208.85469063 2.6672712 208.8836453 C-3.51199744 208.90524807 -9.69121798 208.91534819 -15.87052399 208.91668582 C-19.5617387 208.91773464 -23.25279283 208.92365879 -26.94396782 208.94150543 C-31.05967486 208.96101819 -35.17502337 208.9567028 -39.29077148 208.95019531 C-40.51532547 208.9594101 -41.73987946 208.96862488 -43.00154114 208.9781189 C-44.68190964 208.96976517 -44.68190964 208.96976517 -46.39622498 208.96124268 C-47.85603114 208.96344252 -47.85603114 208.96344252 -49.34532833 208.9656868 C-52.37207321 208.52609592 -53.72267524 207.70921467 -55.90625 205.59375 C-56.89649164 202.62302507 -57.0296888 200.69969947 -57.02650452 197.60139465 C-57.02787918 196.57074387 -57.02925385 195.54009308 -57.03067017 194.47821045 C-57.02707489 193.34820618 -57.02347961 192.2182019 -57.01977539 191.05395508 C-57.01992142 189.86358139 -57.02006744 188.6732077 -57.0202179 187.44676208 C-57.01964022 184.18256393 -57.01462168 180.91840853 -57.00764394 177.65421891 C-57.00139664 174.24292578 -57.00080551 170.83163183 -56.99961853 167.42033386 C-56.99650928 160.96055322 -56.98830136 154.50078948 -56.97826904 148.04101628 C-56.96709531 140.68679636 -56.96159427 133.33257563 -56.95657361 125.97834933 C-56.94611842 110.85014013 -56.92852682 95.72194675 -56.90625 80.59375 C-57.46086914 80.60946045 -58.01548828 80.6251709 -58.58691406 80.64135742 C-61.10992152 80.70387862 -63.63276576 80.74279342 -66.15625 80.78125 C-67.02894531 80.80638672 -67.90164062 80.83152344 -68.80078125 80.85742188 C-75.25694754 80.93134744 -75.25694754 80.93134744 -78.453125 79.26953125 C-82.76735023 74.29425538 -81.21249604 65.1154325 -81.25634766 58.83398438 C-81.27291642 57.09393955 -81.30021889 55.35396305 -81.33837891 53.61425781 C-81.39321881 51.09925214 -81.4150286 48.58583593 -81.4296875 46.0703125 C-81.45235687 45.29620026 -81.47502625 44.52208801 -81.49838257 43.72451782 C-81.48429141 40.11175508 -80.9931845 37.7475283 -79.21069336 34.59448242 C-73.89567459 31.37641232 -68.59944449 31.9812522 -62.51171875 32.10546875 C-60.55798088 32.11608086 -60.55798088 32.11608086 -58.56477356 32.12690735 C-55.11361116 32.14593487 -51.66351261 32.19499561 -48.21276855 32.25042725 C-44.68691396 32.30171351 -41.16088627 32.32444117 -37.63476562 32.34960938 C-30.72482531 32.40312102 -23.81558883 32.48838028 -16.90625 32.59375 C-16.93243408 31.80202393 -16.95861816 31.01029785 -16.9855957 30.19458008 C-17.08969122 26.59867283 -17.154619 23.00308269 -17.21875 19.40625 C-17.26064453 18.16037109 -17.30253906 16.91449219 -17.34570312 15.63085938 C-17.4661867 6.64278433 -17.4661867 6.64278433 -15.13085938 2.26757812 C-10.15661264 -0.31445061 -5.52570921 -0.08104666 0 0 Z " fill="#000000" transform="translate(240.90625,175.40625)"/>
<path d="M0 0 C36.96 0 73.92 0 112 0 C112 36.96 112 73.92 112 112 C75.04 112 38.08 112 0 112 C0 75.04 0 38.08 0 0 Z " fill="#FF9811" transform="translate(200,256)"/>
<path d="M0 0 C52.8 0 105.6 0 160 0 C160 5.28 160 10.56 160 16 C107.2 16 54.4 16 0 16 C0 10.72 0 5.44 0 0 Z " fill="#FF9811" transform="translate(176,224)"/>
<path d="M0 0 C52.8 0 105.6 0 160 0 C160 5.28 160 10.56 160 16 C107.2 16 54.4 16 0 16 C0 10.72 0 5.44 0 0 Z " fill="#000000" transform="translate(224,112)"/>
<path d="M0 0 C2.64 0 5.28 0 8 0 C8.04898438 1.25296875 8.09796875 2.5059375 8.1484375 3.796875 C8.22348583 5.44793821 8.29903277 7.09897881 8.375 8.75 C8.4059375 9.575 8.436875 10.4 8.46875 11.25 C8.50742188 12.04921875 8.54609375 12.8484375 8.5859375 13.671875 C8.6173584 14.4050293 8.6487793 15.13818359 8.68115234 15.89355469 C9.04357812 18.2878959 9.73647048 19.93995853 11 22 C13.29308963 23.14654482 14.79909656 23.19729117 17.3515625 23.31640625 C18.20234375 23.35830078 19.053125 23.40019531 19.9296875 23.44335938 C20.81914062 23.48267578 21.70859375 23.52199219 22.625 23.5625 C23.5221875 23.60568359 24.419375 23.64886719 25.34375 23.69335938 C27.56234283 23.79956861 29.7810488 23.90161194 32 24 C32.00331015 24.62506817 32.00662029 25.25013634 32.01003075 25.89414597 C32.09123676 41.10058938 32.18332128 56.30692461 32.28752708 71.51322556 C32.33765758 78.86686878 32.38410042 86.22050082 32.421875 93.57421875 C32.4548071 99.98341504 32.49464501 106.39252475 32.54279006 112.80162549 C32.56804301 116.19547226 32.58982779 119.58926169 32.60334396 122.98317719 C32.62016474 126.77113835 32.64919033 130.55882032 32.68115234 134.34667969 C32.68331253 135.47308868 32.68547272 136.59949768 32.68769836 137.76004028 C32.69886185 138.79206573 32.71002533 139.82409119 32.7215271 140.88739014 C32.72705786 141.78337292 32.73258862 142.6793557 32.73828697 143.60248947 C33.0207601 146.19017993 33.60847398 147.81023222 35 150 C37.40294187 151.20147094 38.92200516 151.13774949 41.60635376 151.15821838 C42.5767308 151.1680072 43.54710785 151.17779602 44.54689026 151.18788147 C45.61503464 151.19363693 46.68317902 151.1993924 47.78369141 151.20532227 C48.90564407 151.21522186 50.02759674 151.22512146 51.18354797 151.23532104 C54.90619774 151.26700527 58.62886028 151.29172084 62.3515625 151.31640625 C64.92703592 151.3369698 67.50250592 151.3579661 70.07797241 151.37937927 C76.17297142 151.42900595 82.26798865 151.4742552 88.36303651 151.51740164 C95.30131344 151.56676018 102.23954279 151.62168342 109.17777371 151.67708123 C123.45180447 151.79092615 137.72588165 151.89775972 152 152 C152 154.64 152 157.28 152 160 C109.76 160 67.52 160 24 160 C24 117.76 24 75.52 24 32 C16.08 32 8.16 32 0 32 C0 21.44 0 10.88 0 0 Z " fill="#3C99E1" transform="translate(152,232)"/>
<path d="M0 0 C0.06958568 7.99740886 0.12285447 15.99469069 0.15543652 23.99232769 C0.17107623 27.70617574 0.19228309 31.41981628 0.22631836 35.13354492 C0.25897295 38.71916041 0.27686576 42.30457662 0.28463173 45.89032936 C0.29016435 47.25665231 0.30096836 48.62296465 0.31719017 49.9892025 C0.33904275 51.90634857 0.34022607 53.82369622 0.34057617 55.7409668 C0.35056892 57.37644722 0.35056892 57.37644722 0.36076355 59.04496765 C-0.05298263 62.43398336 -0.92958529 64.30195937 -3 67 C-6.25371545 68.08457182 -8.6089932 68.12046857 -12.03198242 68.11352539 C-13.27304245 68.11344986 -14.51410248 68.11337433 -15.79277039 68.11329651 C-17.14700358 68.10818991 -18.50123637 68.10297391 -19.85546875 68.09765625 C-21.24123585 68.09579083 -22.62700361 68.09436751 -24.01277161 68.09336853 C-27.6574791 68.0895531 -31.30214665 68.07973113 -34.94683838 68.06866455 C-38.66702738 68.0584295 -42.38722285 68.05386642 -46.10742188 68.04882812 C-53.40496611 68.03810798 -60.70247746 68.02104325 -68 68 C-64.09706833 63.33166493 -60.04489709 58.89956108 -55.73510742 54.60571289 C-55.14086975 54.0097229 -54.54663208 53.41373291 -53.93438721 52.79968262 C-51.99390092 50.85483861 -50.04983234 48.91362332 -48.10546875 46.97265625 C-46.74865861 45.61517186 -45.3919969 44.25753911 -44.03547668 42.89976501 C-41.20536679 40.06818687 -38.37347085 37.23841064 -35.5402832 34.40991211 C-31.90055409 30.7759126 -28.26537666 27.13739805 -24.63149548 23.49755192 C-21.83760037 20.70005548 -19.04134311 17.90492998 -16.24434853 15.11053276 C-14.90191461 13.76876761 -13.56022778 12.4262546 -12.21928978 11.08299446 C-10.35456721 9.21574888 -8.48669832 7.35171057 -6.61791992 5.48852539 C-6.06054642 4.92912766 -5.50317291 4.36972992 -4.9289093 3.79338074 C-1.11426905 0 -1.11426905 0 0 0 Z " fill="#1D80CD" transform="translate(168,44)"/>
<path d="M0 0 C36.96 0 73.92 0 112 0 C112 5.28 112 10.56 112 16 C75.04 16 38.08 16 0 16 C0 10.72 0 5.44 0 0 Z " fill="#000000" transform="translate(272,80)"/>
<path d="M0 0 C5.28 0 10.56 0 16 0 C16 26.4 16 52.8 16 80 C10.72 80 5.44 80 0 80 C0 53.6 0 27.2 0 0 Z " fill="#000000" transform="translate(280,272)"/>
<path d="M0 0 C5.28 0 10.56 0 16 0 C16 26.4 16 52.8 16 80 C10.72 80 5.44 80 0 80 C0 53.6 0 27.2 0 0 Z " fill="#000000" transform="translate(248,272)"/>
<path d="M0 0 C5.28 0 10.56 0 16 0 C16 26.4 16 52.8 16 80 C10.72 80 5.44 80 0 80 C0 53.6 0 27.2 0 0 Z " fill="#000000" transform="translate(216,272)"/>
<path d="M0 0 C36.96 0 73.92 0 112 0 C112 2.64 112 5.28 112 8 C75.04 8 38.08 8 0 8 C0 5.36 0 2.72 0 0 Z " fill="#EE8700" transform="translate(200,256)"/>
<path d="M0 0 C22.77 0 45.54 0 69 0 C67.09861468 3.80277064 66.42744325 4.88304975 63 7 C59.68426793 8.07950669 56.60249184 8.1209455 53.12988281 8.11352539 C51.94896057 8.11344986 50.76803833 8.11337433 49.55133057 8.11329651 C48.28142273 8.10813522 47.01151489 8.10297394 45.703125 8.09765625 C43.74726471 8.09553383 43.74726471 8.09553383 41.75189209 8.09336853 C38.29296945 8.08955867 34.83408909 8.07974151 31.37518311 8.06866455 C27.84257581 8.05841746 24.30996164 8.05386385 20.77734375 8.04882812 C13.85154518 8.03811782 6.92577462 8.02105984 0 8 C0 5.36 0 2.72 0 0 Z " fill="#3D9AE2" transform="translate(88,128)"/>
<path d="M0 0 C10.56 0 21.12 0 32 0 C32 5.28 32 10.56 32 16 C21.44 16 10.88 16 0 16 C0 10.72 0 5.44 0 0 Z " fill="#EE8700" transform="translate(240,192)"/>
<path d="M0 0 C10.56 0 21.12 0 32 0 C32 5.28 32 10.56 32 16 C21.44 16 10.88 16 0 16 C0 10.72 0 5.44 0 0 Z " fill="#000000" transform="translate(224,80)"/>
<path d="M0 0 C2.64 0 5.28 0 8 0 C8 2.64 8 5.28 8 8 C5.36 8 2.72 8 0 8 C0 5.36 0 2.72 0 0 Z " fill="#3D9AE2" transform="translate(216,200)"/>
</svg>
