<?xml version="1.0" encoding="UTF-8"?>
<svg version="1.1" xmlns="http://www.w3.org/2000/svg" width="512" height="512">
<path d="M0 0 C21.60029646 13.81902564 40.29893958 31.36165882 58.06624889 49.72717953 C59.09827317 50.79083902 59.09827317 50.79083902 60.15114641 51.87598658 C91.09389768 83.88473658 121.80917913 118.04575784 121.08283806 165.10641861 C119.42131791 205.26350099 119.42131791 205.26350099 110.87461376 216.06577206 C108.77464775 217.60847046 106.97073151 217.80908075 104.39828014 218.15686703 C103.40699108 218.30156429 102.41570202 218.44626156 101.39437389 218.59534359 C100.33734264 218.74197445 99.28031139 218.88860531 98.19124889 219.03967953 C72.35401007 223.02586471 50.44163865 232.9210214 31.37874889 251.16467953 C30.62980358 251.83885921 29.88085827 252.5130389 29.10921764 253.20764828 C8.31093447 272.62180753 -2.64066726 302.68569609 -3.87125111 330.65686703 C-4.16546985 342.9288132 -2.5604389 354.7516255 0.89046764 366.54358578 C1.44042551 369.49575958 1.31219403 371.31696113 0.37874889 374.16467953 C-0.78728485 375.78522587 -0.78728485 375.78522587 -2.62125111 377.16467953 C-5.3563633 377.55782032 -5.3563633 377.55782032 -8.73424244 377.58359432 C-10.01391392 377.60046795 -11.2935854 377.61734158 -12.6120348 377.63472652 C-14.03348182 377.63833717 -15.45492966 377.64163785 -16.87637806 377.64466 C-18.37133942 377.65858663 -19.86628944 377.67377983 -21.36122608 377.69014645 C-25.42795574 377.7306409 -29.49458495 377.75219168 -33.56147122 377.76958513 C-36.9627711 377.78597972 -40.36396955 377.81192763 -43.76520699 377.83798897 C-51.80156649 377.89956166 -59.83791637 377.94623466 -67.87442493 377.9830389 C-76.13878138 378.02108166 -84.40276645 378.08085031 -92.66689807 378.15211284 C-99.77619331 378.2128123 -106.88549855 378.26130758 -113.99494809 378.29992306 C-118.2342322 378.32297332 -122.47337733 378.35011445 -126.71255398 378.38836956 C-130.71065394 378.42378784 -134.70855701 378.44374558 -138.70680141 378.45248127 C-140.16354319 378.45807438 -141.62027712 378.46875783 -143.07693577 378.4852953 C-161.84948986 378.69014367 -178.55164539 374.74054951 -192.4847765 361.71008968 C-202.13752694 351.98683333 -208.73286735 337.85665223 -208.75267887 324.08515739 C-208.75652002 323.07938461 -208.76036116 322.07361183 -208.7643187 321.03736109 C-208.76345222 319.93951762 -208.76258574 318.84167415 -208.761693 317.71056271 C-208.76466412 316.53869429 -208.76763525 315.36682588 -208.7706964 314.1594463 C-208.77786808 310.91024867 -208.78055506 307.66108328 -208.78129387 304.41187894 C-208.78314735 300.90590441 -208.79069627 297.39994127 -208.79742908 293.89397335 C-208.81100217 286.2284205 -208.8170358 278.56287289 -208.82143974 270.89731002 C-208.82420443 266.10791809 -208.82844225 261.31852818 -208.83294392 256.52913761 C-208.84513626 243.26081214 -208.85543498 229.99248828 -208.85881901 216.72415733 C-208.85903857 215.87517964 -208.85925814 215.02620195 -208.85948436 214.15149767 C-208.85970264 213.30051866 -208.85992092 212.44953965 -208.86014581 211.5727734 C-208.86058927 209.84844458 -208.86103583 208.12411576 -208.86148548 206.39978695 C-208.86170691 205.54446513 -208.86192834 204.68914331 -208.86215648 203.80790264 C-208.86610179 189.95853676 -208.88354782 176.10922357 -208.906845 162.25987803 C-208.93058751 148.03054355 -208.94302221 133.80123548 -208.94418693 119.57188088 C-208.94510217 111.58690461 -208.95081615 103.60199699 -208.96900654 95.61703968 C-208.98444684 88.81541131 -208.98950497 82.01387278 -208.98126844 75.2122302 C-208.97737551 71.74540993 -208.97822449 68.27877037 -208.99232578 64.81197262 C-209.00506332 61.04372159 -208.99915799 57.27593008 -208.98874378 53.50768185 C-208.99680019 52.42545343 -209.00485659 51.34322502 -209.01315713 50.22820181 C-208.91316187 34.6894661 -203.69192199 19.43492781 -192.77750111 8.12171078 C-153.41181292 -27.60693013 -43.66003031 -26.75664488 0 0 Z " fill="#396BE8" transform="translate(271.6212511062622,49.835320472717285)"/>
<path d="M0 0 C1.14275391 0.99966797 1.14275391 0.99966797 2.30859375 2.01953125 C17.94237843 16.62370793 26.92544521 38.18718784 28.203125 59.3671875 C28.52666207 83.57854455 21.17145735 104.73913311 5 123 C4.44699219 123.63679687 3.89398438 124.27359375 3.32421875 124.9296875 C-11.18639337 140.55650055 -33.00370805 149.06024585 -53.9921875 150.15625 C-76.7203636 150.77470377 -98.81872411 143.67470222 -115.75 128.1875 C-133.21442445 111.62433305 -142.72482085 91.55946742 -144.22265625 67.41015625 C-144.80631903 43.22621583 -136.16772276 21.76730436 -120.0625 3.84375 C-88.13107479 -29.63274417 -34.1585049 -30.04837586 0 0 Z M-94 59 C-95.19389536 62.93283177 -95.44799464 64.96253872 -93.8125 68.75 C-91.26171772 71.91648835 -89.40248146 73.7965214 -85.28152466 74.39440918 C-84.24261078 74.40282837 -83.2036969 74.41124756 -82.13330078 74.41992188 C-80.36093552 74.44378967 -80.36093552 74.44378967 -78.55276489 74.46813965 C-77.2798056 74.46834106 -76.00684631 74.46854248 -74.6953125 74.46875 C-72.7275032 74.48017029 -72.7275032 74.48017029 -70.71994019 74.49182129 C-67.9442286 74.50525676 -65.16880137 74.5068397 -62.39306641 74.50097656 C-58.84637368 74.49508673 -55.30105289 74.52564322 -51.75462532 74.56609344 C-48.3598118 74.59825762 -44.96527781 74.5938541 -41.5703125 74.59375 C-40.30140167 74.61014526 -39.03249084 74.62654053 -37.72512817 74.64343262 C-30.50738458 74.74699527 -30.50738458 74.74699527 -24.21826172 71.68164062 C-21.43926004 68.3221255 -20.92243486 66.34364773 -21 62 C-22.61423812 58.26176435 -24.55416091 56.11886507 -28 54 C-30.77995174 53.53396061 -30.77995174 53.53396061 -33.86669922 53.58007812 C-35.04827606 53.56416626 -36.22985291 53.54825439 -37.44723511 53.53186035 C-38.7201944 53.53165894 -39.99315369 53.53145752 -41.3046875 53.53125 C-43.2724968 53.51982971 -43.2724968 53.51982971 -45.28005981 53.50817871 C-48.0557714 53.49474324 -50.83119863 53.4931603 -53.60693359 53.49902344 C-57.15362632 53.50491327 -60.69894711 53.47435678 -64.24537468 53.43390656 C-67.6401882 53.40174238 -71.03472219 53.4061459 -74.4296875 53.40625 C-75.69859833 53.38985474 -76.96750916 53.37345947 -78.27487183 53.35656738 C-85.22984667 53.41105007 -89.42963631 53.47492023 -94 59 Z " fill="#386BE8" transform="translate(442,320)"/>
</svg>
