<?xml version="1.0" encoding="UTF-8"?>
<svg version="1.1" xmlns="http://www.w3.org/2000/svg" width="512" height="512">
<path d="M0 0 C0.81659936 -0.00367669 1.63319872 -0.00735338 2.47454351 -0.01114148 C5.20873834 -0.02214757 7.94289513 -0.02601695 10.67710876 -0.02983093 C12.63864766 -0.03609797 14.60018538 -0.04274499 16.5617218 -0.04974365 C23.00243812 -0.07076027 29.44315461 -0.08114477 35.88389587 -0.09111023 C38.10407969 -0.09515888 40.32426338 -0.09927583 42.54444695 -0.10346031 C52.97756123 -0.12250782 63.41066846 -0.13673899 73.84379679 -0.14507228 C85.87204758 -0.15483916 97.90011408 -0.1811463 109.92829996 -0.22157317 C119.23466999 -0.25177443 128.54098731 -0.26654502 137.84740537 -0.26985329 C143.40116174 -0.27219945 148.95472113 -0.2811033 154.50842476 -0.30631447 C159.73778688 -0.3296699 164.96682336 -0.33379837 170.19622421 -0.32355309 C172.10852965 -0.32305941 174.02085152 -0.32932986 175.93310738 -0.34310913 C191.32535725 -0.44775676 204.25075258 1.24469028 216.00498962 12.14717102 C223.82395264 20.31623686 227.95650748 29.67477985 227.99591064 40.93209839 C227.99958733 41.61379166 228.00326402 42.29548493 228.00705212 42.99783558 C228.01806236 45.28142707 228.02192831 47.56497301 228.02574158 49.84858704 C228.03200838 51.48648217 228.03865537 53.12437589 228.0456543 54.76226807 C228.06667632 60.1418611 228.07705691 65.52145435 228.08702087 70.90107727 C228.09106952 72.75569613 228.09518648 74.61031484 228.09937096 76.4649334 C228.1184208 85.18144442 228.13265066 93.897947 228.14098293 102.61447483 C228.1507463 112.66124433 228.17704316 122.70779299 228.21748382 132.75448471 C228.24769832 140.52877248 228.26245697 148.30299714 228.26576394 156.07734245 C228.26810889 160.71615684 228.27699644 165.35473524 228.30222511 169.9934864 C228.32560352 174.36267786 228.32970007 178.73147961 228.31946373 183.10071754 C228.31897058 184.69738312 228.3252254 186.29406852 228.33901978 187.89067459 C228.4443727 200.8161453 226.61871011 211.1668172 217.84873962 221.14717102 C217.34729431 221.7530304 216.845849 222.35888977 216.32920837 222.98310852 C210.878054 229.05763091 202.91773769 233.64084091 194.84873962 235.14717102 C192.11494626 235.24749605 189.40646925 235.29499061 186.67260742 235.29434204 C185.84123384 235.29801873 185.00986027 235.30169542 184.15329355 235.30548352 C181.36304863 235.31651028 178.57284096 235.32036255 175.78257751 235.32417297 C173.78340029 235.33043857 171.78422423 235.33708546 169.78504944 235.34408569 C163.21383983 235.36512356 156.64263 235.37549037 150.07139587 235.38545227 C147.80697047 235.38950045 145.54254519 235.39361739 143.27812004 235.39780235 C132.63516338 235.41685633 121.99221366 235.43108485 111.34924322 235.43941432 C99.0787518 235.44917672 86.80844125 235.47546941 74.53801352 235.51591522 C65.04566233 235.54612566 55.55336283 235.56088802 46.06096452 235.56419533 C40.39593921 235.56654091 34.73110708 235.57543677 29.0661335 235.60065651 C23.73008259 235.62402731 18.3943508 235.62813428 13.05826187 235.61789513 C11.10767617 235.61740178 9.15707428 235.62366228 7.20653725 235.63745117 C-12.24897621 235.76720763 -26.66309154 231.95759383 -40.92201233 217.91853333 C-41.67877258 217.15367615 -42.43553284 216.38881897 -43.21522522 215.6007843 C-44.04760712 214.77541168 -44.87998901 213.95003906 -45.7375946 213.09965515 C-48.45586816 210.39882775 -51.15943231 207.68382319 -53.86219788 204.96748352 C-55.76205893 203.07032068 -57.66250319 201.17375658 -59.56352234 199.27775574 C-63.53275847 195.31576162 -67.49356613 191.34548887 -71.44960022 187.37031555 C-76.00640092 182.79172266 -80.57747217 178.2277572 -85.15616071 173.67106068 C-89.10864259 169.73679571 -93.05319553 165.79470848 -96.99135745 161.84610927 C-99.33414302 159.49712704 -101.68023575 157.15165408 -104.03197861 154.81163406 C-106.65236462 152.20145369 -109.25950936 149.57870961 -111.86366272 146.9523468 C-112.63256836 146.19153809 -113.401474 145.43072937 -114.19367981 144.64686584 C-122.7941315 135.91066285 -126.49705867 128.26941403 -126.45716858 115.99360657 C-126.00512411 96.91365847 -106.38096305 83.19212706 -93.83876038 70.59638977 C-93.02410309 69.77765696 -92.2094458 68.95892414 -91.37010193 68.11538124 C-87.06798602 63.79256654 -82.76271727 59.47291989 -78.45497131 55.15571594 C-74.03204458 50.7216794 -69.62093679 46.27607193 -65.21228027 41.8278532 C-61.79241483 38.3817699 -58.3636232 34.944672 -54.93241882 31.50988197 C-53.30250635 29.87512744 -51.67594647 28.23702252 -50.05296326 26.59538841 C-35.46578119 11.85086012 -21.83118282 -0.00530052 0 0 Z " fill="#FE3445" transform="translate(220.15126037597656,148.8528289794922)"/>
<path d="M0 0 C0.81659936 -0.00367669 1.63319872 -0.00735338 2.47454351 -0.01114148 C5.20873834 -0.02214757 7.94289513 -0.02601695 10.67710876 -0.02983093 C12.63864766 -0.03609797 14.60018538 -0.04274499 16.5617218 -0.04974365 C23.00243812 -0.07076027 29.44315461 -0.08114477 35.88389587 -0.09111023 C38.10407969 -0.09515888 40.32426338 -0.09927583 42.54444695 -0.10346031 C52.97756123 -0.12250782 63.41066846 -0.13673899 73.84379679 -0.14507228 C85.87204758 -0.15483916 97.90011408 -0.1811463 109.92829996 -0.22157317 C119.23466999 -0.25177443 128.54098731 -0.26654502 137.84740537 -0.26985329 C143.40116174 -0.27219945 148.95472113 -0.2811033 154.50842476 -0.30631447 C159.73778688 -0.3296699 164.96682336 -0.33379837 170.19622421 -0.32355309 C172.10852965 -0.32305941 174.02085152 -0.32932986 175.93310738 -0.34310913 C191.32535725 -0.44775676 204.25075258 1.24469028 216.00498962 12.14717102 C223.82395264 20.31623686 227.95650748 29.67477985 227.99591064 40.93209839 C227.99958733 41.61379166 228.00326402 42.29548493 228.00705212 42.99783558 C228.01806236 45.28142707 228.02192831 47.56497301 228.02574158 49.84858704 C228.03200838 51.48648217 228.03865537 53.12437589 228.0456543 54.76226807 C228.06667632 60.1418611 228.07705691 65.52145435 228.08702087 70.90107727 C228.09106952 72.75569613 228.09518648 74.61031484 228.09937096 76.4649334 C228.1184208 85.18144442 228.13265066 93.897947 228.14098293 102.61447483 C228.1507463 112.66124433 228.17704316 122.70779299 228.21748382 132.75448471 C228.24769832 140.52877248 228.26245697 148.30299714 228.26576394 156.07734245 C228.26810889 160.71615684 228.27699644 165.35473524 228.30222511 169.9934864 C228.32560352 174.36267786 228.32970007 178.73147961 228.31946373 183.10071754 C228.31897058 184.69738312 228.3252254 186.29406852 228.33901978 187.89067459 C228.4443727 200.8161453 226.61871011 211.1668172 217.84873962 221.14717102 C217.34729431 221.7530304 216.845849 222.35888977 216.32920837 222.98310852 C210.878054 229.05763091 202.91773769 233.64084091 194.84873962 235.14717102 C192.11494626 235.24749605 189.40646925 235.29499061 186.67260742 235.29434204 C185.84123384 235.29801873 185.00986027 235.30169542 184.15329355 235.30548352 C181.36304863 235.31651028 178.57284096 235.32036255 175.78257751 235.32417297 C173.78340029 235.33043857 171.78422423 235.33708546 169.78504944 235.34408569 C163.21383983 235.36512356 156.64263 235.37549037 150.07139587 235.38545227 C147.80697047 235.38950045 145.54254519 235.39361739 143.27812004 235.39780235 C132.63516338 235.41685633 121.99221366 235.43108485 111.34924322 235.43941432 C99.0787518 235.44917672 86.80844125 235.47546941 74.53801352 235.51591522 C65.04566233 235.54612566 55.55336283 235.56088802 46.06096452 235.56419533 C40.39593921 235.56654091 34.73110708 235.57543677 29.0661335 235.60065651 C23.73008259 235.62402731 18.3943508 235.62813428 13.05826187 235.61789513 C11.10767617 235.61740178 9.15707428 235.62366228 7.20653725 235.63745117 C-12.24897621 235.76720763 -26.66309154 231.95759383 -40.92201233 217.91853333 C-41.67877258 217.15367615 -42.43553284 216.38881897 -43.21522522 215.6007843 C-44.04760712 214.77541168 -44.87998901 213.95003906 -45.7375946 213.09965515 C-48.45586816 210.39882775 -51.15943231 207.68382319 -53.86219788 204.96748352 C-55.76205893 203.07032068 -57.66250319 201.17375658 -59.56352234 199.27775574 C-63.53275847 195.31576162 -67.49356613 191.34548887 -71.44960022 187.37031555 C-76.00640092 182.79172266 -80.57747217 178.2277572 -85.15616071 173.67106068 C-89.10864259 169.73679571 -93.05319553 165.79470848 -96.99135745 161.84610927 C-99.33414302 159.49712704 -101.68023575 157.15165408 -104.03197861 154.81163406 C-106.65236462 152.20145369 -109.25950936 149.57870961 -111.86366272 146.9523468 C-112.63256836 146.19153809 -113.401474 145.43072937 -114.19367981 144.64686584 C-122.7941315 135.91066285 -126.49705867 128.26941403 -126.45716858 115.99360657 C-126.00512411 96.91365847 -106.38096305 83.19212706 -93.83876038 70.59638977 C-93.02410309 69.77765696 -92.2094458 68.95892414 -91.37010193 68.11538124 C-87.06798602 63.79256654 -82.76271727 59.47291989 -78.45497131 55.15571594 C-74.03204458 50.7216794 -69.62093679 46.27607193 -65.21228027 41.8278532 C-61.79241483 38.3817699 -58.3636232 34.944672 -54.93241882 31.50988197 C-53.30250635 29.87512744 -51.67594647 28.23702252 -50.05296326 26.59538841 C-35.46578119 11.85086012 -21.83118282 -0.00530052 0 0 Z M-22.69203186 30.88374329 C-23.93604263 32.0584166 -23.93604263 32.0584166 -25.20518494 33.25682068 C-26.18912356 34.21831654 -27.17095347 35.18197266 -28.15126038 36.14717102 C-28.7447591 36.72794781 -29.33825783 37.30872459 -29.94974136 37.90710068 C-35.16791795 43.02369916 -40.33502837 48.19072906 -45.49891663 53.36201477 C-47.16360128 55.02602485 -48.82843427 56.68988654 -50.4934082 58.35360718 C-53.96195798 61.82069048 -57.42871187 65.28955671 -60.8941803 68.75971985 C-65.3429616 73.21423359 -69.79626558 77.66419472 -74.25089359 82.11286068 C-77.67979264 85.53815605 -81.1063187 88.96581724 -84.53211784 92.39421272 C-86.17449425 94.03725709 -87.81761625 95.67955651 -89.46148872 97.32110405 C-91.74730199 99.60439017 -94.02990664 101.89083533 -96.31166077 104.17817688 C-96.99366043 104.85815231 -97.6756601 105.53812775 -98.37832642 106.2387085 C-98.99631104 106.85951294 -99.61429565 107.48031738 -100.25100708 108.11993408 C-100.79017289 108.65947692 -101.3293387 109.19901976 -101.88484287 109.75491238 C-104.59435992 112.73366821 -104.68399725 115.72702844 -104.60169601 119.61155128 C-104.06609726 122.62657641 -103.17462492 123.73964408 -101.10054016 125.95927429 C-100.14290142 126.99476473 -100.14290142 126.99476473 -99.16591644 128.05117416 C-98.50107994 128.74285313 -97.83624344 129.43453209 -97.15126038 130.14717102 C-96.23923481 131.10346342 -96.23923481 131.10346342 -95.30878448 132.07907486 C-93.37637444 134.07888362 -91.4230051 136.05597307 -89.46278381 138.02851868 C-88.72840591 138.77107407 -87.99402802 139.51362946 -87.23739624 140.27868652 C-84.83148054 142.70920288 -82.42162828 145.13575396 -80.01063538 147.56123352 C-79.18127724 148.39591534 -78.3519191 149.23059715 -77.49742889 150.09057236 C-73.11133515 154.50328041 -68.72164946 158.91238287 -64.32948303 163.31904602 C-60.71077185 166.95111368 -57.09947409 170.59031452 -53.49452209 174.23603821 C-49.12096779 178.65903451 -44.73515009 183.06951279 -40.34035492 187.47140121 C-38.67605713 189.1423852 -37.0159951 190.81759984 -35.36042023 192.49722672 C-21.02759305 207.94287429 -21.02759305 207.94287429 -1.66726303 214.27859879 C-0.24387819 214.28669477 1.17954418 214.28929359 2.60295105 214.28761292 C3.78179922 214.2920696 3.78179922 214.2920696 4.9844625 214.29661632 C7.62054741 214.30529486 10.25658687 214.30681085 12.89268494 214.30830383 C14.78174944 214.31293261 16.67081301 214.31795736 18.55987549 214.323349 C23.6943092 214.33646947 28.82872983 214.34291731 33.96317768 214.34735966 C37.17140949 214.35029104 40.37963773 214.35439598 43.58786774 214.35886383 C53.6269346 214.37253802 63.6659933 214.38220498 73.70506883 214.38606572 C85.29130399 214.39054599 96.87742114 214.40809284 108.46362042 214.43706632 C117.42086696 214.45868758 126.37808031 214.46877025 135.33535266 214.47010684 C140.68439695 214.47115457 146.0333303 214.47705571 151.38234711 214.49492645 C156.41548139 214.51141468 161.44842143 214.51355893 166.4815731 214.50478745 C168.32621214 214.50401747 170.17086164 214.50835458 172.01547432 214.5182457 C174.53941086 214.53098293 177.06266127 214.52507896 179.58659363 214.5146637 C180.67397634 214.5267483 180.67397634 214.5267483 181.78332639 214.53907704 C189.44577902 214.465444 195.7119017 211.96014524 201.37608337 206.76045227 C206.18297885 201.49454291 206.96909403 195.63619023 207.00263977 188.81108093 C207.01554047 186.8555983 207.01554047 186.8555983 207.02870178 184.86061096 C207.03313671 183.41755716 207.0374351 181.97450294 207.04161072 180.53144836 C207.04951537 179.01015538 207.05778455 177.48886425 207.06639099 175.96757507 C207.09257258 170.97277101 207.10791637 165.97795873 207.12217712 160.98310852 C207.12753869 159.26095703 207.13291621 157.53880559 207.13830948 155.81665421 C207.15993396 148.65015832 207.17866862 141.48366464 207.18993187 134.31714439 C207.20615819 124.06162144 207.23930876 113.8064781 207.29633272 103.55109823 C207.33509754 96.33223739 207.35457238 89.11347779 207.35985243 81.89451563 C207.3634974 77.58709581 207.37542692 73.28008123 207.40795517 68.97277451 C207.43815083 64.9162297 207.44430716 60.86033288 207.43257141 56.80369949 C207.43235162 55.32109403 207.44057792 53.83845748 207.45822525 52.35595703 C207.56319624 43.02391956 206.96800809 34.69091796 200.33514977 27.50807762 C194.99508271 22.81617696 190.80490248 21.85088257 183.84223938 21.87301636 C182.62263061 21.86516134 182.62263061 21.86516134 181.37838328 21.85714763 C178.65019076 21.84212983 175.92218551 21.84144208 173.19395447 21.84077454 C171.23916812 21.83315406 169.28438477 21.82472675 167.3296051 21.81555176 C162.01528466 21.79358428 156.70102177 21.7848044 151.38666105 21.77972531 C148.06517192 21.7760833 144.74369789 21.76984392 141.42221451 21.76272392 C129.83049609 21.7382181 118.23882246 21.72517584 106.64707947 21.72163391 C95.84981936 21.71800151 85.05284402 21.68813009 74.25567091 21.64622933 C64.98161547 21.61150394 55.70765426 21.59608505 46.43353426 21.59538788 C40.8965584 21.5945956 35.3598723 21.58587987 29.82296371 21.55739021 C24.61078862 21.53117248 19.39914268 21.52902528 14.18693161 21.54504585 C12.2786239 21.54685759 10.37028553 21.54019456 8.46204376 21.52422714 C-3.81144463 21.42782732 -13.31650134 21.98882456 -22.69203186 30.88374329 Z " fill="#1A1A1A" transform="translate(220.15126037597656,148.8528289794922)"/>
<path d="M0 0 C2.51128672 1.51171611 4.36663785 3.42192268 6.34765625 5.56640625 C6.88982285 6.11989243 7.43198944 6.6733786 7.99058533 7.24363708 C9.70109379 8.99857554 11.38151943 10.77930579 13.0625 12.5625 C14.22402559 13.76419549 15.38742159 14.96408606 16.55273438 16.16210938 C19.3905409 19.08764986 22.201721 22.03664952 25 25 C28.71618892 23.45341196 31.01850472 21.18477542 33.80859375 18.31640625 C34.72060547 17.38892578 35.63261719 16.46144531 36.57226562 15.50585938 C38.00619514 14.03464033 39.43830837 12.56166849 40.87036133 11.08862305 C42.26221003 9.66041741 43.66034037 8.23834212 45.05859375 6.81640625 C46.30080688 5.53938843 46.30080688 5.53938843 47.56811523 4.23657227 C50.51267192 1.52850241 53.23650747 -0.77956343 57.28125 -1.28515625 C61.26251277 -0.88562812 64.22594947 -0.40714843 67.125 2.5 C69.20588055 6.38431035 69.73427883 8.33278644 68.93359375 12.60546875 C67.19843741 17.05589066 63.99406158 20.10337948 60.625 23.40576172 C58.67849851 25.31541537 56.76171581 27.253101 54.84375 29.19140625 C50.91721274 33.1493593 46.96592255 37.08154292 43 41 C44.57795915 44.89043633 47.23554381 47.47695368 50.19140625 50.3515625 C50.69671371 50.8516684 51.20202118 51.35177429 51.72264099 51.86703491 C53.33123084 53.45786943 54.94636819 55.04183084 56.5625 56.625 C58.18130238 58.21617776 59.79861821 59.80879701 61.41307068 61.40438843 C62.41640427 62.39547098 63.42239908 63.38386808 64.43128967 64.36929321 C68.98901006 68.8614418 68.98901006 68.8614418 69.01953125 72.0234375 C68.45726031 78.4099867 68.45726031 78.4099867 66.0625 81.5 C62.80550185 83.86872593 60.27473245 84.53203703 56.18896484 84.46313477 C53.49700286 83.89357734 52.36797809 82.94772251 50.3515625 81.08984375 C49.6601416 80.45481934 48.9687207 79.81979492 48.25634766 79.16552734 C44.1123333 75.18831382 40.0411588 71.14400831 36 67.0625 C35.12988281 66.18787109 34.25976562 65.31324219 33.36328125 64.41210938 C31.23986451 62.27702551 29.11883622 60.13962795 27 58 C20.36470454 63.49250091 14.41331045 69.55266092 8.40820312 75.71875 C7.64056641 76.49734375 6.87292969 77.2759375 6.08203125 78.078125 C5.39343018 78.78356445 4.7048291 79.48900391 3.99536133 80.21582031 C0.20020184 83.6093142 -2.88075797 84.44343452 -8.03125 84.328125 C-11.14316604 83.80947233 -12.85067869 82.21445226 -15 80 C-16.82925313 76.34149374 -16.88823846 72.96950705 -16 69 C-13.96985193 65.80575041 -11.40138804 63.26646723 -8.68847656 60.64160156 C-6.63846141 58.64849834 -4.62861444 56.61796805 -2.6171875 54.5859375 C1.5662172 50.3679085 5.77568788 46.17702775 10 42 C5.06704856 36.03363156 -0.29950383 30.61702915 -5.8125 25.1875 C-7.52962153 23.49579848 -9.24458282 21.80190052 -10.95703125 20.10546875 C-11.70960205 19.36449951 -12.46217285 18.62353027 -13.23754883 17.86010742 C-16.3957007 14.52696445 -16.38793964 11.69637954 -16.359375 7.26171875 C-15.78943134 3.67479071 -13.79773951 2.13161106 -11 0 C-7.46141157 -1.76929421 -3.73797186 -0.96323322 0 0 Z " fill="#FFFBFC" transform="translate(283,225)"/>
</svg>
