<?xml version="1.0" encoding="UTF-8"?>
<svg version="1.1" xmlns="http://www.w3.org/2000/svg" width="512" height="512">
<path d="M0 0 C8.50574909 5.24077456 15.33134904 12.08011575 22.34545898 19.11962891 C24.18805052 20.96540197 26.0436503 22.79737941 27.90039062 24.62890625 C29.08544515 25.81168927 30.26971782 26.99525627 31.453125 28.1796875 C32.00313675 28.7204895 32.5531485 29.2612915 33.11982727 29.81848145 C37.58825945 34.34100938 40.79803016 38.86925855 40.80859375 45.4609375 C40.83759766 46.6675 40.83759766 46.6675 40.8671875 47.8984375 C39.35829751 55.69238895 31.74344477 61.35696244 26.37011719 66.68896484 C25.34447982 67.71403746 24.31928384 68.73955187 23.29449463 69.76547241 C20.52241999 72.53811908 17.74423786 75.30457109 14.96489239 78.06992674 C12.05717367 80.96511317 9.15514624 83.86599306 6.25250244 86.76626587 C0.76008071 92.25248017 -4.73741773 97.73357776 -10.2367723 103.21284163 C-17.67129859 110.62079804 -25.0979293 118.03666103 -32.52501297 125.45207787 C-44.21987975 137.12815867 -55.92523666 148.79366494 -67.62890625 160.4609375 C-23.07890625 160.9559375 -23.07890625 160.9559375 22.37109375 161.4609375 C22.37109375 150.2409375 22.37109375 139.0209375 22.37109375 127.4609375 C26.82441599 118.55429301 30.08520867 113.12041613 39.71118164 109.84619141 C41.43949346 109.30325633 43.17148402 108.77194562 44.90625 108.25 C45.86027206 107.95493057 46.81429413 107.65986115 47.79722595 107.35585022 C50.9843578 106.37654434 54.17663772 105.41607163 57.37109375 104.4609375 C58.49418945 104.12478424 59.61728516 103.78863098 60.77441406 103.44229126 C69.31774711 100.89422066 77.87467962 98.39356544 86.43359375 95.8984375 C88.94993486 95.16233178 91.46621116 94.42600447 93.98242188 93.68945312 C99.99694825 91.93002198 106.01393929 90.17922445 112.03216553 88.43249512 C115.23484903 87.50058184 118.43520599 86.56103375 121.63525391 85.62011719 C123.51977938 85.070698 125.40437744 84.52152775 127.2890625 83.97265625 C128.12703873 83.72414413 128.96501495 83.47563202 129.8283844 83.21958923 C138.50326162 80.70930847 146.04326909 79.89210744 154.3046875 84.1484375 C161.89093016 88.96692055 165.17887679 94.83317459 167.37109375 103.4609375 C167.90520285 108.2617314 167.90358766 113.01181761 167.86557007 117.83848572 C167.86875253 119.26661272 167.87368593 120.6947367 167.88020289 122.12285239 C167.89294851 126.0199259 167.88095773 129.91657957 167.86467433 133.81362522 C167.85145578 138.02707419 167.86143132 142.24047867 167.86843872 146.45393372 C167.87849799 154.69758251 167.86727038 162.94107022 167.84873812 171.18469899 C167.82791825 180.79316374 167.82811189 190.40159412 167.82908328 200.01007719 C167.83008357 217.15966542 167.81178784 234.30917896 167.78271484 251.45874023 C167.7545464 268.08342856 167.74037322 284.70805115 167.74169922 301.33276367 C167.74177913 302.35658935 167.74185904 303.38041502 167.74194138 304.43526571 C167.74202209 305.45735561 167.7421028 306.47944551 167.74218595 307.53250784 C167.74356749 326.48133017 167.73177434 345.43012468 167.71387952 364.37893797 C167.70785921 371.06949469 167.70572186 377.76004627 167.70481491 384.45060539 C167.7034472 392.60986382 167.69447017 400.76907536 167.67614929 408.9283139 C167.66694815 413.08776557 167.66080938 417.2471575 167.66333771 421.40662003 C167.66554353 425.22058373 167.65839603 429.03441575 167.64404066 432.84835202 C167.63875081 434.86801055 167.64310705 436.88768739 167.64790475 438.90734714 C167.54084243 459.20061652 162.10225035 476.83856295 147.80859375 491.6484375 C133.02723903 506.23834204 115.48382151 510.08724258 95.35693359 509.96264648 C93.59110587 509.9664387 91.82528113 509.97194613 90.0594635 509.97901917 C85.30537732 509.99287133 80.55165719 509.98187756 75.79759169 509.96530795 C70.79976146 509.95135931 65.80195038 509.95792846 60.80410767 509.96144104 C52.41687182 509.96413495 44.02977975 509.95073656 35.64257812 509.92749023 C25.97105091 509.90086836 16.29976366 509.89914203 6.62821233 509.9108786 C-2.71141454 509.92168769 -12.05095534 509.91544589 -21.39057541 509.90132332 C-25.34960358 509.89559239 -29.30856817 509.89562324 -33.2675972 509.90038872 C-37.93485468 509.90518954 -42.60185205 509.89492928 -47.26906013 509.87343407 C-48.97333334 509.86790873 -50.67763176 509.86736136 -52.38190651 509.87238693 C-73.19237438 509.92602102 -88.57355156 504.57909645 -103.96875 490.2890625 C-108.66127933 485.50829757 -111.99169138 480.45535622 -115.00390625 474.5234375 C-115.32568848 473.89179688 -115.6474707 473.26015625 -115.97900391 472.609375 C-120.24023293 463.72186189 -122.08039759 454.84239242 -122.02763367 445.02680969 C-122.03428049 444.03735845 -122.04092732 443.04790721 -122.04777557 442.0284726 C-122.06628062 438.74584359 -122.06380871 435.46358308 -122.0612793 432.1809082 C-122.07030407 429.81477855 -122.08063304 427.44865356 -122.09216309 425.08253479 C-122.11967494 418.68255139 -122.12900976 412.28265686 -122.13501716 405.882622 C-122.14346267 399.86471706 -122.16559649 393.84687503 -122.18763564 387.8290086 C-122.23081933 375.91670341 -122.26083402 364.00440341 -122.2824707 352.09204102 C-122.30350571 340.52658537 -122.33080271 328.96117218 -122.36645508 317.39575195 C-122.3686539 316.68176297 -122.37085273 315.96777399 -122.37311818 315.23214898 C-122.38418847 311.64994854 -122.39538116 308.06774849 -122.40663469 304.48554862 C-122.49970048 274.81071751 -122.57113258 245.13585883 -122.62890625 215.4609375 C-123.0960907 215.93256317 -123.56327515 216.40418884 -124.0446167 216.8901062 C-128.90520229 221.79491652 -133.772796 226.69269028 -138.64453125 231.58642578 C-140.46209751 233.41405357 -142.27786521 235.24347184 -144.09179688 237.07470703 C-146.69842022 239.70557141 -149.31142986 242.32994283 -151.92578125 244.953125 C-152.73633972 245.77400604 -153.54689819 246.59488708 -154.38201904 247.44064331 C-155.14250549 248.20128082 -155.90299194 248.96191833 -156.68652344 249.74560547 C-157.35270691 250.41623016 -158.01889038 251.08685486 -158.70526123 251.77780151 C-162.31927027 254.93995909 -165.24003927 255.76921667 -170.00390625 255.8359375 C-170.91914063 255.86429687 -171.834375 255.89265625 -172.77734375 255.921875 C-179.32469701 254.86353571 -184.06861471 249.35244348 -188.6015625 244.859375 C-189.24709579 244.22287018 -189.89262909 243.58636536 -190.557724 242.93057251 C-191.91593597 241.58680709 -193.27140628 240.24026546 -194.62426758 238.89111328 C-196.67661417 236.85064397 -198.74687855 234.8296107 -200.81835938 232.80859375 C-213.69575871 220.08977658 -213.69575871 220.08977658 -216.62890625 211.4609375 C-216.86528809 210.77161133 -217.10166992 210.08228516 -217.34521484 209.37207031 C-219.98597173 200.35326915 -218.98660014 190.95989457 -214.67822266 182.62084961 C-209.61507316 174.24627946 -202.18956889 167.6967004 -195.25390625 160.8984375 C-193.93159436 159.59119977 -192.60997358 158.28326256 -191.2890625 156.97460938 C-188.07692565 153.79526098 -184.85557063 150.6255384 -181.62890625 147.4609375 C-182.56913587 146.34830646 -183.51164011 145.23759738 -184.45507812 144.12768555 C-184.97968628 143.50895065 -185.50429443 142.89021576 -186.0447998 142.25273132 C-188.25168288 139.75651052 -190.68634509 137.53701789 -193.12890625 135.2734375 C-201.51573479 127.14945213 -206.46619024 116.91200048 -206.69140625 105.21484375 C-206.29250909 93.8338091 -203.55175897 85.25472071 -195.70336914 76.87841797 C-195.22221932 76.36326567 -194.74106951 75.84811337 -194.24533939 75.31735039 C-188.70294825 69.41468506 -183.01959557 63.64907523 -177.3125 57.90625 C-176.75034349 57.34001797 -176.18818699 56.77378593 -175.60899544 56.19039536 C-172.64366273 53.20445205 -169.67524434 50.2216159 -166.7043457 47.24121094 C-163.66462412 44.19035746 -160.63679071 41.12797423 -157.61131191 38.06300545 C-155.25265297 35.67808101 -152.88503523 33.3022008 -150.5150013 30.92858505 C-149.39501845 29.80377773 -148.27837132 28.67563742 -147.16537285 27.54391861 C-137.35289671 17.57645334 -127.80964848 9.37452954 -113.17163086 9.08032227 C-95.87369521 9.12268756 -86.54799547 15.41522695 -74.56640625 27.3984375 C-72.57832786 29.41088094 -70.60160153 31.43336043 -68.62890625 33.4609375 C-64.15715108 29.82407863 -60.05935997 25.93510933 -56.046875 21.80078125 C-55.54423126 21.28552887 -55.04158752 20.77027649 -54.52371216 20.2394104 C-52.42579327 18.0875687 -50.32922676 15.93495745 -48.25268555 13.76245117 C-35.26297017 0.20184891 -18.66108931 -8.25462173 0 0 Z M-118.15673828 43.26708984 C-118.85277161 43.90563904 -119.54880493 44.54418823 -120.26593018 45.2020874 C-125.06429672 49.78901101 -129.79427499 54.4395456 -134.49609375 59.125 C-135.04892155 59.67500042 -135.60174934 60.22500084 -136.1713295 60.79166794 C-139.08760574 63.69306678 -142.00108419 66.59723926 -144.91210938 69.50390625 C-147.91135861 72.49763671 -150.91980271 75.48194903 -153.93041801 78.46424294 C-156.2551581 80.7703613 -158.57316495 83.0831585 -160.88937759 85.39783859 C-161.99606247 86.50150368 -163.10523988 87.60267542 -164.21697617 88.70125198 C-165.76755147 90.23475029 -167.30836108 91.77745895 -168.84716797 93.32275391 C-170.16332596 94.63344345 -170.16332596 94.63344345 -171.506073 95.97061157 C-174.25345939 99.19360968 -175.75025482 101.75947564 -175.4453125 106.03515625 C-174.53565 108.73802904 -173.49533438 110.18632847 -171.56640625 112.2734375 C-170.94507813 112.95019531 -170.32375 113.62695312 -169.68359375 114.32421875 C-166.38344491 117.75612258 -163.03513834 121.13433162 -159.62890625 124.4609375 C-155.26120739 122.7865112 -152.42768348 119.52577897 -149.20800781 116.26708984 C-148.57344162 115.6328157 -147.93887543 114.99854156 -147.28507996 114.345047 C-145.19178743 112.25036272 -143.10566545 110.14868648 -141.01953125 108.046875 C-139.56836872 106.5919818 -138.11676358 105.13752994 -136.66473389 103.6835022 C-132.84629207 99.85742824 -129.03389476 96.02538588 -125.22271729 92.19207764 C-121.33179246 88.28068546 -117.43519197 84.37495665 -113.5390625 80.46875 C-105.89677226 72.80501723 -98.26085451 65.13496845 -90.62890625 57.4609375 C-92.44188532 53.53080584 -94.99713568 50.82917659 -98.06640625 47.8359375 C-98.55689453 47.34609375 -99.04738281 46.85625 -99.55273438 46.3515625 C-103.04349441 42.90320036 -105.35415992 40.65539033 -110.31640625 39.8984375 C-113.89620445 40.01528791 -115.53738588 40.86016243 -118.15673828 43.26708984 Z " fill="#9CCEFE" transform="translate(281.62890625,2.5390625)"/>
<path d="M0 0 C7.58624266 4.81848305 10.87418929 10.68473709 13.06640625 19.3125 C13.60051535 24.1132939 13.59890016 28.86338011 13.56088257 33.69004822 C13.56406503 35.11817522 13.56899843 36.5462992 13.57551539 37.97441489 C13.58826101 41.8714884 13.57627023 45.76814207 13.55998683 49.66518772 C13.54676828 53.87863669 13.55674382 58.09204117 13.56375122 62.30549622 C13.57381049 70.54914501 13.56258288 78.79263272 13.54405062 87.03626149 C13.52323075 96.64472624 13.52342439 106.25315662 13.52439578 115.86163969 C13.52539607 133.01122792 13.50710034 150.16074146 13.47802734 167.31030273 C13.4498589 183.93499106 13.43568572 200.55961365 13.43701172 217.18432617 C13.43713159 218.72006468 13.43713159 218.72006468 13.43725388 220.28682821 C13.43733459 221.30891811 13.4374153 222.33100801 13.43749845 223.38407034 C13.43887999 242.33289267 13.42708684 261.28168718 13.40919202 280.23050047 C13.40317171 286.92105719 13.40103436 293.61160877 13.40012741 300.30216789 C13.3987597 308.46142632 13.38978267 316.62063786 13.37146179 324.7798764 C13.36226065 328.93932807 13.35612188 333.09872 13.35865021 337.25818253 C13.36085603 341.07214623 13.35370853 344.88597825 13.33935316 348.69991452 C13.33406331 350.71957305 13.33841955 352.73924989 13.34321725 354.75890964 C13.23615493 375.05217902 7.79756285 392.69012545 -6.49609375 407.5 C-20.49661814 421.31918764 -37.13573012 425.84015571 -56.39413452 425.76568604 C-58.33177143 425.74527038 -60.26940366 425.72440659 -62.20703125 425.703125 C-64.22725866 425.69564786 -66.24749341 425.68996191 -68.26773071 425.68597412 C-73.53837754 425.67083369 -78.80857071 425.63165419 -84.07904053 425.5871582 C-90.42767973 425.53868523 -96.77647215 425.5206162 -103.12524414 425.49734497 C-112.72834111 425.45879433 -122.33044624 425.38206002 -131.93359375 425.3125 C-131.93359375 402.5425 -131.93359375 379.7725 -131.93359375 356.3125 C-133.91359375 355.9825 -135.89359375 355.6525 -137.93359375 355.3125 C-139.98046875 354.078125 -139.98046875 354.078125 -141.68359375 352.5625 C-142.2559375 352.07265625 -142.82828125 351.5828125 -143.41796875 351.078125 C-147.10085943 346.7877472 -147.22337026 342.11542002 -147.19429016 336.69032288 C-147.19811571 335.93074341 -147.20194126 335.17116394 -147.20588273 334.38856691 C-147.21618775 331.84759692 -147.21222536 329.30685394 -147.20825195 326.76586914 C-147.2125998 324.9423756 -147.21778319 323.11888389 -147.22373962 321.2953949 C-147.23713272 316.34501219 -147.23770797 311.39470581 -147.23517632 306.44430852 C-147.23410688 302.31151605 -147.23898929 298.17873904 -147.24378175 294.04594988 C-147.2548779 284.29632788 -147.25531365 274.5467444 -147.24926758 264.79711914 C-147.24322603 254.73884437 -147.25554318 244.68070943 -147.27683765 234.62245852 C-147.29444928 225.98623292 -147.30045572 217.35005185 -147.2971999 208.71380895 C-147.29538629 203.55599919 -147.29803111 198.39828919 -147.31191444 193.24049568 C-147.3244811 188.39037251 -147.32255967 183.54046746 -147.30950356 178.69034767 C-147.30713574 176.91098711 -147.30987981 175.13161125 -147.31812668 173.35226822 C-147.32857852 170.92181227 -147.32050641 168.49209036 -147.30781555 166.06166077 C-147.31887698 165.00741766 -147.31887698 165.00741766 -147.33016187 163.93187672 C-147.26186589 157.70766503 -145.48881261 153.86771886 -141.12109375 149.5 C-137.80423678 147.22372561 -135.83928094 146.81909541 -131.93359375 146.3125 C-131.9424762 145.03987305 -131.95135864 143.76724609 -131.96051025 142.45605469 C-132.0416723 130.45022205 -132.10159593 118.44444523 -132.14084244 106.43840027 C-132.16169793 100.26627143 -132.18997897 94.09436445 -132.23535156 87.92236328 C-132.27888106 81.96364161 -132.30274619 76.00513307 -132.31310272 70.04626465 C-132.32048126 67.77531582 -132.33488982 65.50437837 -132.35651398 63.23352051 C-132.38564161 60.04735299 -132.38954573 56.86206095 -132.38769531 53.67578125 C-132.40207642 52.74141739 -132.41645752 51.80705353 -132.43127441 50.84437561 C-132.38306046 43.14881956 -130.10738881 36.76244924 -124.55859375 31.25 C-119.83035754 27.43399558 -115.12029518 25.82311953 -109.3984375 24.1015625 C-108.44441544 23.80649307 -107.49039337 23.51142365 -106.50746155 23.20741272 C-103.3203297 22.22810684 -100.12804978 21.26763413 -96.93359375 20.3125 C-95.81049805 19.97634674 -94.68740234 19.64019348 -93.53027344 19.29385376 C-84.98694039 16.74578316 -76.43000788 14.24512794 -67.87109375 11.75 C-65.35475264 11.01389428 -62.83847634 10.27756697 -60.32226562 9.54101562 C-54.30773925 7.78158448 -48.29074821 6.03078695 -42.27252197 4.28405762 C-39.06983847 3.35214434 -35.86948151 2.41259625 -32.66943359 1.47167969 C-30.78490812 0.9222605 -28.90031006 0.37309025 -27.015625 -0.17578125 C-26.17764877 -0.42429337 -25.33967255 -0.67280548 -24.4763031 -0.92884827 C-15.80142588 -3.43912903 -8.26141841 -4.25633006 0 0 Z " fill="#72BAFE" transform="translate(435.93359375,86.6875)"/>
<path d="M0 0 C8.50574909 5.24077456 15.33134904 12.08011575 22.34545898 19.11962891 C24.18805052 20.96540197 26.0436503 22.79737941 27.90039062 24.62890625 C29.08544515 25.81168927 30.26971782 26.99525627 31.453125 28.1796875 C32.00313675 28.7204895 32.5531485 29.2612915 33.11982727 29.81848145 C37.58825945 34.34100938 40.79803016 38.86925855 40.80859375 45.4609375 C40.83759766 46.6675 40.83759766 46.6675 40.8671875 47.8984375 C39.36103032 55.67827299 31.76562781 61.34190712 26.40527344 66.66967773 C25.38277198 67.69325335 24.36070393 68.71726207 23.33903503 69.7416687 C20.57272149 72.5128139 17.80022293 75.27769302 15.02641582 78.04133487 C12.11605539 80.94287968 9.21100056 83.84972781 6.30523682 86.75587463 C1.42287794 91.63729797 -3.46333096 96.51484014 -8.35205078 101.38989258 C-13.98910997 107.0112495 -19.62094921 112.63779225 -25.2497952 118.26737255 C-31.25975724 124.27801252 -37.27353039 130.28482838 -43.28841305 136.29054379 C-45.01271529 138.01272368 -46.73631411 139.73560488 -48.45975494 141.45864677 C-51.1791767 144.17705667 -53.90116086 146.89287601 -56.62506676 149.60679245 C-57.61912236 150.59795124 -58.61236084 151.58993037 -59.6046772 152.58283043 C-64.57297051 157.55293852 -69.58420381 162.39463844 -74.91585732 166.97401714 C-77.19149963 168.94926654 -79.33361229 171.03853204 -81.46508789 173.16772461 C-82.75166039 174.44956886 -82.75166039 174.44956886 -84.06422424 175.75730896 C-84.96342087 176.65852982 -85.86261749 177.55975067 -86.7890625 178.48828125 C-87.74720485 179.44574775 -88.70549541 180.40306595 -89.66392517 181.36024475 C-91.65981912 183.35467497 -93.65392077 185.35087491 -95.64672852 187.34838867 C-98.18032488 189.88768149 -100.71838608 192.42245653 -103.25782108 194.95590878 C-105.23381328 196.92825934 -107.20738304 198.90302013 -109.18026543 200.87848091 C-110.56301224 202.26220378 -111.94774555 203.64394064 -113.33253479 205.02561951 C-117.6999234 209.40911777 -121.90921638 213.85326421 -125.942276 218.54524231 C-128.95163644 221.96331056 -132.17410304 225.16878568 -135.390625 228.390625 C-136.46024223 229.46523483 -136.46024223 229.46523483 -137.5514679 230.56155396 C-139.04513239 232.06024156 -140.54011787 233.5576137 -142.03637695 235.05371094 C-144.32596903 237.34550949 -146.60741807 239.64521749 -148.88867188 241.9453125 C-150.34716696 243.40673848 -151.80613464 244.86769299 -153.265625 246.328125 C-153.94485519 247.01454071 -154.62408539 247.70095642 -155.32389832 248.40817261 C-155.96168716 249.04288483 -156.59947601 249.67759705 -157.2565918 250.33154297 C-157.81283737 250.88921356 -158.36908295 251.44688416 -158.94218445 252.02145386 C-162.45229388 255.01705462 -165.43608633 255.77196243 -170.00390625 255.8359375 C-170.91914063 255.86429687 -171.834375 255.89265625 -172.77734375 255.921875 C-179.32469701 254.86353571 -184.06861471 249.35244348 -188.6015625 244.859375 C-189.24709579 244.22287018 -189.89262909 243.58636536 -190.557724 242.93057251 C-191.91593597 241.58680709 -193.27140628 240.24026546 -194.62426758 238.89111328 C-196.67661417 236.85064397 -198.74687855 234.8296107 -200.81835938 232.80859375 C-213.69575871 220.08977658 -213.69575871 220.08977658 -216.62890625 211.4609375 C-216.86528809 210.77161133 -217.10166992 210.08228516 -217.34521484 209.37207031 C-219.98597173 200.35326915 -218.98660014 190.95989457 -214.67822266 182.62084961 C-209.61507316 174.24627946 -202.18956889 167.6967004 -195.25390625 160.8984375 C-193.93159436 159.59119977 -192.60997358 158.28326256 -191.2890625 156.97460938 C-188.07692565 153.79526098 -184.85557063 150.6255384 -181.62890625 147.4609375 C-182.56913587 146.34830646 -183.51164011 145.23759738 -184.45507812 144.12768555 C-184.97968628 143.50895065 -185.50429443 142.89021576 -186.0447998 142.25273132 C-188.25168288 139.75651052 -190.68634509 137.53701789 -193.12890625 135.2734375 C-201.51573479 127.14945213 -206.46619024 116.91200048 -206.69140625 105.21484375 C-206.29250909 93.8338091 -203.55175897 85.25472071 -195.70336914 76.87841797 C-195.22221932 76.36326567 -194.74106951 75.84811337 -194.24533939 75.31735039 C-188.70294825 69.41468506 -183.01959557 63.64907523 -177.3125 57.90625 C-176.75034349 57.34001797 -176.18818699 56.77378593 -175.60899544 56.19039536 C-172.64366273 53.20445205 -169.67524434 50.2216159 -166.7043457 47.24121094 C-163.66462412 44.19035746 -160.63679071 41.12797423 -157.61131191 38.06300545 C-155.25265297 35.67808101 -152.88503523 33.3022008 -150.5150013 30.92858505 C-149.39501845 29.80377773 -148.27837132 28.67563742 -147.16537285 27.54391861 C-137.35289671 17.57645334 -127.80964848 9.37452954 -113.17163086 9.08032227 C-95.87369521 9.12268756 -86.54799547 15.41522695 -74.56640625 27.3984375 C-72.57832786 29.41088094 -70.60160153 31.43336043 -68.62890625 33.4609375 C-64.15715108 29.82407863 -60.05935997 25.93510933 -56.046875 21.80078125 C-55.54423126 21.28552887 -55.04158752 20.77027649 -54.52371216 20.2394104 C-52.42579327 18.0875687 -50.32922676 15.93495745 -48.25268555 13.76245117 C-35.26297017 0.20184891 -18.66108931 -8.25462173 0 0 Z M-118.15673828 43.26708984 C-118.85277161 43.90563904 -119.54880493 44.54418823 -120.26593018 45.2020874 C-125.06429672 49.78901101 -129.79427499 54.4395456 -134.49609375 59.125 C-135.04892155 59.67500042 -135.60174934 60.22500084 -136.1713295 60.79166794 C-139.08760574 63.69306678 -142.00108419 66.59723926 -144.91210938 69.50390625 C-147.91135861 72.49763671 -150.91980271 75.48194903 -153.93041801 78.46424294 C-156.2551581 80.7703613 -158.57316495 83.0831585 -160.88937759 85.39783859 C-161.99606247 86.50150368 -163.10523988 87.60267542 -164.21697617 88.70125198 C-165.76755147 90.23475029 -167.30836108 91.77745895 -168.84716797 93.32275391 C-170.16332596 94.63344345 -170.16332596 94.63344345 -171.506073 95.97061157 C-174.25345939 99.19360968 -175.75025482 101.75947564 -175.4453125 106.03515625 C-174.53565 108.73802904 -173.49533438 110.18632847 -171.56640625 112.2734375 C-170.94507813 112.95019531 -170.32375 113.62695312 -169.68359375 114.32421875 C-166.38344491 117.75612258 -163.03513834 121.13433162 -159.62890625 124.4609375 C-155.26120739 122.7865112 -152.42768348 119.52577897 -149.20800781 116.26708984 C-148.57344162 115.6328157 -147.93887543 114.99854156 -147.28507996 114.345047 C-145.19178743 112.25036272 -143.10566545 110.14868648 -141.01953125 108.046875 C-139.56836872 106.5919818 -138.11676358 105.13752994 -136.66473389 103.6835022 C-132.84629207 99.85742824 -129.03389476 96.02538588 -125.22271729 92.19207764 C-121.33179246 88.28068546 -117.43519197 84.37495665 -113.5390625 80.46875 C-105.89677226 72.80501723 -98.26085451 65.13496845 -90.62890625 57.4609375 C-92.44188532 53.53080584 -94.99713568 50.82917659 -98.06640625 47.8359375 C-98.55689453 47.34609375 -99.04738281 46.85625 -99.55273438 46.3515625 C-103.04349441 42.90320036 -105.35415992 40.65539033 -110.31640625 39.8984375 C-113.89620445 40.01528791 -115.53738588 40.86016243 -118.15673828 43.26708984 Z " fill="#3AA8FE" transform="translate(281.62890625,2.5390625)"/>
<path d="M0 0 C8.50574909 5.24077456 15.33134904 12.08011575 22.34545898 19.11962891 C24.18805052 20.96540197 26.0436503 22.79737941 27.90039062 24.62890625 C29.08544515 25.81168927 30.26971782 26.99525627 31.453125 28.1796875 C32.00313675 28.7204895 32.5531485 29.2612915 33.11982727 29.81848145 C37.58825945 34.34100938 40.79803016 38.86925855 40.80859375 45.4609375 C40.82792969 46.2653125 40.84726562 47.0696875 40.8671875 47.8984375 C39.41230391 55.41342676 32.18917491 60.9116056 27.01269531 66.04638672 C26.05602255 67.00249465 25.09979132 67.95904456 24.14396667 68.91600037 C21.55990108 71.50063766 18.96973411 74.07907996 16.37839603 76.65642309 C13.6668652 79.35541604 10.96103094 82.06010792 8.25457764 84.76419067 C3.13402368 89.87853884 -1.99160522 94.98776912 -7.11909413 100.09516346 C-12.95858476 105.91226703 -18.79236911 111.73507896 -24.62568998 117.55836844 C-36.62044073 129.5322376 -48.62230903 141.49894747 -60.62890625 153.4609375 C-64.69423719 151.58661295 -67.47736718 148.88048026 -70.59082031 145.72607422 C-71.46951782 144.84781479 -71.46951782 144.84781479 -72.3659668 143.95181274 C-74.29693464 142.01945394 -76.22072572 140.08011234 -78.14453125 138.140625 C-79.48359236 136.79783294 -80.82309634 135.45548237 -82.1630249 134.11355591 C-85.68555054 130.58340033 -89.20202828 127.04727944 -92.71728516 123.5098877 C-96.30659176 119.90010899 -99.90157881 116.29599735 -103.49609375 112.69140625 C-110.54593943 105.62012192 -117.58940962 98.54252337 -124.62890625 91.4609375 C-120.67733659 86.73073069 -116.56460803 82.24794516 -112.19921875 77.8984375 C-111.30817947 77.00596313 -111.30817947 77.00596313 -110.3991394 76.09545898 C-109.15159783 74.84724196 -107.90281286 73.60026651 -106.65283203 72.35449219 C-104.76219824 70.46920603 -102.87695278 68.57865099 -100.9921875 66.6875 C-95.57289453 61.2654332 -90.16602936 55.90065479 -84.32421875 50.92919922 C-81.43780787 48.42936122 -78.75524869 45.73222192 -76.06640625 43.0234375 C-75.54111328 42.50201172 -75.01582031 41.98058594 -74.47460938 41.44335938 C-71.70178662 38.66376538 -69.05241348 35.82385505 -66.49609375 32.84375 C-61.8685977 27.50649568 -56.93453662 22.47096378 -51.96899414 17.45092773 C-50.86721612 16.33254736 -49.77083694 15.20882251 -48.67993164 14.07983398 C-35.52490425 0.47084466 -18.96202408 -8.38773844 0 0 Z " fill="#0081FE" transform="translate(281.62890625,2.5390625)"/>
<path d="M0 0 C7.9868773 5.07295042 9.64092508 9.89242677 13.06640625 19.3125 C13.06640625 38.4525 13.06640625 57.5925 13.06640625 77.3125 C-34.78359375 77.3125 -82.63359375 77.3125 -131.93359375 77.3125 C-131.93359375 41.0760468 -131.93359375 41.0760468 -126.34765625 33.02734375 C-121.34372029 28.05618466 -115.99022018 26.08485717 -109.3984375 24.1015625 C-108.44441544 23.80649307 -107.49039337 23.51142365 -106.50746155 23.20741272 C-103.3203297 22.22810684 -100.12804978 21.26763413 -96.93359375 20.3125 C-95.81049805 19.97634674 -94.68740234 19.64019348 -93.53027344 19.29385376 C-84.98694039 16.74578316 -76.43000788 14.24512794 -67.87109375 11.75 C-65.35475264 11.01389428 -62.83847634 10.27756697 -60.32226562 9.54101562 C-54.30773925 7.78158448 -48.29074821 6.03078695 -42.27252197 4.28405762 C-39.06983847 3.35214434 -35.86948151 2.41259625 -32.66943359 1.47167969 C-30.78490812 0.9222605 -28.90031006 0.37309025 -27.015625 -0.17578125 C-26.17764877 -0.42429337 -25.33967255 -0.67280548 -24.4763031 -0.92884827 C-15.80142588 -3.43912903 -8.26141841 -4.25633006 0 0 Z " fill="#FF5D93" transform="translate(435.93359375,86.6875)"/>
<path d="M0 0 C5.01836827 3.63492621 9.45966446 8.02905991 13.91796875 12.3203125 C14.5114209 12.87904053 15.10487305 13.43776855 15.71630859 14.01342773 C17.36328125 15.64453125 17.36328125 15.64453125 19.79296875 18.6328125 C19.62265823 22.57118002 17.24303585 24.52943548 14.5390625 27.1796875 C13.25805664 28.44619141 13.25805664 28.44619141 11.95117188 29.73828125 C10.60442383 31.04732422 10.60442383 31.04732422 9.23046875 32.3828125 C8.32876953 33.27097656 7.42707031 34.15914062 6.49804688 35.07421875 C4.26959777 37.26729565 2.03445282 39.45307294 -0.20703125 41.6328125 C-4.15240915 39.81971601 -6.79798428 37.23669557 -9.76953125 34.1328125 C-14.911261 28.56774196 -14.911261 28.56774196 -21.89453125 26.0703125 C-25.48231023 26.18605383 -27.12401519 27.04024554 -29.74853516 29.45263672 C-30.44448792 30.09110535 -31.14044067 30.72957397 -31.85748291 31.38739014 C-36.57708481 35.89783135 -41.2312822 40.4703693 -45.85546875 45.078125 C-46.39726398 45.61709286 -46.93905922 46.15606071 -47.49727249 46.71136093 C-50.35519265 49.55440651 -53.21031711 52.40022316 -56.06298828 55.24853516 C-59.00170461 58.18173219 -61.94961421 61.10550815 -64.89969444 64.02726936 C-67.17811213 66.28706399 -69.44979472 68.55353819 -71.7196846 70.8218956 C-72.80404068 71.90323235 -73.89088875 72.9820763 -74.98029709 74.05832291 C-76.49974284 75.56068829 -78.0094135 77.07226213 -79.51708984 78.58642578 C-80.37676361 79.44245392 -81.23643738 80.29848206 -82.12216187 81.18045044 C-84.84759678 84.38628829 -86.32634584 86.9598696 -86.0234375 91.20703125 C-85.113775 93.90990404 -84.07345938 95.35820347 -82.14453125 97.4453125 C-81.52320313 98.12207031 -80.901875 98.79882812 -80.26171875 99.49609375 C-76.96156991 102.92799758 -73.61326334 106.30620662 -70.20703125 109.6328125 C-71.72079206 113.20045535 -73.81216254 115.46987537 -76.55859375 118.1796875 C-77.409375 119.02402344 -78.26015625 119.86835938 -79.13671875 120.73828125 C-80.02617188 121.61097656 -80.915625 122.48367187 -81.83203125 123.3828125 C-82.72921875 124.27097656 -83.62640625 125.15914062 -84.55078125 126.07421875 C-86.76510129 128.26498219 -88.9839556 130.45094013 -91.20703125 132.6328125 C-115.19952473 112.3420688 -115.19952473 112.3420688 -118.01953125 96.09765625 C-118.87944184 84.7934149 -117.31198675 73.81083464 -109.92860413 64.87545776 C-109.05505783 63.94315338 -108.18151154 63.010849 -107.28149414 62.05029297 C-106.80034432 61.53514067 -106.31919451 61.01998837 -105.82346439 60.48922539 C-100.28107325 54.58656006 -94.59772057 48.82095023 -88.890625 43.078125 C-88.32846849 42.51189297 -87.76631199 41.94566093 -87.18712044 41.36227036 C-84.22178773 38.37632705 -81.25336934 35.3934909 -78.2824707 32.41308594 C-75.24274912 29.36223246 -72.21491571 26.29984923 -69.18943691 23.23488045 C-66.83077797 20.84995601 -64.46316023 18.4740758 -62.0931263 16.10046005 C-60.97314345 14.97565273 -59.85649632 13.84751242 -58.74349785 12.71579361 C-42.86458631 -3.41392707 -21.28695223 -13.18660758 0 0 Z " fill="#444445" transform="translate(193.20703125,17.3671875)"/>
<path d="M0 0 C4.23907082 2.49035653 6.6722579 4.56257741 8.87109375 9.05859375 C9.15602172 11.73002594 9.28102389 14.16477098 9.2587738 16.83262634 C9.26415934 17.60854002 9.26954488 18.3844537 9.27509362 19.18387991 C9.28938523 21.7802193 9.28226662 24.37604971 9.27514648 26.97241211 C9.28084943 28.83531606 9.28781339 30.69821651 9.29594421 32.56111145 C9.31389909 37.61895849 9.31270285 42.67663225 9.30700183 47.7345016 C9.30391336 51.95677237 9.30999862 56.17900969 9.31604058 60.40127569 C9.33009184 70.36186504 9.32851949 80.32236863 9.31713867 90.28295898 C9.30565644 100.55940393 9.31973357 110.83558794 9.34653515 121.1119985 C9.3686849 129.9350687 9.37533116 138.75805694 9.36945873 147.58115298 C9.36608628 152.85077033 9.36852347 158.1202204 9.38570976 163.38981438 C9.40116523 168.34505709 9.39723881 173.29991295 9.37840462 178.2551403 C9.37471488 180.07320074 9.3778384 181.89128975 9.38829041 183.70932388 C9.40147599 186.19252195 9.38997529 188.6744347 9.37229919 191.15757751 C9.3819042 191.87597004 9.39150921 192.59436257 9.40140527 193.33452457 C9.32795564 198.35406773 7.98371446 201.1715401 4.87109375 205.05859375 C0.86853926 208.57599012 -2.72691711 209.41827891 -8.0703125 209.33984375 C-12.6544124 208.71355306 -15.46221681 205.79735772 -18.44140625 202.49609375 C-21.34256532 198.30553065 -21.27532775 194.58275242 -21.26934814 189.67692566 C-21.27231927 188.91905504 -21.27529039 188.16118442 -21.27835155 187.38034803 C-21.28704391 184.83322547 -21.28854725 182.28614989 -21.29003906 179.73901367 C-21.29466685 177.91581624 -21.29969146 176.09261977 -21.30508423 174.26942444 C-21.31821387 169.31068005 -21.32465427 164.3519492 -21.32909489 159.39319015 C-21.33202465 156.2960382 -21.33612927 153.19888996 -21.34059906 150.10173988 C-21.35427537 140.4140036 -21.36394142 130.72627579 -21.36780095 121.03853053 C-21.37228243 109.85071709 -21.38983395 98.66302577 -21.41880155 87.47524947 C-21.44040851 78.83057822 -21.4505047 70.18594135 -21.45184207 61.54124337 C-21.45289079 56.37668784 -21.45881282 51.21224709 -21.47666168 46.04771996 C-21.49312534 41.18942825 -21.49530615 36.33133782 -21.48652267 31.47302818 C-21.48575139 29.69043947 -21.49010703 27.90784001 -21.49998093 26.12527847 C-21.51267679 23.69034978 -21.50683676 21.2561365 -21.49639893 18.82121277 C-21.50445533 18.11701979 -21.51251173 17.41282682 -21.52081227 16.68729466 C-21.4680535 11.41923624 -20.21404374 7.34464292 -16.62890625 3.4140625 C-11.4849087 -0.59128976 -6.40630956 -2.83288184 0 0 Z " fill="#444444" transform="translate(310.12890625,233.94140625)"/>
<path d="M0 0 C4.66914098 2.71279699 7.27044648 5.31404192 9.97265625 10.09375 C10.3504435 12.82294754 10.51502644 15.14117905 10.48059082 17.86068726 C10.48995076 19.00534673 10.48995076 19.00534673 10.4994998 20.17313063 C10.51540572 22.72039327 10.50283538 25.26669576 10.49023438 27.81396484 C10.49565667 29.64421648 10.50277993 31.47446375 10.51147461 33.30470276 C10.5297007 38.26971128 10.52264265 43.23438709 10.50995827 48.19940138 C10.49982387 53.39935159 10.50922546 58.59927351 10.51550293 63.79922485 C10.52277934 72.53351956 10.51319312 81.26767896 10.49414062 90.00195312 C10.47238556 100.09150691 10.4794134 110.1807372 10.50144625 120.2702831 C10.51961666 128.93885066 10.52215012 137.60732099 10.51169157 146.27590144 C10.50546393 151.45054271 10.50460071 156.62503211 10.51783752 161.79966354 C10.52941876 166.6671221 10.5213287 171.53416509 10.4982605 176.4015789 C10.49298497 178.18493015 10.49446735 179.96831655 10.50331116 181.75165367 C10.51429678 184.19251821 10.50046796 186.63206417 10.48059082 189.07284546 C10.49397515 190.12316328 10.49397515 190.12316328 10.50762987 191.19469965 C10.42411937 196.50766667 8.95357689 200.74833627 5.97265625 205.09375 C2.06503374 208.47280939 -1.88154191 209.76478389 -7.0390625 209.484375 C-11.45406503 208.61698747 -14.82622066 206.37494796 -17.90234375 203.09375 C-20.33100078 198.7761375 -20.17576988 194.40011345 -20.17451477 189.55386353 C-20.17819146 188.79105493 -20.18186815 188.02824633 -20.18565625 187.24232233 C-20.19667556 184.68449061 -20.2005339 182.12669954 -20.2043457 179.56884766 C-20.21061153 177.73565034 -20.21725843 175.9024543 -20.22425842 174.06925964 C-20.2452817 168.04878623 -20.25565709 162.02831261 -20.265625 156.0078125 C-20.26967277 153.93515383 -20.2737897 151.86249528 -20.27797508 149.78983688 C-20.29702051 140.05511998 -20.31125464 130.32041065 -20.31958705 120.5856787 C-20.32936672 109.34576929 -20.35570802 98.10605643 -20.39608794 86.8662163 C-20.42622752 78.17906323 -20.44105376 69.49196659 -20.44436806 60.80476224 C-20.44672042 55.61558839 -20.45570544 50.42662468 -20.48082924 45.23750687 C-20.50407808 40.3569994 -20.50835603 35.47684095 -20.49806786 30.5962925 C-20.49757166 28.80563383 -20.50391678 27.01495816 -20.5176239 25.22435188 C-20.53529997 22.77834989 -20.52825864 20.33360639 -20.51509094 17.88760376 C-20.52606019 17.18020196 -20.53702943 16.47280015 -20.54833108 15.74396193 C-20.48346598 10.74824725 -19.12446173 7.95834924 -16.02734375 4.09375 C-11.27591069 -0.19412862 -6.32018301 -2.82520705 0 0 Z " fill="#444444" transform="translate(376.02734375,233.90625)"/>
<path d="M0 0 C4.5962222 2.17715788 6.81010668 4.46412549 9 9 C9.2890879 11.68080341 9.41832572 14.12741143 9.40113831 16.80526733 C9.40793498 17.584559 9.41473164 18.36385066 9.42173427 19.16675723 C9.44070457 21.77455632 9.4382696 24.38188569 9.43579102 26.98974609 C9.44476863 28.86088159 9.45497688 30.73201153 9.46632385 32.60313416 C9.49282703 37.68375427 9.49985743 42.76422282 9.50177121 47.84490538 C9.50462063 52.08696805 9.51565791 56.32899547 9.5262875 60.57104456 C9.55071447 70.5796078 9.55804079 80.58809007 9.5559082 90.59667969 C9.55410565 100.91978175 9.58576631 111.24241361 9.63313919 121.56539667 C9.67236967 130.43009954 9.68845975 139.29464875 9.68654197 148.15943778 C9.68577715 153.45322487 9.69432283 158.74659405 9.72607613 164.04029465 C9.75512758 169.0194717 9.75535273 173.99783152 9.73352623 178.97703743 C9.73038965 180.80275351 9.73747223 182.62852054 9.7556076 184.45414925 C9.89974079 199.97043547 9.89974079 199.97043547 6.13804626 204.5506897 C0.96744922 208.58644811 -3.46384033 209.70030282 -10 209 C-15.49590171 206.36196718 -18.86184444 202.64971713 -21 197 C-21.75129179 191.04981794 -21.68437315 185.1338912 -21.64697266 179.14453125 C-21.65375379 177.32383349 -21.6626597 175.50314258 -21.67352295 173.6824646 C-21.69626392 168.75263436 -21.68750144 163.82332893 -21.67162752 158.89348984 C-21.65894158 153.72691211 -21.67071612 148.56037838 -21.67855835 143.39379883 C-21.68764705 134.71850544 -21.6756874 126.04342509 -21.65185547 117.36816406 C-21.62464575 107.34780586 -21.63346046 97.32795639 -21.6609875 87.30761051 C-21.68369972 78.69418779 -21.68686829 70.08091794 -21.67379415 61.46747494 C-21.66601128 56.32748517 -21.66492605 51.18773429 -21.68147659 46.04776001 C-21.69595281 41.21465952 -21.68584204 36.38221296 -21.65700531 31.54918289 C-21.65041133 29.77873443 -21.65226323 28.00823064 -21.66331863 26.23780441 C-21.72146619 15.97764804 -21.66332078 8.74292569 -14.0546875 1.02734375 C-9.68989462 -1.15505269 -4.72884361 -0.56974019 0 0 Z " fill="#5B5B5C" transform="translate(243,234)"/>
<path d="M0 0 C5.25174926 4.38442526 10.13222473 9.00842093 14.9375 13.875 C15.62134766 14.56335938 16.30519531 15.25171875 17.00976562 15.9609375 C18.67551464 17.63833511 20.3388622 19.31803791 22 21 C20.39371398 25.06214298 17.489562 27.71503047 14.40625 30.68359375 C13.28243448 31.78698961 12.15874028 32.89050904 11.03515625 33.99414062 C9.26665869 35.71915054 7.49576302 37.44160839 5.72216797 39.16137695 C4.00620109 40.82894966 2.29963739 42.50572035 0.59375 44.18359375 C0.0635022 44.69208359 -0.46674561 45.20057343 -1.01306152 45.72447205 C-3.93233301 48.60424968 -5.89356302 51.0215621 -7 55 C-6.72088785 58.9135087 -5.56986922 60.96426451 -2.9375 63.8125 C-2.31617188 64.48925781 -1.69484375 65.16601562 -1.0546875 65.86328125 C2.24546134 69.29518508 5.59376791 72.67339412 9 76 C7.48623919 79.56764285 5.39486871 81.83706287 2.6484375 84.546875 C1.79765625 85.39121094 0.946875 86.23554688 0.0703125 87.10546875 C-0.81914063 87.97816406 -1.70859375 88.85085937 -2.625 89.75 C-3.5221875 90.63816406 -4.419375 91.52632813 -5.34375 92.44140625 C-7.55807004 94.63216969 -9.77692435 96.81812763 -12 99 C-35.99249348 78.7092563 -35.99249348 78.7092563 -38.8125 62.46484375 C-39.6752019 51.12390834 -37.97378375 40.55414779 -30.99609375 31.359375 C-28.1085921 28.11499113 -25.08132343 25.05920867 -22 22 C-20.62927663 20.62071591 -19.25861607 19.24136891 -17.88893127 17.86105347 C-11.95261813 11.88042639 -5.98418128 5.93270956 0 0 Z " fill="#595A5A" transform="translate(114,51)"/>
<path d="M0 0 C-1.32 0.33 -2.64 0.66 -4 1 C-4 69.97 -4 138.94 -4 210 C-10.81183932 208.86469345 -10.81183932 208.86469345 -13.75 206.25 C-14.60851562 205.51523437 -14.60851562 205.51523437 -15.484375 204.765625 C-19.16726568 200.4752472 -19.28977651 195.80292002 -19.26069641 190.37782288 C-19.26452196 189.61824341 -19.26834751 188.85866394 -19.27228898 188.07606691 C-19.282594 185.53509692 -19.27863161 182.99435394 -19.2746582 180.45336914 C-19.27900605 178.6298756 -19.28418944 176.80638389 -19.29014587 174.9828949 C-19.30353897 170.03251219 -19.30411422 165.08220581 -19.30158257 160.13180852 C-19.30051313 155.99901605 -19.30539554 151.86623904 -19.310188 147.73344988 C-19.32128415 137.98382788 -19.3217199 128.2342444 -19.31567383 118.48461914 C-19.30963228 108.42634437 -19.32194943 98.36820943 -19.3432439 88.30995852 C-19.36085553 79.67373292 -19.36686197 71.03755185 -19.36360615 62.40130895 C-19.36179254 57.24349919 -19.36443736 52.08578919 -19.37832069 46.92799568 C-19.39088735 42.07787251 -19.38896592 37.22796746 -19.37590981 32.37784767 C-19.37354199 30.59848711 -19.37628606 28.81911125 -19.38453293 27.03976822 C-19.39498477 24.60931227 -19.38691266 22.17959036 -19.3742218 19.74916077 C-19.38159609 19.04633203 -19.38897037 18.3435033 -19.39656812 17.61937672 C-19.33882656 12.35705113 -18.08121187 8.2817453 -14.5 4.35546875 C-9.45221859 0.42503479 -6.33298474 -0.11949028 0 0 Z " fill="#5A5B5C" transform="translate(308,233)"/>
</svg>
