<?xml version="1.0" encoding="UTF-8"?>
<svg version="1.1" xmlns="http://www.w3.org/2000/svg" width="512" height="512">
<path d="M0 0 C1.10669232 -0.00307895 1.10669232 -0.00307895 2.23574206 -0.0062201 C4.72753712 -0.01191007 7.21927725 -0.0104304 9.71107769 -0.00901413 C11.50780431 -0.01159662 13.30453035 -0.01460945 15.1012556 -0.01801753 C20.05398292 -0.02610438 25.00669576 -0.02787804 29.95942891 -0.028615 C35.29492307 -0.03046262 40.63040966 -0.03800844 45.96589947 -0.04475021 C57.63930509 -0.05834574 69.31270729 -0.06436007 80.98611951 -0.06876087 C88.27101321 -0.07152108 95.55590558 -0.07575801 102.84079838 -0.08026505 C122.99919362 -0.09245901 143.15758779 -0.10275826 163.31598663 -0.10614014 C165.25213229 -0.10646949 165.25213229 -0.10646949 167.227392 -0.10680549 C169.1682424 -0.10713291 169.1682424 -0.10713291 171.1483019 -0.10746694 C173.77035733 -0.10791041 176.39241276 -0.10835697 179.01446819 -0.10880661 C180.31510587 -0.10902804 181.61574354 -0.10924947 182.95579448 -0.10947761 C204.03890909 -0.11342707 225.12198917 -0.13088504 246.20509044 -0.15416613 C267.83591314 -0.17785983 289.46671849 -0.19034107 311.09755439 -0.19150805 C323.24850067 -0.1924259 335.39940196 -0.19820576 347.55033588 -0.21632767 C357.89557484 -0.23170189 368.2407549 -0.23686496 378.5860031 -0.22858956 C383.86668149 -0.22467363 389.14724118 -0.22565857 394.42790508 -0.23964691 C399.25962325 -0.25232927 404.09113281 -0.2512384 408.92285045 -0.2390562 C410.6731944 -0.23708934 412.42355284 -0.24022294 414.17387638 -0.24890056 C416.54929332 -0.25993402 418.92396637 -0.25254718 421.29936218 -0.24050903 C421.98223717 -0.24810423 422.66511216 -0.25569942 423.36868033 -0.26352477 C427.90879083 -0.21370053 430.97834641 0.76386928 434.8384428 3.13142776 C441.55138452 10.1495032 442.13069061 15.49573543 442.0630827 24.80849075 C442.06323057 25.89672127 442.06337845 26.98495178 442.0635308 28.10615897 C442.06180063 31.75951509 442.04593506 35.41267683 442.03033733 39.06599808 C442.02653964 41.68264013 442.0237306 44.29928377 442.02183819 46.91592789 C442.016828 52.55473949 442.00543448 58.19350846 441.99057674 63.83230209 C441.96785701 72.7489 441.96810796 81.66543021 441.97244549 90.58205032 C441.9736777 93.63416288 441.97481216 96.68627547 441.9759531 99.73838806 C441.97625083 100.50112792 441.97654856 101.26386777 441.97685532 102.04972096 C441.98005753 110.72946374 441.97980512 119.4092044 441.97711468 128.0889473 C441.97687581 128.88225314 441.97663693 129.67555898 441.97639082 130.49290439 C441.97178671 143.34525144 441.94479001 156.19747431 441.91129686 169.04977408 C441.87760682 182.25197807 441.87450941 195.45395778 441.89804256 208.65618396 C441.91145694 216.79556379 441.90015119 224.93415027 441.85691349 233.07342973 C441.8261622 239.31443506 441.83724338 245.55473013 441.86376667 251.79574013 C441.86799002 254.35272033 441.85853659 256.90976555 441.8343401 259.46663475 C441.80327629 262.96110621 441.8215447 266.45202955 441.85190105 269.94643021 C441.83112503 270.95568723 441.81034901 271.96494425 441.78894341 273.00478482 C441.92247772 279.94582554 443.89058715 283.29727664 448.83587921 288.1404798 C451.97831729 291.26469055 454.14254053 294.90651353 456.4009428 298.69392776 C456.86710003 299.47058792 457.33325726 300.24724808 457.81354046 301.04744339 C475.90113263 331.80448356 480.22538638 366.93725384 471.8071928 401.49861526 C467.84246961 416.62770913 461.11199755 430.54065284 451.8384428 443.13142776 C451.24805218 443.9448262 450.65766155 444.75822464 450.0493803 445.59627151 C429.16722968 473.00964796 398.94138138 490.66844795 364.7837553 495.4170723 C330.81185842 499.57431624 296.04836014 491.14853101 268.8384428 470.13142776 C264.63511441 466.67232345 260.73031547 462.93331494 256.8384428 459.13142776 C256.04953655 458.40439651 255.2606303 457.67736526 254.4478178 456.92830276 C231.98864227 435.72558461 219.80855301 403.96547827 218.56109905 373.49861526 C218.03460033 352.23233598 221.24666074 331.151596 230.90400982 311.97302628 C231.26579358 311.25339549 231.62757734 310.53376471 232.00032425 309.79232693 C232.27690337 309.2442302 232.55348249 308.69613348 232.8384428 308.13142776 C231.60376766 308.13603673 230.36909252 308.14064569 229.09700298 308.14539433 C199.77838311 308.25371881 170.45980874 308.33614789 141.1410383 308.38675441 C137.53122096 308.39300783 133.92140404 308.39947945 130.31158733 308.40608597 C129.59294766 308.40739752 128.87430798 308.40870907 128.13389134 308.41006037 C116.5027158 308.431808 104.87166401 308.47122593 93.24056184 308.51719175 C81.30307993 308.56397437 69.36566277 308.59172696 57.42809296 308.60187024 C50.72410043 308.60811106 44.02040581 308.62372376 37.31650066 308.66007805 C31.00624667 308.69402032 24.69638875 308.70448401 18.38605213 308.69696617 C16.07053316 308.69834148 13.75500091 308.70828402 11.43956089 308.72745514 C8.27581206 308.75236464 5.1135549 308.74633957 1.94977093 308.73270035 C1.03535512 308.74726456 0.12093931 308.76182876 -0.82118607 308.77683431 C-7.04185902 308.70443967 -11.54093398 307.44718627 -16.1615572 303.13142776 C-20.86485656 297.26537238 -20.72754728 290.71998119 -20.66276264 283.50395584 C-20.66829704 282.34979207 -20.67383144 281.1956283 -20.67953354 280.00648987 C-20.69075274 276.82068558 -20.68414374 273.63550694 -20.66979682 270.44973397 C-20.65865652 267.00730402 -20.67063959 263.56494209 -20.67963886 260.12251663 C-20.69355173 253.38643686 -20.6860301 246.6505449 -20.67096328 239.91447411 C-20.65408194 232.06785635 -20.65731604 224.2212851 -20.66105736 216.37465478 C-20.66693216 202.37443313 -20.65277827 188.37430149 -20.62810993 174.37410355 C-20.60418108 160.79203799 -20.59710972 147.21009265 -20.60760212 133.6280098 C-20.61901239 118.83128425 -20.62094075 104.03461428 -20.60650402 89.23788941 C-20.6049782 87.66009594 -20.60345785 86.08230246 -20.60194302 84.50450897 C-20.6011852 83.72823405 -20.60042739 82.95195913 -20.59964661 82.15216073 C-20.59490535 76.68361083 -20.59675403 71.21508577 -20.60100842 65.74653625 C-20.60593586 59.0831274 -20.59994702 52.41983217 -20.58011412 45.75644933 C-20.57024561 42.35719855 -20.56513219 38.95812077 -20.57300663 35.55886078 C-20.57894683 31.87403196 -20.56647772 28.18971506 -20.54923725 24.5049324 C-20.55825232 22.89346228 -20.55825232 22.89346228 -20.56744951 21.24943721 C-20.51288364 14.85322364 -19.96121495 10.16651129 -15.4428072 5.26814651 C-14.8549947 4.78990433 -14.2671822 4.31166214 -13.6615572 3.81892776 C-13.0737447 3.32779495 -12.4859322 2.83666214 -11.8803072 2.33064651 C-8.15178325 -0.27084633 -4.34645433 -0.01114791 0 0 Z " fill="#ADDF8F" transform="translate(28.1615571975708,7.868572235107422)"/>
<path d="M0 0 C2.78817747 2.45414154 5.43515657 4.99754226 8 7.6875 C8.56074219 8.24179687 9.12148438 8.79609375 9.69921875 9.3671875 C32.39460841 33.0293179 41.87440083 67.31719069 41.25 99.34375 C40.33233997 124.70787311 32.05622889 149.24554497 17 169.6875 C16.40960938 170.50089844 15.81921875 171.31429687 15.2109375 172.15234375 C-5.67121312 199.5657202 -35.89706142 217.22452018 -70.0546875 221.97314453 C-104.02658438 226.13038848 -138.79008266 217.70460324 -166 196.6875 C-170.20332839 193.22839569 -174.10812733 189.48938717 -178 185.6875 C-178.78890625 184.96046875 -179.5778125 184.2334375 -180.390625 183.484375 C-202.84980053 162.28165684 -215.02988979 130.52155051 -216.27734375 100.0546875 C-216.86055282 76.49776998 -212.9701445 51.84019592 -200 31.6875 C-199.65630371 31.13465332 -199.31260742 30.58180664 -198.95849609 30.01220703 C-191.04194927 17.30415576 -181.88947377 4.94971177 -170 -4.3125 C-168.75089844 -5.3334375 -168.75089844 -5.3334375 -167.4765625 -6.375 C-116.40744766 -46.67063034 -48.3201257 -40.59725464 0 0 Z " fill="#5795CE" transform="translate(463,281.3125)"/>
<path d="M0 0 C1.10669232 -0.00307895 1.10669232 -0.00307895 2.23574206 -0.0062201 C4.72753712 -0.01191007 7.21927725 -0.0104304 9.71107769 -0.00901413 C11.50780431 -0.01159662 13.30453035 -0.01460945 15.1012556 -0.01801753 C20.05398292 -0.02610438 25.00669576 -0.02787804 29.95942891 -0.028615 C35.29492307 -0.03046262 40.63040966 -0.03800844 45.96589947 -0.04475021 C57.63930509 -0.05834574 69.31270729 -0.06436007 80.98611951 -0.06876087 C88.27101321 -0.07152108 95.55590558 -0.07575801 102.84079838 -0.08026505 C122.99919362 -0.09245901 143.15758779 -0.10275826 163.31598663 -0.10614014 C165.25213229 -0.10646949 165.25213229 -0.10646949 167.227392 -0.10680549 C169.1682424 -0.10713291 169.1682424 -0.10713291 171.1483019 -0.10746694 C173.77035733 -0.10791041 176.39241276 -0.10835697 179.01446819 -0.10880661 C180.31510587 -0.10902804 181.61574354 -0.10924947 182.95579448 -0.10947761 C204.03890909 -0.11342707 225.12198917 -0.13088504 246.20509044 -0.15416613 C267.83591314 -0.17785983 289.46671849 -0.19034107 311.09755439 -0.19150805 C323.24850067 -0.1924259 335.39940196 -0.19820576 347.55033588 -0.21632767 C357.89557484 -0.23170189 368.2407549 -0.23686496 378.5860031 -0.22858956 C383.86668149 -0.22467363 389.14724118 -0.22565857 394.42790508 -0.23964691 C399.25962325 -0.25232927 404.09113281 -0.2512384 408.92285045 -0.2390562 C410.6731944 -0.23708934 412.42355284 -0.24022294 414.17387638 -0.24890056 C416.54929332 -0.25993402 418.92396637 -0.25254718 421.29936218 -0.24050903 C421.98223717 -0.24810423 422.66511216 -0.25569942 423.36868033 -0.26352477 C427.90879083 -0.21370053 430.97834641 0.76386928 434.8384428 3.13142776 C441.5540398 10.15227917 442.13214479 15.51379883 442.07895184 24.83108902 C442.08151511 26.4668346 442.08151511 26.4668346 442.08413017 28.13562554 C442.08742906 31.79615799 442.07641461 35.45650786 442.06549358 39.11702347 C442.06492956 41.73841726 442.06524586 44.35981138 442.06637859 46.98120499 C442.06742701 52.62822046 442.06115493 58.27518969 442.04990292 63.92219353 C442.03364503 72.08679408 442.02843961 80.25137229 442.02592693 88.41598728 C442.02155028 101.66269951 442.00824199 114.90938711 441.98932171 128.15608597 C441.97096213 141.02359774 441.95680601 153.89110281 441.94830608 166.75862503 C441.94778064 167.55185224 441.94725519 168.34507944 441.94671382 169.16234384 C441.94410373 173.14175358 441.94157632 177.12116336 441.93909001 181.10057318 C441.91835845 214.11087598 441.88313373 247.12114858 441.8384428 280.13142776 C440.5184428 279.47142776 439.1984428 278.81142776 437.8384428 278.13142776 C437.8384428 277.47142776 437.8384428 276.81142776 437.8384428 276.13142776 C437.25707561 275.87361526 436.67570843 275.61580276 436.07672405 275.35017776 C433.65084974 274.02928285 432.01382414 272.54481257 430.0259428 270.63142776 C414.75145633 256.89931615 394.24795725 246.20479032 373.8384428 243.13142776 C382.49741074 236.17029668 390.88330929 230.32432065 400.96734905 225.67439651 C404.06643607 224.29896142 404.06643607 224.29896142 405.8384428 221.13142776 C406.14326176 218.5792151 406.14326176 218.5792151 406.09913921 215.66572952 C406.10622402 214.53003021 406.11330883 213.3943309 406.12060833 212.22421646 C406.1168922 210.35394035 406.1168922 210.35394035 406.11310101 208.44588089 C406.11821194 207.13352966 406.12332287 205.82117844 406.12858868 204.46905899 C406.14199125 200.86788212 406.14255605 197.26681012 406.14002538 193.66561317 C406.13895669 190.66097494 406.14383632 187.65635802 406.1486308 184.65172434 C406.15972997 177.56502728 406.16016085 170.47838322 406.15411663 163.39168167 C406.14807306 156.07585228 406.16039653 148.76021503 406.1816867 141.44441843 C406.19928565 135.16664352 406.20530684 128.88892987 406.20204896 122.61113119 C406.20023349 118.86015824 406.20289851 115.1093224 406.2167635 111.35837173 C406.23163825 107.17777848 406.22238675 102.99757811 406.21075726 98.81697464 C406.21840099 97.5701239 406.22604473 96.32327316 406.2339201 95.03863907 C406.22690578 93.90293976 406.21989147 92.76724045 406.2126646 91.59712601 C406.21283235 90.60825142 406.21300009 89.61937683 406.21317291 88.60053635 C405.77601509 85.72008958 405.13088892 84.8648415 402.8384428 83.13142776 C400.74968513 82.19839178 400.74968513 82.19839178 398.4009428 81.44392776 C381.1214817 74.76320588 368.2411027 60.9776708 360.5650053 44.37752151 C359.92393376 42.87606448 359.30553133 41.36440687 358.72516155 39.83845901 C357.8281898 37.77599361 357.8281898 37.77599361 354.8384428 36.13142776 C352.55110888 35.82789139 352.55110888 35.82789139 349.96705246 35.87136555 C348.95684479 35.86429996 347.94663712 35.85723436 346.90581709 35.84995466 C345.23629151 35.85357729 345.23629151 35.85357729 343.53303814 35.8572731 C341.76320667 35.84941808 341.76320667 35.84941808 339.95762104 35.84140438 C336.67702896 35.8289699 333.39656929 35.82556158 330.11595809 35.82600129 C326.58009395 35.82435543 323.04426905 35.81129341 319.50842571 35.7998085 C311.77511093 35.77694286 304.04182355 35.76903647 296.30847955 35.76398206 C291.48197059 35.76072737 286.65546963 35.75420635 281.82896519 35.74698067 C268.47149092 35.72741404 255.1140241 35.71100975 241.75653458 35.70810413 C240.90150654 35.70791656 240.04647849 35.70772899 239.16554051 35.70753574 C237.43212346 35.70716948 235.69870641 35.70680579 233.96528936 35.70644463 C233.10479474 35.70626182 232.24430012 35.70607901 231.35772991 35.70589066 C230.49618799 35.70571011 229.63464607 35.70552956 228.74699681 35.70534354 C214.77889025 35.70179994 200.81093768 35.67476633 186.84288455 35.63739277 C172.50968469 35.5993483 158.17656132 35.57994695 143.84330982 35.57964462 C135.79255922 35.57905924 127.74199237 35.5705152 119.69128895 35.54164696 C112.83773266 35.51718476 105.98442715 35.50981511 99.13083906 35.52489448 C95.63250381 35.53208436 92.13466428 35.53111792 88.63638401 35.50848389 C84.84742718 35.48820371 81.0597692 35.49847056 77.27083111 35.51669693 C76.16004478 35.50349696 75.04925844 35.49029699 73.90481192 35.47669703 C67.9732668 35.40730226 67.9732668 35.40730226 63.18927193 38.5524931 C62.74349832 39.40354154 62.2977247 40.25458998 61.8384428 41.13142776 C61.32084393 42.06088211 61.32084393 42.06088211 60.79278851 43.00911331 C60.53586224 43.58959427 60.27893597 44.17007523 60.01422405 44.76814651 C59.71258343 45.42307083 59.4109428 46.07799515 59.10016155 46.75276566 C58.78691936 47.43459915 58.47367718 48.11643265 58.1509428 48.81892776 C54.69261084 56.01641741 50.63938911 61.57865028 44.8384428 67.13142776 C44.24934124 67.75146683 43.66023968 68.37150589 43.05328655 69.01033401 C38.24271806 73.73632108 32.61253745 76.47441004 26.56085491 79.2920723 C25.89577923 79.60386429 25.23070354 79.91565628 24.54547405 80.23689651 C23.65565838 80.64138016 23.65565838 80.64138016 22.74786663 81.05403519 C20.12460919 82.53420845 18.03665662 84.05617981 15.8384428 86.13142776 C15.09758773 88.78122323 15.09758773 88.78122323 15.21698284 91.75534439 C15.20016964 93.47357658 15.20016964 93.47357658 15.18301678 95.22652054 C15.19628002 96.47912674 15.20954327 97.73173294 15.22320843 99.02229691 C15.21970662 100.35791097 15.21404735 101.69352086 15.20639324 103.02911758 C15.19214499 106.6532106 15.20920528 110.27654492 15.23267841 113.90056539 C15.25278134 117.69215189 15.24690823 121.48370672 15.24457073 125.2753334 C15.2446243 131.6416361 15.26438239 138.007642 15.29645061 144.37385941 C15.33335942 151.7368845 15.34212407 159.09952099 15.3351531 166.46262652 C15.32885123 173.54373686 15.33959546 180.62471377 15.35911846 187.7057972 C15.36729878 190.72050183 15.37000087 193.73513833 15.36842632 196.74985313 C15.36754832 200.29828533 15.3817401 203.84634737 15.40765285 207.39468193 C15.41824817 209.32038011 15.41413847 211.24614149 15.40964031 213.17186356 C15.4209901 214.31453186 15.4323399 215.45720016 15.44403362 216.63449478 C15.44776234 217.62944489 15.45149105 218.62439501 15.45533276 219.64949512 C15.906478 222.57218564 16.50181945 223.38072799 18.8384428 225.13142776 C21.34528466 226.41472593 23.85055554 227.63033497 26.4009428 228.81892776 C41.95292302 236.36741721 52.43212673 247.34786005 60.1118803 262.71345901 C63.01602649 268.7400964 63.01602649 268.7400964 67.8384428 273.13142776 C70.42365347 273.33233272 72.90226391 273.41667714 75.48826885 273.40990067 C76.66817684 273.41858927 76.66817684 273.41858927 77.87192136 273.4274534 C80.51599505 273.44450132 83.1598947 273.447334 85.80401897 273.45027542 C87.69606742 273.4595703 89.58811175 273.4697383 91.48015118 273.48071671 C96.62442881 273.50808047 101.76867897 273.52318498 106.91301036 273.53614473 C112.28624271 273.55174742 117.6594187 273.57854672 123.03261089 273.60417557 C133.21103884 273.65101414 143.38947734 273.68773364 153.56795818 273.72084844 C165.15429916 273.75903399 176.74058362 273.80845346 188.326877 273.8588326 C212.16402374 273.96222797 236.00120677 274.0514636 259.8384428 274.13142776 C258.88440672 275.25141132 257.92938124 276.37055212 256.97394085 277.48933792 C256.44221767 278.11264999 255.9104945 278.73596207 255.3626585 279.37816238 C253.52729546 281.48933239 251.58904149 283.48960554 249.6509428 285.50642776 C246.69240442 288.64473967 244.59945562 291.41245026 242.7826519 295.32885551 C237.28522442 306.66242617 237.28522442 306.66242617 231.53797269 309.11187696 C224.62291817 310.69158088 217.54606364 310.31536835 210.50177288 310.14070511 C208.12890303 310.14409858 205.75603398 310.15491507 203.38322735 310.17256546 C196.96003021 310.19873737 190.54203667 310.11956886 184.11972165 310.01978254 C178.07459556 309.93299187 172.02922577 309.93759975 165.98359259 309.93259604 C154.00629369 309.91980289 142.03095065 309.82764548 130.05450726 309.68855667 C118.44663464 309.5538531 106.8399012 309.4689073 95.23126507 309.44246292 C94.51582532 309.44082364 93.80038558 309.43918435 93.06326584 309.4374954 C91.62187586 309.43423419 90.18048587 309.43098337 88.73909585 309.427743 C88.02798208 309.42614204 87.3168683 309.42454109 86.58420563 309.42289162 C85.87482682 309.42131877 85.165448 309.41974592 84.43457286 309.41812541 C73.35071972 309.39192898 62.26705151 309.32660963 51.18341259 309.25470453 C47.84034575 309.23317839 44.49728893 309.21355628 41.15418744 309.19823408 C33.53270488 309.16279593 25.91218648 309.10503373 18.29122639 309.00795364 C15.98386219 308.9821932 13.67638788 308.96474126 11.36889553 308.95624542 C8.21640025 308.9429901 5.06577659 308.89902915 1.91371441 308.84709549 C1.00291097 308.85006366 0.09210753 308.85303183 -0.84629601 308.85608995 C-7.03543317 308.70763717 -11.5573701 307.41765832 -16.1615572 303.13142776 C-20.86560287 297.26658706 -20.72753907 290.71906723 -20.66276264 283.50395584 C-20.66829704 282.34979207 -20.67383144 281.1956283 -20.67953354 280.00648987 C-20.69075274 276.82068558 -20.68414374 273.63550694 -20.66979682 270.44973397 C-20.65865652 267.00730402 -20.67063959 263.56494209 -20.67963886 260.12251663 C-20.69355173 253.38643686 -20.6860301 246.6505449 -20.67096328 239.91447411 C-20.65408194 232.06785635 -20.65731604 224.2212851 -20.66105736 216.37465478 C-20.66693216 202.37443313 -20.65277827 188.37430149 -20.62810993 174.37410355 C-20.60418108 160.79203799 -20.59710972 147.21009265 -20.60760212 133.6280098 C-20.61901239 118.83128425 -20.62094075 104.03461428 -20.60650402 89.23788941 C-20.6049782 87.66009594 -20.60345785 86.08230246 -20.60194302 84.50450897 C-20.6011852 83.72823405 -20.60042739 82.95195913 -20.59964661 82.15216073 C-20.59490535 76.68361083 -20.59675403 71.21508577 -20.60100842 65.74653625 C-20.60593586 59.0831274 -20.59994702 52.41983217 -20.58011412 45.75644933 C-20.57024561 42.35719855 -20.56513219 38.95812077 -20.57300663 35.55886078 C-20.57894683 31.87403196 -20.56647772 28.18971506 -20.54923725 24.5049324 C-20.55825232 22.89346228 -20.55825232 22.89346228 -20.56744951 21.24943721 C-20.51288364 14.85322364 -19.96121495 10.16651129 -15.4428072 5.26814651 C-14.8549947 4.78990433 -14.2671822 4.31166214 -13.6615572 3.81892776 C-13.0737447 3.32779495 -12.4859322 2.83666214 -11.8803072 2.33064651 C-8.15178325 -0.27084633 -4.34645433 -0.01114791 0 0 Z " fill="#6BB577" transform="translate(28.1615571975708,7.868572235107422)"/>
<path d="M0 0 C1.17626953 -0.00708984 2.35253906 -0.01417969 3.56445312 -0.02148438 C14.4664729 0.05686071 24.32361535 2.03766279 34 7.125 C34.67627441 7.47457764 35.35254883 7.82415527 36.04931641 8.18432617 C57.47017873 19.53061765 69.60750929 37.05559274 76.68359375 59.83984375 C81.38432241 78.80485247 76.89045874 100.19834845 66.96875 116.71484375 C55.10875334 135.03105931 37.54545036 147.87330389 16.12109375 152.57421875 C-5.33932281 156.58458074 -26.0859814 151.67310742 -44.01171875 139.421875 C-46.46200219 137.51568207 -48.77272014 135.53266927 -51.0625 133.4375 C-52.08537109 132.55191406 -52.08537109 132.55191406 -53.12890625 131.6484375 C-67.77102934 118.18112272 -75.20668731 98.91392751 -76.3125 79.41015625 C-77.11399112 58.80140087 -69.99501628 39.70913338 -56.0625 24.4375 C-55.54558594 23.8290625 -55.02867187 23.220625 -54.49609375 22.59375 C-40.87390498 7.57178745 -19.822376 -0.33781949 0 0 Z " fill="#6BB577" transform="translate(238.0625,85.5625)"/>
<path d="M0 0 C2.8125 2.25 2.8125 2.25 5 5 C5.06445312 5.66644531 5.12890625 6.33289063 5.1953125 7.01953125 C5.88276919 9.3805833 5.88276919 9.3805833 9.09765625 10.30859375 C10.41550938 10.6978642 11.73745421 11.07346427 13.0625 11.4375 C20.08574362 13.56333803 26.73184672 15.59777007 31 22 C31.32997475 25.87720334 31.30077936 28.7789089 29 32 C25.74314627 34.32632409 22.91804511 34.31945692 19 34 C15.9140625 32.46875 15.9140625 32.46875 12.625 30.5 C4.903369 26.25142616 -2.28032461 25.69204869 -11 27 C-14.26183524 28.37942098 -16.50077987 29.50077987 -19 32 C-19.14768913 34.51749828 -19.14768913 34.51749828 -18 37 C-12.83669756 40.25439421 -7.26099434 41.1728816 -1.375 42.375 C11.49728395 45.19510622 22.17327928 47.54940037 30 59 C31.93126391 64.79379173 32.03256041 71.52881615 29.5625 77.1875 C24.7854221 85.35043663 17.00139746 90.5303025 8 93 C7.01 93 6.02 93 5 93 C5.103125 93.7425 5.20625 94.485 5.3125 95.25 C5 98 5 98 2.9375 100.3125 C-0.79509713 102.45675792 -2.75999003 102.75714464 -7 102 C-10.01966243 99.53007099 -11.76446343 96.70660972 -13 93 C-14.96262055 92.18482699 -14.96262055 92.18482699 -17.375 91.6875 C-24.60001591 89.71231579 -32.97995838 86.69576064 -37 80 C-37.64496629 75.56585675 -37.52580508 73.72684819 -34.875 70.0625 C-31.39933081 67.56908514 -30.19812667 67.55809193 -26 68 C-23.50554962 69.06389142 -21.23588719 70.14028134 -18.875 71.4375 C-11.35328321 75.46984287 -5.0521057 77.38197689 3.48046875 75.43359375 C7.38723599 74.21631391 10.36387424 73.27044352 13 70 C13.31901591 67.42410136 13.31901591 67.42410136 12 65 C6.20387033 61.9481603 0.19985834 60.91509884 -6.1875 59.6875 C-17.61067875 57.32218979 -28.14306768 55.1046156 -35.01171875 44.83203125 C-37.85810067 39.5555367 -37.63737316 33.82529425 -37 28 C-34.52004743 21.11639335 -28.38495788 15.46823402 -22.10546875 11.93359375 C-18.83336295 10.4579382 -15.54231353 9.53671417 -12 9 C-11.7525 8.071875 -11.505 7.14375 -11.25 6.1875 C-9.06092252 0.60535243 -5.9339847 -0.96881383 0 0 Z " fill="#F9D459" transform="translate(242,111)"/>
<path d="M0 0 C3.24268638 2.34577313 4.71214956 3.84859824 5.6875 7.75 C3.94217191 16.00064189 -3.43578683 23.319272 -8.5 29.875 C-13.73786415 36.69965725 -18.91942858 43.55743138 -24 50.5 C-29.58410528 58.1246969 -35.28816251 65.65075742 -41.0324707 73.15527344 C-45.47961824 78.97578104 -49.85733985 84.84203888 -54.1875 90.75 C-58.81340508 97.05192894 -63.46639159 103.33146062 -68.1875 109.5625 C-68.72850342 110.2834082 -69.26950684 111.00431641 -69.8269043 111.74707031 C-70.33133057 112.40932617 -70.83575684 113.07158203 -71.35546875 113.75390625 C-71.79528076 114.33470947 -72.23509277 114.9155127 -72.68823242 115.51391602 C-75.00323811 118.13655506 -76.82379097 118.97196855 -80.25048828 119.51708984 C-85.44686281 118.8004652 -87.47888756 116.43464608 -90.9921875 112.7265625 C-91.93930099 111.76814957 -91.93930099 111.76814957 -92.9055481 110.79037476 C-94.91234743 108.75111089 -96.89321846 106.68855408 -98.875 104.625 C-100.23020179 103.24325102 -101.58695711 101.86302389 -102.9453125 100.484375 C-113.87679126 89.33065438 -113.87679126 89.33065438 -114.3125 84.625 C-114 81 -114 81 -112.5 78.5625 C-109.67717632 76.7982352 -107.46379195 76.23886924 -104.125 76.44140625 C-99.76644447 77.58712949 -97.06092108 80.85028087 -94 84 C-92.42335368 85.59784058 -90.84329574 87.19218932 -89.26074219 88.78417969 C-88.17860366 89.87794717 -87.1035728 90.9787972 -86.03613281 92.08691406 C-84.72742373 93.42806342 -83.36745385 94.71880093 -82 96 C-81.34 96 -80.68 96 -80 96 C-78.65128674 94.53825674 -78.65128674 94.53825674 -77.3046875 92.58203125 C-76.49064453 91.45861328 -76.49064453 91.45861328 -75.66015625 90.3125 C-75.07105469 89.4875 -74.48195313 88.6625 -73.875 87.8125 C-72.60317002 86.05742772 -71.3296709 84.30356404 -70.0546875 82.55078125 C-69.38920898 81.63506348 -68.72373047 80.7193457 -68.03808594 79.77587891 C-64.75408886 75.30306545 -61.37732764 70.90251451 -58 66.5 C-52.34844427 59.11800271 -46.78974654 51.67638501 -41.29785156 44.17504883 C-36.19360988 37.22084561 -30.9588585 30.37018163 -25.70825195 23.52612305 C-20.94631325 17.29924267 -16.36620529 10.97368513 -11.91796875 4.51953125 C-8.41310599 -0.08461637 -5.60888785 -0.67693474 0 0 Z " fill="#FCFDFE" transform="translate(430,316)"/>
<path d="M0 0 C6.26868325 4.1909276 10.78978092 9.65911866 12.9375 16.9375 C14.00842235 25.33829088 12.89856562 31.99441058 7.9375 38.9375 C2.78902613 44.7556048 -2.75348054 48.16035735 -10.4375 49.28515625 C-17.26690661 49.70132322 -22.48965219 47.84938503 -28.0625 43.9375 C-34.28683554 38.3689055 -37.50323475 33.55378339 -38.33984375 25.15234375 C-38.71890701 17.83919642 -37.66177895 12.70871061 -33.0625 6.9375 C-24.46663504 -2.10895466 -11.74544619 -6.08282051 0 0 Z " fill="#6BB577" transform="translate(115.0625,139.0625)"/>
<path d="M0 0 C6.43121755 3.31404578 10.49346302 8.16154338 14.109375 14.30859375 C16.2480406 21.55629385 16.37794948 28.46675301 13.234375 35.43359375 C9.1377806 42.59112666 3.52869209 47.49804766 -4.484375 49.6796875 C-11.72315562 51.08034197 -16.88416068 50.32682994 -23.40234375 46.73828125 C-29.36436138 42.65848737 -33.78860621 37.09880711 -35.765625 30.12109375 C-36.82655217 21.7171201 -35.7055886 15.08420827 -30.765625 8.12109375 C-22.67220781 -0.78166516 -11.62326697 -3.69383484 0 0 Z " fill="#6BB577" transform="translate(385.765625,137.87890625)"/>
</svg>
