<?xml version="1.0" encoding="UTF-8"?>
<svg version="1.1" xmlns="http://www.w3.org/2000/svg" width="512" height="512">
<path d="M0 0 C0.99802423 -0.00623996 1.99604845 -0.01247993 3.02431583 -0.01890898 C6.33668888 -0.03474212 9.64831611 -0.02227251 12.96069336 -0.00964355 C15.34838283 -0.01506896 17.73606896 -0.02219396 20.12374878 -0.03088379 C25.91661389 -0.04718495 31.70924582 -0.04486113 37.50211787 -0.03323323 C42.21335342 -0.0241709 46.92453093 -0.02298695 51.63577271 -0.02732849 C52.64455541 -0.02824789 52.64455541 -0.02824789 53.67371756 -0.02918586 C55.04026566 -0.03046486 56.40681374 -0.03176172 57.7733618 -0.03307623 C70.56405869 -0.04446113 83.3546406 -0.03140125 96.14531863 -0.00987476 C107.10173806 0.00799436 118.05798792 0.00488966 129.0144043 -0.0135498 C141.76176332 -0.03499359 154.50902175 -0.04336269 167.25639629 -0.03110075 C168.61769802 -0.02982666 169.97899976 -0.02856917 171.34030151 -0.02732849 C172.34477682 -0.02640284 172.34477682 -0.02640284 173.36954457 -0.02545848 C178.07086083 -0.02201608 182.77211288 -0.02780987 187.47341919 -0.0372467 C193.81010648 -0.04883115 200.14647465 -0.04073159 206.48312759 -0.01766968 C208.80381873 -0.01239651 211.12453688 -0.01387238 213.44521713 -0.02272034 C216.62252777 -0.03371423 219.79882731 -0.01986515 222.97607422 0 C223.88592103 -0.00892289 224.79576784 -0.01784577 225.73318577 -0.02703905 C234.89389317 0.08342096 243.17661605 2.93732805 250.48803711 8.50793457 C251.29241211 9.04418457 252.09678711 9.58043457 252.92553711 10.13293457 C261.34570958 17.93699686 266.12678168 28.15882436 266.83215332 39.63723755 C266.99635287 44.29947099 266.93942611 48.95749241 266.87866211 53.62121582 C266.87118275 55.32898794 266.86549786 57.03676877 266.86151123 58.74455261 C266.84638801 63.19490108 266.80722478 67.64471025 266.76269531 72.09484863 C266.72145173 76.65369374 266.70343871 81.21262773 266.68334961 85.77160645 C266.64071452 94.68395011 266.57262913 103.59589714 266.48803711 112.50793457 C267.31979934 112.50516919 268.15156157 112.50240381 269.00852871 112.49955463 C289.26546693 112.433245 309.52238638 112.38362974 329.77941036 112.35249805 C339.57563619 112.33704209 349.37178948 112.31597686 359.16796875 112.28161621 C367.70826933 112.25167495 376.24851736 112.23235033 384.78886896 112.22566909 C389.30915589 112.22176484 393.82929251 112.21261581 398.34953117 112.1907444 C402.60862071 112.17030454 406.86749876 112.16411587 411.12663269 112.16861153 C412.68543206 112.16778967 414.24423889 112.16186879 415.80299568 112.15031815 C425.40919302 112.08265696 433.53960945 112.33347154 441.80053711 117.63293457 C448.70776217 125.02205905 449.06477262 132.92966514 448.97387695 142.6751709 C448.97767365 143.96728485 448.98147034 145.2593988 448.98538208 146.59066772 C448.99501026 150.10907807 448.9798584 153.62697478 448.95947599 157.14532304 C448.94181458 160.83631121 448.94543172 164.52728568 448.94619751 168.2183075 C448.94432961 174.40925621 448.9270291 180.60000779 448.8996582 186.79089355 C448.86814332 193.94548093 448.85766469 201.09985321 448.85912931 208.25450498 C448.86048015 215.88434164 448.84660647 223.51409561 448.8282361 231.14390731 C448.82397657 233.33895606 448.82255422 235.53399145 448.82175827 237.72904396 C448.81937583 241.81535615 448.79995242 245.90141404 448.77856445 249.9876709 C448.77947083 251.20279861 448.7803772 252.41792633 448.78131104 253.6698761 C448.77278107 254.78145081 448.7642511 255.89302551 448.75546265 257.0382843 C448.75211096 258.0036955 448.74875927 258.96910669 448.74530602 259.96377277 C448.46644203 262.72149083 448.11843978 264.26431749 446.48803711 266.50793457 C444.83803711 267.16793457 443.18803711 267.82793457 441.48803711 268.50793457 C441.15803711 275.43793457 440.82803711 282.36793457 440.48803711 289.50793457 C442.13803711 289.83793457 443.78803711 290.16793457 445.48803711 290.50793457 C447.84131248 292.72711457 448.42908219 294.07756321 448.86898804 297.28887939 C448.87137482 298.35729065 448.8737616 299.4257019 448.8762207 300.52648926 C448.88567719 301.74165222 448.89513367 302.95681519 448.90487671 304.20880127 C448.89576767 306.17445038 448.89576767 306.17445038 448.88647461 308.17980957 C448.88849729 309.54498449 448.89141035 310.91015835 448.89517212 312.27532959 C448.89959236 315.13682338 448.89317846 317.99803602 448.87915039 320.85949707 C448.86212311 324.50880924 448.87185975 328.15745627 448.88986778 331.80674362 C448.90076956 334.62767436 448.89722912 337.4484506 448.88948441 340.26938629 C448.88653591 342.26335586 448.89557907 344.25733167 448.90487671 346.25128174 C448.84592626 353.90504677 448.72647596 360.61909796 443.62084961 366.75012207 C442.95827148 367.2889502 442.29569336 367.82777832 441.61303711 368.38293457 C440.95561523 368.93723145 440.29819336 369.49152832 439.62084961 370.06262207 C434.9000602 373.26169182 430.93940854 373.75660273 425.28105164 373.7484436 C424.5662414 373.75015245 423.85143117 373.7518613 423.11496001 373.75362194 C420.72578851 373.75690959 418.33689943 373.74592522 415.94775391 373.73498535 C414.23275255 373.73442108 412.51775071 373.73473811 410.80274963 373.73587036 C406.15025918 373.73644425 401.49787183 373.72468397 396.84540534 373.71072245 C391.98205065 373.69822123 387.1186936 373.69704507 382.25532532 373.69467163 C373.04731754 373.68845508 363.83935724 373.67204187 354.63137037 373.65197265 C344.1477846 373.62961913 333.66419656 373.61862159 323.18059289 373.60858178 C301.61638041 373.58767581 280.05221342 373.5520936 258.48803711 373.50793457 C258.48803711 380.10793457 258.48803711 386.70793457 258.48803711 393.50793457 C260.13803711 393.83793457 261.78803711 394.16793457 263.48803711 394.50793457 C266.14850627 396.88039009 266.46862218 398.3380297 266.87571716 401.90061951 C266.89653018 403.26949581 266.900845 404.63868391 266.89208984 406.00769043 C266.90238472 407.13304199 266.90238472 407.13304199 266.91288757 408.28112793 C266.93118618 410.76187086 266.92730978 413.24198231 266.92163086 415.72277832 C266.92619517 417.45711979 266.93150149 419.19145946 266.93751526 420.92579651 C266.94645533 424.566613 266.94401775 428.20721034 266.93408203 431.84802246 C266.92266244 436.48114289 266.94269046 441.11349316 266.97199917 445.74651241 C266.99049201 449.33369149 266.99004169 452.92069109 266.98436165 456.50790596 C266.98420964 458.21369052 266.99015271 459.91948821 267.00265312 461.62522697 C267.09854008 476.87099405 265.31996122 489.81544308 254.48803711 501.50793457 C245.42669941 509.57748406 234.99950793 513.13378321 222.97607422 513.01586914 C221.97804999 513.0221091 220.98002577 513.02834907 219.95175838 513.03477812 C216.63938534 513.05061126 213.32775811 513.03814165 210.01538086 513.0255127 C207.62769139 513.0309381 205.24000526 513.0380631 202.85232544 513.04675293 C197.05946033 513.06305409 191.2668284 513.06073027 185.47395635 513.04910237 C180.7627208 513.04004004 176.05154329 513.03885609 171.34030151 513.04319763 C170.66777971 513.04381056 169.99525791 513.0444235 169.30235666 513.045055 C167.93580856 513.046334 166.56926048 513.04763086 165.20271242 513.04894537 C152.41201552 513.06033027 139.62143362 513.0472704 126.83075559 513.0257439 C115.87433616 513.00787479 104.9180863 513.01097948 93.96166992 513.02941895 C81.2143109 513.05086273 68.46705246 513.05923183 55.71967793 513.04696989 C54.3583762 513.0456958 52.99707446 513.04443831 51.63577271 513.04319763 C50.9661225 513.04258053 50.29647229 513.04196343 49.60652965 513.04132763 C44.90521339 513.03788522 40.20396134 513.04367901 35.50265503 513.05311584 C29.16596774 513.06470029 22.82959957 513.05660073 16.49294662 513.03353882 C14.17225549 513.02826565 11.85153734 513.02974152 9.53085709 513.03858948 C6.35354644 513.04958337 3.1772469 513.03573429 0 513.01586914 C-0.90984681 513.02479203 -1.81969362 513.03371491 -2.75711155 513.04290819 C-13.72649614 512.91063911 -23.2608806 508.62793704 -31.51196289 501.50793457 C-43.0931081 489.07999594 -43.81070754 474.93859317 -43.7726593 458.79556274 C-43.77568183 456.98072111 -43.77957182 455.16588075 -43.78425187 453.35104263 C-43.79452752 448.37589902 -43.79235114 443.40082752 -43.78807127 438.42567801 C-43.78560328 433.05542459 -43.79461912 427.68518848 -43.80210876 422.31494141 C-43.81485562 411.79874717 -43.81664948 401.28257848 -43.8143085 390.76637782 C-43.81252521 382.21834236 -43.81427522 373.67031465 -43.81853294 365.12228012 C-43.81912813 363.90551654 -43.81972332 362.68875295 -43.82033655 361.43511774 C-43.8215483 358.96323459 -43.82276244 356.49135144 -43.82397892 354.01946829 C-43.83485436 330.84018308 -43.83269192 307.66091241 -43.82659408 284.48162638 C-43.82142462 263.27940465 -43.83268114 242.07722887 -43.8516923 220.87501623 C-43.87106687 199.10046489 -43.87932738 177.32593529 -43.87556905 155.55137527 C-43.87365646 143.32826277 -43.87615017 131.10518937 -43.89028358 118.88208389 C-43.90219346 108.47674276 -43.90360663 98.0714648 -43.89149342 87.66612281 C-43.88560209 82.35845805 -43.88451245 77.05090888 -43.89649582 71.7432518 C-43.90734528 66.88128344 -43.90426229 62.01952731 -43.89023414 57.15756892 C-43.88758465 55.40193389 -43.88996163 53.64628228 -43.89797 51.89066352 C-43.96101908 37.03362177 -42.40667459 22.69709794 -31.51196289 11.50793457 C-22.00934489 3.69585723 -12.30385565 -0.12066417 0 0 Z " fill="#020203" transform="translate(53.511962890625,-0.5079345703125)"/>
<path d="M0 0 C92.07 0 184.14 0 279 0 C279 14.52 279 29.04 279 44 C275.70443115 44.0093457 272.4088623 44.01869141 269.01342773 44.02832031 C258.12084759 44.06209821 247.22845673 44.1176519 236.3360281 44.18390274 C229.73239083 44.22339968 223.12888736 44.25557753 216.52514648 44.27099609 C210.15130765 44.2861477 203.77783659 44.32056763 197.40416145 44.36830902 C194.9733608 44.38313808 192.54250765 44.39104188 190.11166191 44.39188385 C186.7048211 44.39425054 183.2989991 44.42130846 179.89233398 44.45410156 C178.88891968 44.4490712 177.88550537 44.44404083 176.85168457 44.43885803 C169.93168776 44.54180789 165.51763454 45.78019722 160.29296875 50.5625 C156.70030461 55.23423287 154.76759675 58.29169011 154.68115234 64.22753906 C154.66128265 65.26831604 154.64141296 66.30909302 154.62094116 67.38140869 C154.60938995 68.49820007 154.59783875 69.61499146 154.5859375 70.765625 C154.56657135 71.91415955 154.5472052 73.06269409 154.5272522 74.24603271 C154.46747874 77.9139463 154.42107936 81.58189129 154.375 85.25 C154.33681822 87.73699284 154.29776638 90.22397249 154.2578125 92.7109375 C154.16177895 98.80717453 154.07672471 104.90349104 154 111 C153.13842285 111.11827148 152.2768457 111.23654297 151.38916016 111.35839844 C134.32248966 113.8187615 119.96788067 120.63684035 107 132 C106.31164062 132.59296875 105.62328125 133.1859375 104.9140625 133.796875 C93.69517882 144.17323382 86.39950898 158.66973309 82.86328125 173.3515625 C82.68236938 174.08930908 82.50145752 174.82705566 82.31506348 175.5871582 C81.87332642 177.39061364 81.43619013 179.19519494 81 181 C80.34489441 181.00586624 79.68978882 181.01173248 79.01483154 181.01777649 C72.20149632 181.0816695 65.38863523 181.16607884 58.57568359 181.26245117 C56.03245288 181.29572254 53.48914793 181.32374749 50.94580078 181.34643555 C47.29167011 181.37994006 43.63822112 181.43225561 39.984375 181.48828125 C38.84570984 181.49467117 37.70704468 181.5010611 36.53387451 181.50764465 C35.47307678 181.52743881 34.41227905 181.54723297 33.31933594 181.56762695 C31.92035065 181.58428154 31.92035065 181.58428154 30.49310303 181.60127258 C27.55123514 182.07177195 26.15444463 182.97266473 24 185 C23.33740346 187.83568858 23.71832307 190.04239226 24 193 C26.7412991 195.7412991 28.29175368 195.26481678 32.13037109 195.29052734 C34.06280167 195.3096669 34.06280167 195.3096669 36.03427124 195.32919312 C37.44732514 195.33225064 38.86038104 195.33447847 40.2734375 195.3359375 C41.71831394 195.34236245 43.16318907 195.34909058 44.60806274 195.35610962 C47.63945532 195.36809598 50.67073383 195.37178913 53.70214844 195.37060547 C57.58515295 195.37040235 61.467425 195.3976904 65.35025597 195.43214989 C68.33571729 195.45439889 71.32100189 195.45844362 74.30653763 195.45738602 C75.73787584 195.45974555 77.16921867 195.468589 78.60047531 195.48405075 C80.60383424 195.50366371 82.60740754 195.49536226 84.61083984 195.48583984 C86.32054459 195.4901149 86.32054459 195.4901149 88.06478882 195.49447632 C91.65114413 194.8903059 92.83091286 193.87122738 95 191 C95.5154686 187.97480868 95.5154686 187.97480868 95.4375 184.625 C96.22808398 167.70650292 105.04188834 153.54705157 117 142 C131.45967608 129.3067048 147.890625 123.73858635 166.94189453 124.80908203 C185.41002235 126.5222583 199.94553355 136.00586379 212.08984375 149.28515625 C222.14429098 161.40769547 226.2227974 174.64745669 226.3125 190.125 C226.32095947 191.52081299 226.32095947 191.52081299 226.32958984 192.94482422 C226.15326215 209.7796365 219.33561559 225.52303784 207.75 237.75 C192.73733451 251.97519911 175.17507343 256.61849536 155.09765625 256.23828125 C137.38387876 255.58293282 122.87775942 246.6279337 111 234 C109.03822681 231.61160233 107.17320413 229.2120629 105.40234375 226.6796875 C104.00819707 224.71074513 104.00819707 224.71074513 101 224 C98.63975505 223.89476586 96.27661963 223.85128666 93.9140625 223.83886719 C93.19667908 223.83390228 92.47929565 223.82893738 91.74017334 223.82382202 C89.36843914 223.80922313 86.99677174 223.80240345 84.625 223.796875 C82.97737628 223.79112321 81.32975258 223.78536548 79.68212891 223.77960205 C76.22883797 223.76909961 72.77557028 223.76325148 69.32226562 223.75976562 C64.89343079 223.7542718 60.46490199 223.73022189 56.03616333 223.70179367 C52.63386122 223.68319152 49.23163334 223.67796307 45.82928467 223.67642975 C44.19617025 223.67339896 42.56305727 223.66535609 40.92999268 223.65224457 C38.6484018 223.63522856 36.36756571 223.63705259 34.0859375 223.64355469 C32.7870459 223.63990906 31.4881543 223.63626343 30.14990234 223.63250732 C27.05314837 223.74786885 27.05314837 223.74786885 25.08056641 225.30352783 C23.24988144 228.17767427 23.64715141 230.70674646 24 234 C25.04644939 235.82966869 25.04644939 235.82966869 27 237 C30.01463184 237.39344379 30.01463184 237.39344379 33.5 237.24194336 C34.15576523 237.2328595 34.81153046 237.22377563 35.48716736 237.2144165 C36.91137226 237.19407473 38.33549924 237.16755522 39.75949097 237.13560295 C42.02295675 237.08937489 44.28517744 237.06940878 46.54907227 237.05799866 C52.9853514 237.02500832 59.42014865 236.97859161 65.85498047 236.83227539 C69.79497527 236.74461268 73.73169981 236.7166952 77.67260742 236.72610664 C79.16539262 236.7186833 80.65824838 236.68972768 82.15014648 236.63773918 C94.41132031 236.22449483 94.41132031 236.22449483 99.27709961 240.6086731 C101.23810549 242.63502667 102.99281214 244.76330687 104.70068359 247.00514221 C115.22017765 260.70677484 132.70053831 266.7103709 149 270 C149.97582031 270.19722656 150.95164063 270.39445312 151.95703125 270.59765625 C152.63121094 270.73042969 153.30539063 270.86320312 154 271 C154.03867187 272.57587891 154.03867187 272.57587891 154.078125 274.18359375 C154.23421537 285.76065155 154.23421537 285.76065155 159 296 C164.14346616 300.37148119 168.94014915 303.1065741 175.76457214 303.15821838 C177.23482094 303.17290161 177.23482094 303.17290161 178.73477173 303.18788147 C179.80867157 303.19363693 180.88257141 303.1993924 181.98901367 303.20532227 C183.12086594 303.21522186 184.2527182 303.22512146 185.41886902 303.23532104 C189.16854748 303.26696598 192.91823863 303.29170541 196.66796875 303.31640625 C199.26443312 303.33697318 201.86089412 303.35796958 204.45735168 303.37937927 C210.59835846 303.42897673 216.73938325 303.47423509 222.88043815 303.51740164 C229.87194113 303.5667875 236.86339727 303.62170062 243.85485494 303.67708123 C258.23652596 303.79087705 272.6182427 303.89772132 287 304 C287.14510162 307.27036728 287.23399373 310.53991007 287.3125 313.8125 C287.35439453 314.74126953 287.39628906 315.67003906 287.43945312 316.62695312 C287.48548641 319.17719714 287.48332865 321.4944289 287 324 C284.54296875 326.07421875 284.54296875 326.07421875 282 327 C272.56013183 336.43986817 280.34219495 353.6543968 280 367 C187.6 367 95.2 367 0 367 C0 245.89 0 124.78 0 0 Z " fill="#F4FBFE" transform="translate(25,69)"/>
<path d="M0 0 C96.36 0 192.72 0 292 0 C292.33 32.34 292.66 64.68 293 98 C296.47825081 102.0745356 296.47825081 102.0745356 300 103 C300 110.26 300 117.52 300 125 C298.02 125.99 296.04 126.98 294 128 C292.65654232 130.68691535 292.86793593 132.7705412 292.8581543 135.77905273 C292.85111984 136.99048447 292.84408539 138.2019162 292.83683777 139.45005798 C292.83059135 141.42190819 292.83059135 141.42190819 292.82421875 143.43359375 C292.8137981 144.79119141 292.80237616 146.14878173 292.78999329 147.50636292 C292.73750762 153.27805294 292.6895276 159.04960955 292.67407227 164.8215332 C292.66400026 168.35135341 292.63469921 171.88056355 292.59275246 175.4101429 C292.57443167 177.41034771 292.57709345 179.41070889 292.58000183 181.41099548 C292.56351089 182.62557938 292.54701996 183.84016327 292.5300293 185.09155273 C292.52416306 186.16251694 292.51829681 187.23348114 292.51225281 188.3368988 C292 191 292 191 290.27525616 192.64267403 C287.62641365 194.22286654 286.14788295 194.37664577 283.08364868 194.38031673 C282.08886694 194.38875668 281.0940852 194.39719662 280.06915855 194.40589231 C278.97850908 194.39988227 277.88785961 194.39387222 276.76416016 194.38768005 C275.0236737 194.39575836 275.0236737 194.39575836 273.24802589 194.40399987 C270.02662967 194.41584497 266.805564 194.41420149 263.58416462 194.40683305 C260.11034541 194.40211039 256.63658215 194.41460315 253.16278076 194.42485046 C246.35734739 194.44206106 239.55200625 194.44287388 232.74655676 194.43763756 C227.21654669 194.43359915 221.68656393 194.43503549 216.15655518 194.44038582 C214.97679656 194.44150845 214.97679656 194.44150845 213.77320445 194.44265376 C212.1755255 194.44418521 210.57784656 194.44572356 208.98016763 194.44726873 C193.99221764 194.46100172 179.00431982 194.45555027 164.01637101 194.44408352 C150.29730656 194.43414827 136.57837693 194.4470954 122.85933328 194.47101771 C108.77921876 194.49538507 94.69916709 194.50502254 80.61903191 194.49836498 C72.71141515 194.49486775 64.80390212 194.49713805 56.89630127 194.51461601 C50.16538473 194.52930843 43.43464498 194.53001234 36.70373201 194.5125451 C33.26824585 194.50400846 29.8330759 194.50194983 26.3976059 194.51719666 C22.67671476 194.53029994 18.95669271 194.51895279 15.23583984 194.50120544 C13.59986564 194.51561295 13.59986564 194.51561295 11.93084145 194.53031152 C4.67663507 194.45874317 4.67663507 194.45874317 1.32217407 192.18449497 C-0.61163982 188.98944917 -0.38679971 186.44359223 -0.25 182.75 C-0.21390625 181.48671875 -0.1778125 180.2234375 -0.140625 178.921875 C-0.09421875 177.95765625 -0.0478125 176.9934375 0 176 C1.47146484 175.67128906 1.47146484 175.67128906 2.97265625 175.3359375 C26.00285807 170.00932203 45.50794227 160.56837837 58.8125 140.0625 C70.68705843 120.98588619 74.83874217 98.47815551 70.15625 76.2265625 C64.90325141 56.36749288 52.20253807 39.0527744 35 28 C23.96081702 21.71084344 12.48622465 18.0546952 0 16 C0 10.72 0 5.44 0 0 Z " fill="#B1D8FC" transform="translate(194,164)"/>
<path d="M0 0 C12.06039438 10.43890644 22.52031937 24.2028412 24.703125 40.41796875 C24.92418929 44.1271794 24.99409214 47.82762684 25.015625 51.54296875 C25.02408447 52.93878174 25.02408447 52.93878174 25.03271484 54.36279297 C24.85638715 71.19760525 18.03874059 86.94100659 6.453125 99.16796875 C-8.55954049 113.39316786 -26.12180157 118.03646411 -46.19921875 117.65625 C-63.86018611 117.00285536 -78.48464235 108.07265199 -90.296875 95.41796875 C-91.55187231 93.74958969 -92.78420816 92.06371537 -93.984375 90.35546875 C-96.13811197 87.22021672 -96.13811197 87.22021672 -99.54296875 85.91015625 C-100.72052734 85.82121094 -100.72052734 85.82121094 -101.921875 85.73046875 C-104.21484375 85.4453125 -104.21484375 85.4453125 -106.296875 84.41796875 C-108.74293394 79.97005044 -110.01980966 75.31159728 -111.296875 70.41796875 C-111.54179688 69.57234375 -111.78671875 68.72671875 -112.0390625 67.85546875 C-112.94695279 64.5721395 -113.296875 61.84943983 -113.296875 58.41796875 C-133.096875 58.41796875 -152.896875 58.41796875 -173.296875 58.41796875 C-173.296875 58.08796875 -173.296875 57.75796875 -173.296875 57.41796875 C-172.51648865 57.41432312 -171.73610229 57.41067749 -170.93206787 57.40692139 C-163.57496229 57.36904301 -156.21836319 57.31219303 -148.86158371 57.23406601 C-145.07941715 57.19456869 -141.29748417 57.16239164 -137.51513672 57.14697266 C-133.86439865 57.13182035 -130.21430266 57.09740179 -126.5638504 57.04965973 C-125.17166985 57.03483091 -123.77939763 57.02692687 -122.38713837 57.0260849 C-120.43604335 57.02371841 -118.48503764 56.9943732 -116.53417969 56.96386719 C-114.86872101 56.95054352 -114.86872101 56.95054352 -113.1696167 56.93695068 C-109.64061139 56.2994099 -108.44654194 55.24206615 -106.296875 52.41796875 C-105.7814064 49.39277743 -105.7814064 49.39277743 -105.859375 46.04296875 C-105.06879102 29.12447167 -96.25498666 14.96502032 -84.296875 3.41796875 C-60.66792838 -17.32448723 -25.23591409 -20.58520949 0 0 Z " fill="#FBDE76" transform="translate(226.296875,207.58203125)"/>
<path d="M0 0 C0.97251963 -0.00694553 1.94503925 -0.01389106 2.94702917 -0.02104706 C6.18502164 -0.03925006 9.42227588 -0.02907119 12.66029358 -0.01878357 C14.99019924 -0.02584539 17.3201003 -0.03459152 19.6499939 -0.04489136 C25.96405599 -0.067365 32.27786717 -0.06445024 38.59195399 -0.05556989 C44.53596085 -0.04980681 50.47993144 -0.0595076 56.42393226 -0.06785773 C68.91509658 -0.08441484 81.40614776 -0.07573489 93.89730526 -0.05887216 C105.30996223 -0.04417754 116.72235588 -0.05880379 128.13497894 -0.08764232 C139.87164964 -0.11707739 151.60819898 -0.12799663 163.34490496 -0.11846012 C169.92693256 -0.11353479 176.50875551 -0.11572569 183.09075737 -0.13624763 C189.28054998 -0.15462347 195.46985383 -0.14862197 201.65962029 -0.12404823 C203.92751828 -0.1190466 206.19545364 -0.12251317 208.46332169 -0.13519669 C211.56684481 -0.15117695 214.66876818 -0.13612833 217.7722168 -0.11352539 C218.662995 -0.12536112 219.5537732 -0.13719685 220.47154468 -0.14939123 C228.27502528 -0.03445861 234.53983345 2.72993614 240.57069397 7.6552887 C249.69128525 18.24694308 248.94960022 24.3903 248.94960022 39.5146637 C156.54960022 39.5146637 64.14960022 39.5146637 -31.05039978 39.5146637 C-31.05039978 17.30587249 -31.05039978 17.30587249 -21.79258728 6.77638245 C-15.14364952 1.29242951 -8.43834452 -0.07786981 0 0 Z " fill="#5FB6FE" transform="translate(56.05039978027344,14.485336303710938)"/>
<path d="M0 0 C30.03 0 60.06 0 91 0 C91.495 5.94 91.495 5.94 92 12 C94.8815127 19.50939673 97.96131469 24.00944829 105 28 C108.17030939 29.0567698 110.46608337 29.14576531 113.79736328 29.17700195 C114.98935333 29.18983719 116.18134338 29.20267242 117.40945435 29.21589661 C118.70003754 29.22328354 119.99062073 29.23067047 121.3203125 29.23828125 C121.97931423 29.24235678 122.63831596 29.2464323 123.31728745 29.25063133 C126.80950352 29.27148037 130.30168051 29.28578367 133.79394531 29.29516602 C137.38158497 29.30619183 140.96859776 29.34054939 144.55601692 29.38033772 C147.33062805 29.40663391 150.10509322 29.41486954 152.87981796 29.41844749 C154.83892441 29.42562056 156.79793057 29.45200861 158.75686646 29.47883606 C166.50051719 29.46012723 173.47706561 28.93435051 179.54202271 23.65864563 C186.12716989 16.39092206 186.18189365 9.81727616 187 0 C217.03 0 247.06 0 278 0 C278 29.34549878 278 29.34549878 272.39453125 37.26953125 C271.87246094 37.77871094 271.35039062 38.28789062 270.8125 38.8125 C270.30332031 39.33457031 269.79414063 39.85664063 269.26953125 40.39453125 C262.50114375 45.18249556 256.12176229 46.59007715 247.94960022 46.5146637 C246.97708059 46.52160922 246.00456097 46.52855475 245.00257105 46.53571075 C241.76457858 46.55391375 238.52732434 46.54373489 235.28930664 46.53344727 C232.95940098 46.54050909 230.62949992 46.54925521 228.29960632 46.55955505 C221.98554423 46.58202869 215.67173305 46.57911394 209.35764623 46.57023358 C203.41363937 46.5644705 197.46966878 46.5741713 191.52566796 46.58252143 C179.03450364 46.59907854 166.54345246 46.59039859 154.05229496 46.57353585 C142.63963799 46.55884124 131.22724434 46.57346749 119.81462128 46.60230602 C108.07795058 46.63174108 96.34140124 46.64266032 84.60469526 46.63312382 C78.02266766 46.62819848 71.44084471 46.63038939 64.85884285 46.65091133 C58.66905024 46.66928716 52.47974639 46.66328566 46.28997993 46.63871193 C44.02208194 46.63371029 41.75414658 46.63717687 39.48627853 46.64986038 C36.38275541 46.66584064 33.28083204 46.65079203 30.17738342 46.62818909 C29.28660522 46.64002482 28.39582702 46.65186054 27.47805554 46.66405493 C19.93762464 46.55299661 13.40708724 44.18840348 7.84248978 38.98096949 C-3.31312537 26.95746939 0 18.90324889 0 0 Z " fill="#5FB6FE" transform="translate(26,451)"/>
<path d="M0 0 C0.95874527 -0.0071553 1.91749054 -0.01431061 2.9052887 -0.02168274 C3.95569839 -0.02437164 5.00610809 -0.02706055 6.08834839 -0.02983093 C7.19599045 -0.03640213 8.30363251 -0.04297333 9.44483948 -0.04974365 C13.11881577 -0.06949015 16.79275113 -0.08114335 20.46676636 -0.09111023 C22.3489065 -0.09722352 22.3489065 -0.09722352 24.26906967 -0.10346031 C30.22726644 -0.1221762 36.18545021 -0.13673914 42.14366925 -0.14507228 C49.00627659 -0.15483013 55.86856013 -0.18111187 62.73105347 -0.22157317 C68.68600999 -0.25546994 74.64088799 -0.26722549 80.59594345 -0.27127647 C83.12283394 -0.27614255 85.64972097 -0.28775705 88.176548 -0.30631447 C91.71902311 -0.33071025 95.26065841 -0.32973929 98.80319214 -0.32279968 C99.84145645 -0.33560974 100.87972076 -0.3484198 101.94944763 -0.36161804 C108.48255041 -0.31512185 113.69925971 0.71028185 119.33395386 4.14717102 C121.49020386 6.43623352 121.49020386 6.43623352 122.83395386 8.77217102 C123.29801636 9.54818665 123.76207886 10.32420227 124.24020386 11.12373352 C127.1505633 16.50789849 126.59713035 21.71524413 126.64645386 27.77217102 C126.67545776 28.93619446 126.70446167 30.1002179 126.73434448 31.29951477 C126.79378023 39.37363214 125.96702368 45.10787187 120.48239136 51.20576477 C119.89715698 51.66080383 119.31192261 52.1158429 118.70895386 52.58467102 C118.11856323 53.05775696 117.52817261 53.5308429 116.91989136 54.01826477 C114.00488789 56.09323029 112.12833445 56.27995386 108.59161377 56.30780029 C107.09028397 56.32286873 107.09028397 56.32286873 105.55862427 56.33824158 C104.45629456 56.34407257 103.35396484 56.34990356 102.2182312 56.35591125 C101.06036102 56.36569504 99.90249084 56.37547882 98.70953369 56.38555908 C94.86299803 56.41556643 91.01649732 56.43691503 87.16989136 56.45576477 C85.85780323 56.4623366 84.5457151 56.46890842 83.19386673 56.4756794 C77.67793105 56.50207358 72.16199599 56.52506761 66.64601707 56.54017544 C58.74940978 56.56205841 50.85348453 56.60397125 42.95714986 56.67361301 C37.40119578 56.72094265 31.84542506 56.74512116 26.28927577 56.75237232 C22.97320182 56.75731705 19.65807049 56.77532973 16.34217453 56.81211662 C12.63625884 56.85101178 8.93211495 56.85206675 5.2260437 56.8441925 C4.13585937 56.86419312 3.04567505 56.88419373 1.92245483 56.90480042 C-4.39278446 56.84465677 -8.16329978 55.92200245 -13.04115868 51.82579136 C-19.93932991 44.69950675 -20.05353708 37.33083639 -20.10354614 27.83467102 C-20.13641724 26.74476868 -20.16928833 25.65486633 -20.20315552 24.53193665 C-20.25110566 17.28274628 -19.22595061 11.92729877 -14.66604614 6.14717102 C-10.20970651 2.07310187 -6.03693043 0.03094874 0 0 Z " fill="#040405" transform="translate(323.6660461425781,283.8528289794922)"/>
<path d="M0 0 C1.49304405 -0.00856522 1.49304405 -0.00856522 3.01625061 -0.01730347 C4.11237167 -0.01842133 5.20849274 -0.01953918 6.33782959 -0.02069092 C7.48915878 -0.02565582 8.64048798 -0.03062073 9.82670593 -0.03573608 C13.6504068 -0.05038756 17.47406616 -0.05716508 21.29779053 -0.06268311 C23.27894114 -0.06698018 25.26009174 -0.07127776 27.24124217 -0.07565761 C32.76406587 -0.08747492 38.2868795 -0.09500795 43.80971456 -0.09845281 C50.94850191 -0.10293012 58.08709746 -0.12046113 65.2258265 -0.1494534 C70.7452395 -0.17108957 76.26459862 -0.18115817 81.78405356 -0.18249393 C85.07965482 -0.18354088 88.37503503 -0.19087433 91.67060089 -0.20731354 C95.35018959 -0.22435629 99.02931125 -0.22249763 102.70892334 -0.21600342 C104.34095955 -0.22982559 104.34095955 -0.22982559 106.00596619 -0.243927 C112.44388998 -0.20830979 117.13343011 0.30119756 122.11029053 4.78887939 C122.57950928 5.35864502 123.04872803 5.92841064 123.53216553 6.51544189 C124.01169678 7.08005127 124.49122803 7.64466064 124.98529053 8.22637939 C128.99695687 14.14721225 128.61548736 20.06091615 128.59466553 26.95294189 C128.61077881 28.00803955 128.62689209 29.06313721 128.64349365 30.15020752 C128.64823533 37.7605948 127.97734771 43.75221286 123.09466553 49.89044189 C115.96991889 55.59023921 109.98585711 56.73093954 100.96014404 56.67388916 C99.29758575 56.68681252 99.29758575 56.68681252 97.60144043 56.69999695 C93.95441019 56.72261395 90.30815102 56.71592528 86.66107178 56.70684814 C84.1157356 56.71208563 81.57040137 56.71836257 79.02507019 56.72563171 C73.69652143 56.73602818 68.36825009 56.7318166 63.03973389 56.71685791 C56.89900064 56.69994089 50.75897851 56.71577397 44.61832291 56.74808079 C38.68732906 56.77809071 32.75655463 56.77994206 26.82548332 56.7705822 C24.31256117 56.76976384 21.79962408 56.77660495 19.28674507 56.79135323 C15.76850183 56.80883726 12.25176512 56.79422185 8.73358154 56.77154541 C7.18796791 56.78908371 7.18796791 56.78908371 5.61112976 56.80697632 C-1.23086729 56.71757635 -6.20155235 55.2937948 -11.71783447 51.14044189 C-17.7954588 43.81612539 -18.08171181 36.39715127 -18.09283447 27.26544189 C-18.12957275 25.68956299 -18.12957275 25.68956299 -18.16705322 24.08184814 C-18.19584856 16.41269031 -17.06872273 10.86600753 -11.86627197 5.08184814 C-11.2810376 4.62680908 -10.69580322 4.17177002 -10.09283447 3.70294189 C-9.50244385 3.22985596 -8.91205322 2.75677002 -8.30377197 2.26934814 C-5.39108894 0.19603436 -3.53338358 0.01211026 0 0 Z " fill="#040505" transform="translate(321.71783447265625,214.85955810546875)"/>
<path d="M0 0 C1.08277252 0.00170874 1.08277252 0.00170874 2.18741924 0.003452 C3.02244053 -0.00252114 3.85746182 -0.00849429 4.71778679 -0.01464844 C6.09374754 -0.00154065 6.09374754 -0.00154065 7.49750549 0.01183194 C8.47195422 0.00926866 9.44640296 0.00670539 10.45038044 0.00406444 C13.73027757 -0.00089465 17.00971894 0.0156547 20.28957397 0.03201932 C22.63481413 0.03286513 24.98005509 0.03239135 27.32529479 0.0306918 C33.70514808 0.02982864 40.08483325 0.04750646 46.46464735 0.06841367 C52.45253436 0.08523227 58.44042141 0.08828069 64.42832754 0.09136929 C76.28966024 0.09793747 88.1509311 0.11790854 100.01223022 0.14627713 C111.53533905 0.17380824 123.05843108 0.19504645 134.58156615 0.20780057 C135.29168293 0.20858874 136.00179971 0.20937691 136.73343518 0.21018896 C140.29583213 0.21410403 143.85822919 0.21789517 147.42062634 0.22162467 C176.98090571 0.25273198 206.54111973 0.30640256 236.10134155 0.37259549 C236.10134155 7.30259549 236.10134155 14.23259549 236.10134155 21.37259549 C156.57134155 21.37259549 77.04134155 21.37259549 -4.89865845 21.37259549 C-4.89865845 15.43259549 -4.89865845 9.49259549 -4.89865845 3.37259549 C-1.89865845 0.37259549 -1.89865845 0.37259549 0 0 Z " fill="#F77D84" transform="translate(198.89865845441818,127.62740451097488)"/>
<path d="M0 0 C6.6 0 13.2 0 20 0 C20.0093457 2.94776367 20.01869141 5.89552734 20.02832031 8.93261719 C20.06206268 18.66373615 20.11759625 28.39464241 20.18390274 38.12559128 C20.22343954 44.0264473 20.25559764 49.9271527 20.27099609 55.828125 C20.28612171 61.52116741 20.32049458 67.2137959 20.36830902 72.90665436 C20.38316509 75.08035945 20.39104342 77.25412363 20.39188385 79.42787933 C20.39424251 82.46897193 20.42123387 85.50891034 20.45410156 88.54980469 C20.4490712 89.45179596 20.44404083 90.35378723 20.43885803 91.28311157 C20.49866334 96.25123931 20.49866334 96.25123931 22.84661865 100.52813721 C25.02270207 102.15993608 25.02270207 102.15993608 28 103 C28 110.26 28 117.52 28 125 C26.02 125.99 24.04 126.98 22 128 C20.65654232 130.68691535 20.86793593 132.7705412 20.8581543 135.77905273 C20.85111984 136.99048447 20.84408539 138.2019162 20.83683777 139.45005798 C20.83059135 141.42190819 20.83059135 141.42190819 20.82421875 143.43359375 C20.8137981 144.79119141 20.80237616 146.14878173 20.78999329 147.50636292 C20.73750762 153.27805294 20.6895276 159.04960955 20.67407227 164.8215332 C20.66400026 168.35135341 20.63469921 171.88056355 20.59275246 175.4101429 C20.57443167 177.41034771 20.57709345 179.41070889 20.58000183 181.41099548 C20.56351089 182.62557938 20.54701996 183.84016327 20.5300293 185.09155273 C20.52416306 186.16251694 20.51829681 187.23348114 20.51225281 188.3368988 C20 191 20 191 18.27595448 192.64337236 C15.62121863 194.22578012 14.14296019 194.37320497 11.07247543 194.36914349 C10.0752269 194.37511663 9.07797836 194.38108978 8.05051017 194.38724393 C6.95713222 194.3785054 5.86375427 194.36976688 4.73724365 194.36076355 C3.57409708 194.36332682 2.41095051 194.3658901 1.21255708 194.36853105 C-2.01658674 194.37262188 -5.24537036 194.36323207 -8.47447157 194.34819686 C-11.95636965 194.33525286 -15.43825065 194.3396248 -18.92016602 194.34190369 C-24.95300536 194.34347746 -30.98574744 194.33405743 -37.01856232 194.31719017 C-45.74100542 194.29281879 -54.46340145 194.28499681 -63.18587491 194.2812262 C-77.33715942 194.27465879 -91.48839208 194.25468977 -105.63964844 194.22631836 C-119.38704163 194.19878528 -133.13442074 194.17754803 -146.88183594 194.16479492 C-147.72909179 194.16400675 -148.57634764 194.16321858 -149.44927791 194.16240653 C-153.69967152 194.15849144 -157.95006523 194.15470031 -162.200459 194.15097082 C-197.46700963 194.11986589 -232.73350004 194.06702221 -268 194 C-268 193.67 -268 193.34 -268 193 C-179.56 193 -91.12 193 0 193 C0 129.31 0 65.62 0 0 Z " fill="#87C3F6" transform="translate(466,164)"/>
<path d="M0 0 C0.92534546 -0.00845947 1.85069092 -0.01691895 2.80407715 -0.02563477 C3.81715942 -0.01956207 4.8302417 -0.01348938 5.87402344 -0.00723267 C6.9425354 -0.01248962 8.01104736 -0.01774658 9.11193848 -0.02316284 C12.65257276 -0.03639311 16.19275939 -0.02761378 19.73339844 -0.01748657 C22.18815192 -0.01950643 24.64290482 -0.02241713 27.09765625 -0.02618408 C32.24582627 -0.03061155 37.39384028 -0.02416262 42.54199219 -0.01016235 C49.150049 0.00692955 55.7577403 -0.00290934 62.36578369 -0.02087975 C67.43573779 -0.03170605 72.50560484 -0.02827651 77.57556152 -0.02049637 C80.0124923 -0.01849118 82.44943091 -0.02096476 84.88635254 -0.02793503 C88.28870665 -0.03553035 91.69046392 -0.02397164 95.09277344 -0.00723267 C96.10585571 -0.01330536 97.11893799 -0.01937805 98.16271973 -0.02563477 C99.55073792 -0.01294556 99.55073792 -0.01294556 100.96679688 0 C102.17357086 0.00169662 102.17357086 0.00169662 103.40472412 0.00342751 C106.00358391 0.47542566 106.89184848 1.30847369 108.48339844 3.38095093 C108.85571289 5.61752319 108.85571289 5.61752319 108.84667969 8.19735718 C108.84571289 9.59051147 108.84571289 9.59051147 108.84472656 11.0118103 C108.82861328 11.97925171 108.8125 12.94669312 108.79589844 13.94345093 C108.79912109 14.91475952 108.80234375 15.88606812 108.80566406 16.8868103 C108.75041853 24.11393084 108.75041853 24.11393084 106.48339844 26.38095093 C104.4937439 26.63263321 104.4937439 26.63263321 102.00439453 26.63491821 C100.59102814 26.64337769 100.59102814 26.64337769 99.14910889 26.65200806 C98.11215881 26.64795959 97.07520874 26.64391113 96.00683594 26.63973999 C94.91735657 26.64324463 93.8278772 26.64674927 92.7053833 26.65036011 C89.08965763 26.6591915 85.47412624 26.65332323 81.85839844 26.64657593 C79.35498008 26.64792217 76.85156199 26.64986236 74.34814453 26.65237427 C69.0956828 26.65532744 63.843272 26.65121127 58.59082031 26.64169312 C52.51391026 26.63080826 46.43713439 26.63433375 40.36022758 26.64534593 C34.52002295 26.65550653 28.67986943 26.65444248 22.83966064 26.64858246 C20.35166404 26.64724451 17.86366402 26.64889873 15.37567139 26.65354156 C11.90367447 26.65859814 8.43193834 26.65090865 4.95996094 26.63973999 C3.92301086 26.64378845 2.88606079 26.64783691 1.81768799 26.65200806 C0.87544373 26.64636841 -0.06680054 26.64072876 -1.03759766 26.63491821 C-1.85908295 26.63416416 -2.68056824 26.63341011 -3.52694702 26.63263321 C-5.51660156 26.38095093 -5.51660156 26.38095093 -7.51660156 24.38095093 C-7.96751832 20.9215176 -7.84066578 17.42890659 -7.82910156 13.94345093 C-7.84521484 12.97600952 -7.86132812 12.00856812 -7.87792969 11.0118103 C-7.87857422 10.08304077 -7.87921875 9.15427124 -7.87988281 8.19735718 C-7.88286377 7.34601196 -7.88584473 6.49466675 -7.88891602 5.61752319 C-7.12036004 1.00064366 -4.33984271 0.00610143 0 0 Z " fill="#DFF3FC" transform="translate(326.5166015625,298.6190490722656)"/>
<path d="M0 0 C1.41336639 -0.00845947 1.41336639 -0.00845947 2.85528564 -0.01708984 C3.89223572 -0.01304138 4.92918579 -0.00899292 5.99755859 -0.00482178 C7.08703796 -0.00832642 8.17651733 -0.01183105 9.29901123 -0.01544189 C12.91473691 -0.02427329 16.53026829 -0.01840502 20.14599609 -0.01165771 C22.64941445 -0.01300396 25.15283255 -0.01494415 27.65625 -0.01745605 C32.90871173 -0.02040923 38.16112253 -0.01629306 43.41357422 -0.0067749 C49.49048428 0.00410995 55.56726014 0.00058447 61.64416695 -0.01042771 C67.48437158 -0.02058832 73.3245251 -0.01952426 79.16473389 -0.01366425 C81.6527305 -0.0123263 84.14073051 -0.01398051 86.62872314 -0.01862335 C90.10072006 -0.02367993 93.57245619 -0.01599044 97.04443359 -0.00482178 C98.08138367 -0.00887024 99.11833374 -0.0129187 100.18670654 -0.01708984 C101.12895081 -0.0114502 102.07119507 -0.00581055 103.04199219 0 C103.86347748 0.00075405 104.68496277 0.0015081 105.53134155 0.002285 C107.52099609 0.25396729 107.52099609 0.25396729 109.52099609 2.25396729 C109.97191285 5.71340062 109.84506031 9.20601163 109.83349609 12.69146729 C109.84960938 13.65890869 109.86572266 14.6263501 109.88232422 15.62310791 C109.88296875 16.55187744 109.88361328 17.48064697 109.88427734 18.43756104 C109.8872583 19.28890625 109.89023926 20.14025146 109.89331055 21.01739502 C109.42938259 23.80430913 108.72055277 24.52332064 106.52099609 26.25396729 C104.44232178 26.63149071 104.44232178 26.63149071 102.00439453 26.63491821 C101.07904907 26.64337769 100.15370361 26.65183716 99.20031738 26.66055298 C98.18723511 26.65448029 97.17415283 26.64840759 96.13037109 26.64215088 C95.06185913 26.64740784 93.99334717 26.65266479 92.89245605 26.65808105 C89.35182177 26.67131132 85.81163514 26.66253199 82.27099609 26.65240479 C79.81624261 26.65442464 77.36148971 26.65733534 74.90673828 26.66110229 C69.75856827 26.66552976 64.61055425 26.65908083 59.46240234 26.64508057 C52.85434553 26.62798866 46.24665423 26.63782755 39.63861084 26.65579796 C34.56865674 26.66662426 29.49878969 26.66319472 24.42883301 26.65541458 C21.99190223 26.65340939 19.55496362 26.65588297 17.11804199 26.66285324 C13.71568788 26.67044856 10.31393061 26.65888986 6.91162109 26.64215088 C5.39199768 26.65125992 5.39199768 26.65125992 3.8416748 26.66055298 C2.45365662 26.64786377 2.45365662 26.64786377 1.03759766 26.63491821 C0.23308167 26.63378714 -0.57143433 26.63265606 -1.40032959 26.63149071 C-3.99918938 26.15949255 -4.88745395 25.32644452 -6.47900391 23.25396729 C-6.85131836 21.01739502 -6.85131836 21.01739502 -6.84228516 18.43756104 C-6.84164063 17.5087915 -6.84099609 16.58002197 -6.84033203 15.62310791 C-6.82421875 14.6556665 -6.80810547 13.6882251 -6.79150391 12.69146729 C-6.79472656 11.72015869 -6.79794922 10.7488501 -6.80126953 9.74810791 C-6.72680027 0.00617461 -6.72680027 0.00617461 0 0 Z " fill="#DFF3FC" transform="translate(325.47900390625,229.74603271484375)"/>
<path d="M0 0 C2.375 1.625 2.375 1.625 4 4 C4.061875 4.99 4.12375 5.98 4.1875 7 C4.6483836 10.08020129 4.6483836 10.08020129 6.84375 11.09765625 C8.4343445 11.75245099 10.03101874 12.39263113 11.6328125 13.01953125 C15.30600921 14.54093781 17.33904996 15.99790251 20 19 C20.77474818 22.06295793 20.52293157 23.75782426 20 27 C17.92016773 29.55979356 16.52465681 29.90238943 13.3125 30.5 C9.96934088 29.99537221 8.41096166 29.20520154 5.5625 27.5 C1.51732392 25.09604856 -1.21821711 24.34367686 -6 25 C-9.38031589 26.18767855 -9.93216817 26.89825225 -12 30 C-12.24055468 32.05709596 -12.24055468 32.05709596 -12.125 34.1875 C-12.08375 35.445625 -12.0425 36.70375 -12 38 C-11.31550781 38.27070313 -10.63101563 38.54140625 -9.92578125 38.8203125 C-5.40244024 40.64414292 -0.91686629 42.55309754 3.5546875 44.5 C5.51042868 45.35147915 7.47096585 46.19259945 9.4453125 47 C15.62813919 49.71559447 20.18987982 54.31962276 23.17578125 60.390625 C25.30234578 67.12306626 24.78411786 74.83807354 21.90234375 81.265625 C18.6949211 87.43054125 14.92858725 91.41936809 9 95 C6 95.875 6 95.875 4 96 C4.0825 97.051875 4.165 98.10375 4.25 99.1875 C4 103 4 103 2.4375 105.9375 C0 108 0 108 -3.5 108.625 C-7 108 -7 108 -9.4375 105.875 C-11.20830209 102.61672415 -11.33975517 100.65236803 -11 97 C-12.11375 96.95875 -13.2275 96.9175 -14.375 96.875 C-19.98852138 96.2021808 -24.50547921 93.30299091 -29 90 C-30.40457737 87.19084526 -30.24895157 85.11189466 -30 82 C-29 79.625 -29 79.625 -27 78 C-20.1646517 77.22826713 -20.1646517 77.22826713 -16.7421875 79.49609375 C-13.16980829 81.45530457 -9.97268573 81.51465936 -6 81.5 C-5.30132812 81.52835937 -4.60265625 81.55671875 -3.8828125 81.5859375 C0.11702202 81.60103122 1.81114827 81.15469769 4.9375 78.59375 C7.85875672 74.92004837 8.16708938 72.76244787 8.42578125 68.0703125 C7.78463318 64.95280353 6.49941056 63.957937 4 62 C1.35755446 60.71375347 -1.37098177 59.70788556 -4.125 58.6875 C-13.84208783 54.86804274 -22.58106076 50.99064524 -27 41 C-29.10266977 34.69199068 -28.72233847 28.78533846 -25.9375 22.75 C-22.88840891 17.2650911 -19.19527664 12.95178453 -13.0625 11.125 C-12.381875 11.08375 -11.70125 11.0425 -11 11 C-11.0825 9.9275 -11.165 8.855 -11.25 7.75 C-11 4 -11 4 -9.4375 1.5625 C-6.05782196 -0.60396028 -3.94016013 -0.56288002 0 0 Z " fill="#040301" transform="translate(190,206)"/>
<path d="M0 0 C16.88012013 2.5021417 31.04062078 10.93304786 42 24 C51.00469867 36.60978266 55.17727085 48.40627561 55.1875 63.75 C55.19974609 64.70132813 55.21199219 65.65265625 55.22460938 66.6328125 C55.25948239 83.60434667 48.43081586 99.42256755 36.75 111.75 C25.9276676 122.00466353 12.72018772 128.05855792 -2 130 C-2 129.34 -2 128.68 -2 128 C-0.41427057 126.93882745 1.22174792 125.9525663 2.875 125 C19.40222116 114.71828401 28.96165474 98.17632231 33.875 79.625 C37.83276616 60.04946198 33.49498281 40.80368866 23 24 C17.87911512 16.31977584 11.57408328 10.43888659 4.11450195 5.11962891 C2.713902 4.1192907 1.35263567 3.06429954 0 2 C0 1.34 0 0.68 0 0 Z " fill="#FCCF5A" transform="translate(196,195)"/>
<path d="M0 0 C0.33 0 0.66 0 1 0 C1 120.78 1 241.56 1 366 C86.47 366 171.94 366 260 366 C260 345.54 260 325.08 260 304 C268.91 304 277.82 304 287 304 C287.103125 307.238125 287.20625 310.47625 287.3125 313.8125 C287.38078003 315.33774292 287.38078003 315.33774292 287.45043945 316.89379883 C287.48850888 319.34669771 287.46521345 321.5883379 287 324 C284.54296875 326.07421875 284.54296875 326.07421875 282 327 C272.56013183 336.43986817 280.34219495 353.6543968 280 367 C187.6 367 95.2 367 0 367 C0 245.89 0 124.78 0 0 Z " fill="#BDCCD3" transform="translate(25,69)"/>
<path d="M0 0 C-0.72703125 0.37769531 -1.4540625 0.75539062 -2.203125 1.14453125 C-20.5917962 11.21114997 -35.64344776 27.82643782 -41.61328125 48.1875 C-42.88269712 52.76684482 -43.91692441 57.36308262 -45 62 C-51.6 62 -58.2 62 -65 62 C-62.78602648 52.40611474 -60.54496197 43.79189365 -56 35 C-56.86382545 35.48650276 -56.86382545 35.48650276 -57.74510193 35.98283386 C-60.08713561 37.03930616 -61.5346754 37.25773834 -64.07836914 37.2746582 C-65.26463646 37.28895622 -65.26463646 37.28895622 -66.47486877 37.30354309 C-67.31976364 37.30263168 -68.16465851 37.30172028 -69.03515625 37.30078125 C-69.91022324 37.30506638 -70.78529022 37.3093515 -71.68687439 37.31376648 C-73.53350968 37.31950089 -75.38016755 37.32001659 -77.22680664 37.31567383 C-80.0558907 37.3125074 -82.88393531 37.33600594 -85.71289062 37.36132812 C-87.50781118 37.36360052 -89.30273455 37.36430489 -91.09765625 37.36328125 C-92.3680349 37.37709587 -92.3680349 37.37709587 -93.66407776 37.39118958 C-99.53691705 37.34474928 -99.53691705 37.34474928 -101.71556091 35.7228241 C-103.5068503 33.32015934 -103.4585532 30.95878707 -103.59375 28.03515625 C-102.64222081 24.77366476 -100.82705842 23.80317362 -98 22 C-95.06715261 21.60924859 -92.5207247 21.43788478 -89.59375 21.46875 C-88.79142944 21.4649231 -87.98910889 21.46109619 -87.16247559 21.45715332 C-85.47142273 21.45443948 -83.78032752 21.46176376 -82.08935547 21.47851562 C-79.50783284 21.49993501 -76.9290928 21.47869839 -74.34765625 21.453125 C-72.70051472 21.45576837 -71.05337491 21.46089355 -69.40625 21.46875 C-68.63841187 21.46065308 -67.87057373 21.45255615 -67.07946777 21.44421387 C-63.41828836 21.50795207 -61.18241277 21.88968998 -58.02539062 23.79882812 C-55.32600466 26.7324906 -55.22526793 29.09535584 -55 33 C-54.43152344 32.28714844 -53.86304688 31.57429688 -53.27734375 30.83984375 C-42.58178827 17.57306959 -19.53127439 -5.89784653 0 0 Z " fill="#DEF2FB" transform="translate(151,188)"/>
<path d="M0 0 C1.60294922 0.01353516 1.60294922 0.01353516 3.23828125 0.02734375 C4.04652344 0.03894531 4.85476562 0.05054687 5.6875 0.0625 C5.04006836 1.13177734 4.39263672 2.20105469 3.72558594 3.30273438 C0.97626574 8.831677 1.08493444 14.14361446 1.078125 20.21875 C1.06158875 21.36162476 1.04505249 22.50449951 1.02801514 23.68200684 C0.97968395 27.30889338 0.95819625 30.93536104 0.9375 34.5625 C0.90932803 37.0312709 0.8793989 39.50002242 0.84765625 41.96875 C0.7739288 47.99992433 0.72219916 54.03098158 0.6875 60.0625 C-0.16972656 60.18367188 -1.02695313 60.30484375 -1.91015625 60.4296875 C-3.62525391 60.68105469 -3.62525391 60.68105469 -5.375 60.9375 C-7.06302734 61.18113281 -7.06302734 61.18113281 -8.78515625 61.4296875 C-12.41149429 62.08025977 -15.79067872 62.99473762 -19.3125 64.0625 C-19.38865491 56.62441578 -19.44114414 49.18643237 -19.47729492 41.74804688 C-19.49236786 39.21838626 -19.51282961 36.68875171 -19.53881836 34.15917969 C-19.57526616 30.52011677 -19.5922417 26.88139984 -19.60546875 23.2421875 C-19.62095261 22.11384491 -19.63643646 20.98550232 -19.65238953 19.82296753 C-19.65359739 14.16915297 -19.61650143 9.89306192 -16.3125 5.0625 C-11.28019968 0.16262864 -6.80216238 -0.07474904 0 0 Z " fill="#DFF4FD" transform="translate(178.3125,119.9375)"/>
<path d="M0 0 C1.22484604 -0.01260864 2.44969208 -0.02521729 3.71165466 -0.03820801 C5.69142052 -0.02606262 5.69142052 -0.02606262 7.71118164 -0.01367188 C9.08354467 -0.01636793 10.45590583 -0.02025129 11.82826233 -0.02526855 C14.70242527 -0.03116044 17.57609034 -0.02261291 20.45019531 -0.00390625 C24.12688137 0.01886275 27.80239811 0.00577303 31.4790411 -0.01819611 C34.31275673 -0.03268152 37.14619722 -0.02803542 39.97992134 -0.01768494 C41.9923135 -0.01373347 44.00471653 -0.02584371 46.01707458 -0.03820801 C47.85907188 -0.01929504 47.85907188 -0.01929504 49.73828125 0 C50.81653671 0.00318237 51.89479218 0.00636475 53.00572205 0.00964355 C56.66598524 0.6445823 58.34816881 1.88560223 60.93383789 4.51757812 C61.49633789 8.01757812 61.49633789 8.01757812 60.93383789 11.51757812 C58.79599243 14.35292118 57.6194156 15.39683449 54.0880127 16.01878357 C52.98977173 16.01894974 51.89153076 16.01911591 50.76000977 16.01928711 C48.88786804 16.03335854 48.88786804 16.03335854 46.97790527 16.04771423 C45.61945916 16.03723586 44.26101967 16.02586684 42.90258789 16.01367188 C41.50541102 16.0138269 40.10823371 16.01531651 38.71105957 16.01808167 C35.78561344 16.01946494 32.86065801 16.00692051 29.93530273 15.98413086 C26.18916847 15.95574566 22.44384931 15.95848411 18.69765472 15.97122097 C15.81338564 15.97818263 12.92930431 15.97038346 10.0450592 15.95796394 C8.66399353 15.95345413 7.28290768 15.95310855 5.90184021 15.95702934 C3.97041497 15.95994597 2.03899372 15.94125862 0.10766602 15.92163086 C-0.99057495 15.91622787 -2.08881592 15.91082489 -3.22033691 15.90525818 C-6.43486565 15.46735051 -7.8317184 14.85448979 -10.06616211 12.51757812 C-10.74957919 7.13566858 -10.74957919 7.13566858 -10.06616211 4.51757812 C-6.96938715 0.59556596 -4.92519014 0.01454698 0 0 Z " fill="#030405" transform="translate(315.066162109375,178.482421875)"/>
<path d="M0 0 C8.18254735 -0.70002782 14.22018997 0.1845389 21 5 C26.96117617 10.24137429 30.425141 15.22413366 32 23 C32 28.28 32 33.56 32 39 C-60.4 39 -152.8 39 -248 39 C-248 33.72 -248 28.44 -248 23 C-247.67 23 -247.34 23 -247 23 C-247 27.95 -247 32.9 -247 38 C-161.53 38 -76.06 38 12 38 C11.00866873 18.2362749 11.00866873 18.2362749 1.390625 2.6796875 C0 1 0 1 0 0 Z " fill="#288ED6" transform="translate(273,15)"/>
<path d="M0 0 C21.78 0 43.56 0 66 0 C66 10.30769231 66 10.30769231 63 14 C60.43031686 15.28484157 58.57312805 15.1410512 55.69580078 15.16113281 C54.03365036 15.17554413 54.03365036 15.17554413 52.33792114 15.19024658 C50.53482986 15.1966214 50.53482986 15.1966214 48.6953125 15.203125 C46.84931961 15.21167511 46.84931961 15.21167511 44.96603394 15.22039795 C42.35838687 15.22985799 39.75072779 15.2363859 37.14306641 15.24023438 C34.46779811 15.24462833 31.79285066 15.25855273 29.11767578 15.28125 C25.26845452 15.31164484 21.41964024 15.3222751 17.5703125 15.328125 C16.37230011 15.3404718 15.17428772 15.3528186 13.93997192 15.36553955 C12.82556732 15.36253845 11.71116272 15.35953735 10.56298828 15.35644531 C9.58306915 15.36009094 8.60315002 15.36373657 7.59353638 15.36749268 C4.5429109 14.93523249 3.19685189 14.13332064 1 12 C0 9 0 9 0 0 Z " fill="#98E4FA" transform="translate(132,451)"/>
<path d="M0 0 C6.27 0 12.54 0 19 0 C19 14.52 19 29.04 19 44 C-15.98 44 -50.96 44 -87 44 C-87 43.67 -87 43.34 -87 43 C-58.29 43 -29.58 43 0 43 C0 28.81 0 14.62 0 0 Z " fill="#DEF1FA" transform="translate(285,69)"/>
<path d="M0 0 C6.27 0 12.54 0 19 0 C19.10856412 4.14654634 19.18760125 8.29021168 19.25 12.4375 C19.30027344 14.18450195 19.30027344 14.18450195 19.3515625 15.96679688 C19.44638054 24.38189785 18.27499754 30.37038061 13.39453125 37.26953125 C7.29752895 43.21599029 1.55848962 46.21679978 -7.0625 46.25 C-8.70922748 46.18675121 -10.35577655 46.11063933 -12 46 C-11.61328125 45.46632813 -11.2265625 44.93265625 -10.828125 44.3828125 C-5.37609198 36.58262665 -1.04049785 28.09344199 -0.68359375 18.45703125 C-0.64169922 17.38388672 -0.59980469 16.31074219 -0.55664062 15.20507812 C-0.51732422 14.08552734 -0.47800781 12.96597656 -0.4375 11.8125 C-0.39431641 10.68134766 -0.35113281 9.55019531 -0.30664062 8.38476562 C-0.2005099 5.58998975 -0.09974603 2.79501102 0 0 Z " fill="#26A5FC" transform="translate(285,451)"/>
<path d="M0 0 C4.76984706 -0.09192425 9.53661287 -0.17152499 14.30664062 -0.21972656 C15.92849143 -0.23982144 17.55026997 -0.26710254 19.171875 -0.30175781 C21.5053898 -0.3503727 23.83794557 -0.37298889 26.171875 -0.390625 C27.25647003 -0.42159271 27.25647003 -0.42159271 28.36297607 -0.45318604 C30.42480469 -0.45410156 30.42480469 -0.45410156 34 0 C38 4 38 4 38 21 C25.46 21 12.92 21 0 21 C0 14.07 0 7.14 0 0 Z " fill="#E85D67" transform="translate(449,128)"/>
<path d="M0 0 C8.91 0 17.82 0 27 0 C29.375 9.0625 29.375 9.0625 30.11083984 11.87524414 C30.40788818 13.00627563 30.40788818 13.00627563 30.7109375 14.16015625 C30.90993652 14.91949463 31.10893555 15.67883301 31.31396484 16.46118164 C32.17566116 19.65007131 33.09252422 22.82383477 34 26 C25.09 26 16.18 26 7 26 C2.46355685 15.79300292 2.46355685 15.79300292 1.25 10.75 C1.00765625 9.77546875 0.7653125 8.8009375 0.515625 7.796875 C0 5 0 5 0 0 Z " fill="#E0F4FD" transform="translate(86,266)"/>
<path d="M0 0 C0.80232056 -0.0038269 1.60464111 -0.00765381 2.43127441 -0.01159668 C4.12232727 -0.01431052 5.81342248 -0.00698624 7.50439453 0.00976562 C10.08591716 0.03118501 12.6646572 0.00994839 15.24609375 -0.015625 C16.89323528 -0.01298163 18.54037509 -0.00785645 20.1875 0 C21.3392572 -0.01214539 21.3392572 -0.01214539 22.51428223 -0.02453613 C26.18981781 0.039452 28.41695656 0.42397299 31.58398438 2.34570312 C33.59375 4.53125 33.59375 4.53125 34.15625 8.03125 C33.59375 11.53125 33.59375 11.53125 32.12329102 13.71899414 C28.37530395 16.40418939 25.06302577 16.08723604 20.55859375 16.02734375 C19.68352676 16.02879898 18.80845978 16.03025421 17.90687561 16.03175354 C16.06019759 16.03009598 14.21350556 16.01855062 12.36694336 15.99780273 C9.53765362 15.96881561 6.71023411 15.97720258 3.88085938 15.99023438 C2.08592838 15.98399777 0.29100331 15.97560744 -1.50390625 15.96484375 C-2.7742849 15.96924721 -2.7742849 15.96924721 -4.07032776 15.97373962 C-9.93955524 15.87922777 -9.93955524 15.87922777 -12.12181091 14.25209045 C-13.91416502 11.85076564 -13.86483366 9.48937829 -14 6.56640625 C-12.10880974 0.08410279 -5.70949336 -0.06020713 0 0 Z " fill="#070707" transform="translate(61.40625,209.46875)"/>
<path d="M0 0 C0.75934341 -0.00619858 1.51868683 -0.01239716 2.30104065 -0.01878357 C3.90388713 -0.02587376 5.50680738 -0.02272155 7.10961914 -0.01000977 C9.5555861 0.00384496 11.9977162 -0.0302039 14.44335938 -0.06835938 C16.00390718 -0.06931078 17.56445976 -0.06745062 19.125 -0.0625 C20.21584145 -0.08238731 20.21584145 -0.08238731 21.32872009 -0.10267639 C25.23295661 -0.03149581 27.00052724 0.46731602 30.12524414 2.87915039 C32.12890625 5.56640625 32.12890625 5.56640625 32.19140625 9.19140625 C30.99233336 13.00022603 30.55693092 13.7079508 27.12890625 15.56640625 C24.41474012 15.87073856 21.93572411 16.0108748 19.22265625 16 C18.46094116 16.00524185 17.69922607 16.0104837 16.91442871 16.0158844 C15.30738542 16.02229471 13.70029516 16.02098039 12.09326172 16.01245117 C9.63684523 16.00393378 7.18274978 16.03272389 4.7265625 16.06445312 C3.16276111 16.06606515 1.59895562 16.06548759 0.03515625 16.0625 C-1.06342712 16.07935097 -1.06342712 16.07935097 -2.1842041 16.09654236 C-5.61133206 16.04978004 -7.54106765 15.80924762 -10.33398438 13.75415039 C-12.5861174 10.54872409 -12.41680858 8.38641004 -11.87109375 4.56640625 C-8.67332774 0.03070102 -5.18281044 -0.03524991 0 0 Z " fill="#010203" transform="translate(151.87109375,25.43359375)"/>
<path d="M0 0 C3.09375 -0.04125 6.1875 -0.0825 9.375 -0.125 C10.83558838 -0.15231201 10.83558838 -0.15231201 12.32568359 -0.18017578 C13.47544678 -0.18766846 13.47544678 -0.18766846 14.6484375 -0.1953125 C15.82672119 -0.21102295 15.82672119 -0.21102295 17.02880859 -0.22705078 C19 0 19 0 21 2 C21.45091675 5.45943333 21.32406422 8.95204434 21.3125 12.4375 C21.32861328 13.40494141 21.34472656 14.37238281 21.36132812 15.36914062 C21.36197266 16.29791016 21.36261719 17.22667969 21.36328125 18.18359375 C21.36626221 19.03493896 21.36924316 19.88628418 21.37231445 20.76342773 C20.90832487 23.55071205 20.20141291 24.27071227 18 26 C15.91294575 26.36914349 15.91294575 26.36914349 13.46321106 26.36076355 C12.06868965 26.36694954 12.06868965 26.36694954 10.64599609 26.3732605 C9.11930298 26.35708176 9.11930298 26.35708176 7.56176758 26.34057617 C6.48843674 26.34101425 5.4151059 26.34145233 4.30924988 26.34190369 C0.75415996 26.3398102 -2.800461 26.31645218 -6.35546875 26.29296875 C-8.81740562 26.2873748 -11.27934583 26.28310376 -13.74128723 26.28010559 C-20.22688996 26.26864104 -26.71229172 26.23915979 -33.19781494 26.20599365 C-39.8134896 26.17532758 -46.42919666 26.16160765 -53.04492188 26.14648438 C-66.03003375 26.11429182 -79.01500619 26.06365104 -92 26 C-92 25.67 -92 25.34 -92 25 C-61.64 24.67 -31.28 24.34 0 24 C0 16.08 0 8.16 0 0 Z " fill="#C0E3F0" transform="translate(414,230)"/>
<path d="M0 0 C14.29037026 -0.07004986 28.58071394 -0.122769 42.87122059 -0.15543652 C49.50641128 -0.17111285 56.14148688 -0.19238718 62.77661133 -0.22631836 C69.17620161 -0.25884137 75.57568099 -0.27683818 81.97534752 -0.28463173 C84.42066889 -0.29018792 86.86598398 -0.30103734 89.31125832 -0.31719017 C92.72822968 -0.33887029 96.14473885 -0.34197083 99.56176758 -0.34057617 C100.57956299 -0.351362 101.5973584 -0.36214783 102.64599609 -0.3732605 C103.57567703 -0.36913651 104.50535797 -0.36501251 105.46321106 -0.36076355 C106.27162351 -0.36352893 107.08003595 -0.36629431 107.91294575 -0.36914349 C110.52232281 0.09238479 111.40537057 0.91977651 113 3 C113.37231445 5.23657227 113.37231445 5.23657227 113.36328125 7.81640625 C113.36231445 9.20956055 113.36231445 9.20956055 113.36132812 10.63085938 C113.34521484 11.59830078 113.32910156 12.56574219 113.3125 13.5625 C113.31572266 14.53380859 113.31894531 15.50511719 113.32226562 16.50585938 C113.26702009 23.73297991 113.26702009 23.73297991 111 26 C109.02880859 26.22705078 109.02880859 26.22705078 106.6484375 26.1953125 C105.88192871 26.19031738 105.11541992 26.18532227 104.32568359 26.18017578 C103.35195801 26.16196777 102.37823242 26.14375977 101.375 26.125 C98.28125 26.08375 95.1875 26.0425 92 26 C92.33 17.75 92.66 9.5 93 1 C62.31 1 31.62 1 0 1 C0 0.67 0 0.34 0 0 Z " fill="#C3E6F3" transform="translate(322,299)"/>
<path d="M0 0 C9.9 1.98 9.9 1.98 20 4 C20.103125 6.454375 20.20625 8.90875 20.3125 11.4375 C20.64380343 17.7650102 21.57231801 23.08912212 24 29 C21.77144426 29.0814222 19.54202345 29.13938079 17.3125 29.1875 C15.45044922 29.23970703 15.45044922 29.23970703 13.55078125 29.29296875 C8.51126523 28.8771671 6.08066259 27.20073622 2.75 23.5 C0.4255579 20.17936842 -0.12570288 17.72410602 -0.09765625 13.76953125 C-0.09515869 13.04612549 -0.09266113 12.32271973 -0.09008789 11.57739258 C-0.08098389 10.66497803 -0.07187988 9.75256348 -0.0625 8.8125 C-0.041875 5.904375 -0.02125 2.99625 0 0 Z " fill="#DEF3FC" transform="translate(159,336)"/>
<path d="M0 0 C8.5452327 -0.27941161 17.08852489 -0.49192111 25.6372118 -0.62174606 C29.60802048 -0.68409505 33.57568124 -0.76846816 37.54467773 -0.90527344 C41.3834785 -1.03674605 45.21927601 -1.10762043 49.06015587 -1.13852692 C50.51686575 -1.16051434 51.97343102 -1.20345813 53.42884254 -1.26876068 C59.58698189 -1.53379691 65.4244679 -1.76925512 70.2371521 2.59313965 C72.18798614 4.61666815 73.93154069 6.74244226 75.63407898 8.97674561 C80.75208201 15.51670404 87.69055628 20.18637719 95 24 C90.92463883 25.67808989 87.41261961 24.23408952 83.4375 22.9375 C82.72440674 22.70708008 82.01131348 22.47666016 81.27661133 22.23925781 C70.22432419 18.5290161 59.24839806 12.48636295 51.66362 3.39884949 C49.41363107 1.50695358 47.98642396 1.60436302 45.06958008 1.56762695 C44.06876907 1.54783279 43.06795807 1.52803864 42.03681946 1.50764465 C40.95861435 1.50125473 39.88040924 1.49486481 38.76953125 1.48828125 C37.66397385 1.47033005 36.55841644 1.45237885 35.4193573 1.43388367 C31.88377715 1.37964573 28.34833304 1.34584108 24.8125 1.3125 C22.41729872 1.27933891 20.02211543 1.2448504 17.62695312 1.20898438 C11.75142406 1.12391154 5.87587768 1.05561882 0 1 C0 0.67 0 0.34 0 0 Z " fill="#DBEDF5" transform="translate(54,307)"/>
<path d="M0 0 C3.6815625 -0.0309375 3.6815625 -0.0309375 7.4375 -0.0625 C8.21150146 -0.071604 8.98550293 -0.08070801 9.78295898 -0.09008789 C11.52221717 -0.09724913 13.26145304 -0.05024702 15 0 C16 1 16 1 16.11352539 2.85766602 C16.10828857 3.64842529 16.10305176 4.43918457 16.09765625 5.25390625 C16.09443359 6.10791016 16.09121094 6.96191406 16.08789062 7.84179688 C16.07951172 8.73962891 16.07113281 9.63746094 16.0625 10.5625 C16.05798828 11.46419922 16.05347656 12.36589844 16.04882812 13.29492188 C16.03700244 15.52997589 16.01906638 17.76499602 16 20 C10.72 20 5.44 20 0 20 C0 13.4 0 6.8 0 0 Z " fill="#FD7F86" transform="translate(450,128)"/>
<path d="M0 0 C6.6 0 13.2 0 20 0 C20 10.30769231 20 10.30769231 17 14 C13.69005287 15.65497356 10.00877 15.10084335 6.375 15.0625 C5.57320312 15.05798828 4.77140625 15.05347656 3.9453125 15.04882812 C1.96350994 15.03703168 -0.01825433 15.01909605 -2 15 C-1.67 14.01 -1.34 13.02 -1 12 C-0.77674186 9.94106379 -0.59294241 7.87766347 -0.4375 5.8125 C-0.293125 3.894375 -0.14875 1.97625 0 0 Z " fill="#61D9F8" transform="translate(178,451)"/>
</svg>
