<?xml version="1.0" encoding="UTF-8"?>
<svg version="1.1" xmlns="http://www.w3.org/2000/svg" width="512" height="512">
<path d="M0 0 C3.88446678 2.58964452 6.69907021 5.64814041 8.8125 9.875 C8.8125 16.805 8.8125 23.735 8.8125 30.875 C26.3025 30.875 43.7925 30.875 61.8125 30.875 C61.8125 24.275 61.8125 17.675 61.8125 10.875 C64.79587825 4.90824351 66.48993214 2.62371993 72.1875 -0.375 C78.14674663 -2.07764189 82.68444547 -1.30556361 88.015625 1.59765625 C91.70370089 4.21939715 93.41560947 7.6843284 94.8125 11.875 C94.8125 18.145 94.8125 24.415 94.8125 30.875 C111.9725 30.875 129.1325 30.875 146.8125 30.875 C146.8125 24.605 146.8125 18.335 146.8125 11.875 C150.62218929 4.25562143 152.08407711 1.45114096 159.8125 -1.125 C165.80170055 -1.71217652 169.90731116 -0.43067074 174.8125 2.875 C182.91916319 11.39738951 179.8125 17.17250942 179.8125 30.875 C197.3025 30.875 214.7925 30.875 232.8125 30.875 C232.8125 23.945 232.8125 17.015 232.8125 9.875 C238.8125 0.875 238.8125 0.875 244.8125 -1.125 C250.42849916 -1.49326224 253.98915989 -1.34056007 258.8125 1.875 C262.81751347 5.93413527 264.94464552 8.93884328 264.91015625 14.6640625 C264.90693359 15.60507812 264.90371094 16.54609375 264.90039062 17.515625 C264.89201172 18.50046875 264.88363281 19.4853125 264.875 20.5 C264.87048828 21.49257813 264.86597656 22.48515625 264.86132812 23.5078125 C264.84952145 25.9636016 264.833054 28.41927104 264.8125 30.875 C265.72837891 30.85405273 266.64425781 30.83310547 267.58789062 30.81152344 C271.06960615 30.74230967 274.5505647 30.69270786 278.03271484 30.65527344 C279.52404498 30.63546995 281.01530094 30.60841934 282.50634766 30.57324219 C301.23100735 30.14337154 317.62366756 33.95740694 332.19921875 46.34765625 C336.41487453 50.4246806 339.68674675 54.9302217 342.8125 59.875 C343.42544922 60.82246094 343.42544922 60.82246094 344.05078125 61.7890625 C352.20941026 76.09028864 351.38819128 93.11957201 351.33007812 108.97265625 C351.3355076 111.47432358 351.34263487 113.97598772 351.35131836 116.47764587 C351.36757302 122.52885843 351.36532221 128.57979483 351.3536678 134.63099617 C351.34459008 139.54999379 351.34342806 144.46893584 351.34776306 149.38793945 C351.34837599 150.09117895 351.34898893 150.79441844 351.34962043 151.51896822 C351.35089946 152.94801284 351.35219631 154.37705745 351.3535108 155.80610204 C351.36487773 169.15993898 351.35186075 182.5136655 351.33030933 195.86748433 C351.31241052 207.31259014 351.31557282 218.75753377 351.33398438 230.20263672 C351.35540608 243.52498953 351.36381227 256.84724621 351.35153532 270.16961384 C351.35026122 271.59060477 351.34900374 273.01159571 351.34776306 274.43258667 C351.34683741 275.4810906 351.34683741 275.4810906 351.34589306 276.55077642 C351.34244638 281.46495569 351.34825306 286.37907364 351.35768127 291.29324341 C351.37009054 297.90574115 351.36121725 304.51798003 351.33810425 311.13046455 C351.33281787 313.55562392 351.33432966 315.98080911 351.34315491 318.40595818 C351.35409514 321.71760114 351.34036426 325.02826318 351.32043457 328.33984375 C351.3338189 329.7768065 351.3338189 329.7768065 351.34747362 331.24279881 C351.24496746 340.03142215 348.45244173 345.73114971 342.24052429 351.95491028 C341.32799896 352.8787149 340.41547363 353.80251953 339.47529602 354.75431824 C338.47160613 355.75023323 337.46770822 356.74593861 336.46362305 357.74145508 C335.39968413 358.81082178 334.33659636 359.88103588 333.27429199 360.95202637 C330.40120279 363.84327139 327.51570096 366.72181578 324.62717414 369.59762788 C321.59885791 372.6157789 318.58035636 375.64372085 315.56025696 378.67008972 C310.48915496 383.74845676 305.40970501 388.81835918 300.32543945 393.88354492 C294.45460508 399.73260112 288.59833514 405.59594349 282.74939889 411.46689111 C277.71797597 416.51648656 272.6787741 421.55821948 267.63303024 426.59350508 C264.62342936 429.59688277 261.61656571 432.60286703 258.61670494 435.61597633 C255.79640522 438.44786125 252.96644103 441.26972397 250.12883759 444.08426666 C249.09142523 445.11640674 248.05737061 446.15193485 247.02702522 447.19112968 C245.61578259 448.61336812 244.1908797 450.02201238 242.76542664 451.43000793 C241.97327098 452.22065549 241.18111532 453.01130304 240.36495495 453.82590961 C233.61464886 459.24500126 227.54852694 459.30900284 219.18275452 459.26268005 C217.43274734 459.27075836 217.43274734 459.27075836 215.64738649 459.27899987 C212.42173022 459.2908061 209.19640645 459.28921975 205.97074735 459.28183305 C202.48652667 459.27709537 199.00236093 459.28961701 195.51815796 459.29985046 C188.69507193 459.31703623 181.87207801 459.31787838 175.04897595 459.31263756 C169.49768771 459.30859165 163.94642664 459.31004444 158.39513969 459.31538582 C157.60417901 459.31613424 156.81321833 459.31688266 155.99828915 459.31765376 C154.39121258 459.31918531 152.78413602 459.32072366 151.17705946 459.32226873 C136.10718399 459.33599475 121.03736043 459.33055698 105.96748614 459.31908352 C92.20822026 459.30916674 78.44908916 459.32206464 64.68984408 459.34601771 C50.54177597 459.37046067 36.39377049 459.38000288 22.2456817 459.37336498 C14.31089929 459.36988225 6.3762203 459.37204114 -1.55854607 459.38961601 C-8.31869062 459.4044038 -15.07865908 459.40488905 -21.83880042 459.3875451 C-25.2818695 459.37908342 -28.72462493 459.37676495 -32.16767693 459.39219666 C-54.54978973 459.47158074 -75.0710526 458.34006896 -92.1953125 442.03125 C-105.2191566 427.93485404 -109.669134 411.01853792 -109.57518005 392.19499207 C-109.58056559 390.88026974 -109.58595113 389.56554741 -109.59149987 388.210985 C-109.60583088 384.59986678 -109.60174892 380.98897917 -109.59433305 377.37784898 C-109.58957272 373.46837491 -109.60213643 369.55894871 -109.61235046 365.64949036 C-109.62948846 358.00506091 -109.63038884 350.36071383 -109.62513756 342.71627017 C-109.621085 336.49817366 -109.62255227 330.28010136 -109.62788582 324.062006 C-109.62863424 323.17472061 -109.62938266 322.28743523 -109.63015376 321.37326241 C-109.63168535 319.57034005 -109.6332237 317.76741769 -109.63476873 315.96449534 C-109.64847588 299.08192492 -109.64306883 282.19940092 -109.63158352 265.31683157 C-109.62165471 249.89928876 -109.6345889 234.48186603 -109.65851771 219.06434175 C-109.68294836 203.2029864 -109.69250675 187.34168689 -109.68586498 171.48031312 C-109.68238135 162.58764644 -109.68454801 153.69507204 -109.70211601 144.80241966 C-109.71688776 137.23178562 -109.71740891 129.66130882 -109.7000451 122.0906777 C-109.69157312 118.23442432 -109.68929134 114.37845124 -109.70469666 110.52221298 C-109.79056263 87.32589119 -109.3422746 65.71563833 -92.34375 47.8671875 C-76.98856557 33.68033232 -59.03860159 30.33692453 -38.875 30.6875 C-37.3444144 30.70259325 -35.81381419 30.71627335 -34.28320312 30.72851562 C-30.5843247 30.7611097 -26.88601055 30.81262782 -23.1875 30.875 C-23.2189209 29.96790283 -23.2189209 29.96790283 -23.25097656 29.04248047 C-23.33458945 26.27849229 -23.38630054 23.51477087 -23.4375 20.75 C-23.47101563 19.79867187 -23.50453125 18.84734375 -23.5390625 17.8671875 C-23.62075981 11.98498093 -23.21161425 8.50016593 -19.1875 3.875 C-13.37010796 -1.37484159 -7.3959011 -2.61031804 0 0 Z " fill="#EEECEC" transform="translate(135.1875,27.125)"/>
<path d="M0 0 C3.88446678 2.58964452 6.69907021 5.64814041 8.8125 9.875 C8.8125 16.805 8.8125 23.735 8.8125 30.875 C26.3025 30.875 43.7925 30.875 61.8125 30.875 C61.8125 24.275 61.8125 17.675 61.8125 10.875 C64.79587825 4.90824351 66.48993214 2.62371993 72.1875 -0.375 C78.14674663 -2.07764189 82.68444547 -1.30556361 88.015625 1.59765625 C91.70370089 4.21939715 93.41560947 7.6843284 94.8125 11.875 C94.8125 18.145 94.8125 24.415 94.8125 30.875 C111.9725 30.875 129.1325 30.875 146.8125 30.875 C146.8125 24.605 146.8125 18.335 146.8125 11.875 C150.62218929 4.25562143 152.08407711 1.45114096 159.8125 -1.125 C165.80170055 -1.71217652 169.90731116 -0.43067074 174.8125 2.875 C182.91916319 11.39738951 179.8125 17.17250942 179.8125 30.875 C197.3025 30.875 214.7925 30.875 232.8125 30.875 C232.8125 23.945 232.8125 17.015 232.8125 9.875 C238.8125 0.875 238.8125 0.875 244.8125 -1.125 C250.42849916 -1.49326224 253.98915989 -1.34056007 258.8125 1.875 C262.81751347 5.93413527 264.94464552 8.93884328 264.91015625 14.6640625 C264.90693359 15.60507812 264.90371094 16.54609375 264.90039062 17.515625 C264.89201172 18.50046875 264.88363281 19.4853125 264.875 20.5 C264.87048828 21.49257813 264.86597656 22.48515625 264.86132812 23.5078125 C264.84952145 25.9636016 264.833054 28.41927104 264.8125 30.875 C265.72837891 30.85405273 266.64425781 30.83310547 267.58789062 30.81152344 C271.06960615 30.74230967 274.5505647 30.69270786 278.03271484 30.65527344 C279.52404498 30.63546995 281.01530094 30.60841934 282.50634766 30.57324219 C301.23100735 30.14337154 317.62366756 33.95740694 332.19921875 46.34765625 C336.41487453 50.4246806 339.68674675 54.9302217 342.8125 59.875 C343.42544922 60.82246094 343.42544922 60.82246094 344.05078125 61.7890625 C358.95703586 87.9181729 350.8125 142.33310448 350.8125 159.875 C199.0125 159.875 47.2125 159.875 -109.1875 159.875 C-109.1875 65.553125 -109.1875 65.553125 -92.34375 47.8671875 C-76.98856557 33.68033232 -59.03860159 30.33692453 -38.875 30.6875 C-37.3444144 30.70259325 -35.81381419 30.71627335 -34.28320312 30.72851562 C-30.5843247 30.7611097 -26.88601055 30.81262782 -23.1875 30.875 C-23.2189209 29.96790283 -23.2189209 29.96790283 -23.25097656 29.04248047 C-23.33458945 26.27849229 -23.38630054 23.51477087 -23.4375 20.75 C-23.47101563 19.79867187 -23.50453125 18.84734375 -23.5390625 17.8671875 C-23.62075981 11.98498093 -23.21161425 8.50016593 -19.1875 3.875 C-13.37010796 -1.37484159 -7.3959011 -2.61031804 0 0 Z " fill="#509FF5" transform="translate(135.1875,27.125)"/>
<path d="M0 0 C1.08388504 -0.00412399 2.16777008 -0.00824799 3.28450012 -0.01249695 C4.46341827 -0.00171112 5.64233643 0.00907471 6.85697937 0.02018738 C8.73076012 0.01953026 8.73076012 0.01953026 10.64239502 0.01885986 C14.05955964 0.0205896 17.47617798 0.03561618 20.89324594 0.05658174 C24.46733755 0.07535832 28.04143674 0.07709975 31.61557007 0.08065796 C38.37992328 0.08997556 45.14413072 0.11458541 51.90841979 0.14470643 C59.61090789 0.17825936 67.31340302 0.19473868 75.01594603 0.20979273 C90.85716586 0.24113528 106.69824033 0.29389015 122.53935242 0.36076355 C122.65617054 3.90214973 122.72680742 7.44303595 122.78935242 10.98576355 C122.82286804 11.98478699 122.85638367 12.98381042 122.89091492 14.0131073 C122.90380554 14.98634949 122.91669617 15.95959167 122.92997742 16.96232605 C122.95092468 17.85258484 122.97187195 18.74284363 122.99345398 19.66007996 C122.04341269 25.31027174 117.90747751 29.24285024 113.9851532 33.16893005 C113.07670654 34.08301636 112.16825989 34.99710266 111.23228455 35.93888855 C110.23317861 36.93410675 109.2339686 37.92922048 108.23466492 38.92424011 C107.17612486 39.98549294 106.11801015 41.04717018 105.06028748 42.10923767 C102.19723818 44.98137701 99.32793211 47.84718734 96.45716095 50.71160603 C93.45047041 53.7132217 90.44867543 56.71972688 87.4460907 59.72544861 C82.4058998 64.76927369 77.36151625 69.80887679 72.31474304 74.84611511 C66.48060879 80.66935407 60.65373031 86.49977889 54.83054543 92.33396554 C49.82690539 97.34667996 44.81938038 102.35548835 39.80858421 107.36104941 C36.8173699 110.34914639 33.82752174 113.33857664 30.84117126 116.33153534 C28.03527181 119.14321022 25.22452851 121.94995099 22.40996552 124.75295258 C21.37786298 125.7824101 20.34745956 126.81357433 19.3188858 127.84655762 C17.9150671 129.25583888 16.50447697 130.65836532 15.09355164 132.06053162 C13.9122316 133.24072058 13.9122316 133.24072058 12.70704651 134.44475174 C8.94129265 137.773279 6.34335649 138.61429848 1.33622742 138.55607605 C0.35653992 138.54963074 -0.62314758 138.54318542 -1.63252258 138.5365448 C-2.64830383 138.51978699 -3.66408508 138.50302917 -4.71064758 138.48576355 C-5.74189758 138.47674011 -6.77314758 138.46771667 -7.83564758 138.4584198 C-10.37755045 138.43488366 -12.91898038 138.40200378 -15.46064758 138.36076355 C-15.57754774 121.79259062 -15.66566822 105.22455185 -15.71970844 88.65606594 C-15.74546936 80.96268346 -15.78057903 73.26955752 -15.83784485 65.57633972 C-15.88774507 58.86942513 -15.91995396 52.16269635 -15.93109006 45.45560127 C-15.93759779 41.90548414 -15.95284738 38.35589853 -15.98929787 34.80595207 C-16.02969804 30.83901526 -16.03059274 26.87259424 -16.02827454 22.90544128 C-16.04625092 21.73371368 -16.06422729 20.56198608 -16.08274841 19.35475159 C-16.04576579 13.5080024 -15.73930867 9.39451778 -12.0227232 4.74395847 C-8.18399237 1.34481893 -5.1254078 -0.01508952 0 0 Z " fill="#BEC7D6" transform="translate(362.4606475830078,346.6392364501953)"/>
<path d="M0 0 C0.99902344 -0.01933594 1.99804688 -0.03867188 3.02734375 -0.05859375 C10.76948204 1.20685228 16.14126321 8.2566514 21.3984375 13.578125 C22.27778961 14.46030701 23.15714172 15.34248901 24.06314087 16.25140381 C26.3847172 18.58224446 28.70189097 20.91734578 31.01696777 23.25463867 C33.38653846 25.64477537 35.76187729 28.02916481 38.13671875 30.4140625 C42.78394801 35.08329446 47.42541425 39.75819539 52.0625 44.4375 C55.40645242 42.98527458 57.57452845 41.15951785 60.125 38.5703125 C61.30642578 37.37897705 61.30642578 37.37897705 62.51171875 36.16357422 C63.35347656 35.30521973 64.19523437 34.44686523 65.0625 33.5625 C65.93519531 32.68223145 66.80789063 31.80196289 67.70703125 30.89501953 C70.49701459 28.08058891 73.28072751 25.26003985 76.0625 22.4375 C79.7231621 18.72319026 83.39088132 15.01598096 87.0625 11.3125 C87.90425781 10.45414551 88.74601562 9.59579102 89.61328125 8.71142578 C90.40089844 7.91720215 91.18851562 7.12297852 92 6.3046875 C92.68964844 5.60456543 93.37929688 4.90444336 94.08984375 4.18310547 C98.57585801 0.21342701 102.47976973 -0.00312522 108.3046875 0.12890625 C113.07466423 0.66265719 116.18616061 2.23168435 119.375 5.98046875 C122.34232262 10.48296869 122.65214666 14.13068002 122.0625 19.4375 C120.23921494 23.70721845 118.1527501 26.71743233 114.86645508 29.97412109 C113.60548759 31.23474869 113.60548759 31.23474869 112.31904602 32.52084351 C111.41583115 33.40857452 110.51261627 34.29630554 109.58203125 35.2109375 C108.65404221 36.1346817 107.72605316 37.0584259 106.76994324 38.01016235 C104.31552056 40.45318925 101.85222084 42.88706766 99.38690186 45.3190918 C96.86769832 47.80748032 94.35707878 50.30449715 91.84570312 52.80078125 C86.92629192 57.68812142 81.99743983 62.56584151 77.0625 67.4375 C78.51251834 70.77390301 80.32999046 72.93912356 82.91381836 75.48413086 C84.10031227 76.6607151 84.10031227 76.6607151 85.31077576 77.86106873 C86.16599319 78.69968948 87.02121063 79.53831024 87.90234375 80.40234375 C88.78024063 81.27266739 89.65813751 82.14299103 90.56263733 83.03968811 C93.8458364 86.29430068 97.13787613 89.53988761 100.43060303 92.78485107 C103.65588648 95.96428985 106.87357502 99.15129019 110.08984375 102.33984375 C110.94303696 103.17644028 111.79623016 104.0130368 112.67527771 104.87498474 C113.46942581 105.6625264 114.26357391 106.45006805 115.08178711 107.26147461 C115.77968857 107.94890244 116.47759003 108.63633026 117.19664001 109.34458923 C121.49124167 114.1617878 122.56339588 117.69117694 122.34765625 124.00390625 C121.79691375 128.70407855 120.07501813 131.4782723 116.6875 134.6875 C111.85475497 137.90933002 108.27429865 139.04487826 102.4967041 138.15162659 C99.74812353 137.34527084 98.43734782 136.36003243 96.33789062 134.43334961 C95.64630859 133.80040985 94.95472656 133.16747009 94.2421875 132.51535034 C90.42770287 128.87908221 86.68297315 125.17989809 82.96875 121.44140625 C82.13661987 120.60786118 81.30448975 119.7743161 80.44714355 118.91551208 C77.81655065 116.27936738 75.18947559 113.63974895 72.5625 111 C70.76846145 109.20094021 68.97419285 107.4021098 67.1796875 105.60351562 C62.80462875 101.21749188 58.43244488 96.82861858 54.0625 92.4375 C50.63212282 93.91357702 48.43917715 95.83268311 45.83227539 98.48828125 C45.00784439 99.32254639 44.18341339 100.15681152 43.33399963 101.01635742 C42.01044716 102.3695105 42.01044716 102.3695105 40.66015625 103.75 C39.26261298 105.16273755 37.86506095 106.57546656 36.46699429 107.98768616 C33.02487171 111.46806616 29.59409219 114.95961687 26.16430664 118.45214844 C24.2377636 120.41317797 22.30721261 122.37010635 20.37242126 124.32299805 C18.55162712 126.16166501 16.73722921 128.00669275 14.9299469 129.85864258 C14.10236374 130.69290771 13.27478058 131.52717285 12.42211914 132.38671875 C11.33768272 133.49019653 11.33768272 133.49019653 10.2313385 134.6159668 C6.92724517 137.39096166 3.99188886 138.31475053 -0.25 138.875 C-5.9261104 138.20156317 -10.04707842 135.5108656 -13.875 131.3125 C-15.6581778 128.16571565 -16.19055848 125.31028025 -16.375 121.75 C-16.43558594 120.94175781 -16.49617187 120.13351562 -16.55859375 119.30078125 C-14.80221866 111.20378161 -6.48546846 104.71902315 -0.8203125 99.125 C0.03684357 98.27067383 0.89399963 97.41634766 1.77713013 96.53613281 C4.49255941 93.83182079 7.21488944 91.13458007 9.9375 88.4375 C11.78952436 86.59551635 13.64109164 84.753073 15.4921875 82.91015625 C20.01035169 78.41394019 24.53418914 73.92349558 29.0625 69.4375 C27.5986889 66.05040376 25.72854294 63.87477261 23.10351562 61.29907227 C22.28927124 60.49466202 21.47502686 59.69025177 20.6361084 58.86146545 C19.75588013 58.00097092 18.87565186 57.14047638 17.96875 56.25390625 C16.11576753 54.42134315 14.26290668 52.58865707 12.41015625 50.75585938 C9.48384401 47.87098836 6.5531388 44.99060592 3.62060547 42.11206055 C0.79139315 39.33383234 -2.02591666 36.54367509 -4.84375 33.75390625 C-5.72397827 32.89543594 -6.60420654 32.03696564 -7.5111084 31.15248108 C-8.32535278 30.34491867 -9.13959717 29.53735626 -9.97851562 28.70532227 C-10.69640259 28.00012955 -11.41428955 27.29493683 -12.15393066 26.56837463 C-15.43386015 22.64976132 -16.45583694 18.67370741 -16.3203125 13.5625 C-15.42794292 8.60893826 -12.62715919 4.68612951 -8.6328125 1.734375 C-5.54236488 0.24737702 -3.41725854 0.00439802 0 0 Z " fill="#FE6E69" transform="translate(202.9375,240.5625)"/>
<path d="M0 0 C4.52966583 2.47551505 7.16586374 5.37259122 8.8125 10.3125 C8.91738326 12.55971846 8.96118037 14.80994007 8.97363281 17.05957031 C8.98108017 18.08211662 8.98108017 18.08211662 8.98867798 19.12532043 C9.00328094 21.38043225 9.01009939 23.63547366 9.015625 25.890625 C9.02137915 27.46140545 9.02713685 29.03218589 9.03289795 30.60296631 C9.04340343 33.89823737 9.04924867 37.19348408 9.05273438 40.48876953 C9.05821015 44.69974364 9.08222024 48.91039295 9.11070633 53.12126541 C9.12938519 56.36760377 9.13454115 59.61386483 9.13607025 62.86025238 C9.13908681 64.41191122 9.14708154 65.96356902 9.16025543 67.51517487 C9.17742218 69.69298039 9.17541008 71.87000476 9.16894531 74.04785156 C9.17441376 75.90292328 9.17441376 75.90292328 9.17999268 77.79547119 C8.49278787 84.37225287 5.95292061 89.02881616 0.8125 93.3125 C-3.19926427 95.52952762 -6.64818364 95.78208445 -11.1875 95.3125 C-16.04082279 93.43018404 -19.28595415 90.66481877 -22.1875 86.3125 C-23.15773593 83.4017922 -23.3390691 81.44289776 -23.39282227 78.40820312 C-23.41276749 77.40865601 -23.43271271 76.40910889 -23.45326233 75.37927246 C-23.46997482 74.29505005 -23.48668732 73.21082764 -23.50390625 72.09375 C-23.52468735 70.96666626 -23.54546844 69.83958252 -23.56687927 68.67834473 C-23.61018986 66.28088198 -23.65122596 63.88337724 -23.69018555 61.48583984 C-23.74886207 57.88238264 -23.81418636 54.2790984 -23.88085938 50.67578125 C-23.98509425 44.93913867 -24.0634538 39.20244908 -24.13604736 33.46533203 C-24.18409487 30.52115389 -24.26423289 27.57984118 -24.35498047 24.63671875 C-24.39196718 22.95573717 -24.42861389 21.27474806 -24.46484375 19.59375 C-24.4967128 18.86039429 -24.52858185 18.12703857 -24.56141663 17.37145996 C-24.64506899 11.92765191 -23.23455852 7.75332673 -20.1875 3.3125 C-13.86626389 -1.71868793 -7.56870114 -3.50193635 0 0 Z " fill="#FDDD51" transform="translate(306.1875,27.6875)"/>
<path d="M0 0 C3.68807589 2.6217409 5.39998447 6.08667215 6.796875 10.27734375 C6.88001166 12.94724473 6.90376212 15.58849972 6.87890625 18.2578125 C6.87470169 19.08492233 6.87049713 19.91203217 6.86616516 20.76420593 C6.84911832 23.60199465 6.82328446 26.43962741 6.796875 29.27734375 C6.78895935 30.31795959 6.7810437 31.35857544 6.77288818 32.4307251 C6.71978787 39.29602049 6.63836988 46.16043537 6.53442383 53.02514648 C6.50073219 55.42481285 6.47284638 57.82456697 6.45043945 60.22436523 C6.41696289 63.73845515 6.36476991 67.25183369 6.30859375 70.765625 C6.29900887 72.36873283 6.29900887 72.36873283 6.28923035 74.00422668 C6.18066333 79.48530052 5.93663727 83.57457643 2.796875 88.27734375 C-0.81590717 91.69997949 -4.18496923 94.06879556 -9.23828125 94.41796875 C-15.06244672 94.21816891 -18.2942228 92.18975522 -22.57421875 88.359375 C-26.1525368 83.78564953 -26.45665865 78.81276735 -26.4777832 73.17382812 C-26.48289413 72.49008621 -26.48800507 71.8063443 -26.49327087 71.10188293 C-26.50708806 68.8581957 -26.50621642 66.61481828 -26.50390625 64.37109375 C-26.50779691 62.80220426 -26.51213235 61.23331581 -26.51689148 59.66442871 C-26.52433629 56.38285907 -26.52407463 53.10139706 -26.51879883 49.81982422 C-26.51299997 45.62338175 -26.52995341 41.42738004 -26.5531435 37.23101044 C-26.56790261 33.99328047 -26.56874971 30.75565621 -26.56563377 27.51789856 C-26.56614568 25.97100449 -26.57135879 24.42410431 -26.58144569 22.87724304 C-26.59383851 20.7114932 -26.58700285 18.54659645 -26.57543945 16.38085938 C-26.57606888 15.1509729 -26.5766983 13.92108643 -26.5773468 12.65393066 C-26.02964924 7.71207961 -24.4276205 4.43739212 -20.828125 1.02734375 C-13.79655114 -3.66037216 -7.44410513 -4.05386345 0 0 Z " fill="#FDDD51" transform="translate(223.203125,28.72265625)"/>
<path d="M0 0 C3.88446678 2.58964452 6.69907021 5.64814041 8.8125 9.875 C8.93041955 12.17056138 8.98238618 14.46959327 9.00537109 16.76806641 C9.01763733 17.83187531 9.01763733 17.83187531 9.03015137 18.91717529 C9.05501263 21.27029579 9.07152739 23.62335572 9.0859375 25.9765625 C9.09126118 26.78115276 9.09658485 27.58574303 9.10206985 28.41471481 C9.12881071 32.67734576 9.14817843 36.93994739 9.16259766 41.20263672 C9.17591301 44.72373574 9.20371883 48.24425193 9.24462891 51.76513672 C9.29407795 56.02097199 9.3187343 60.27628033 9.32582474 64.53239059 C9.33251863 66.15024946 9.34769212 67.76809744 9.37171555 69.38579178 C9.58506462 84.62792531 9.58506462 84.62792531 5.26626587 90.47494507 C1.49690096 94.10504675 -2.55139105 95.57752565 -7.625 96.5 C-12.65246714 95.61798822 -16.47565301 93.37104193 -20.1875 89.875 C-22.9588122 85.27415415 -23.56907416 81.83463877 -23.59155273 76.49609375 C-23.59841599 75.78309113 -23.60527924 75.0700885 -23.61235046 74.33547974 C-23.63055227 71.99428011 -23.6267912 69.65375474 -23.62109375 67.3125 C-23.6256583 65.67634871 -23.63096469 64.04019934 -23.63697815 62.40405273 C-23.64589587 58.98120312 -23.64350095 55.55858701 -23.63354492 52.13574219 C-23.62204857 47.75756459 -23.64228316 43.38019275 -23.67146206 39.00212097 C-23.68983898 35.62539586 -23.68952881 32.24886341 -23.68382454 28.87210083 C-23.68367155 27.25821806 -23.68969735 25.64432205 -23.70211601 24.03048706 C-23.71705576 21.77111732 -23.70632967 19.51323074 -23.68920898 17.25390625 C-23.68904282 15.9707251 -23.68887665 14.68754395 -23.68870544 13.36547852 C-22.93400975 8.10965148 -20.50104048 5.06039019 -16.625 1.5625 C-11.43239458 -2.03238068 -5.78482046 -2.04170134 0 0 Z " fill="#FEDD50" transform="translate(391.1875,27.125)"/>
<path d="M0 0 C3.88446678 2.58964452 6.69907021 5.64814041 8.8125 9.875 C8.93041955 12.17056138 8.98238618 14.46959327 9.00537109 16.76806641 C9.01763733 17.83187531 9.01763733 17.83187531 9.03015137 18.91717529 C9.05501263 21.27029579 9.07152739 23.62335572 9.0859375 25.9765625 C9.09126118 26.78115276 9.09658485 27.58574303 9.10206985 28.41471481 C9.12881071 32.67734576 9.14817843 36.93994739 9.16259766 41.20263672 C9.17591301 44.72373574 9.20371883 48.24425193 9.24462891 51.76513672 C9.29407795 56.02097199 9.3187343 60.27628033 9.32582474 64.53239059 C9.33251863 66.15024946 9.34769212 67.76809744 9.37171555 69.38579178 C9.58506462 84.62792531 9.58506462 84.62792531 5.26626587 90.47494507 C1.49690096 94.10504675 -2.55139105 95.57752565 -7.625 96.5 C-12.65246714 95.61798822 -16.47565301 93.37104193 -20.1875 89.875 C-22.9588122 85.27415415 -23.56907416 81.83463877 -23.59155273 76.49609375 C-23.59841599 75.78309113 -23.60527924 75.0700885 -23.61235046 74.33547974 C-23.63055227 71.99428011 -23.6267912 69.65375474 -23.62109375 67.3125 C-23.6256583 65.67634871 -23.63096469 64.04019934 -23.63697815 62.40405273 C-23.64589587 58.98120312 -23.64350095 55.55858701 -23.63354492 52.13574219 C-23.62204857 47.75756459 -23.64228316 43.38019275 -23.67146206 39.00212097 C-23.68983898 35.62539586 -23.68952881 32.24886341 -23.68382454 28.87210083 C-23.68367155 27.25821806 -23.68969735 25.64432205 -23.70211601 24.03048706 C-23.71705576 21.77111732 -23.70632967 19.51323074 -23.68920898 17.25390625 C-23.68904282 15.9707251 -23.68887665 14.68754395 -23.68870544 13.36547852 C-22.93400975 8.10965148 -20.50104048 5.06039019 -16.625 1.5625 C-11.43239458 -2.03238068 -5.78482046 -2.04170134 0 0 Z " fill="#FEDD50" transform="translate(135.1875,27.125)"/>
<path d="M0 0 C0.66 0.33 1.32 0.66 2 1 C-2.62 5.62 -7.24 10.24 -12 15 C-12 10.09687565 -8.29800369 7.38658643 -5 4 C-3.37458956 2.61667196 -1.72614587 1.25537882 0 0 Z " fill="#78B4F6" transform="translate(50,69)"/>
</svg>
