<?xml version="1.0" encoding="UTF-8"?>
<svg version="1.1" xmlns="http://www.w3.org/2000/svg" width="512" height="512">
<path d="M0 0 C2.7496835 -0.00407143 5.49934964 -0.0125776 8.24902344 -0.02079773 C14.91293413 -0.03790012 21.57675017 -0.03884353 28.24067709 -0.03358483 C33.66398331 -0.02952523 39.08726179 -0.0310078 44.51056671 -0.03633308 C45.2857005 -0.03708151 46.06083428 -0.03782993 46.85945697 -0.03860103 C48.43471907 -0.04013269 50.00998117 -0.04167104 51.58524325 -0.043216 C66.32285101 -0.0569105 81.06040553 -0.05152525 95.79801205 -0.04003078 C109.24111725 -0.03010533 122.68408467 -0.04303261 136.12716863 -0.06696498 C149.97379147 -0.09142751 163.82035034 -0.10094611 177.66699433 -0.09431225 C185.42346087 -0.09083539 193.17982162 -0.09294973 200.93627167 -0.11056328 C207.54023126 -0.12537531 214.14401058 -0.12580466 220.74796697 -0.10849237 C224.10850331 -0.10005233 227.46845843 -0.09987593 230.82901764 -0.11314392 C263.28786489 -0.23142775 291.91291522 6.42222016 316.71191406 28.40405273 C317.46601563 29.01506836 318.22011719 29.62608398 318.99707031 30.25561523 C341.38796459 48.81596851 353.47615304 78.13885818 356.71191406 106.40405273 C356.96135334 110.72483025 356.98728774 115.02847664 356.97261047 119.35565186 C356.97643602 120.57997933 356.98026157 121.8043068 356.98420304 123.0657351 C356.99265689 126.41990174 356.9923301 129.77384597 356.98802245 133.1280055 C356.98553471 136.76277754 356.9945946 140.39752488 357.00205994 144.0322876 C357.01475295 151.13647828 357.01660737 158.24063108 357.01425967 165.3448312 C357.01247014 171.12523932 357.01423971 176.90563602 357.01848412 182.68604279 C357.0190793 183.51155729 357.01967449 184.33707179 357.02028772 185.18760188 C357.02149959 186.86513724 357.02271372 188.5426726 357.0239301 190.22020796 C357.03478503 205.92204727 357.03265297 221.62386505 357.02654525 237.32570556 C357.02137899 251.65543818 357.03262751 265.98510276 357.05164347 280.31482193 C357.07106771 295.06654036 357.07926978 309.81822668 357.07552022 324.56995797 C357.07361498 332.83667761 357.07602919 341.10333939 357.09023476 349.37004852 C357.10220825 356.40844639 357.10348717 363.44675077 357.09144459 370.48515007 C357.08559719 374.06820952 357.08433992 377.6510985 357.09644699 381.23414612 C357.15228825 398.9605582 357.06133659 416.54433567 351.08691406 433.46655273 C350.83530518 434.19567871 350.58369629 434.92480469 350.32446289 435.67602539 C345.576017 448.83361957 338.61560282 460.6447791 329.71191406 471.40405273 C329.02742188 472.25225586 328.34292969 473.10045898 327.63769531 473.97436523 C310.53509376 494.14342214 286.24241665 506.08638926 260.71191406 511.40405273 C259.88302012 511.58100268 259.05412619 511.75795263 258.20011425 511.9402647 C253.26553218 512.5963624 248.3852943 512.55208315 243.41242981 512.55122375 C242.26914725 512.55490044 241.12586468 512.55857713 239.94793719 512.56236523 C236.11380579 512.57338522 232.2797015 512.57724314 228.44555664 512.58105469 C225.69720733 512.58679094 222.94886205 512.59395533 220.20051575 512.60096741 C211.94923943 512.62069979 203.69796195 512.63079581 195.44666794 512.6396952 C191.55349669 512.64408506 187.66032679 512.6494502 183.7671566 512.65468407 C170.81105869 512.67169626 157.85496161 512.68618663 144.89885426 512.69343281 C141.53909619 512.69534248 138.17933812 512.69726284 134.81958008 512.69921875 C133.98460362 512.69970249 133.14962716 512.70018623 132.28934839 512.70068463 C118.78748268 512.7089707 105.28570599 512.73428351 91.78387908 512.76679943 C77.89687323 512.79996792 64.00991244 512.81789054 50.12286681 512.82107705 C42.33606966 512.82323356 34.54940214 512.83185494 26.76264381 512.85753822 C20.1255461 512.87937979 13.4886095 512.88723039 6.85147993 512.87757144 C3.47276469 512.8730646 0.09464705 512.87693641 -3.28406525 512.89433289 C-35.79645988 513.05225263 -64.44567354 506.42436709 -89.28808594 484.40405273 C-90.41923828 483.4875293 -90.41923828 483.4875293 -91.57324219 482.55249023 C-113.96413646 463.99213695 -126.05232492 434.66924729 -129.28808594 406.40405273 C-129.53752522 402.08327522 -129.56345961 397.77962883 -129.54878235 393.45245361 C-129.5526079 392.22812614 -129.55643344 391.00379867 -129.56037492 389.74237037 C-129.56882877 386.38820372 -129.56850197 383.0342595 -129.56419432 379.68009996 C-129.56170658 376.04532792 -129.57076648 372.41058059 -129.57823181 368.77581787 C-129.59092483 361.67162718 -129.59277925 354.56747439 -129.59043155 347.46327427 C-129.58864201 341.68286615 -129.59041159 335.90246944 -129.59465599 330.12206268 C-129.59525118 329.29654818 -129.59584637 328.47103368 -129.59645959 327.62050359 C-129.59767146 325.94296823 -129.5988856 324.26543287 -129.60010197 322.58789751 C-129.6109569 306.8860582 -129.60882485 291.18424042 -129.60271712 275.48239991 C-129.59755086 261.15266729 -129.60879939 246.82300271 -129.62781534 232.49328354 C-129.64723959 217.74156511 -129.65544166 202.98987879 -129.65169209 188.2381475 C-129.64978685 179.97142786 -129.65220106 171.70476608 -129.66640663 163.43805695 C-129.67838013 156.39965908 -129.67965905 149.3613547 -129.66761646 142.3229554 C-129.66176907 138.73989595 -129.66051179 135.15700697 -129.67261887 131.57395935 C-129.72846013 113.84754727 -129.63750847 96.2637698 -123.66308594 79.34155273 C-123.41147705 78.61242676 -123.15986816 77.88330078 -122.90063477 77.13208008 C-118.15472904 63.9815245 -111.20219499 52.14669698 -102.28808594 41.40405273 C-101.56492187 40.50557617 -100.84175781 39.60709961 -100.09667969 38.68139648 C-85.01876835 20.95018095 -64.58509251 9.35782937 -42.28808594 3.40405273 C-41.36475338 3.14950286 -40.44142082 2.89495298 -39.49010849 2.63268948 C-26.45953703 -0.47040384 -13.32298477 -0.02503811 0 0 Z " fill="#C83131" transform="translate(142.2880859375,-0.404052734375)"/>
<path d="M0 0 C6.61570001 4.34891407 11.93161395 10.33523398 17.44210815 15.97019958 C18.81190382 17.35187998 20.18289607 18.73237502 21.55502319 20.11174011 C25.14250301 23.72383229 28.71511767 27.3502631 32.28427124 30.98045349 C37.33592345 36.11295242 42.40789469 41.22538855 47.47738647 46.34025574 C50.1735537 49.06067399 52.86412509 51.78644679 55.55038452 54.51664734 C56.77144012 55.75410799 57.99250874 56.99155581 59.21359253 58.22898865 C59.77043732 58.79728394 60.3272821 59.36557922 60.90100098 59.95109558 C64.18769631 63.27550038 65.82667432 64.74980962 70.47335815 65.57957458 C74.65572291 65.50544949 76.46430264 64.01739927 79.47067261 61.19993591 C80.34801056 60.37901459 81.22534851 59.55809326 82.12927246 58.71229553 C86.74610187 54.23566278 91.30056669 49.70220668 95.81728172 45.12468529 C97.56000745 43.35955113 99.30699703 41.59873768 101.05522156 39.83905029 C106.01761837 34.84340242 110.97551698 29.8433523 115.92330933 24.83323669 C118.96930063 21.74948495 122.02265775 18.67319077 125.08077431 15.60146523 C126.2361198 14.43810969 127.38869171 13.27199237 128.53832054 12.10298729 C130.14540707 10.46925161 131.76172906 8.84519228 133.38034058 7.22288513 C134.29393845 6.29960922 135.20753632 5.37633331 136.14881897 4.42507935 C143.49782631 -2.00278603 150.00901759 -3.44637394 159.5944519 -3.30714417 C168.92058978 -2.58477279 174.53161269 1.64815908 180.8366394 8.34910583 C186.97268138 15.83126306 188.82443144 23.44257908 187.97335815 32.95457458 C185.09315273 45.87657732 173.14129289 54.92452039 164.08233833 63.89019394 C162.30975228 65.64510019 160.54098112 67.40377439 158.77314758 69.16346741 C153.75444993 74.15794224 148.72986446 79.14646432 143.70114136 84.13084412 C140.60668728 87.1985277 137.5171142 90.27105745 134.43049431 93.34662247 C133.25900785 94.51191205 132.08562867 95.67530211 130.91031075 96.83672714 C129.2738341 98.45399579 127.64360363 100.07732456 126.01461792 101.70213318 C125.08690079 102.62239288 124.15918365 103.54265259 123.20335388 104.49079895 C120.1727389 107.83912615 118.99787707 109.67959094 118.91085815 114.20457458 C121.48945678 123.30551092 131.07990685 130.12662658 137.71585274 136.61940765 C140.76893645 139.6107511 143.80609914 142.61822391 146.84640503 145.62254333 C150.69174469 149.42010012 154.54144034 153.21293735 158.40670776 156.99021912 C161.55332753 160.06604216 164.68461409 163.15678424 167.80665398 166.25754547 C168.98801444 167.4254474 170.17472922 168.58796224 171.36715889 169.74456024 C179.97791677 178.10348497 187.90809142 186.50272832 188.59835815 199.14207458 C188.09104636 207.98544149 184.06680889 215.59327987 177.97335815 221.95457458 C175.10595257 224.20361792 172.13661687 226.14864143 168.97335815 227.95457458 C168.37265503 228.3322699 167.7719519 228.70996521 167.15304565 229.09910583 C161.22956244 231.42391376 151.74573133 230.86627629 145.66085815 229.01707458 C136.13132865 224.33825318 128.4579556 214.56097326 121.0377388 207.06355476 C119.28283255 205.29096872 117.52415834 203.52219755 115.76446533 201.75436401 C110.7699905 196.73566636 105.78146842 191.7110809 100.79708862 186.68235779 C97.72940504 183.58790371 94.65687529 180.49833063 91.58131027 177.41171074 C90.41602069 176.24022428 89.25263062 175.0668451 88.0912056 173.89152718 C86.47393694 172.25505053 84.85060818 170.62482006 83.22579956 168.99583435 C82.30553986 168.06811722 81.38528015 167.14040009 80.43713379 166.18457031 C77.18213058 163.2384241 75.0269086 162.13691985 70.72335815 161.39207458 C61.62101515 162.75742604 54.29667414 173.54888029 48.00106812 179.94339561 C46.18714009 181.78430002 44.36858331 183.62051227 42.54855347 185.4553833 C37.37945608 190.66690835 32.21324104 195.88118937 27.0632019 201.11155701 C23.89853813 204.32490436 20.72405368 207.5282634 17.5430603 210.72544289 C16.34019544 211.93815587 15.14098232 213.15450305 13.94564819 214.37463951 C5.17074255 223.32767822 -2.00450285 230.01533623 -15.21414185 230.26707458 C-21.42503194 230.26707458 -26.00471603 229.74511134 -31.02664185 225.95457458 C-32.16552856 225.1153949 -32.16552856 225.1153949 -33.3274231 224.25926208 C-39.94014642 218.91280493 -43.36223409 212.94779785 -46.02664185 204.95457458 C-46.22446871 202.93956667 -46.33892811 200.91579871 -46.40164185 198.89207458 C-46.45062622 197.82859802 -46.4996106 196.76512146 -46.55007935 195.66941833 C-44.81973635 183.38914826 -35.42318568 175.71217607 -27.01101685 167.48582458 C-25.62933645 166.11602892 -24.24884141 164.74503667 -22.86947632 163.37290955 C-19.25738414 159.78542972 -15.63095333 156.21281507 -12.00076294 152.6436615 C-6.86826401 147.59200929 -1.75582788 142.52003805 3.35903931 137.45054626 C6.07945756 134.75437904 8.80523035 132.06380765 11.53543091 129.37754822 C12.77289156 128.15649262 14.01033938 126.935424 15.24777222 125.71434021 C15.8160675 125.15749542 16.38436279 124.60065063 16.96987915 124.02693176 C20.41661161 120.61929637 22.13579347 118.67362783 22.47335815 113.82957458 C22.36195447 110.04943127 21.80901019 108.22030405 19.2416687 105.44676208 C18.60216278 104.75534119 17.96265686 104.06392029 17.30377197 103.35154724 C12.9174634 98.83996152 8.46825881 94.39665277 3.98453712 89.98228455 C2.14363272 88.16835652 0.30742047 86.34979975 -1.52745056 84.5297699 C-6.73897561 79.36067251 -11.95325663 74.19445747 -17.18362427 69.04441833 C-20.39697162 65.87975456 -23.60033066 62.70527011 -26.79751015 59.52427673 C-28.01022313 58.32141187 -29.22657031 57.12219875 -30.44670677 55.92686462 C-38.86134782 47.67964448 -45.96597936 40.47113674 -46.46414185 28.01707458 C-46.36917091 19.48868422 -43.56578263 12.93692268 -37.9055481 6.56785583 C-35.70868014 4.50805417 -33.47094938 2.710761 -31.02664185 0.95457458 C-30.13912231 0.27394958 -30.13912231 0.27394958 -29.2336731 -0.42042542 C-20.70446359 -5.84296921 -8.57783661 -4.44233043 0 0 Z " fill="#FEFEFE" transform="translate(185.02664184570313,129.04542541503906)"/>
<path d="M0 0 C0.33 0 0.66 0 1 0 C1.66771032 35.9056943 -2.29034326 67.34910131 -26 96 C-26.68449219 96.84820312 -27.36898438 97.69640625 -28.07421875 98.5703125 C-45.1768203 118.73936941 -69.46949741 130.68233653 -95 136 C-95.82889394 136.17694995 -96.65778788 136.3538999 -97.51179981 136.53621197 C-102.44638188 137.19230966 -107.32661977 137.14803041 -112.29948425 137.14717102 C-113.44276682 137.15084771 -114.58604938 137.1545244 -115.76397687 137.1583125 C-119.59810828 137.16933248 -123.43221256 137.1731904 -127.26635742 137.17700195 C-130.01470673 137.18273821 -132.76305201 137.1899026 -135.51139832 137.19691467 C-143.76267463 137.21664706 -152.01395212 137.22674308 -160.26524612 137.23564246 C-164.15841737 137.24003232 -168.05158727 137.24539747 -171.94475746 137.25063133 C-184.90085537 137.26764352 -197.85695245 137.2821339 -210.81305981 137.28938007 C-214.17281788 137.29128974 -217.53257594 137.2932101 -220.89233398 137.29516602 C-221.72731044 137.29564976 -222.5622869 137.2961335 -223.42256568 137.2966319 C-236.92443138 137.30491796 -250.42620808 137.33023078 -263.92803498 137.36274669 C-277.81504083 137.39591518 -291.70200162 137.41383781 -305.58904725 137.41702431 C-313.3758444 137.41918083 -321.16251192 137.4278022 -328.94927025 137.45348549 C-335.58636796 137.47532705 -342.22330456 137.48317766 -348.86043414 137.47351871 C-352.23914937 137.46901187 -355.61726701 137.47288368 -358.99597931 137.49028015 C-391.50837395 137.6481999 -420.1575876 131.02031435 -445 109 C-445.75410156 108.38898438 -446.50820313 107.77796875 -447.28515625 107.1484375 C-469.5114547 88.72452167 -482.1185864 59.17621109 -485 31 C-485.21097455 25.87019284 -485.1929509 20.75790611 -485.125 15.625 C-485.11492858 14.29167355 -485.10581023 12.95833955 -485.09765625 11.625 C-485.074406 8.41646559 -485.04173343 5.20833796 -485 2 C-484.67 2 -484.34 2 -484 2 C-483.84144531 3.11375 -483.68289063 4.2275 -483.51953125 5.375 C-478.67210091 37.77944577 -463.75132419 67.19541634 -437 87 C-415.56677509 101.98714223 -392.54718828 109.16244412 -366.50975037 109.14044189 C-364.8365859 109.14489858 -364.8365859 109.14489858 -363.12962013 109.1494453 C-359.41379826 109.15807623 -355.69800882 109.15963577 -351.98217773 109.16113281 C-349.30881095 109.16576495 -346.63544702 109.17077019 -343.96208191 109.17617798 C-336.71383156 109.18970606 -329.46558679 109.19577727 -322.21732593 109.20018864 C-317.6833203 109.20296025 -313.14931678 109.20719922 -308.61531258 109.21169281 C-296.03821033 109.2238779 -283.46110975 109.23417894 -270.88400173 109.2375679 C-270.08050401 109.23778747 -269.2770063 109.23800703 -268.44916016 109.23823325 C-267.64384822 109.23845153 -266.83853628 109.23866981 -266.00882095 109.2388947 C-264.37721852 109.23933815 -262.7456161 109.23978471 -261.11401367 109.24023438 C-259.90004244 109.24056652 -259.90004244 109.24056652 -258.66154654 109.24090537 C-245.5595255 109.24485007 -232.45756018 109.26229746 -219.35556065 109.2855939 C-205.87298183 109.30937166 -192.39043089 109.32177265 -178.90783077 109.32293582 C-171.35033665 109.32384894 -163.79291518 109.32950917 -156.23544121 109.34775543 C-149.79822369 109.36324341 -143.36110129 109.36822605 -136.92386865 109.36001733 C-133.64675526 109.3561414 -130.36987063 109.35855987 -127.09277344 109.37107468 C-90.76352464 109.50159565 -59.36718979 100.59685414 -32.80859375 74.8984375 C-12.60558641 54.52204356 -3.24592199 27.99205992 0 0 Z " fill="#AF2727" transform="translate(498,375)"/>
<path d="M0 0 C4.61116897 2.67072853 8.28465554 6.02033729 11.98608398 9.80664062 C12.83372314 10.66107002 12.83372314 10.66107002 13.69848633 11.53276062 C14.91687247 12.76204969 16.13296922 13.9936113 17.34698296 15.22721863 C19.2723218 17.18289127 21.20440804 19.13166443 23.13844299 21.07873535 C28.63323902 26.61314411 34.11516921 32.16023422 39.59399414 37.71044922 C42.95320902 41.11249151 46.31979408 44.50710201 49.69075203 47.89750671 C50.96904318 49.18632803 52.2444135 50.47805344 53.51672173 51.77278137 C55.29914292 53.58656752 57.09074963 55.39080764 58.88452148 57.19335938 C59.40162186 57.72438766 59.91872223 58.25541595 60.45149231 58.80253601 C67.85913274 66.1918032 74.85072729 68.30651721 85.20849609 68.39160156 C91.29886596 68.27053239 95.21628504 66.61133843 100 63 C100.886875 62.401875 101.77375 61.80375 102.6875 61.1875 C105.44119739 58.58265111 107.5162302 55.72059591 109.66796875 52.609375 C110.32732422 51.81273437 110.32732422 51.81273437 111 51 C111.66 51 112.32 51 113 51 C115.30585615 55.61171231 114.52505175 61.74595618 113.38671875 66.6328125 C109.96288252 76.25575311 103.07211814 83.45439133 94 88 C87.96756475 90.81513645 80.97983747 91.06854157 74.5703125 89.34765625 C64.26924843 85.19515119 56.77965581 75.9019403 49.1212101 68.16580963 C47.32834335 66.35534415 45.53177726 64.54862355 43.73417664 62.74285889 C38.62955912 57.61395808 33.53076705 52.4792942 28.4362793 47.34033203 C25.30607829 44.18332026 22.17099908 41.03122106 19.03288841 37.88207245 C17.84330294 36.68629561 16.65561615 35.48862671 15.46990395 34.28900909 C13.81433167 32.61417326 12.15264579 30.94563287 10.48950195 29.27832031 C9.76388313 28.5395591 9.76388313 28.5395591 9.02360535 27.78587341 C5.42028487 24.19281147 2.18403231 21.32528141 -2.9375 20.5625 C-9.30299906 21.47185701 -13.6189585 26.34491389 -17.93847656 30.79077148 C-18.49875046 31.35878479 -19.05902435 31.9267981 -19.63627625 32.51202393 C-20.84478392 33.73809793 -22.05105316 34.96638157 -23.25528717 36.19665337 C-25.16810074 38.14913935 -27.08855522 40.09380059 -29.01141357 42.03639221 C-34.47510095 47.55787951 -39.9289895 53.08889065 -45.36767578 58.63500977 C-48.70295686 62.03507034 -52.05060253 65.42254449 -55.4061203 68.80262947 C-56.67537527 70.08605594 -57.9399556 71.37412437 -59.19953156 72.66705132 C-76.02340763 89.93008787 -76.02340763 89.93008787 -88.5625 90.3125 C-98.2447105 90.14386934 -104.89750779 86.01229605 -111.796875 79.44921875 C-117.50723139 73.1010034 -120.14669766 66.81646334 -120.0625 58.3125 C-120.05347656 57.13300781 -120.04445312 55.95351563 -120.03515625 54.73828125 C-120.02355469 53.83464844 -120.01195312 52.93101562 -120 52 C-118.68 52 -117.36 52 -116 52 C-114.578125 53.5390625 -114.578125 53.5390625 -113.25 55.625 C-109.14007505 61.49334853 -103.88691133 65.81367894 -97 68 C-87.54624413 68.91970928 -79.03980543 68.69958838 -71.30892944 62.68417358 C-65.21984071 57.36773704 -59.53665923 51.65213556 -53.84431839 45.91948318 C-52.00568109 44.0679469 -50.16381907 42.21967174 -48.32113647 40.37216187 C-44.41958512 36.45926385 -40.52201855 32.54241174 -36.625 28.625 C-32.08596425 24.06235093 -27.54530336 19.50134348 -23.00043869 14.94449997 C-21.18473294 13.12230679 -19.37205893 11.29713381 -17.55947876 9.47183228 C-16.45337374 8.3620971 -15.34712941 7.25250075 -14.24072266 6.14306641 C-13.73684021 5.63401764 -13.23295776 5.12496887 -12.71380615 4.60049438 C-8.39507316 0.28110294 -6.20425087 -0.51702091 0 0 Z " fill="#AF2929" transform="translate(259,290)"/>
<path d="M0 0 C0.66 0 1.32 0 2 0 C4.48186066 4.96372132 3.75118564 11.65960745 2.10372925 16.79241943 C-2.32518913 26.11765892 -8.76313059 32.53855161 -16.0546875 39.640625 C-17.32538158 40.90010248 -18.59473821 42.1609306 -19.86282349 43.42303467 C-23.17372671 46.71123393 -26.50225104 49.98099601 -29.83502197 53.24700928 C-33.24478369 56.59494783 -36.63722741 59.96033866 -40.03125 63.32421875 C-46.6708426 69.89982477 -53.32921781 76.45604752 -60 83 C-63.77582537 81.27234491 -65.34571318 79.91804773 -67 76 C-67.22296028 70.09155245 -65.01995289 67.55581165 -61.29501343 63.42974854 C-57.02419715 58.90820218 -52.61602369 54.52691649 -48.19637489 50.15177536 C-46.38983166 48.36283827 -44.58703947 46.57019583 -42.78520203 44.77651978 C-37.66733787 39.68292965 -32.54373104 34.59514467 -27.41577148 29.51171875 C-24.26522019 26.38801581 -21.11961234 23.25940401 -17.97694969 20.12776566 C-16.78479504 18.94179314 -15.59074958 17.75771799 -14.39473915 16.575634 C-12.72247465 14.92268734 -11.05655619 13.26357677 -9.3918457 11.60302734 C-8.6584774 10.88280144 -8.6584774 10.88280144 -7.91029358 10.14802551 C-5.56330967 7.79436085 -3.5645652 5.4458391 -1.78800964 2.64981079 C-1.19796646 1.77537323 -0.60792328 0.90093567 0 0 Z " fill="#AF2929" transform="translate(370,169)"/>
<path d="M0 0 C2.43434979 2.3369758 4.66874992 4.77413832 6.84619141 7.34619141 C11.66536567 12.86886742 16.88252221 17.99423887 22.08051682 23.15568161 C23.9320531 24.99431891 25.78032826 26.83618093 27.62783813 28.67886353 C31.54073615 32.58041488 35.45758826 36.47798145 39.375 40.375 C43.93764907 44.91403575 48.49865652 49.45469664 53.05550003 53.99956131 C54.87769321 55.81526706 56.70286619 57.62794107 58.52816772 59.44052124 C59.6379029 60.54662626 60.74749925 61.65287059 61.85693359 62.75927734 C62.36598236 63.26315979 62.87503113 63.76704224 63.39950562 64.28619385 C66.80317445 67.68934383 68.15909012 69.50834858 68.3125 74.3125 C68.29498003 77.93329378 68.07033628 78.89229757 66 82.0625 C65.34 82.701875 64.68 83.34125 64 84 C60.07556928 82.40475888 57.41048507 79.70631347 54.46875 76.75927734 C53.65821167 75.95881485 53.65821167 75.95881485 52.83129883 75.1421814 C51.04886363 73.37872174 49.27404647 71.60783348 47.5 69.8359375 C46.25991238 68.60227963 45.01967577 67.36877151 43.77929688 66.13540649 C41.18001439 63.54809677 38.58489747 60.95668806 35.9921875 58.36279297 C32.68031399 55.05071663 29.35492143 51.75259008 26.02575684 48.45790672 C23.45885799 45.9133249 20.90118173 43.35962321 18.34594727 40.80333328 C17.12443667 39.5841728 15.8997046 38.36823071 14.67163086 37.15568161 C12.94844371 35.45224472 11.23857248 33.73640839 9.53125 32.01708984 C9.02827393 31.52535278 8.52529785 31.03361572 8.00708008 30.52697754 C1.85828052 24.26864098 -1.14457682 17.19812828 -1.125 8.4375 C-1.12757813 7.28121094 -1.13015625 6.12492188 -1.1328125 4.93359375 C-1 2 -1 2 0 0 Z " fill="#AF2A2A" transform="translate(140,168)"/>
</svg>
