<?xml version="1.0" encoding="UTF-8"?>
<svg version="1.1" xmlns="http://www.w3.org/2000/svg" width="512" height="512">
<path d="M0 0 C31.62369814 14.77554074 63.67667559 26.67306474 97 37 C97.81458679 37.25305908 98.62917358 37.50611816 99.46844482 37.7668457 C117.43026712 43.33908622 135.3824259 48.68710929 153.78198242 52.63232422 C164.31897617 54.98150955 174.2773619 59.32954572 180.6953125 68.39453125 C186.13446819 77.15761542 187.29851125 84.04958797 187.29052734 94.26220703 C187.29724457 95.49582474 187.30396179 96.72944244 187.31088257 98.0004425 C187.32661202 101.38003409 187.33323783 104.75937967 187.33451414 108.13899088 C187.33594184 110.26428033 187.34022389 112.38954457 187.34550858 114.51482773 C187.36402526 121.97116454 187.37218025 129.42743003 187.37060547 136.88378906 C187.36941506 143.76014917 187.39029381 150.63618976 187.4220928 157.51246941 C187.44860095 163.46373642 187.45895808 169.41490174 187.45769465 175.36622703 C187.45719344 178.89836006 187.46238899 182.43021147 187.48405075 185.96228409 C187.71718392 226.85707313 179.91858892 265.18391505 162 302 C161.64180176 302.73702148 161.28360352 303.47404297 160.91455078 304.23339844 C151.32500707 323.69336952 138.77660789 341.77691617 124.0859375 357.73046875 C122.15845324 359.8276005 120.29238643 361.96376355 118.4375 364.125 C111.60126087 371.93114033 104.11527477 378.54751993 96 385 C94.92646889 385.87554924 93.85357003 386.75187417 92.78125 387.62890625 C76.92528901 400.49039068 59.45219411 410.25611809 41.58447266 420.03417969 C36.80866547 422.64982448 32.04929011 425.29491778 27.29052734 427.94140625 C24.99129637 429.21965343 22.69085938 430.49573394 20.38916016 431.76953125 C15.6123262 434.41572658 10.8458747 437.07076412 6.13671875 439.8359375 C-4.95205322 446.33293888 -15.82192421 451.38002479 -28.90039062 448.32177734 C-37.13616733 445.89291681 -44.21627423 442.4899863 -51.625 438.1875 C-52.78960949 437.52373848 -53.95499333 436.86133404 -55.12109375 436.20019531 C-57.53840115 434.82844677 -59.95232549 433.4509993 -62.36425781 432.06982422 C-67.07158526 429.38129669 -71.8184957 426.76581637 -76.56469727 424.14672852 C-82.05342957 421.11624303 -87.52825036 418.06102049 -93 415 C-93.91313965 414.48953125 -94.8262793 413.9790625 -95.76708984 413.453125 C-155.75800496 379.77401476 -200.86928413 327.01877098 -220.3125 260.375 C-223.19348574 250.05227831 -225.3326653 239.58297264 -227 229 C-227.16776443 228.0160878 -227.33552887 227.0321756 -227.50837708 226.01844788 C-229.52621776 212.51273159 -229.34688813 198.94766455 -229.36744571 185.32016468 C-229.37112574 183.18456063 -229.3773833 181.04897886 -229.3844471 178.91338348 C-229.40880126 171.43654884 -229.42196675 163.95978241 -229.42553711 156.48291016 C-229.42918099 149.55256915 -229.45917303 142.6226685 -229.50094169 135.69246221 C-229.53575928 129.70217762 -229.55108737 123.71203866 -229.55178314 117.7216537 C-229.55257083 114.16104357 -229.56107527 110.60088629 -229.58978081 107.04038239 C-229.62108057 103.07134723 -229.61184699 99.10293874 -229.59936523 95.13378906 C-229.61419952 93.97712234 -229.62903381 92.82045563 -229.64431763 91.6287384 C-229.5501332 81.05982686 -226.45854165 71.45239202 -218.98828125 63.7421875 C-213.21048285 58.67951935 -207.41210188 55.93730847 -199.9765625 54.0390625 C-198.98935715 53.78387344 -198.98935715 53.78387344 -197.98220825 53.52352905 C-195.98962115 53.00966378 -193.99510744 52.50397935 -192 52 C-140.33930932 38.80613753 -89.38418876 22.55689797 -41.12036133 -0.25537109 C-39.60478638 -0.97007568 -39.60478638 -0.97007568 -38.05859375 -1.69921875 C-36.73299438 -2.33089966 -36.73299438 -2.33089966 -35.38061523 -2.9753418 C-23.72366611 -7.99269545 -10.9573966 -5.20449717 0 0 Z " fill="#26DE81" transform="translate(277,34)"/>
<path d="M0 0 C3.5 1.6875 3.5 1.6875 6 4 C7.175625 4.99 7.175625 4.99 8.375 6 C10.93843571 10.7324967 10.91978864 15.74503109 10 21 C6.753344 26.69529858 2.25711248 31.03200486 -2.36108398 35.63574219 C-3.20219727 36.4819664 -4.04331055 37.32819061 -4.90991211 38.20005798 C-7.20570822 40.50733261 -9.50593854 42.81006075 -11.80874896 45.11033154 C-13.7340967 47.03460589 -15.65645151 48.96185673 -17.5788694 50.8890574 C-22.1138013 55.43506033 -26.65401099 59.97574407 -31.19750977 64.51318359 C-35.88008882 69.18971387 -40.55339428 73.87536776 -45.22230095 78.56554484 C-49.23824675 82.59911007 -53.25997954 86.62684055 -57.28637177 90.64997792 C-59.68814851 93.04994341 -62.08765624 95.4520707 -64.48156548 97.85988617 C-67.15045395 100.54108478 -69.82867511 103.21260099 -72.50952148 105.88183594 C-73.29877518 106.67873337 -74.08802887 107.4756308 -74.90119934 108.29667664 C-75.63432343 109.02278641 -76.36744751 109.74889618 -77.12278748 110.49700928 C-77.75455115 111.1289407 -78.38631483 111.76087212 -79.03722286 112.41195297 C-82.58640341 115.28352994 -86.30289974 116.32515282 -90.8125 116.5 C-91.60269531 116.5515625 -92.39289063 116.603125 -93.20703125 116.65625 C-101.47633443 114.71325289 -108.13805205 106.15434345 -113.8984375 100.3671875 C-114.81460846 99.45292999 -115.73077942 98.53867249 -116.67471313 97.59671021 C-118.5990657 95.67528403 -120.51981024 93.75034359 -122.43798828 91.82275391 C-124.89240144 89.356883 -127.35577418 86.90018841 -129.82187462 84.4460125 C-132.18559755 82.09125542 -134.54167103 79.72890719 -136.8984375 77.3671875 C-137.78171722 76.48795624 -138.66499695 75.60872498 -139.57504272 74.70285034 C-140.38994171 73.88164703 -141.2048407 73.06044373 -142.04443359 72.21435547 C-142.76198822 71.49520966 -143.47954285 70.77606384 -144.21884155 70.03512573 C-148.38903196 65.27032683 -148.43601899 61.07544765 -148.30859375 54.9140625 C-147.88407515 50.9053172 -146.8098375 48.88188461 -144 46 C-140.55767994 43.22871448 -137.38205104 41.75795827 -132.9375 41.5625 C-125.1031541 42.43298288 -120.96859834 46.65903613 -115.7734375 52.109375 C-114.39868269 53.51716657 -113.02367527 54.92471148 -111.6484375 56.33203125 C-109.5000821 58.54897218 -107.35596921 60.7698015 -105.21679688 62.99560547 C-103.14218334 65.14837225 -101.05265207 67.28574038 -98.9609375 69.421875 C-98.32231781 70.09571228 -97.68369812 70.76954956 -97.02572632 71.46380615 C-96.42475128 72.07484192 -95.82377625 72.68587769 -95.20458984 73.31542969 C-94.68085785 73.85931335 -94.15712585 74.40319702 -93.61752319 74.96356201 C-92.0484291 76.21496297 -92.0484291 76.21496297 -90.10091686 75.74466228 C-87.69635218 74.89237314 -86.5582769 73.92602195 -84.76780701 72.12184143 C-84.15241058 71.50912384 -83.53701416 70.89640625 -82.90296936 70.26512146 C-82.23945969 69.58925491 -81.57595001 68.91338837 -80.89233398 68.21704102 C-80.18455811 67.50809692 -79.47678223 66.79915283 -78.74755859 66.06872559 C-76.40670142 63.72067334 -74.07653863 61.36228918 -71.74609375 59.00390625 C-70.12304684 57.37272469 -68.49926252 55.74227656 -66.87477112 54.11253357 C-62.59676043 49.81738795 -58.32739193 45.51375759 -54.06018066 41.20788574 C-47.22814784 34.31670662 -40.38344471 27.43811771 -33.53816414 20.56010246 C-31.14513381 18.15308681 -28.75594581 15.74230811 -26.36729431 13.33094788 C-24.90436953 11.85800082 -23.44136619 10.38513178 -21.97827148 8.91235352 C-21.31273758 8.2385112 -20.64720367 7.56466888 -19.96150208 6.8704071 C-19.04263718 5.94710098 -19.04263718 5.94710098 -18.10520935 5.00514221 C-17.30965968 4.20236516 -17.30965968 4.20236516 -16.49803829 3.3833704 C-11.55778947 -1.17872526 -6.38385548 -0.68489046 0 0 Z " fill="#FDFEFE" transform="translate(325,177)"/>
</svg>
