<?xml version="1.0" encoding="UTF-8"?>
<svg version="1.1" xmlns="http://www.w3.org/2000/svg" width="512" height="512">
<path d="M0 0 C0.96594086 0.00054382 1.93188171 0.00108765 2.92709351 0.00164795 C18.82427694 0.04267209 34.1070568 0.96742637 49.6875 4.375 C51.16669922 4.69645996 51.16669922 4.69645996 52.67578125 5.02441406 C93.62144938 14.2412142 130.47407042 33.4675562 161.6875 61.375 C162.26983398 61.89416992 162.85216797 62.41333984 163.45214844 62.94824219 C169.94369421 68.76215853 176.11336927 74.66154145 181.6875 81.375 C182.46996094 82.24640625 183.25242187 83.1178125 184.05859375 84.015625 C213.00993644 116.51674278 232.16563537 159.5009304 238.6875 202.375 C238.86265137 203.49511475 239.03780273 204.61522949 239.21826172 205.76928711 C240.8222463 217.07945314 241.08675288 228.27504914 241.0625 239.6875 C241.06168427 241.13641129 241.06168427 241.13641129 241.06085205 242.61459351 C240.8903023 308.70398716 213.49496399 367.53512091 167.6875 414.375 C164.46583428 417.5197151 161.13190426 420.47677984 157.6875 423.375 C157.15318359 423.82697754 156.61886719 424.27895508 156.06835938 424.74462891 C122.81841106 452.68615394 81.68871849 471.83379389 38.6875 478.375 C37.56738525 478.55015137 36.44727051 478.72530273 35.29321289 478.90576172 C23.98304686 480.5097463 12.78745086 480.77425288 1.375 480.75 C0.40905914 480.74945618 -0.55688171 480.74891235 -1.55209351 480.74835205 C-17.44927694 480.70732791 -32.7320568 479.78257363 -48.3125 476.375 C-49.29863281 476.16069336 -50.28476563 475.94638672 -51.30078125 475.72558594 C-100.16165776 464.72708589 -148.01688546 438.27169619 -180.3125 399.375 C-181.09496094 398.50359375 -181.87742188 397.6321875 -182.68359375 396.734375 C-211.63493644 364.23325722 -230.79063537 321.2490696 -237.3125 278.375 C-237.48765137 277.25488525 -237.66280273 276.13477051 -237.84326172 274.98071289 C-239.4472463 263.67054686 -239.71175288 252.47495086 -239.6875 241.0625 C-239.68695618 240.09655914 -239.68641235 239.13061829 -239.68585205 238.13540649 C-239.64482791 222.23822306 -238.72007363 206.9554432 -235.3125 191.375 C-235.09819336 190.38886719 -234.88388672 189.40273437 -234.66308594 188.38671875 C-223.66458589 139.52584224 -197.20919619 91.67061454 -158.3125 59.375 C-157.44109375 58.59253906 -156.5696875 57.81007812 -155.671875 57.00390625 C-123.17075722 28.05256356 -80.1865696 8.89686463 -37.3125 2.375 C-36.19238525 2.19984863 -35.07227051 2.02469727 -33.91821289 1.84423828 C-22.60804686 0.2402537 -11.41245086 -0.02425288 0 0 Z " fill="#46CC6B" transform="translate(255.3125,15.625)"/>
<path d="M0 0 C10.6989176 4.91660183 17.09619006 13.4676946 21.5078125 24.17578125 C27.37412575 42.28930987 25.78702814 64.60483485 20.14453125 82.6328125 C19.20662819 86.26616739 19.09362236 89.37773222 19.24609375 93.11328125 C23.35024492 93.14272279 27.45436831 93.16022652 31.55859375 93.17578125 C33.28045898 93.18834961 33.28045898 93.18834961 35.03710938 93.20117188 C41.25668605 93.21879107 47.33386281 92.98402761 53.51928711 92.35131836 C58.46534336 91.91955143 63.408971 91.88856595 68.37109375 91.86328125 C69.39074219 91.84265625 70.41039062 91.82203125 71.4609375 91.80078125 C80.02324944 91.75681559 88.04292766 92.9365459 94.4921875 99.01171875 C108.44884718 115.73484326 111.66363203 137.45222059 111.49609375 158.55078125 C111.48267944 160.46624756 111.48267944 160.46624756 111.46899414 162.42041016 C111.13147058 189.79654385 103.66497048 216.57159346 86.24609375 238.11328125 C85.64410156 238.89058594 85.04210937 239.66789063 84.421875 240.46875 C75.14791588 251.76470441 63.06182558 258.10525915 49.24609375 262.11328125 C48.35140381 262.38253418 47.45671387 262.65178711 46.53491211 262.92919922 C36.63307949 265.58573092 26.97858886 265.58179708 16.80859375 265.48828125 C15.92247406 265.48396088 15.03635437 265.4796405 14.12338257 265.47518921 C0.63520505 265.39802868 -12.50526664 264.82885782 -25.75390625 262.11328125 C-26.56037598 261.95762695 -27.3668457 261.80197266 -28.19775391 261.64160156 C-39.90112329 259.3345435 -51.19879265 255.80692866 -62.50390625 252.05078125 C-63.46973633 251.73051468 -63.46973633 251.73051468 -64.45507812 251.40377808 C-71.73486587 248.97574626 -78.80357427 246.37030911 -85.75390625 243.11328125 C-85.59084991 242.21283081 -85.42779358 241.31238037 -85.25979614 240.38464355 C-84.47855255 234.86785808 -84.63435453 229.33161419 -84.65966797 223.77148438 C-84.66245318 221.22652193 -84.66512323 218.68155935 -84.66769409 216.13659668 C-84.67068635 214.78014608 -84.67376876 213.42369568 -84.6769371 212.06724548 C-84.68538183 207.85571161 -84.6798822 203.64426807 -84.67092896 199.43273926 C-84.66945795 198.72018526 -84.66798694 198.00763125 -84.66647136 197.27348471 C-84.66340108 195.81714111 -84.66028106 194.36079762 -84.65711236 192.90445423 C-84.63596714 183.10856238 -84.622265 173.31297004 -84.65429688 163.51708984 C-84.675846 156.89600554 -84.6726569 150.27544378 -84.64088833 143.65439367 C-84.62506671 140.15568604 -84.62173479 136.65797838 -84.64864731 133.15931702 C-84.6784036 129.25745801 -84.65363564 125.35696357 -84.62451172 121.45507812 C-84.64189896 120.30369858 -84.65928619 119.15231903 -84.67720032 117.96604919 C-84.59080369 112.40417774 -84.3398653 109.0197875 -80.31594849 104.96984863 C-79.14461617 103.99802631 -77.95925528 103.04257761 -76.75390625 102.11328125 C-75.63117709 100.87992678 -74.52225536 99.63349746 -73.44140625 98.36328125 C-70.59662374 95.06461209 -67.69091332 91.83021486 -64.75390625 88.61328125 C-61.90866397 85.49421114 -59.08191045 82.36572734 -56.31640625 79.17578125 C-53.35507006 75.7663942 -50.31233773 72.4353795 -47.25390625 69.11328125 C-43.57434758 65.11522148 -39.92926086 61.09410078 -36.37890625 56.98046875 C-35.22861774 55.658743 -34.0599951 54.35287028 -32.87890625 53.05859375 C-32.26015625 52.37539062 -31.64140625 51.6921875 -31.00390625 50.98828125 C-30.4521875 50.38757813 -29.90046875 49.786875 -29.33203125 49.16796875 C-25.55109271 44.24526163 -24.38324165 40.12624521 -24.34765625 33.95703125 C-24.33682007 33.29167358 -24.32598389 32.62631592 -24.31481934 31.9407959 C-24.28080082 29.83152409 -24.26501656 27.72279026 -24.25390625 25.61328125 C-24.23925535 22.8315207 -24.20545503 20.05094341 -24.16015625 17.26953125 C-24.15306641 16.04041016 -24.14597656 14.81128906 -24.13867188 13.54492188 C-23.56168105 8.39886665 -21.62884956 5.14526567 -18.31640625 1.23828125 C-13.09146644 -2.75497299 -5.93570603 -1.91121315 0 0 Z " fill="#FEFEFE" transform="translate(281.75390625,112.88671875)"/>
<path d="M0 0 C1.06486855 0.89301656 2.12675041 1.7895947 3.1875 2.6875 C3.77917969 3.18636719 4.37085938 3.68523437 4.98046875 4.19921875 C5.64691406 4.79347656 6.31335938 5.38773438 7 6 C7.85461823 6.61129257 8.70923645 7.22258514 9.5897522 7.85240173 C13.28734821 12.68117776 12.66702283 17.23956979 12.58349609 23.16235352 C12.58583252 24.39536194 12.58816895 25.62837036 12.59057617 26.89874268 C12.59191312 30.27316527 12.57102401 33.64605221 12.53990126 37.02023816 C12.51231289 40.5537391 12.51235897 44.08724251 12.50918579 47.62083435 C12.49998842 53.55328325 12.47247729 59.48540916 12.43212891 65.41772461 C12.37529493 73.78146005 12.35297395 82.14503299 12.33684421 90.50893128 C12.3243834 96.30603235 12.30371181 102.10310887 12.2814641 107.90017962 C12.27610483 109.3048147 12.27096806 110.70945065 12.26605177 112.11408734 C12.24953808 116.73180472 12.2235396 121.34939124 12.19287109 125.96704102 C12.18861115 127.13234848 12.1843512 128.29765594 12.17996216 129.49827576 C12.17136169 130.56514618 12.16276123 131.6320166 12.15390015 132.73121643 C12.14832785 133.65757684 12.14275555 134.58393724 12.13701439 135.53836918 C12.00943401 137.8305065 11.6447626 139.80333044 11 142 C11.53004639 142.17305664 12.06009277 142.34611328 12.60620117 142.52441406 C16.7375643 143.88584014 20.84350061 145.29427397 24.92578125 146.796875 C54.02857605 157.42187707 82.46979778 163.17499868 113.375 163.4375 C114.22694946 163.44989716 115.07889893 163.46229431 115.95666504 163.47506714 C136.06923633 163.71766467 155.89475834 159.80657771 172 147 C172.69738281 146.46632813 173.39476562 145.93265625 174.11328125 145.3828125 C179.85001566 140.72658924 183.91721144 135.11567703 188 129 C188.53625 128.20722656 189.0725 127.41445313 189.625 126.59765625 C202.79985175 105.97764088 207.10860666 81.45308349 207.25 57.4375 C207.25942627 56.23061523 207.26885254 55.02373047 207.27856445 53.78027344 C207.23852833 42.65174219 206.31585955 31.68038814 202.625 21.125 C202.191875 19.88621094 201.75875 18.64742187 201.3125 17.37109375 C200.21066056 14.54107161 199.02595398 11.87752622 197.625 9.1875 C196.820625 7.6096875 196.820625 7.6096875 196 6 C196.33 5.34 196.66 4.68 197 4 C198.19882812 5.39798828 198.19882812 5.39798828 199.421875 6.82421875 C205.46666042 13.84926471 211.58059128 20.78655237 217.89501953 27.57055664 C221.0720694 30.98543501 224.17554043 34.44928332 227.2265625 37.9765625 C229.45138092 40.51501171 231.72503319 43.00641776 234 45.5 C237.43264761 49.26350521 240.8155501 53.06129351 244.15625 56.90625 C247.25760235 60.4281247 250.43513333 63.88077022 253.59765625 67.34765625 C255.56941844 69.52460996 257.51365337 71.71838674 259.4375 73.9375 C262.3988351 77.3468858 265.44152486 80.6779431 268.5 84 C272.14414329 87.95862186 275.73913717 91.9517676 279.265625 96.015625 C281.28098763 98.32149035 283.32553876 100.59939131 285.375 102.875 C286.12007813 103.71933594 286.86515625 104.56367188 287.6328125 105.43359375 C289.9843647 108.05208024 289.9843647 108.05208024 292.6796875 110.47265625 C298.85738109 116.39685786 298.85738109 116.39685786 299.2109375 120.37109375 C298.48583029 123.46971855 297.33124815 126.10436634 296 129 C295.37991863 130.47925901 294.76298157 131.95983826 294.1484375 133.44140625 C283.26897031 159.08860541 268.72138759 182.35942255 250 203 C248.9791534 204.14321732 247.9583202 205.2864466 246.9375 206.4296875 C240.97921905 213.04704934 234.82263398 219.25924084 228 225 C227.46568359 225.45197754 226.93136719 225.90395508 226.38085938 226.36962891 C193.64859338 253.87612067 153.32449376 272.82788219 111.05957031 279.640625 C109.19922626 279.96523695 107.35861576 280.39835842 105.5234375 280.84375 C102.31711743 281.47341492 100.19180161 281.71895675 97 281 C92.9990703 278.22692388 89.77906618 274.99347084 86.44384766 271.46923828 C84.31993699 269.30797782 81.99498364 267.44668904 79.625 265.5625 C75.34736049 262.11696616 71.15840091 258.58725383 67 255 C62.87552198 251.44524127 58.72791303 247.93207058 54.5 244.5 C49.65323525 240.56556744 44.91720745 236.51445426 40.18920898 232.43920898 C36.68764698 229.42754991 33.15213443 226.4694105 29.5625 223.5625 C24.45772157 219.42003621 19.50377318 215.11880901 14.54931641 210.79931641 C10.04040674 206.87737896 5.45292983 203.06960885 0.80859375 199.30859375 C-2.5029848 196.58655909 -5.75313059 193.79860269 -9 191 C-13.124643 187.44542508 -17.27207904 183.93207702 -21.5 180.5 C-26.33547665 176.57473072 -31.06064357 172.53328769 -35.77783203 168.46777344 C-41.10889109 163.8830922 -46.53113396 159.41973664 -52 155 C-48.44164384 153.81388128 -45.31194452 153.96771231 -41.62109375 154.078125 C-40.12697541 154.10541521 -38.63283303 154.13141414 -37.13867188 154.15625 C-34.79710424 154.19921007 -32.45680659 154.24939902 -30.1159668 154.32226562 C-20.97081425 154.59435602 -12.64000903 154.8371307 -5 149 C-0.28294462 143.93194281 2.24839284 138.49632727 2.25396729 131.51052856 C2.26242676 129.87463272 2.26242676 129.87463272 2.27105713 128.20568848 C2.26700867 127.01906616 2.26296021 125.83244385 2.25878906 124.60986328 C2.2622937 123.35241302 2.26579834 122.09496277 2.26940918 120.79940796 C2.27851309 117.3571557 2.27499672 113.91502357 2.26865101 110.47276926 C2.26357845 106.86456389 2.26828616 103.25636863 2.27142334 99.64816284 C2.27506026 93.58720051 2.27027206 87.52628695 2.26074219 81.46533203 C2.24986797 74.46881256 2.25337678 67.47240976 2.264395 60.47589314 C2.27348743 54.46043596 2.27474331 48.44501379 2.26951766 42.42955196 C2.26640743 38.8405999 2.26596228 35.25170256 2.27259064 31.66275406 C2.27947022 27.65807505 2.26991945 23.65359523 2.25878906 19.64892578 C2.26283752 18.46635193 2.26688599 17.28377808 2.27105713 16.06536865 C2.24149883 10.31981542 1.96739895 5.41818913 0 0 Z " fill="#179C5F" transform="translate(185,214)"/>
<path d="M0 0 C2.1401497 0.02145025 4.27694427 0.00012118 6.41699219 -0.02539062 C15.65588922 -0.04404734 22.77050942 0.82869059 29.95605469 6.89648438 C34.52573616 12.38010214 37.25494991 16.55783141 37.29745483 23.7502594 C37.3060553 24.83377182 37.31465576 25.91728424 37.32351685 27.03363037 C37.32777679 28.2227301 37.33203674 29.41182983 37.33642578 30.63696289 C37.34869202 32.51547188 37.34869202 32.51547188 37.36120605 34.43193054 C37.38607454 38.58808066 37.40273633 42.74419434 37.41699219 46.90039062 C37.42235374 48.3337244 37.42773125 49.76705811 37.43312454 51.20039177 C37.45475435 57.16673314 37.47348741 63.13307183 37.48474693 69.09944248 C37.50096119 77.63395388 37.5340757 86.16800821 37.59114778 94.70234734 C37.62995047 100.71100689 37.64939206 106.71954477 37.6546675 112.72832626 C37.65830834 116.31256208 37.67019181 119.89631016 37.70277023 123.48040962 C37.73866832 127.48729352 37.734454 131.49320606 37.72705078 135.50024414 C37.74345612 136.67517426 37.75986145 137.85010437 37.77676392 139.06063843 C37.72051641 146.52054847 36.50717409 152.34650111 32.14355469 158.52148438 C25.93919795 164.40122594 20.09535421 166.82600844 11.53417969 166.89257812 C10.80793396 166.9016066 10.08168823 166.91063507 9.33343506 166.91993713 C7.80045667 166.93439861 6.26741713 166.94331615 4.734375 166.94702148 C2.41395261 166.95888013 0.09622619 167.00806558 -2.22363281 167.05859375 C-10.34277453 167.14799776 -17.34661307 166.98955626 -23.85644531 161.52148438 C-27.76750911 157.6448092 -31.54066877 153.66606547 -32.11092091 147.98735332 C-32.11400021 146.54640159 -32.11400021 146.54640159 -32.11714172 145.07633972 C-32.12422653 143.97028885 -32.13131134 142.86423798 -32.13861084 141.72467041 C-32.13613342 140.51575134 -32.13365601 139.30683228 -32.13110352 138.0612793 C-32.13621445 136.78446793 -32.14132538 135.50765656 -32.14659119 134.19215393 C-32.15997878 130.69200329 -32.16055995 127.19196065 -32.15802789 123.69178939 C-32.15695762 120.76700832 -32.16184316 117.84224906 -32.16663331 114.91747266 C-32.17772849 108.01421973 -32.17816639 101.11102121 -32.17211914 94.20776367 C-32.16608373 87.09478 -32.17837922 79.98199436 -32.19968921 72.86904448 C-32.21732789 66.75594105 -32.22330285 60.64290051 -32.22005147 54.52977258 C-32.21824146 50.88152548 -32.22084607 47.23341952 -32.23476601 43.58519554 C-32.24972081 39.51329155 -32.24035447 35.44178799 -32.22875977 31.36987305 C-32.24022537 29.56560349 -32.24022537 29.56560349 -32.25192261 27.72488403 C-32.19709581 19.01340602 -30.84664873 12.69517579 -24.69238281 6.21289062 C-17.71033664 -0.21950511 -9.00679496 -0.10737124 0 0 Z " fill="#FEFEFE" transform="translate(150.8564453125,202.478515625)"/>
<path d="M0 0 C4.0630302 4.00936753 7.98395636 8.13645195 11.875 12.3125 C12.49850342 12.98112061 13.12200684 13.64974121 13.7644043 14.33862305 C17.36561343 18.21144361 20.91845892 22.11465283 24.37109375 26.12109375 C27.8515855 30.13576169 31.43910854 34.05673094 35 38 C43.57173295 47.4921875 43.57173295 47.4921875 47.375 51.875 C50.35917722 55.30333383 53.42231735 58.65579959 56.5 62 C63.24363353 69.34319549 63.24363353 69.34319549 66.125 72.5625 C66.66382813 73.16191406 67.20265625 73.76132813 67.7578125 74.37890625 C69 76 69 76 70 79 C69.08734375 78.83757812 68.1746875 78.67515625 67.234375 78.5078125 C61.92287969 77.75245915 56.6043391 77.85502112 51.25 77.875 C50.2290625 77.87113281 49.208125 77.86726563 48.15625 77.86328125 C42.3190184 77.8706889 36.60935789 78.18192297 30.80371094 78.76416016 C25.70693503 79.19288582 20.61214629 79.22462955 15.5 79.25 C13.89511719 79.2809375 13.89511719 79.2809375 12.2578125 79.3125 C10.72253906 79.32023437 10.72253906 79.32023437 9.15625 79.328125 C8.23650391 79.3374707 7.31675781 79.34681641 6.36914062 79.35644531 C4 79 4 79 2.16992188 77.69042969 C0.49404454 75.26894082 1.01150129 73.30851444 1.4765625 70.5078125 C2.32713682 66.43267284 3.28103754 62.38460834 4.28125 58.34375 C7.92164492 41.4079997 7.92473693 22.34708437 2 6 C1.33195132 4.0004612 0.66486945 2.00059817 0 0 Z " fill="#199D60" transform="translate(299,128)"/>
</svg>
